<svg xmlns="http://www.w3.org/2000/svg" width="400" height="296.095" viewBox="0 0 400 296.095">
  <g id="Grupo_145533" data-name="Grupo 145533" transform="translate(-1020 -3842)">
    <rect id="BG" width="400" height="296.095" rx="14" transform="translate(1020 3842)" fill="#e5e7f2"/>
    <g id="diodos-01" transform="translate(1085.5 3835.47)">
      <g id="background" transform="translate(-0.309 12.186)" opacity="0.15">
        <circle id="Elipse_5855" data-name="Elipse 5855" cx="141.923" cy="141.923" r="141.923" transform="translate(0 283.823) rotate(-89.27)" fill="#93eac2"/>
      </g>
      <g id="illustrations" transform="translate(10.354 6.53)">
        <path id="Trazado_250923" data-name="Trazado 250923" d="M75.14,85.636V75.444L62.634,68.21H44.956L32.45,75.444V85.636l12.506,7.234H62.634Z" transform="translate(-1.677 18.263)" opacity="0.3"/>
        <path id="Trazado_250924" data-name="Trazado 250924" d="M53.681,87.66l1.29-.743V42.11l-1.71.379Z" transform="translate(6.688 7.772)" fill="#a39c95"/>
        <path id="Trazado_250925" data-name="Trazado 250925" d="M52.646,87.66l-1.276-.743V42.11l1.752.5Z" transform="translate(5.928 7.772)" fill="#d8d1c7"/>
        <path id="Trazado_250926" data-name="Trazado 250926" d="M54.075,87.579H52.28V42.773l1.037-.463.757.463Z" transform="translate(6.294 7.852)" fill="#b5afa7"/>
        <path id="Trazado_250927" data-name="Trazado 250927" d="M55.73,42.62V41.583l-1.29-.743H52.646l-1.276.743V42.62l1.276.743H54.44Z" transform="translate(5.928 7.261)" fill="#e6e1dd"/>
        <path id="Trazado_250928" data-name="Trazado 250928" d="M43.135,93.756l1.276-.729V48.22L42.7,48.6Z" transform="translate(2.443 10.228)" fill="#a39c95"/>
        <path id="Trazado_250929" data-name="Trazado 250929" d="M42.1,93.756l-1.29-.729V48.22l1.752.5Z" transform="translate(1.684 10.228)" fill="#d8d1c7"/>
        <path id="Trazado_250930" data-name="Trazado 250930" d="M43.525,93.675H41.73V48.883l1.023-.463.771.463Z" transform="translate(2.053 10.308)" fill="#b5afa7"/>
        <path id="Trazado_250931" data-name="Trazado 250931" d="M45.17,48.726V47.689l-1.276-.729H42.1l-1.29.729v1.037l1.29.743h1.795Z" transform="translate(1.684 9.721)" fill="#e6e1dd"/>
        <path id="Trazado_250932" data-name="Trazado 250932" d="M55.186,57.248l12.506-7.206V44.56L50.98,48.219Z" transform="translate(5.772 8.757)" fill="#403531"/>
        <path id="Trazado_250933" data-name="Trazado 250933" d="M44.956,57.248,32.45,50.042V44.56l17.2,4.851Z" transform="translate(-1.677 8.757)" fill="#685750"/>
        <path id="Trazado_250934" data-name="Trazado 250934" d="M59.049,56.476H41.37V51.008L51.464,46.48l7.585,4.528Z" transform="translate(1.909 9.528)" fill="#544540"/>
        <path id="Trazado_250935" data-name="Trazado 250935" d="M75.14,49.56V39.354L62.634,32.12H44.956L32.45,39.354V49.56l12.506,7.22H62.634Z" transform="translate(-1.677 3.756)" fill="#836e69"/>
        <path id="Trazado_250936" data-name="Trazado 250936" d="M54.353,60.438l11.118-6.421V17.58L50.61,20.833Z" transform="translate(5.623 -2.088)" fill="#403531"/>
        <path id="Trazado_250937" data-name="Trazado 250937" d="M45.254,60.438l-11.1-6.421V17.58L49.431,21.9Z" transform="translate(-0.994 -2.088)" fill="#685750"/>
        <path id="Trazado_250938" data-name="Trazado 250938" d="M57.786,59.751H42.07V23.314l8.987-4.024,6.729,4.024Z" transform="translate(2.19 -1.401)" fill="#544540"/>
        <path id="Trazado_250939" data-name="Trazado 250939" d="M72.087,22.022V12.951L60.97,6.53H45.254l-11.1,6.421v9.071l11.1,6.421H60.97Z" transform="translate(-0.994 -6.53)" fill="#836e69"/>
        <path id="Trazado_250940" data-name="Trazado 250940" d="M67.293,13.233v1.178H36.8V13.233L45.716,8.06H58.362Z" transform="translate(0.072 -5.915)" fill="#403531"/>
        <path id="Trazado_250941" data-name="Trazado 250941" d="M67.293,14.077V20.19l-8.931,5.159H45.716L36.8,20.19V14.077L45.716,8.89H58.362Z" transform="translate(0.072 -5.581)" fill="#d8d1c7"/>
        <path id="Trazado_250942" data-name="Trazado 250942" d="M49.6,98.518V89.167L38.147,82.55H21.954L10.5,89.167v9.351l11.454,6.617H38.147Z" transform="translate(-10.5 24.027)" opacity="0.3"/>
        <path id="Trazado_250943" data-name="Trazado 250943" d="M25.5,97.778l1.164-.673V56.07l-1.556.336Z" transform="translate(-4.627 13.383)" fill="#a39c95"/>
        <path id="Trazado_250944" data-name="Trazado 250944" d="M24.548,97.778l-1.178-.673V56.07l1.612.449Z" transform="translate(-5.327 13.383)" fill="#d8d1c7"/>
        <path id="Trazado_250945" data-name="Trazado 250945" d="M25.864,97.706H24.21V56.671l.939-.421.715.421Z" transform="translate(-4.989 13.456)" fill="#b5afa7"/>
        <path id="Trazado_250946" data-name="Trazado 250946" d="M27.366,56.536v-.953L26.2,54.91H24.548l-1.178.673v.953l1.178.673H26.2Z" transform="translate(-5.327 12.917)" fill="#e6e1dd"/>
        <path id="Trazado_250947" data-name="Trazado 250947" d="M31.533,106.832l1.178-.673V65.11l-1.57.35Z" transform="translate(-2.203 17.017)" fill="#a39c95"/>
        <path id="Trazado_250948" data-name="Trazado 250948" d="M30.574,106.832l-1.164-.673V65.11l1.612.463Z" transform="translate(-2.899 17.017)" fill="#d8d1c7"/>
        <path id="Trazado_250949" data-name="Trazado 250949" d="M31.894,106.76H30.24V65.725l.939-.435.715.435Z" transform="translate(-2.565 17.089)" fill="#b5afa7"/>
        <path id="Trazado_250950" data-name="Trazado 250950" d="M33.406,65.576v-.939l-1.178-.687H30.574l-1.164.687v.939l1.164.687h1.654Z" transform="translate(-2.899 16.551)" fill="#e6e1dd"/>
        <path id="Trazado_250951" data-name="Trazado 250951" d="M15.823,103.382,17,102.71V61.66l-1.57.35Z" transform="translate(-8.518 15.63)" fill="#a39c95"/>
        <path id="Trazado_250952" data-name="Trazado 250952" d="M14.874,103.382l-1.164-.673V61.66l1.6.463Z" transform="translate(-9.21 15.63)" fill="#d8d1c7"/>
        <path id="Trazado_250953" data-name="Trazado 250953" d="M16.18,103.31H14.54V62.261l.939-.421.7.421Z" transform="translate(-8.876 15.703)" fill="#b5afa7"/>
        <path id="Trazado_250954" data-name="Trazado 250954" d="M17.692,62.126v-.953L16.514,60.5h-1.64l-1.164.673v.953l1.164.673h1.64Z" transform="translate(-9.21 15.164)" fill="#e6e1dd"/>
        <path id="Trazado_250955" data-name="Trazado 250955" d="M31.325,72.5l11.454-6.6V60.88L27.47,64.231Z" transform="translate(-3.679 15.317)" fill="#0a0808"/>
        <path id="Trazado_250956" data-name="Trazado 250956" d="M21.954,72.5,10.5,65.9V60.88l15.744,4.444Z" transform="translate(-10.5 15.317)" fill="#362c29"/>
        <path id="Trazado_250957" data-name="Trazado 250957" d="M34.863,71.8H18.67V66.794l9.253-4.164,6.94,4.164Z" transform="translate(-7.216 16.02)" fill="#211a1a"/>
        <path id="Trazado_250958" data-name="Trazado 250958" d="M49.6,65.462V56.111L38.147,49.48H21.954L10.5,56.111v9.351L21.954,72.08H38.147Z" transform="translate(-10.5 10.734)" fill="#574943"/>
        <path id="Trazado_250959" data-name="Trazado 250959" d="M30.565,75.429l10.178-5.874V36.16L27.13,39.132Z" transform="translate(-3.815 5.38)" fill="#0a0808"/>
        <path id="Trazado_250960" data-name="Trazado 250960" d="M22.228,75.429,12.05,69.555V36.16l14.006,3.954Z" transform="translate(-9.877 5.38)" fill="#362c29"/>
        <path id="Trazado_250961" data-name="Trazado 250961" d="M33.708,74.8H19.31V41.417l8.23-3.687,6.169,3.687Z" transform="translate(-6.959 6.011)" fill="#211a1a"/>
        <path id="Trazado_250962" data-name="Trazado 250962" d="M46.8,40.228V31.914L36.626,26.04h-14.4L12.05,31.914v8.314l10.178,5.888h14.4Z" transform="translate(-9.877 1.312)" fill="#574943"/>
        <path id="Trazado_250963" data-name="Trazado 250963" d="M41.884,32.208v1.164l-7.935-1.346H22.705L14.77,33.372V32.208l7.935-4.6H33.949Z" transform="translate(-8.784 1.943)" fill="#0a0808"/>
        <path id="Trazado_250964" data-name="Trazado 250964" d="M41.884,33.034v5.3l-7.935,4.612H22.705L14.77,38.334v-5.3l7.935-4.584H33.949Z" transform="translate(-8.784 2.281)" fill="#d8d1c7"/>
        <path id="Trazado_250965" data-name="Trazado 250965" d="M138.54,85.616,108.356,68.19,66.718,92.22l6.155,3.547L34.15,118.128l3.07,1.78L75.957,97.547l11.72,6.771L48.969,126.666l3.07,1.78L90.747,106.1l6.169,3.547Z" transform="translate(-0.994 18.255)" opacity="0.3"/>
        <path id="Trazado_250966" data-name="Trazado 250966" d="M109.8,57.371,98.678,50.95,67.12,69.176,77.368,80.419Z" transform="translate(12.259 11.325)" fill="#574943"/>
        <path id="Trazado_250967" data-name="Trazado 250967" d="M113.326,65.24l.014,12.828L81.767,96.294,77.87,80.9Z" transform="translate(16.58 17.069)" fill="#0a0808"/>
        <path id="Trazado_250968" data-name="Trazado 250968" d="M106.64,55.53l7.851,13.613L82.947,87.355,74.97,81.593l.126-7.837Z" transform="translate(15.415 13.166)" fill="#211a1a"/>
        <path id="Trazado_250969" data-name="Trazado 250969" d="M69.371,63.95,61.52,68.478V81.32l7.851,13.613L80.5,101.34l7.837-4.528.014-12.842L80.5,70.371Z" transform="translate(10.008 16.551)" fill="#4290b8"/>
        <path id="Trazado_250970" data-name="Trazado 250970" d="M80.934,69.254,68.443,62.02,63.69,64.768,75.214,77.414Z" transform="translate(10.881 15.775)" fill="#574943"/>
        <path id="Trazado_250971" data-name="Trazado 250971" d="M84.921,78.144V92.57l-4.753,2.748L75.78,77.99Z" transform="translate(15.74 22.194)" fill="#0a0808"/>
        <path id="Trazado_250972" data-name="Trazado 250972" d="M77.385,67.18l8.846,15.309-4.739,2.734L72.52,78.732l.126-8.818Z" transform="translate(14.43 17.849)" fill="#211a1a"/>
        <path id="Trazado_250973" data-name="Trazado 250973" d="M66.226,63.98,57.38,69.069V83.523l8.846,15.309,12.506,7.22,8.832-5.1.014-14.44L78.732,71.2Z" transform="translate(8.344 16.563)" fill="#362c29"/>
        <path id="Trazado_250974" data-name="Trazado 250974" d="M76.55,72.8l-9.926-5.72-7.01,4.052L59.6,82.586l7.024,12.141,9.926,5.734,7.01-4.052V84.955Z" transform="translate(9.236 17.809)" fill="#836e69"/>
        <path id="Trazado_250975" data-name="Trazado 250975" d="M75.208,74.949l-1.276-.729L35.14,96.609,36.3,97.9Z" transform="translate(-0.596 20.679)" fill="#e6e1dd"/>
        <path id="Trazado_250976" data-name="Trazado 250976" d="M75.611,75.86v1.458L36.8,99.721l-.435-1.766Z" transform="translate(-0.101 21.338)" fill="#a39c95"/>
        <path id="Trazado_250977" data-name="Trazado 250977" d="M74.85,74.74l.9,1.57L36.955,98.7l-.925-.659.014-.9Z" transform="translate(-0.238 20.888)" fill="#b5afa7"/>
        <path id="Trazado_250978" data-name="Trazado 250978" d="M35.4,90.19l-.911.533v1.458l.911,1.57,1.262.729.9-.519.014-1.472-.911-1.556Z" transform="translate(-0.857 27.098)" fill="#d8d1c7"/>
        <path id="Trazado_250979" data-name="Trazado 250979" d="M85.782,81.043,84.506,80.3,45.7,102.7l1.178,1.29Z" transform="translate(3.649 23.123)" fill="#e6e1dd"/>
        <path id="Trazado_250980" data-name="Trazado 250980" d="M86.181,81.94v1.472l-38.792,22.4-.449-1.766Z" transform="translate(4.148 23.782)" fill="#a39c95"/>
        <path id="Trazado_250981" data-name="Trazado 250981" d="M85.42,80.83l.9,1.556-38.792,22.4-.925-.659.014-.9Z" transform="translate(4.011 23.336)" fill="#b5afa7"/>
        <path id="Trazado_250982" data-name="Trazado 250982" d="M45.957,96.28l-.9.519v1.472l.9,1.57,1.276.729.911-.519V98.579l-.911-1.556Z" transform="translate(3.392 29.546)" fill="#d8d1c7"/>
        <path id="Trazado_250983" data-name="Trazado 250983" d="M202.661,118.563V109.8l-10.739-6.211H176.739L166,109.8v8.762l10.739,6.2h15.183Z" transform="translate(52.006 32.485)" opacity="0.3"/>
        <path id="Trazado_250984" data-name="Trazado 250984" d="M184.234,120.281l1.094-.631V81.18l-1.458.308Z" transform="translate(59.189 23.477)" fill="#a39c95"/>
        <path id="Trazado_250985" data-name="Trazado 250985" d="M183.344,120.281l-1.094-.631V81.18l1.5.421Z" transform="translate(58.537 23.477)" fill="#d8d1c7"/>
        <path id="Trazado_250986" data-name="Trazado 250986" d="M184.572,120.216H183.03V81.747l.883-.407.659.407Z" transform="translate(58.851 23.541)" fill="#b5afa7"/>
        <path id="Trazado_250987" data-name="Trazado 250987" d="M185.979,81.622v-.9l-1.094-.645h-1.542l-1.094.645v.9l1.094.631h1.542Z" transform="translate(58.537 23.035)" fill="#e6e1dd"/>
        <path id="Trazado_250988" data-name="Trazado 250988" d="M175.164,125.535l1.094-.631V86.42l-1.458.322Z" transform="translate(55.543 25.583)" fill="#a39c95"/>
        <path id="Trazado_250989" data-name="Trazado 250989" d="M174.274,125.535l-1.094-.631V86.42l1.5.435Z" transform="translate(54.892 25.583)" fill="#d8d1c7"/>
        <path id="Trazado_250990" data-name="Trazado 250990" d="M175.5,125.466H173.96V87l.883-.407L175.5,87Z" transform="translate(55.205 25.651)" fill="#b5afa7"/>
        <path id="Trazado_250991" data-name="Trazado 250991" d="M176.909,86.858v-.883l-1.094-.645h-1.542l-1.094.645v.883l1.094.645h1.542Z" transform="translate(54.892 25.145)" fill="#e6e1dd"/>
        <path id="Trazado_250992" data-name="Trazado 250992" d="M185.531,94.177l10.739-6.2V83.27L181.9,86.41Z" transform="translate(58.397 24.317)" fill="#8a1c14"/>
        <path id="Trazado_250993" data-name="Trazado 250993" d="M176.739,94.177,166,87.981V83.27l14.763,4.178Z" transform="translate(52.006 24.317)" fill="#c84030"/>
        <path id="Trazado_250994" data-name="Trazado 250994" d="M188.843,93.514H173.66v-4.7l8.664-3.9,6.519,3.9Z" transform="translate(55.085 24.98)" fill="#ab281f"/>
        <path id="Trazado_250995" data-name="Trazado 250995" d="M202.661,87.563V78.8L191.922,72.59H176.739L166,78.8v8.762l10.739,6.211h15.183Z" transform="translate(52.006 20.024)" fill="#fa5c52"/>
        <path id="Trazado_250996" data-name="Trazado 250996" d="M184.815,96.916l9.533-5.51V60.1L181.59,62.89Z" transform="translate(58.272 15.003)" fill="#8a1c14"/>
        <path id="Trazado_250997" data-name="Trazado 250997" d="M176.983,96.916l-9.533-5.51V60.1l13.122,3.715Z" transform="translate(52.588 15.003)" fill="#ab281f"/>
        <path id="Trazado_250998" data-name="Trazado 250998" d="M187.765,96.325H174.25V65.019l7.725-3.449,5.79,3.449Z" transform="translate(55.322 15.594)" fill="#8a1c14"/>
        <path id="Trazado_250999" data-name="Trazado 250999" d="M184.96,55.23l8.033,9.561V57.01l-5.944-8.58Z" transform="translate(59.627 10.312)" fill="#8a1c14"/>
        <path id="Trazado_251000" data-name="Trazado 251000" d="M185.136,68.886l9.533-5.51L188.725,51.95h-3.253l-4.683,2.229Z" transform="translate(57.951 11.727)" fill="#ab281f"/>
        <path id="Trazado_251001" data-name="Trazado 251001" d="M187.765,68.247H174.25l.757-14.707,10.29,1.276Z" transform="translate(55.322 12.366)" fill="#ab281f"/>
        <path id="Trazado_251002" data-name="Trazado 251002" d="M175.5,55.23l-8.047,9.561V57.01l5.944-8.58Z" transform="translate(52.588 10.312)" fill="#ab281f"/>
        <path id="Trazado_251003" data-name="Trazado 251003" d="M176.983,68.886l-9.533-5.51,5.944-11.426h3.267l2.8,3.5Z" transform="translate(52.588 11.727)" fill="#c84030"/>
        <path id="Trazado_251004" data-name="Trazado 251004" d="M186.327,45.93h-8.566l-6.071,3.5V54.37l6.071,3.5h8.566l6.056-3.5V49.435Z" transform="translate(54.293 9.307)" fill="#fa5c52"/>
        <path id="Trazado_251005" data-name="Trazado 251005" d="M230.011,136.783v-8.776l-10.739-6.2H204.089l-10.739,6.2v8.776l10.739,6.2h15.183Z" transform="translate(62.999 39.808)" opacity="0.3"/>
        <path id="Trazado_251006" data-name="Trazado 251006" d="M211.585,138.5l1.094-.631V99.4l-1.458.308Z" transform="translate(70.182 30.8)" fill="#a39c95"/>
        <path id="Trazado_251007" data-name="Trazado 251007" d="M210.694,138.5l-1.094-.631V99.4l1.5.421Z" transform="translate(69.531 30.8)" fill="#d8d1c7"/>
        <path id="Trazado_251008" data-name="Trazado 251008" d="M211.922,138.436H210.38V99.967l.883-.407.659.407Z" transform="translate(69.845 30.865)" fill="#b5afa7"/>
        <path id="Trazado_251009" data-name="Trazado 251009" d="M213.329,99.838v-.9l-1.094-.631h-1.542l-1.094.631v.9l1.094.631h1.542Z" transform="translate(69.531 30.362)" fill="#e6e1dd"/>
        <path id="Trazado_251010" data-name="Trazado 251010" d="M202.529,143.755l1.094-.631V104.64l-1.472.322Z" transform="translate(66.537 32.907)" fill="#a39c95"/>
        <path id="Trazado_251011" data-name="Trazado 251011" d="M201.624,143.755l-1.094-.631V104.64l1.514.421Z" transform="translate(65.885 32.907)" fill="#d8d1c7"/>
        <path id="Trazado_251012" data-name="Trazado 251012" d="M202.866,143.686H201.31V105.2l.883-.393.673.393Z" transform="translate(66.199 32.975)" fill="#b5afa7"/>
        <path id="Trazado_251013" data-name="Trazado 251013" d="M204.273,105.078v-.9l-1.094-.631h-1.556l-1.094.631v.9l1.094.631h1.556Z" transform="translate(65.885 32.469)" fill="#e6e1dd"/>
        <path id="Trazado_251014" data-name="Trazado 251014" d="M212.877,112.4l10.739-6.2V101.49l-14.356,3.14Z" transform="translate(69.395 31.641)" fill="#86943f"/>
        <path id="Trazado_251015" data-name="Trazado 251015" d="M204.089,112.4l-10.739-6.2V101.49l14.763,4.178Z" transform="translate(62.999 31.641)" fill="#b4c342"/>
        <path id="Trazado_251016" data-name="Trazado 251016" d="M216.193,111.734H201.01v-4.7l8.664-3.9,6.519,3.9Z" transform="translate(66.078 32.304)" fill="#9aab43"/>
        <path id="Trazado_251017" data-name="Trazado 251017" d="M230.011,105.783V97.021L219.272,90.81H204.089L193.35,97.021v8.762l10.739,6.211h15.183Z" transform="translate(62.999 27.348)" fill="#dde65c"/>
        <path id="Trazado_251018" data-name="Trazado 251018" d="M212.165,115.122l9.547-5.5V78.32L208.94,81.11Z" transform="translate(69.266 22.327)" fill="#86943f"/>
        <path id="Trazado_251019" data-name="Trazado 251019" d="M204.347,115.122l-9.547-5.5V78.32l13.122,3.715Z" transform="translate(63.582 22.327)" fill="#9aab43"/>
        <path id="Trazado_251020" data-name="Trazado 251020" d="M215.111,114.531h-13.5V83.253l7.711-3.463,5.79,3.463Z" transform="translate(66.319 22.918)" fill="#86943f"/>
        <path id="Trazado_251021" data-name="Trazado 251021" d="M212.31,73.454l8.047,9.561V75.234l-5.944-8.594Z" transform="translate(70.62 17.632)" fill="#86943f"/>
        <path id="Trazado_251022" data-name="Trazado 251022" d="M212.482,87.12l9.547-5.524L216.085,70.17h-3.267l-4.669,2.215Z" transform="translate(68.948 19.051)" fill="#9aab43"/>
        <path id="Trazado_251023" data-name="Trazado 251023" d="M215.111,86.485h-13.5l.743-14.735,10.29,1.29Z" transform="translate(66.319 19.686)" fill="#9aab43"/>
        <path id="Trazado_251024" data-name="Trazado 251024" d="M202.847,73.454,194.8,83.015V75.234l5.958-8.594Z" transform="translate(63.582 17.632)" fill="#9aab43"/>
        <path id="Trazado_251025" data-name="Trazado 251025" d="M204.347,87.12,194.8,81.6l5.958-11.426h3.253l2.8,3.5Z" transform="translate(63.582 19.051)" fill="#b4c342"/>
        <path id="Trazado_251026" data-name="Trazado 251026" d="M213.672,64.15h-8.566l-6.056,3.491V72.59l6.056,3.5h8.566l6.071-3.5V67.641Z" transform="translate(65.29 16.631)" fill="#dde65c"/>
        <path id="Trazado_251027" data-name="Trazado 251027" d="M175.481,136.7v-8.762l-10.739-6.211H149.559l-10.739,6.211V136.7l10.739,6.211h15.183Z" transform="translate(41.08 39.776)" opacity="0.3"/>
        <path id="Trazado_251028" data-name="Trazado 251028" d="M157.055,138.435l1.108-.631V99.32l-1.472.322Z" transform="translate(48.263 30.768)" fill="#a39c95"/>
        <path id="Trazado_251029" data-name="Trazado 251029" d="M156.164,138.435l-1.094-.631V99.32l1.5.421Z" transform="translate(47.612 30.768)" fill="#d8d1c7"/>
        <path id="Trazado_251030" data-name="Trazado 251030" d="M157.392,138.366H155.85V99.883l.883-.393.659.393Z" transform="translate(47.926 30.837)" fill="#b5afa7"/>
        <path id="Trazado_251031" data-name="Trazado 251031" d="M158.813,99.758v-.9l-1.108-.631h-1.542l-1.094.631v.9l1.094.631h1.542Z" transform="translate(47.612 30.33)" fill="#e6e1dd"/>
        <path id="Trazado_251032" data-name="Trazado 251032" d="M147.985,143.671l1.094-.631V104.57l-1.458.322Z" transform="translate(44.617 32.879)" fill="#a39c95"/>
        <path id="Trazado_251033" data-name="Trazado 251033" d="M147.108,143.671,146,143.04V104.57l1.514.421Z" transform="translate(43.966 32.879)" fill="#d8d1c7"/>
        <path id="Trazado_251034" data-name="Trazado 251034" d="M148.318,143.6H146.79v-38.47l.869-.393.659.393Z" transform="translate(44.284 32.947)" fill="#b5afa7"/>
        <path id="Trazado_251035" data-name="Trazado 251035" d="M149.729,105.008v-.9l-1.094-.631h-1.528l-1.108.631v.9l1.108.631h1.528Z" transform="translate(43.966 32.44)" fill="#e6e1dd"/>
        <path id="Trazado_251036" data-name="Trazado 251036" d="M158.347,112.313l10.739-6.183V101.42l-14.356,3.14Z" transform="translate(47.475 31.612)" fill="#2d5a78"/>
        <path id="Trazado_251037" data-name="Trazado 251037" d="M149.559,112.313l-10.739-6.183V101.42l14.763,4.178Z" transform="translate(41.08 31.612)" fill="#428aa8"/>
        <path id="Trazado_251038" data-name="Trazado 251038" d="M161.663,111.65H146.48v-4.7l8.664-3.883,6.519,3.883Z" transform="translate(44.159 32.276)" fill="#377691"/>
        <path id="Trazado_251039" data-name="Trazado 251039" d="M175.481,105.713V96.951L164.742,90.74H149.559L138.82,96.951v8.762l10.739,6.2h15.183Z" transform="translate(41.08 27.319)" fill="#65c6e5"/>
        <path id="Trazado_251040" data-name="Trazado 251040" d="M157.635,115.052l9.533-5.5V78.25L154.41,81.04Z" transform="translate(47.347 22.299)" fill="#2d5a78"/>
        <path id="Trazado_251041" data-name="Trazado 251041" d="M149.813,115.052l-9.533-5.5V78.25l13.108,3.7Z" transform="translate(41.667 22.299)" fill="#377691"/>
        <path id="Trazado_251042" data-name="Trazado 251042" d="M160.581,114.465h-13.5V83.173l7.711-3.463,5.79,3.463Z" transform="translate(44.4 22.886)" fill="#2d5a78"/>
        <path id="Trazado_251043" data-name="Trazado 251043" d="M157.78,73.37l8.033,9.575V75.15l-5.944-8.58Z" transform="translate(48.701 17.604)" fill="#2d5a78"/>
        <path id="Trazado_251044" data-name="Trazado 251044" d="M157.952,87.036l9.533-5.51L161.541,70.1h-3.253l-4.669,2.215Z" transform="translate(47.029 19.023)" fill="#377691"/>
        <path id="Trazado_251045" data-name="Trazado 251045" d="M160.581,86.4h-13.5l.743-14.721,10.29,1.29Z" transform="translate(44.4 19.658)" fill="#377691"/>
        <path id="Trazado_251046" data-name="Trazado 251046" d="M148.313,73.37l-8.033,9.575V75.15l5.944-8.58Z" transform="translate(41.667 17.604)" fill="#377691"/>
        <path id="Trazado_251047" data-name="Trazado 251047" d="M149.813,87.036l-9.533-5.51L146.224,70.1h3.253l2.8,3.5Z" transform="translate(41.667 19.023)" fill="#428aa8"/>
        <path id="Trazado_251048" data-name="Trazado 251048" d="M159.142,64.07h-8.566l-6.057,3.5v4.949l6.057,3.5h8.566l6.056-3.5V67.575Z" transform="translate(43.371 16.599)" fill="#65c6e5"/>
        <path id="Trazado_251049" data-name="Trazado 251049" d="M117.927,166.713l45.241-26.119-3.589-2.075-45.255,26.133L103.641,158.5,47.814,190.729l10.669,6.155L13.27,223l3.589,2.075,45.213-26.119,11.5,6.631,55.826-32.217Z" transform="translate(-9.387 46.525)" opacity="0.3"/>
        <path id="Trazado_251050" data-name="Trazado 251050" d="M132.837,128.045l-1.472-.855L86.11,153.309l1.374,1.5Z" transform="translate(19.893 41.971)" fill="#e6e1dd"/>
        <path id="Trazado_251051" data-name="Trazado 251051" d="M133.31,129.1v1.71L88.069,156.929l-.519-2.047Z" transform="translate(20.471 42.739)" fill="#a39c95"/>
        <path id="Trazado_251052" data-name="Trazado 251052" d="M132.415,127.8l1.051,1.823L88.225,155.741l-1.065-.771.014-1.051Z" transform="translate(20.315 42.216)" fill="#b5afa7"/>
        <path id="Trazado_251053" data-name="Trazado 251053" d="M86.411,145.82l-1.051.6v1.724l1.051,1.823,1.486.841,1.051-.6V148.5L87.9,146.675Z" transform="translate(19.591 49.46)" fill="#d8d1c7"/>
        <path id="Trazado_251054" data-name="Trazado 251054" d="M109.785,140.839,99.13,134.67,43.29,166.915l9.828,10.8Z" transform="translate(2.68 44.978)" fill="#fbe979"/>
        <path id="Trazado_251055" data-name="Trazado 251055" d="M113.183,148.38v12.309l-55.84,32.245L53.6,178.158Z" transform="translate(6.825 50.489)" fill="#cc934c"/>
        <path id="Trazado_251056" data-name="Trazado 251056" d="M106.758,139.07l7.543,13.052L58.475,184.353,50.82,178.83l.112-7.529Z" transform="translate(5.707 46.746)" fill="#d6a950"/>
        <rect id="Rectángulo_43900" data-name="Rectángulo 43900" width="20.707" height="2.467" transform="translate(60.403 219.331) rotate(-29.87)" fill="#836e69"/>
        <path id="Trazado_251057" data-name="Trazado 251057" d="M45.457,157.67l-7.543,4.346L37.9,174.339l7.543,13.066,10.683,6.155,7.529-4.36.014-12.323-7.543-13.052Z" transform="translate(0.514 54.223)" fill="#e3bd5e"/>
        <path id="Trazado_251058" data-name="Trazado 251058" d="M54.557,164.983l-8.818-5.1-6.239,3.6v10.192l6.225,10.8,8.832,5.089,6.225-3.589.014-10.192Z" transform="translate(1.157 55.111)" fill="#836e69"/>
        <path id="Trazado_251059" data-name="Trazado 251059" d="M60.747,169.665l-1.486-.855L14.02,194.929l1.374,1.514Z" transform="translate(-9.085 58.701)" fill="#e6e1dd"/>
        <path id="Trazado_251060" data-name="Trazado 251060" d="M61.22,170.72v1.71L15.979,198.563,15.46,196.5Z" transform="translate(-8.506 59.469)" fill="#a39c95"/>
        <path id="Trazado_251061" data-name="Trazado 251061" d="M60.325,169.42l1.051,1.823L16.135,197.375,15.07,196.6l.014-1.051Z" transform="translate(-8.663 58.946)" fill="#b5afa7"/>
        <path id="Trazado_251062" data-name="Trazado 251062" d="M14.321,187.44l-1.051.617v1.71l1.051,1.823,1.486.855,1.051-.6v-1.71l-1.051-1.823Z" transform="translate(-9.387 66.189)" fill="#d8d1c7"/>
        <path id="Trazado_251063" data-name="Trazado 251063" d="M102.725,192.014l31.8-18.366L132,172.19l-31.811,18.38-7.515-4.332L53.432,208.893l7.5,4.332L29.15,231.577l2.524,1.458,31.8-18.352,8.061,4.655,39.255-22.656Z" transform="translate(-3.003 60.059)" opacity="0.3"/>
        <path id="Trazado_251064" data-name="Trazado 251064" d="M113.208,164.833l-1.065-.6L80.36,182.582l.953,1.051Z" transform="translate(17.581 56.86)" fill="#e6e1dd"/>
        <path id="Trazado_251065" data-name="Trazado 251065" d="M113.535,165.57v1.206l-31.8,18.352-.379-1.444Z" transform="translate(17.983 57.398)" fill="#a39c95"/>
        <path id="Trazado_251066" data-name="Trazado 251066" d="M112.915,164.66l.729,1.276-31.8,18.352-.757-.533.014-.743Z" transform="translate(17.875 57.033)" fill="#b5afa7"/>
        <path id="Trazado_251067" data-name="Trazado 251067" d="M80.573,177.32l-.743.435v1.206l.743,1.276,1.037.6.743-.435V179.2l-.743-1.276Z" transform="translate(17.368 62.122)" fill="#d8d1c7"/>
        <path id="Trazado_251068" data-name="Trazado 251068" d="M96.991,173.822l-7.486-4.332L50.25,192.146l6.912,7.585Z" transform="translate(5.478 58.974)" fill="#fff"/>
        <path id="Trazado_251069" data-name="Trazado 251069" d="M99.391,179.12v8.664l-39.255,22.67-2.636-10.4Z" transform="translate(8.392 62.845)" fill="#d1d1d1"/>
        <path id="Trazado_251070" data-name="Trazado 251070" d="M94.861,172.58l5.313,9.169L60.92,204.4l-5.37-3.869.07-5.3Z" transform="translate(7.609 60.216)" fill="#e0dedc"/>
        <path id="Trazado_251071" data-name="Trazado 251071" d="M70.1,184.19l.869,1.514-12.6,7.262L57.5,191.48Z" transform="translate(8.392 64.883)" fill="#939598"/>
        <path id="Trazado_251072" data-name="Trazado 251072" d="M51.769,185.65l-5.3,3.056v8.664l5.3,9.183,7.5,4.318,5.3-3.042v-8.678l-5.3-9.169Z" transform="translate(3.959 65.47)" fill="#f4efe9"/>
        <path id="Trazado_251073" data-name="Trazado 251073" d="M58.175,190.785l-6.211-3.575-4.374,2.524V196.9l4.374,7.6,6.211,3.575,4.374-2.538.014-7.164Z" transform="translate(4.409 66.097)" fill="#836e69"/>
        <path id="Trazado_251074" data-name="Trazado 251074" d="M62.528,194.079l-1.037-.589L29.68,211.842l.967,1.051Z" transform="translate(-2.79 68.621)" fill="#e6e1dd"/>
        <path id="Trazado_251075" data-name="Trazado 251075" d="M62.851,194.83v1.206l-31.8,18.352-.365-1.444Z" transform="translate(-2.384 69.16)" fill="#a39c95"/>
        <path id="Trazado_251076" data-name="Trazado 251076" d="M62.235,193.91l.729,1.29-31.8,18.366-.757-.547.028-.743Z" transform="translate(-2.497 68.79)" fill="#b5afa7"/>
        <path id="Trazado_251077" data-name="Trazado 251077" d="M29.893,206.58,29.15,207v1.206l.743,1.29,1.051.6.729-.435v-1.192l-.729-1.29Z" transform="translate(-3.003 73.883)" fill="#d8d1c7"/>
        <path id="Trazado_251078" data-name="Trazado 251078" d="M179.912,182.73,218.69,160.34l-3.084-1.781-38.792,22.4-9.141-5.285-47.863,27.633,9.141,5.285L90.2,230.971l3.07,1.78,38.764-22.389,9.856,5.692,47.849-27.619Z" transform="translate(21.537 54.581)" opacity="0.3"/>
        <path id="Trazado_251079" data-name="Trazado 251079" d="M192.694,149.579l-1.276-.729L152.64,171.239l1.178,1.29Z" transform="translate(46.635 50.678)" fill="#e6e1dd"/>
        <path id="Trazado_251080" data-name="Trazado 251080" d="M193.1,150.48v1.472l-38.778,22.389-.449-1.766Z" transform="translate(47.13 51.333)" fill="#a39c95"/>
        <path id="Trazado_251081" data-name="Trazado 251081" d="M192.332,149.37l.9,1.556-38.778,22.389-.911-.659v-.9Z" transform="translate(46.997 50.887)" fill="#b5afa7"/>
        <path id="Trazado_251082" data-name="Trazado 251082" d="M152.9,164.82l-.911.519v1.472l.911,1.556,1.262.729.911-.519v-1.472l-.911-1.556Z" transform="translate(46.374 57.097)" fill="#d8d1c7"/>
        <path id="Trazado_251083" data-name="Trazado 251083" d="M172.934,160.545l-9.141-5.285L115.93,182.893l8.426,9.253Z" transform="translate(31.879 53.254)" fill="#d1d3d4"/>
        <path id="Trazado_251084" data-name="Trazado 251084" d="M175.844,167.01v10.557L127.994,205.2l-3.225-12.66Z" transform="translate(35.433 57.977)" fill="#939598"/>
        <path id="Trazado_251085" data-name="Trazado 251085" d="M170.337,159.03l6.463,11.188L128.951,197.85l-6.561-4.739.084-6.449Z" transform="translate(34.476 54.77)" fill="#a7a9ac"/>
        <path id="Trazado_251086" data-name="Trazado 251086" d="M140.136,173.2l1.066,1.823L125.835,183.9l-1.065-1.823Z" transform="translate(35.433 60.465)" fill="#939598"/>
        <path id="Trazado_251087" data-name="Trazado 251087" d="M117.783,174.97,111.32,178.7v10.557l6.463,11.2,9.141,5.271L133.4,202V191.443l-6.477-11.188Z" transform="translate(30.026 61.177)" fill="#bcbec0"/>
        <path id="Trazado_251088" data-name="Trazado 251088" d="M125.588,181.244l-7.557-4.374-5.341,3.084v8.734l5.327,9.253,7.571,4.36,5.341-3.084.014-8.72Z" transform="translate(30.577 61.941)" fill="#836e69"/>
        <path id="Trazado_251089" data-name="Trazado 251089" d="M130.894,185.263l-1.262-.743-38.792,22.4,1.178,1.276Z" transform="translate(21.794 65.016)" fill="#e6e1dd"/>
        <path id="Trazado_251090" data-name="Trazado 251090" d="M131.307,186.16v1.472L92.515,210.021l-.435-1.766Z" transform="translate(22.292 65.675)" fill="#a39c95"/>
        <path id="Trazado_251091" data-name="Trazado 251091" d="M130.532,185.05l.911,1.556L92.651,209l-.911-.659.028-.9Z" transform="translate(22.156 65.229)" fill="#b5afa7"/>
        <path id="Trazado_251092" data-name="Trazado 251092" d="M91.1,200.5l-.9.5v1.472l.9,1.57,1.29.729.883-.519v-1.472l-.883-1.556Z" transform="translate(21.537 71.439)" fill="#d8d1c7"/>
      </g>
    </g>
  </g>
</svg>
