<svg xmlns="http://www.w3.org/2000/svg" width="280.835" height="262.401" viewBox="0 0 280.835 262.401">
  <g id="Grupo_145540" data-name="Grupo 145540" transform="translate(-1079.583 -6389.693)">
    <g id="freepik--background-complete--inject-180" transform="translate(1080.078 6389.693)">
      <path id="Trazado_251277" data-name="Trazado 251277" d="M35.34,423.9v16.157h3.727a22.407,22.407,0,0,1,0-5.117c.354-1.9,4.4-6.8,4.281-11.014Z" transform="translate(-32.804 -179.06)" fill="#ebebeb"/>
      <path id="Trazado_251278" data-name="Trazado 251278" d="M81.66,423.9v16.157h3.727a22.407,22.407,0,0,1,0-5.117c.354-1.9,4.4-6.8,4.281-11.014Z" transform="translate(-49.308 -179.06)" fill="#e0e0e0"/>
      <path id="Trazado_251279" data-name="Trazado 251279" d="M122.559,423.9v16.157h-3.733a22.812,22.812,0,0,0,0-5.117c-.36-1.9-4.4-6.8-4.287-11.013Z" transform="translate(-61.022 -179.06)" fill="#ebebeb"/>
      <path id="Trazado_251280" data-name="Trazado 251280" d="M162.646,423.9v16.157h-3.727a22.813,22.813,0,0,0,0-5.117c-.354-1.9-4.4-6.8-4.281-11.013Z" transform="translate(-75.31 -179.06)" fill="#e0e0e0"/>
      <rect id="Rectángulo_43921" data-name="Rectángulo 43921" width="89.293" height="80.184" transform="translate(0 165.171)" fill="#f5f5f5"/>
      <path id="Trazado_251281" data-name="Trazado 251281" d="M132.75,300.13l.663,80.184H156.8V300.13Z" transform="translate(-67.512 -134.959)" fill="#e0e0e0"/>
      <rect id="Rectángulo_43922" data-name="Rectángulo 43922" width="57.327" height="20.405" transform="translate(4.017 171.073)" fill="#ebebeb"/>
      <rect id="Rectángulo_43923" data-name="Rectángulo 43923" width="57.327" height="20.405" transform="translate(4.017 195.54)" fill="#ebebeb"/>
      <rect id="Rectángulo_43924" data-name="Rectángulo 43924" width="57.327" height="20.405" transform="translate(4.017 220.013)" fill="#ebebeb"/>
      <path id="Trazado_251282" data-name="Trazado 251282" d="M70.412,264.34,67.94,287.288H99.622l2.626-22.948Z" transform="translate(-44.42 -122.207)" fill="#e0e0e0"/>
      <path id="Trazado_251283" data-name="Trazado 251283" d="M72.477,266.9,70.07,286.977H98.663l2.311-20.077Z" transform="translate(-45.179 -123.119)" fill="#fff"/>
      <path id="Trazado_251284" data-name="Trazado 251284" d="M80.46,272.15l-1.48,13.324H97.023l.927-13.324Z" transform="translate(-48.353 -124.99)" fill="#ebebeb"/>
      <path id="Trazado_251285" data-name="Trazado 251285" d="M118.653,279.69l6.546,13.157-8.04-.09,1.493-13.067" transform="translate(-61.957 -127.676)" fill="#ebebeb"/>
      <path id="Trazado_251286" data-name="Trazado 251286" d="M83.107,325.642a2.1,2.1,0,1,1-2.1-2.092,2.1,2.1,0,0,1,2.1,2.092Z" transform="translate(-48.328 -143.304)" fill="#e0e0e0"/>
      <path id="Trazado_251287" data-name="Trazado 251287" d="M83.107,364.038a2.092,2.092,0,1,1-.613-1.486,2.1,2.1,0,0,1,.613,1.486Z" transform="translate(-48.328 -156.983)" fill="#e0e0e0"/>
      <path id="Trazado_251288" data-name="Trazado 251288" d="M83.107,402.428a2.1,2.1,0,1,1-2.1-2.1,2.1,2.1,0,0,1,2.1,2.1Z" transform="translate(-48.328 -170.662)" fill="#e0e0e0"/>
      <path id="Trazado_251289" data-name="Trazado 251289" d="M98.536,97.359,47.91,96.87l1.41,65.978,50.626.187Z" transform="translate(-37.283 -62.536)" fill="#e0e0e0"/>
      <path id="Trazado_251290" data-name="Trazado 251290" d="M96.958,101.566,52.64,100.42l1.281,59.837,44.305.547Z" transform="translate(-38.968 -63.801)" fill="#fafafa"/>
      <path id="Trazado_251291" data-name="Trazado 251291" d="M93.46,115.819l-29.41-.489.9,41.827,29.378-.631Z" transform="translate(-43.034 -69.113)" fill="#ebebeb"/>
      <path id="Trazado_251292" data-name="Trazado 251292" d="M64.951,157.157,93.872,135.04,64.05,115.33Z" transform="translate(-43.034 -69.113)" fill="#f5f5f5"/>
      <path id="Trazado_251293" data-name="Trazado 251293" d="M440.421,43.961,396,43.53l1.242,57.887,44.408.161Z" transform="translate(-161.311 -43.53)" fill="#e0e0e0"/>
      <path id="Trazado_251294" data-name="Trazado 251294" d="M439.029,47.661,400.15,46.65l1.126,52.493,38.866.476Z" transform="translate(-162.79 -44.642)" fill="#fafafa"/>
      <path id="Trazado_251295" data-name="Trazado 251295" d="M435.963,60.161,410.17,59.73l.785,36.69,25.773-.547Z" transform="translate(-166.36 -49.302)" fill="#ebebeb"/>
      <path id="Trazado_251296" data-name="Trazado 251296" d="M410.955,96.42l25.374-19.4L410.17,59.73Z" transform="translate(-166.36 -49.302)" fill="#f5f5f5"/>
      <path id="Trazado_251297" data-name="Trazado 251297" d="M387.708,382.3c-.187.566,6.437,25.748,6.437,25.748l4.544-.946-6.25-24.8Z" transform="translate(-158.355 -164.237)" fill="#ebebeb"/>
      <path id="Trazado_251298" data-name="Trazado 251298" d="M437.389,376.71,428.3,406.056h5.3l8.709-27.26Z" transform="translate(-172.82 -162.246)" fill="#f5f5f5"/>
      <path id="Trazado_251299" data-name="Trazado 251299" d="M449.595,369.65,439.18,403.54h5.3l10.035-31.8Z" transform="translate(-176.697 -159.73)" fill="#ebebeb"/>
      <path id="Trazado_251300" data-name="Trazado 251300" d="M392.71,419.07l5.3,18.364h26.694l4.924-18.364Z" transform="translate(-160.139 -177.339)" fill="#e0e0e0"/>
      <path id="Trazado_251301" data-name="Trazado 251301" d="M406.746,398.1a1.674,1.674,0,0,1-.058-.193l-.142-.56c-.122-.515-.29-1.242-.509-2.169l-1.834-8.02L398.21,360.41l.161.135H393.7l.161-.206c2.375,10.524,4.506,19.954,6.031,26.765.747,3.392,1.352,6.128,1.777,8.046.193.933.354,1.661.463,2.182.045.238.084.425.109.566a.644.644,0,0,1,0,.2,1.662,1.662,0,0,1-.058-.193c-.039-.142-.084-.328-.142-.56-.129-.515-.3-1.242-.528-2.169-.444-1.931-1.081-4.641-1.873-8.02-1.564-6.81-3.721-16.227-6.128-26.745l-.051-.2h5.021l.032.129c2.311,10.524,4.39,19.954,5.89,26.765.727,3.392,1.32,6.128,1.732,8.046.193.933.341,1.661.451,2.182l.109.566A.644.644,0,0,1,406.746,398.1Z" transform="translate(-160.406 -156.367)" fill="#e0e0e0"/>
    </g>
    <g id="freepik--Floor--inject-180" transform="translate(1079.583 6650.387)">
      <path id="Trazado_251302" data-name="Trazado 251302" d="M303.554,448.7c0,.09-61.112.167-136.462.167S30.63,448.787,30.63,448.7s61.1-.167,136.494-.167S303.554,448.607,303.554,448.7Z" transform="translate(-30.63 -448.53)" fill="#263238"/>
    </g>
    <g id="freepik--Checklist--inject-180" transform="translate(1148.521 6393.098)">
      <rect id="Rectángulo_43925" data-name="Rectángulo 43925" width="156.101" height="213.898" transform="translate(0 16.974)" fill="#455a64"/>
      <path id="Trazado_251303" data-name="Trazado 251303" d="M294.855,281.154H157.93V88.62H294.855V281.154Z" transform="translate(-144.927 -63.001)" fill="#e0e0e0"/>
      <path id="Trazado_251304" data-name="Trazado 251304" d="M292.176,276.174H156.48V84.67h135.7v191.5Z" transform="translate(-144.411 -61.594)" fill="#ebebeb"/>
      <path id="Trazado_251305" data-name="Trazado 251305" d="M276.2,261.54l-15.629,12.726H152.55V85.42H289.476V250.771Z" transform="translate(-143.011 -61.861)" fill="#fafafa"/>
      <path id="Trazado_251306" data-name="Trazado 251306" d="M276.1,261.424s.277-.238.837-.7l2.5-2.047,9.906-8.065v.039c0-27.164-.051-87.542-.1-165.351l.148.154H152.477l.167-.167c0,71,0,136.494-.039,188.845l-.129-.135,108.017.077h-.039l11.741-9.52,2.942-2.375c.644-.528.985-.785.985-.785l-.966.8-2.942,2.44-11.7,9.565h0l-108.056.09h-.135v-.135c0-52.351,0-117.847-.032-188.845V85.15H289.537V85.3c-.045,77.835-.084,138.187-.1,165.351h0l-9.945,8.027-2.517,2.1Z" transform="translate(-142.918 -61.765)" fill="#263238"/>
      <path id="Trazado_251307" data-name="Trazado 251307" d="M224.951,64.92h37.431a9.108,9.108,0,0,1,9.108,9.108v10.1H215.45V74.414a9.5,9.5,0,0,1,9.5-9.494Z" transform="translate(-165.422 -54.557)" fill="#20cb7d"/>
      <path id="Trazado_251308" data-name="Trazado 251308" d="M235.647,59.183,233.6,48.82h32.268l-1.8,10.363Z" transform="translate(-171.89 -48.82)" fill="#20cb7d"/>
      <path id="Trazado_251309" data-name="Trazado 251309" d="M197.863,155.23H174.8V132.16h23.063Zm-22.42-.644H197.22V132.8H175.444Z" transform="translate(-150.938 -78.515)" fill="#20cb7d"/>
      <path id="Trazado_251310" data-name="Trazado 251310" d="M297.576,140.727c0,.09-16.06.167-35.86.167s-35.866-.077-35.866-.167,16.054-.167,35.866-.167S297.576,140.631,297.576,140.727Z" transform="translate(-169.128 -81.508)" fill="#263238"/>
      <path id="Trazado_251311" data-name="Trazado 251311" d="M297.576,148.167c0,.1-16.06.167-35.86.167s-35.866-.071-35.866-.167S241.9,148,261.716,148,297.576,148.077,297.576,148.167Z" transform="translate(-169.128 -84.159)" fill="#263238"/>
      <path id="Trazado_251312" data-name="Trazado 251312" d="M297.576,155.617c0,.09-16.06.167-35.86.167s-35.866-.077-35.866-.167,16.054-.167,35.866-.167S297.576,155.527,297.576,155.617Z" transform="translate(-169.128 -86.813)" fill="#263238"/>
      <path id="Trazado_251313" data-name="Trazado 251313" d="M297.576,163.067c0,.09-16.06.167-35.86.167s-35.866-.077-35.866-.167,16.054-.167,35.866-.167S297.576,162.964,297.576,163.067Z" transform="translate(-169.128 -89.468)" fill="#263238"/>
      <path id="Trazado_251314" data-name="Trazado 251314" d="M197.863,210.46H174.8V187.39h23.063Zm-22.42-.644H197.22V188.034H175.444Z" transform="translate(-150.938 -98.194)" fill="#20cb7d"/>
      <path id="Trazado_251315" data-name="Trazado 251315" d="M181.92,200.21l3.064-3.289,5.1,4.081,11.683-11.342,2.8,3.3-14.708,14.509Z" transform="translate(-153.475 -99.003)" fill="#20cb7d"/>
      <path id="Trazado_251316" data-name="Trazado 251316" d="M297.576,195.957c0,.09-16.06.167-35.86.167s-35.866-.077-35.866-.167,16.054-.167,35.866-.167S297.576,195.867,297.576,195.957Z" transform="translate(-169.128 -101.187)" fill="#263238"/>
      <path id="Trazado_251317" data-name="Trazado 251317" d="M297.576,203.407c0,.09-16.06.167-35.86.167s-35.866-.077-35.866-.167,16.054-.167,35.866-.167S297.576,203.311,297.576,203.407Z" transform="translate(-169.128 -103.842)" fill="#263238"/>
      <path id="Trazado_251318" data-name="Trazado 251318" d="M297.576,210.847c0,.1-16.06.167-35.86.167s-35.866-.071-35.866-.167,16.054-.167,35.866-.167S297.576,210.757,297.576,210.847Z" transform="translate(-169.128 -106.492)" fill="#263238"/>
      <path id="Trazado_251319" data-name="Trazado 251319" d="M297.576,218.3c0,.09-16.06.167-35.86.167s-35.866-.077-35.866-.167,16.054-.167,35.866-.167S297.576,218.207,297.576,218.3Z" transform="translate(-169.128 -109.147)" fill="#263238"/>
      <path id="Trazado_251320" data-name="Trazado 251320" d="M197.863,263.91H174.8V240.84h23.063Zm-22.42-.644H197.22V241.484H175.444Z" transform="translate(-150.938 -117.239)" fill="#20cb7d"/>
      <path id="Trazado_251321" data-name="Trazado 251321" d="M181.92,253.66l3.064-3.289,5.1,4.081,11.683-11.342,2.8,3.3-14.708,14.509Z" transform="translate(-153.475 -118.048)" fill="#20cb7d"/>
      <path id="Trazado_251322" data-name="Trazado 251322" d="M297.576,249.407c0,.09-16.06.167-35.86.167s-35.866-.077-35.866-.167,16.054-.167,35.866-.167S297.576,249.311,297.576,249.407Z" transform="translate(-169.128 -120.232)" fill="#263238"/>
      <path id="Trazado_251323" data-name="Trazado 251323" d="M297.576,256.847c0,.1-16.06.167-35.86.167s-35.866-.071-35.866-.167,16.054-.167,35.866-.167S297.576,256.757,297.576,256.847Z" transform="translate(-169.128 -122.883)" fill="#263238"/>
      <path id="Trazado_251324" data-name="Trazado 251324" d="M297.576,264.3c0,.1-16.06.167-35.86.167s-35.866-.071-35.866-.167,16.054-.167,35.866-.167S297.576,264.207,297.576,264.3Z" transform="translate(-169.128 -125.537)" fill="#263238"/>
      <path id="Trazado_251325" data-name="Trazado 251325" d="M297.576,271.747c0,.09-16.06.167-35.86.167s-35.866-.077-35.866-.167,16.054-.167,35.866-.167S297.576,271.657,297.576,271.747Z" transform="translate(-169.128 -128.192)" fill="#263238"/>
      <path id="Trazado_251326" data-name="Trazado 251326" d="M197.863,315.52H174.8V292.45h23.063Zm-22.42-.644H197.22V293.094H175.444Z" transform="translate(-150.938 -135.628)" fill="#20cb7d"/>
      <path id="Trazado_251327" data-name="Trazado 251327" d="M181.92,305.27l3.064-3.289,5.1,4.081,11.683-11.342,2.8,3.3-14.708,14.509Z" transform="translate(-153.475 -136.437)" fill="#20cb7d"/>
      <path id="Trazado_251328" data-name="Trazado 251328" d="M297.576,301.007c0,.1-16.06.167-35.86.167s-35.866-.071-35.866-.167,16.054-.167,35.866-.167S297.576,300.943,297.576,301.007Z" transform="translate(-169.128 -138.617)" fill="#263238"/>
      <path id="Trazado_251329" data-name="Trazado 251329" d="M297.576,308.457c0,.09-16.06.167-35.86.167s-35.866-.077-35.866-.167,16.054-.167,35.866-.167S297.576,308.367,297.576,308.457Z" transform="translate(-169.128 -141.272)" fill="#263238"/>
      <path id="Trazado_251330" data-name="Trazado 251330" d="M297.576,315.907c0,.09-16.06.167-35.86.167s-35.866-.077-35.866-.167,16.054-.167,35.866-.167S297.576,315.811,297.576,315.907Z" transform="translate(-169.128 -143.927)" fill="#263238"/>
      <path id="Trazado_251331" data-name="Trazado 251331" d="M297.576,323.347c0,.1-16.06.167-35.86.167s-35.866-.071-35.866-.167,16.054-.167,35.866-.167S297.576,323.257,297.576,323.347Z" transform="translate(-169.128 -146.577)" fill="#263238"/>
      <path id="Trazado_251332" data-name="Trazado 251332" d="M318.721,330.23,303.71,361.32h10.717Z" transform="translate(-196.87 -149.089)" fill="#e0e0e0"/>
      <path id="Trazado_251333" data-name="Trazado 251333" d="M320.36,361.59l4.293-31.09,24.615,7.6Z" transform="translate(-202.803 -149.186)" fill="#fafafa"/>
      <path id="Trazado_251334" data-name="Trazado 251334" d="M320.36,361.462l8.278-6.817,20.527-16.807.058.283-9.507-2.922-15.082-4.68.2-.129c-1.287,9.012-2.388,16.768-3.167,22.265-.779,5.349-1.178,8.111-1.287,8.806a1.337,1.337,0,0,1,0-.142l.058-.425c.051-.406.122-.972.219-1.693.2-1.513.483-3.682.843-6.437.747-5.542,1.789-13.337,3.006-22.445v-.18l.174.052,15.12,4.66,9.5,2.935.3.09-.238.193c-8.31,6.7-15.577,12.558-20.778,16.736l-6.07,4.873-1.622,1.287-.412.328Z" transform="translate(-202.803 -149.057)" fill="#263238"/>
      <g id="Grupo_145398" data-name="Grupo 145398" transform="translate(89.968 0)" opacity="0.3">
        <path id="Trazado_251335" data-name="Trazado 251335" d="M279.277,48.82,277.5,59.183h2.214l1.8-10.363h-2.826" transform="translate(-277.5 -48.82)"/>
      </g>
    </g>
    <g id="freepik--Character--inject-180" transform="translate(1115.153 6454.216)">
      <path id="Trazado_251336" data-name="Trazado 251336" d="M130.743,199.557h0a5.793,5.793,0,0,0,6.224-5.549c.122-3.154.232-6.34.232-6.34s4.776-.444,5.15-5.15.187-15.635.187-15.635h0a16.459,16.459,0,0,0-16.646,1.069l.29,16.633v8.954C126.186,196.512,127.75,199.332,130.743,199.557Z" transform="translate(-100.142 -151.377)" fill="#ffbe9d"/>
      <path id="Trazado_251337" data-name="Trazado 251337" d="M136.235,174.491a2.427,2.427,0,0,0-3.218-.708,2.749,2.749,0,0,0-.914,3.437,3.6,3.6,0,0,0,2.317,1.751,1.815,1.815,0,0,1,1.423,1.931,6.051,6.051,0,0,1-1.661,3.289,8.716,8.716,0,0,1-5.471,2.575c-2.015.238-4.319-.18-5.491-1.835a7.5,7.5,0,0,1-.946-4.255l-.219-10.454a15.243,15.243,0,0,1,.238-3.753,5.047,5.047,0,0,1,1.983-3.1c1.152-.76,2.607-.824,3.914-1.242a32.508,32.508,0,0,0,4.564-2.4c1.532-.785,3.405-1.255,4.944-.483,1.107.554,1.847,1.654,2.916,2.266,1.532.869,3.611.644,4.351,2.922a3.785,3.785,0,0,1,0,2.4,5.557,5.557,0,0,1-7.55,2.974,7.406,7.406,0,0,1-.09,3.3c-.174.528-.232,1.32-1.049,1.339" transform="translate(-98.766 -149.142)" fill="#263238"/>
      <path id="Trazado_251338" data-name="Trazado 251338" d="M119.4,162.219a16.093,16.093,0,0,0,1.519-4.75,5.446,5.446,0,0,0-1.487-4.589,4.506,4.506,0,0,0-3.115-1.1,5.265,5.265,0,0,0-4.75,3.766,5.664,5.664,0,0,0,1.931,5.793,6.16,6.16,0,0,0,6.128.8" transform="translate(-94.976 -146.622)" fill="#263238"/>
      <path id="Trazado_251339" data-name="Trazado 251339" d="M124.03,165.35a2.33,2.33,0,0,1-2.24,2.189,8.107,8.107,0,0,0,1.287-.9C123.67,166.019,123.94,165.324,124.03,165.35Z" transform="translate(-98.682 -151.459)" fill="#20cb7d"/>
      <path id="Trazado_251340" data-name="Trazado 251340" d="M119.876,164.77a4.4,4.4,0,0,1-1.287.933,3.7,3.7,0,0,1-1.686.483,2.362,2.362,0,0,1-1.976-.888,2.607,2.607,0,0,1-.348-2.137,4.145,4.145,0,0,1,.792-1.564,4.8,4.8,0,0,1,1.12-1.126,15.274,15.274,0,0,1-.927,1.287,4.216,4.216,0,0,0-.682,1.493,2.356,2.356,0,0,0,.315,1.873,2.111,2.111,0,0,0,1.706.772,3.682,3.682,0,0,0,1.583-.386A13.817,13.817,0,0,1,119.876,164.77Z" transform="translate(-96.079 -149.72)" fill="#263238"/>
      <path id="Trazado_251341" data-name="Trazado 251341" d="M110.38,172.785a2.227,2.227,0,0,1,.225.521,5.247,5.247,0,0,0,.7,1.352,1.931,1.931,0,0,0,1.847.85,2.575,2.575,0,0,0,1.783-1.8,18.064,18.064,0,0,0,.483-2.742,4.255,4.255,0,0,1,.9-2.169,2.4,2.4,0,0,1,1.377-.785.9.9,0,0,1,.579.051,2.778,2.778,0,0,0-.554.077,2.362,2.362,0,0,0-1.223.811,4.191,4.191,0,0,0-.779,2.06,16.252,16.252,0,0,1-.47,2.806,2.819,2.819,0,0,1-2.04,1.989,1.931,1.931,0,0,1-1.287-.245,2.658,2.658,0,0,1-.811-.766,4.692,4.692,0,0,1-.644-1.448,1.506,1.506,0,0,1-.09-.566Z" transform="translate(-94.616 -152.4)" fill="#263238"/>
      <path id="Trazado_251342" data-name="Trazado 251342" d="M106.176,237.116s-2.414,17.65,0,19.89A5.021,5.021,0,0,0,110.9,258.5l4.59-3.862.9-17.547Z" transform="translate(-92.736 -177.021)" fill="#ffbe9d"/>
      <path id="Trazado_251343" data-name="Trazado 251343" d="M184.22,154.32l3.064-3.289,5.1,4.081,11.683-11.342,2.8,3.3-14.708,14.509Z" transform="translate(-120.926 -143.77)" fill="#20cb7d"/>
      <path id="Trazado_251344" data-name="Trazado 251344" d="M192.121,161.55l-4.441,2.852c-.2-1.757-1.538-3.5-1.474-2.613s0,5.458,0,5.458l-7.911,16.665a7.9,7.9,0,0,1-4.886,4.692l-7.409,2.2,2.89,9.778,10.3-3.412a8.864,8.864,0,0,0,5.632-5.645L191.9,169.95a33.532,33.532,0,0,0,1.133-4.248A8.093,8.093,0,0,0,192.121,161.55Z" transform="translate(-114.434 -150.105)" fill="#ffbe9d"/>
      <path id="Trazado_251345" data-name="Trazado 251345" d="M144.862,441.987l-.116-4.937-9.256.148.084,7.229.579.032c2.575.1,13.009.328,14.708-.212C152.754,443.635,144.862,441.987,144.862,441.987Z" transform="translate(-103.563 -248.269)" fill="#20cb7d"/>
      <g id="Grupo_145399" data-name="Grupo 145399" transform="translate(31.978 193.449)" opacity="0.5">
        <path id="Trazado_251346" data-name="Trazado 251346" d="M138.962,446.888a3.219,3.219,0,0,0-1.217-1.931,3.109,3.109,0,0,0-2.176-.644l.039,2.575Z" transform="translate(-135.57 -444.302)" fill="#fff"/>
      </g>
      <g id="Grupo_145400" data-name="Grupo 145400" transform="translate(31.985 194.664)" opacity="0.4">
        <path id="Trazado_251347" data-name="Trazado 251347" d="M148.724,446.19s2.768.747,2.433,1.21-10.9.644-15.577.283v-.206l12.333-.084S148.216,446.222,148.724,446.19Z" transform="translate(-135.58 -446.19)" fill="#fff"/>
      </g>
      <path id="Trazado_251348" data-name="Trazado 251348" d="M135.4,448.037h.618l1.686.045c1.423.032,3.386.045,5.555,0s4.139-.1,5.555-.174l1.686-.1.457-.032h-.463l-1.68.064c-1.423.045-3.386.109-5.555.142s-4.132,0-5.555,0H135.38Z" transform="translate(-103.524 -252.092)" fill="#263238"/>
      <path id="Trazado_251349" data-name="Trazado 251349" d="M154.8,447.478a3.457,3.457,0,0,1,.3-.8,3.823,3.823,0,0,1,.56-.644,1.506,1.506,0,0,0-.863,1.461Z" transform="translate(-110.442 -251.469)" fill="#263238"/>
      <path id="Trazado_251350" data-name="Trazado 251350" d="M150.518,445.762a1.949,1.949,0,0,0,.29-.354c.135-.212.212-.406.187-.418s-.154.142-.283.354S150.492,445.749,150.518,445.762Z" transform="translate(-108.916 -251.098)" fill="#263238"/>
      <path id="Trazado_251351" data-name="Trazado 251351" d="M149.348,445.306a1.477,1.477,0,0,0,.322-.225c.161-.148.264-.283.245-.3s-.167.077-.322.219S149.322,445.281,149.348,445.306Z" transform="translate(-108.5 -251.022)" fill="#263238"/>
      <path id="Trazado_251352" data-name="Trazado 251352" d="M148.59,444.214a1.01,1.01,0,0,0,.483.051,1.043,1.043,0,0,0,.483-.058,1.216,1.216,0,0,0-.483-.051,1.062,1.062,0,0,0-.483.058Z" transform="translate(-108.231 -250.799)" fill="#263238"/>
      <path id="Trazado_251353" data-name="Trazado 251353" d="M148.32,443.3a1,1,0,0,0,.541.148.985.985,0,0,0,.56-.084,2.877,2.877,0,0,0-.554,0A3,3,0,0,0,148.32,443.3Z" transform="translate(-108.134 -250.496)" fill="#263238"/>
      <path id="Trazado_251354" data-name="Trazado 251354" d="M151,444.471a1.642,1.642,0,0,0,.592,0,3.514,3.514,0,0,0,.644-.148,1.93,1.93,0,0,0,.36-.154.3.3,0,0,0,.148-.187.245.245,0,0,0-.1-.238,1.1,1.1,0,0,0-1.345.341,1.186,1.186,0,0,0-.187.4.387.387,0,0,0,0,.161,1.886,1.886,0,0,1,.264-.509,1.12,1.12,0,0,1,.5-.341.946.946,0,0,1,.715.039c.09.071.058.18-.045.245a1.927,1.927,0,0,1-.335.148,4.234,4.234,0,0,1-.644.167C151.219,444.452,151,444.452,151,444.471Z" transform="translate(-109.089 -250.617)" fill="#263238"/>
      <path id="Trazado_251355" data-name="Trazado 251355" d="M150.792,444.369a.573.573,0,0,0,.064-.412,1.03,1.03,0,0,0-.174-.431.6.6,0,0,0-.5-.3.232.232,0,0,0-.18.277.644.644,0,0,0,.1.264,1.525,1.525,0,0,0,.29.354.837.837,0,0,0,.341.238,3.96,3.96,0,0,1-.283-.29,2.407,2.407,0,0,1-.257-.354c-.084-.122-.142-.348,0-.38s.3.129.393.245a1.036,1.036,0,0,1,.18.386,2.35,2.35,0,0,1,.019.4Z" transform="translate(-108.734 -250.471)" fill="#263238"/>
      <path id="Trazado_251356" data-name="Trazado 251356" d="M135.65,444.189h.682a2.9,2.9,0,0,1,2.452,1.892c.148.393.167.644.187.644a.463.463,0,0,0,0-.187,2.728,2.728,0,0,0-.109-.5,2.826,2.826,0,0,0-2.523-1.931,2.3,2.3,0,0,0-.509,0A.5.5,0,0,0,135.65,444.189Z" transform="translate(-103.62 -250.78)" fill="#263238"/>
      <path id="Trazado_251357" data-name="Trazado 251357" d="M137.016,438.24a14.889,14.889,0,0,0-.051,1.9,15.619,15.619,0,0,0,.058,1.931,15.031,15.031,0,0,0,.051-1.931A17.283,17.283,0,0,0,137.016,438.24Z" transform="translate(-104.085 -248.693)" fill="#263238"/>
      <path id="Trazado_251358" data-name="Trazado 251358" d="M142.62,446.871a5.574,5.574,0,0,0,1.358.109,4.954,4.954,0,0,0,1.352-.129c0-.032-.644,0-1.352,0A12.409,12.409,0,0,0,142.62,446.871Z" transform="translate(-106.104 -251.756)" fill="#263238"/>
      <path id="Trazado_251359" data-name="Trazado 251359" d="M139.81,446.918s.051.129.109.27.1.257.135.257.045-.148-.032-.309S139.829,446.9,139.81,446.918Z" transform="translate(-105.102 -251.784)" fill="#263238"/>
      <path id="Trazado_251360" data-name="Trazado 251360" d="M138.72,445.617a.574.574,0,0,0,.142.212c.1.1.193.154.212.135s-.039-.122-.135-.212S138.746,445.591,138.72,445.617Z" transform="translate(-104.714 -251.319)" fill="#263238"/>
      <path id="Trazado_251361" data-name="Trazado 251361" d="M137.19,444.973a.648.648,0,0,1,.27.071c.135.071.232.116.257.1s-.051-.148-.225-.2A.377.377,0,0,0,137.19,444.973Z" transform="translate(-104.169 -251.074)" fill="#263238"/>
      <path id="Trazado_251362" data-name="Trazado 251362" d="M136.11,444.758a.225.225,0,0,0,.116.1c.077.026.148.032.161,0s-.045-.077-.122-.1S136.116,444.726,136.11,444.758Z" transform="translate(-103.784 -251.008)" fill="#263238"/>
      <path id="Trazado_251363" data-name="Trazado 251363" d="M94.515,436.875l3.141-3.817-7.119-5.928-4.647,5.536.412.4c1.873,1.744,9.655,8.735,11.29,9.43C99.427,443.274,94.515,436.875,94.515,436.875Z" transform="translate(-85.89 -244.734)" fill="#20cb7d"/>
      <g id="Grupo_145401" data-name="Grupo 145401" transform="translate(0.071 185.865)" opacity="0.5">
        <path id="Trazado_251364" data-name="Trazado 251364" d="M88.575,436.691a3.218,3.218,0,0,0,.354-2.272,3.1,3.1,0,0,0-1.236-1.9L86,434.5Z" transform="translate(-86 -432.52)" fill="#fff"/>
      </g>
      <g id="Grupo_145402" data-name="Grupo 145402" transform="translate(0 187.783)" opacity="0.4">
        <path id="Trazado_251365" data-name="Trazado 251365" d="M96.826,443.089s1.609,2.375,1.056,2.5-8.7-6.643-11.992-9.945l.142-.148,9.4,7.982S96.4,442.761,96.826,443.089Z" transform="translate(-85.89 -435.5)" fill="#fff"/>
      </g>
      <path id="Trazado_251366" data-name="Trazado 251366" d="M85.94,435.35l.109.116.335.315,1.249,1.133c1.056.946,2.536,2.24,4.2,3.63s3.218,2.62,4.326,3.5l1.339,1.023.367.27.135.09-.122-.109-.354-.29-1.287-1.049c-1.114-.888-2.639-2.124-4.306-3.515s-3.154-2.671-4.223-3.6l-1.287-1.107-.348-.3Z" transform="translate(-85.908 -247.663)" fill="#263238"/>
      <path id="Trazado_251367" data-name="Trazado 251367" d="M100.57,447.723a3.45,3.45,0,0,1,.76-.418,4.385,4.385,0,0,1,.85-.129,1.406,1.406,0,0,0-1.609.547Z" transform="translate(-91.121 -251.849)" fill="#263238"/>
      <path id="Trazado_251368" data-name="Trazado 251368" d="M98.69,443.53c0,.032.212,0,.451-.084s.431-.161.418-.193-.212,0-.451.084a1.08,1.08,0,0,0-.418.193Z" transform="translate(-90.451 -250.475)" fill="#263238"/>
      <path id="Trazado_251369" data-name="Trazado 251369" d="M98.19,442.43a1.387,1.387,0,0,0,.393.045c.219-.006.386-.039.386-.071s-.18-.051-.393-.045A.862.862,0,0,0,98.19,442.43Z" transform="translate(-90.273 -250.16)" fill="#263238"/>
      <path id="Trazado_251370" data-name="Trazado 251370" d="M98.49,440.994a2.178,2.178,0,0,0,.335.354,1.287,1.287,0,0,0,.406.277,2.066,2.066,0,0,0-.335-.36C98.69,441.091,98.516,440.943,98.49,440.994Z" transform="translate(-90.38 -249.671)" fill="#263238"/>
      <path id="Trazado_251371" data-name="Trazado 251371" d="M98.91,440.058a1.339,1.339,0,0,0,.792.766,4.249,4.249,0,0,0-.4-.38C99.09,440.238,98.968,440.019,98.91,440.058Z" transform="translate(-90.529 -249.339)" fill="#263238"/>
      <path id="Trazado_251372" data-name="Trazado 251372" d="M99.849,442.911a1.621,1.621,0,0,0,.457.38,3.215,3.215,0,0,0,.579.3,1.81,1.81,0,0,0,.373.122.315.315,0,0,0,.232-.051.232.232,0,0,0,.084-.238,1.094,1.094,0,0,0-1.242-.644,1,1,0,0,0-.406.18.432.432,0,0,0-.116.109,1.719,1.719,0,0,1,.534-.212,1.075,1.075,0,0,1,.605.071.933.933,0,0,1,.515.489.15.15,0,0,1-.193.161,2.178,2.178,0,0,1-.348-.109,3.709,3.709,0,0,1-.573-.27A2.178,2.178,0,0,1,99.849,442.911Z" transform="translate(-90.85 -250.3)" fill="#263238"/>
      <path id="Trazado_251373" data-name="Trazado 251373" d="M99.924,442.516a.7.7,0,0,0,.322-.27,1.068,1.068,0,0,0,.154-.438.644.644,0,0,0-.187-.554.238.238,0,0,0-.322.1.644.644,0,0,0-.09.264,1.86,1.86,0,0,0,0,.457.85.85,0,0,0,.1.406s0-.161,0-.406a2.2,2.2,0,0,1,.039-.438c0-.148.116-.354.251-.283s.142.3.142.444a1,1,0,0,1-.122.406,1.929,1.929,0,0,1-.29.315Z" transform="translate(-90.842 -249.757)" fill="#263238"/>
      <path id="Trazado_251374" data-name="Trazado 251374" d="M88.69,432.52a3.539,3.539,0,0,1,.509.451,3,3,0,0,1,.753,1.429,2.967,2.967,0,0,1-.129,1.609c-.148.4-.309.612-.29.644a.6.6,0,0,0,.122-.148,2.227,2.227,0,0,0,.238-.444,2.813,2.813,0,0,0,.167-1.661,2.845,2.845,0,0,0-.8-1.461,2.434,2.434,0,0,0-.4-.315A.515.515,0,0,0,88.69,432.52Z" transform="translate(-86.888 -246.655)" fill="#263238"/>
      <path id="Trazado_251375" data-name="Trazado 251375" d="M92.295,428.87a15.732,15.732,0,0,0-1.287,1.41,18.026,18.026,0,0,0-1.2,1.48,14.151,14.151,0,0,0,1.287-1.4,18.667,18.667,0,0,0,1.2-1.487Z" transform="translate(-87.287 -245.354)" fill="#263238"/>
      <path id="Trazado_251376" data-name="Trazado 251376" d="M92.25,439.068a5.323,5.323,0,0,0,.953.966,5.072,5.072,0,0,0,1.114.785s-.47-.386-1.036-.869A10.3,10.3,0,0,0,92.25,439.068Z" transform="translate(-88.156 -248.987)" fill="#263238"/>
      <path id="Trazado_251377" data-name="Trazado 251377" d="M90,437.26s-.045.129-.084.277-.1.257-.071.277.129-.077.18-.251S90.033,437.253,90,437.26Z" transform="translate(-87.297 -248.344)" fill="#263238"/>
      <path id="Trazado_251378" data-name="Trazado 251378" d="M90.1,435.56c-.032,0-.045.116-.032.251s.045.245.077.245.045-.116,0-.251S90.132,435.56,90.1,435.56Z" transform="translate(-87.377 -247.738)" fill="#263238"/>
      <path id="Trazado_251379" data-name="Trazado 251379" d="M89.34,434.116c0,.032.084.109.154.232s.1.245.135.245.051-.148-.039-.3S89.353,434.09,89.34,434.116Z" transform="translate(-87.119 -247.221)" fill="#263238"/>
      <path id="Trazado_251380" data-name="Trazado 251380" d="M88.69,433.209v.161a.119.119,0,0,0,.122.1c.026-.013,0-.09,0-.161A.119.119,0,0,0,88.69,433.209Z" transform="translate(-86.888 -246.899)" fill="#263238"/>
      <path id="Trazado_251381" data-name="Trazado 251381" d="M114.212,281.259S111.129,294.3,112,296.881s6.521,4.068,6.521,4.068l-.193,35.718L87.1,375.289l11.522,9.424s33.819-38.679,36.8-45.7-1.931-58.35-1.931-58.35Z" transform="translate(-86.321 -192.545)" fill="#263238"/>
      <path id="Trazado_251382" data-name="Trazado 251382" d="M139.556,273.33,141.082,381.8l-15.88.1-7.975-88.366h0c-1.686-1.609-4.062-4.364-3.733-10.511l.386-7.139Z" transform="translate(-95.714 -189.934)" fill="#263238"/>
      <path id="Trazado_251383" data-name="Trazado 251383" d="M128,352.244a.74.74,0,0,1,.09-.161c.084-.116.18-.264.3-.444l1.178-1.667L133.883,344v.084c-.348-3.766-.766-8.329-1.217-13.254-.579-6.437-1.043-12.294-1.32-16.536-.142-2.118-.232-3.83-.283-5.014,0-.566-.039-1.023-.045-1.371a1.931,1.931,0,0,1,0-.476,3.218,3.218,0,0,1,.058.476c0,.341.064.8.109,1.365.1,1.217.225,2.916.393,5.008.335,4.229.837,10.067,1.416,16.517.431,4.944.869,9.5,1.159,13.286v.084l-4.409,5.9L128.5,351.69l-.335.418C128.032,352.211,128,352.25,128,352.244Z" transform="translate(-100.894 -202.084)" fill="#455a64"/>
      <path id="Trazado_251384" data-name="Trazado 251384" d="M130.956,306.454a21.628,21.628,0,0,1-4.21-.644,21.6,21.6,0,0,1-4.107-1.12,35.546,35.546,0,0,1,4.178.792A37.214,37.214,0,0,1,130.956,306.454Z" transform="translate(-98.984 -201.108)" fill="#455a64"/>
      <path id="Trazado_251385" data-name="Trazado 251385" d="M147.643,364.178a12.629,12.629,0,0,0-8.7-.689,3.5,3.5,0,0,1,1.236-.483,9.724,9.724,0,0,1,6.334.5A3.7,3.7,0,0,1,147.643,364.178Z" transform="translate(-104.792 -221.774)" fill="#455a64"/>
      <path id="Trazado_251386" data-name="Trazado 251386" d="M149.971,372.78c.071.058-4.4,6.057-9.984,13.4s-10.177,13.254-10.248,13.2,4.4-6.057,9.984-13.4S149.9,372.722,149.971,372.78Z" transform="translate(-101.514 -225.369)" fill="#455a64"/>
      <path id="Trazado_251387" data-name="Trazado 251387" d="M153.394,285.373a2.729,2.729,0,0,1-.895,1.184,4.435,4.435,0,0,1-6.475-.682,2.613,2.613,0,0,1-.644-1.345,12.79,12.79,0,0,0,.811,1.191,4.409,4.409,0,0,0,6.147.644A13.843,13.843,0,0,0,153.394,285.373Z" transform="translate(-107.087 -193.924)" fill="#455a64"/>
      <path id="Trazado_251388" data-name="Trazado 251388" d="M121.714,188.441a13.852,13.852,0,0,1-.753-19.311" transform="translate(-97.118 -152.806)" fill="#263238"/>
      <path id="Trazado_251389" data-name="Trazado 251389" d="M107.925,214.85s-3.45,3.9-4.165,18.815c0,0,9.829,1.867,10.009,1.332S107.925,214.85,107.925,214.85Z" transform="translate(-92.257 -169.097)" fill="#20cb7d"/>
      <g id="Grupo_145403" data-name="Grupo 145403" transform="translate(11.503 45.753)" opacity="0.3">
        <path id="Trazado_251390" data-name="Trazado 251390" d="M107.925,214.85s-3.45,3.9-4.165,18.815c0,0,9.829,1.867,10.009,1.332S107.925,214.85,107.925,214.85Z" transform="translate(-103.76 -214.85)"/>
      </g>
      <path id="Trazado_251391" data-name="Trazado 251391" d="M111.244,254.238h30.183l-.489-4.718s-3.45-17.933-3.424-18.171l.541-1.139a11.374,11.374,0,0,0,.135-9.494h0l14.8-5.053-3.618-12.191c-6.707,1.126-16.845,2.395-16.845,2.395l-1.506.122s-10.466.547-10.692.573c-4.377.534-9.469.869-11.329,5.555-1,2.5-.051,6.263,1.577,10.138l3.862,11.908c1.545,6.546-.92,6.231-2.279,12.822C111.945,247.975,111.225,253.324,111.244,254.238Z" transform="translate(-93.98 -165.042)" fill="#20cb7d"/>
      <g id="Grupo_145404" data-name="Grupo 145404" transform="translate(14.615 38.428)" opacity="0.3">
        <path id="Trazado_251392" data-name="Trazado 251392" d="M111.244,254.238h30.183l-.489-4.718s-3.45-17.933-3.424-18.171l.541-1.139a11.374,11.374,0,0,0,.135-9.494h0l14.8-5.053-3.618-12.191c-6.707,1.126-16.845,2.395-16.845,2.395l-1.506.122s-10.466.547-10.692.573c-4.377.534-9.469.869-11.329,5.555-1,2.5-.051,6.263,1.577,10.138l3.862,11.908c1.545,6.546-.92,6.231-2.279,12.822C111.945,247.975,111.225,253.324,111.244,254.238Z" transform="translate(-108.595 -203.47)"/>
      </g>
      <path id="Trazado_251393" data-name="Trazado 251393" d="M167.935,222.72a3.3,3.3,0,0,1-.644.277c-.425.154-1.049.367-1.822.644-1.545.521-3.695,1.21-6.064,1.97s-4.506,1.513-5.986,2.131c-.76.309-1.358.579-1.777.76a2.775,2.775,0,0,1-.644.257,3.218,3.218,0,0,1,.605-.38c.406-.212.991-.521,1.738-.856a58.619,58.619,0,0,1,5.98-2.227c2.375-.76,4.506-1.416,6.1-1.88.779-.232,1.416-.412,1.854-.534A2.741,2.741,0,0,1,167.935,222.72Z" transform="translate(-109.089 -171.901)" fill="#263238"/>
      <path id="Trazado_251394" data-name="Trazado 251394" d="M152.5,212.537c0,.09-8.928.167-19.954.167s-19.954-.077-19.954-.167,8.922-.167,19.954-.167S152.5,212.447,152.5,212.537Z" transform="translate(-95.404 -168.213)" fill="#fafafa"/>
      <path id="Trazado_251395" data-name="Trazado 251395" d="M151.447,221.747c0,.09-9.932.167-22.182.167s-22.175-.077-22.175-.167,9.926-.167,22.175-.167S151.447,221.657,151.447,221.747Z" transform="translate(-93.444 -171.495)" fill="#fafafa"/>
      <path id="Trazado_251396" data-name="Trazado 251396" d="M108.951,232.217a10.315,10.315,0,0,1-3.7,0,10.315,10.315,0,0,1,3.7,0Z" transform="translate(-92.788 -175.218)" fill="#fafafa"/>
      <path id="Trazado_251397" data-name="Trazado 251397" d="M139.945,232.547c0,.09-6.495.167-14.5.167s-14.5-.077-14.5-.167,6.488-.167,14.5-.167S139.945,232.451,139.945,232.547Z" transform="translate(-94.816 -175.343)" fill="#fafafa"/>
      <path id="Trazado_251398" data-name="Trazado 251398" d="M140.587,243.337c0,.1-5.832.167-13.015.167s-13.022-.071-13.022-.167,5.825-.167,13.022-.167S140.587,243.247,140.587,243.337Z" transform="translate(-96.102 -179.187)" fill="#fafafa"/>
      <path id="Trazado_251399" data-name="Trazado 251399" d="M141.658,253.347c0,.09-5.278.167-11.792.167s-11.805-.077-11.805-.167,5.285-.167,11.805-.167S141.658,253.251,141.658,253.347Z" transform="translate(-97.353 -182.754)" fill="#fafafa"/>
      <path id="Trazado_251400" data-name="Trazado 251400" d="M142.355,261.437c0,.1-5.652.167-12.623.167s-12.623-.071-12.623-.167,5.652-.167,12.623-.167S142.355,261.347,142.355,261.437Z" transform="translate(-97.014 -185.637)" fill="#fafafa"/>
      <path id="Trazado_251401" data-name="Trazado 251401" d="M142.971,271.757c0,.1-6.437.167-14.361.167s-14.361-.071-14.361-.167,6.437-.167,14.361-.167S142.971,271.667,142.971,271.757Z" transform="translate(-95.995 -189.314)" fill="#fafafa"/>
      <path id="Trazado_251402" data-name="Trazado 251402" d="M114.409,241.654a2.022,2.022,0,0,1-.27-.592l-.644-1.648c-.534-1.39-1.287-3.309-2.06-5.452s-1.423-4.1-1.828-5.536c-.2-.721-.354-1.287-.438-1.712a2.749,2.749,0,0,1-.109-.644,22.675,22.675,0,0,1,.772,2.285c.463,1.416,1.139,3.36,1.931,5.5s1.487,4.068,1.931,5.484c.238.708.418,1.287.534,1.686a2.575,2.575,0,0,1,.18.631Z" transform="translate(-94.146 -173.094)" fill="#263238"/>
    </g>
  </g>
</svg>
