<svg xmlns="http://www.w3.org/2000/svg" width="340.83" height="219.789" viewBox="0 0 340.83 219.789">
  <g id="Grupo_145541" data-name="Grupo 145541" transform="translate(-180 -6643.33)">
    <g id="freepik--background-complete--inject-34" transform="translate(180 6646.551)">
      <rect id="Rectángulo_43949" data-name="Rectángulo 43949" width="36.576" height="38.129" transform="translate(294.114 8.723)" fill="#e0e0e0"/>
      <rect id="Rectángulo_43950" data-name="Rectángulo 43950" width="36.576" height="38.129" transform="translate(291.635 8.723)" fill="#fafafa"/>
      <path id="Trazado_251556" data-name="Trazado 251556" d="M657.041,95.5h-36.6V57.33h36.6Zm-36.581-.024h36.557V57.349H620.459Z" transform="translate(-328.815 -48.617)" fill="#e0e0e0"/>
      <rect id="Rectángulo_43951" data-name="Rectángulo 43951" width="26.742" height="27.877" transform="translate(296.554 13.851)" fill="#fff"/>
      <path id="Trazado_251557" data-name="Trazado 251557" d="M625.421,125.76a4.531,4.531,0,0,1-.66.767c-.427.451-1.029,1.062-1.7,1.722s-1.291,1.257-1.747,1.674a4.553,4.553,0,0,1-.771.645,4.09,4.09,0,0,1,.655-.767c.427-.451,1.029-1.063,1.7-1.727s1.3-1.257,1.751-1.674a4.157,4.157,0,0,1,.771-.64Z" transform="translate(-328.866 -83.847)" fill="#e0e0e0"/>
      <path id="Trazado_251558" data-name="Trazado 251558" d="M685.72,125.62a4.264,4.264,0,0,1,.767.67c.451.427,1.063,1.029,1.722,1.7s1.257,1.291,1.674,1.747a4.253,4.253,0,0,1,.645.776,4.536,4.536,0,0,1-.767-.66c-.451-.427-1.062-1.029-1.727-1.7s-1.257-1.3-1.674-1.751A4.446,4.446,0,0,1,685.72,125.62Z" transform="translate(-362.424 -83.775)" fill="#e0e0e0"/>
      <path id="Trazado_251559" data-name="Trazado 251559" d="M685.57,62.968a4.538,4.538,0,0,1,.66-.767c.427-.451,1.029-1.063,1.7-1.727s1.3-1.252,1.751-1.669a3.916,3.916,0,0,1,.771-.645,4.087,4.087,0,0,1-.655.767c-.432.446-1.033,1.058-1.708,1.722s-1.291,1.257-1.747,1.679a4.366,4.366,0,0,1-.771.64Z" transform="translate(-362.346 -49.044)" fill="#e0e0e0"/>
      <path id="Trazado_251560" data-name="Trazado 251560" d="M625.348,63.031a4.235,4.235,0,0,1-.771-.66c-.451-.427-1.058-1.029-1.722-1.7s-1.252-1.3-1.674-1.751a4.157,4.157,0,0,1-.64-.771,4.171,4.171,0,0,1,.762.655c.451.427,1.063,1.029,1.727,1.708s1.257,1.291,1.674,1.747a4.273,4.273,0,0,1,.645.771Z" transform="translate(-328.866 -49.039)" fill="#e0e0e0"/>
      <path id="Trazado_251561" data-name="Trazado 251561" d="M657.208,95.576V93.543c0-1.32,0-3.241-.029-5.681,0-4.881-.029-11.838-.049-20.163l.1.1H630.548l.116-.116V95.561l-.1-.1,19.309.049,5.424.029h-5.342l-19.372.053h-.1V67.49h26.907V67.6c0,8.354-.039,15.331-.053,20.231v7.52A1.162,1.162,0,0,1,657.208,95.576Z" transform="translate(-333.984 -53.847)" fill="#e0e0e0"/>
      <rect id="Rectángulo_43952" data-name="Rectángulo 43952" width="8.922" height="8.922" transform="translate(305.462 23.327)" fill="#ebebeb"/>
      <path id="Trazado_251562" data-name="Trazado 251562" d="M478.692,270.5l-.141-.267-.393-.8c-.34-.708-.839-1.747-1.485-3.076l-5.424-11.329c-4.561-9.587-10.853-22.8-17.805-37.425h.228l-17.82,37.411-5.424,11.324-1.485,3.071-.393.8c-.087.18-.141.267-.141.267s.034-.092.116-.277.213-.461.369-.805c.335-.718.82-1.761,1.456-3.1,1.266-2.693,3.1-6.569,5.337-11.358l17.752-37.445.112-.238.116.238h0l17.723,37.484c2.261,4.793,4.085,8.675,5.337,11.367.626,1.334,1.111,2.377,1.455,3.1l.369.805A1.264,1.264,0,0,1,478.692,270.5Z" transform="translate(-229.95 -130.95)" fill="#e0e0e0"/>
      <path id="Trazado_251563" data-name="Trazado 251563" d="M461.557,276.791a1.166,1.166,0,0,1,0-.155l.058-.451c.058-.408.141-.97.247-1.717l.97-6.307c.8-5.337,1.907-12.716,3.129-20.862s2.348-15.525,3.2-20.862c.432-2.649.781-4.8,1.029-6.307.126-.733.228-1.305.3-1.713.039-.184.063-.33.087-.446a.858.858,0,0,1,.034-.15.742.742,0,0,1,0,.155l-.058.451c-.063.408-.146.97-.252,1.717-.228,1.509-.553,3.663-.97,6.307-.8,5.337-1.907,12.716-3.129,20.862s-2.348,15.525-3.2,20.862c-.432,2.649-.786,4.8-1.033,6.307-.126.733-.223,1.305-.3,1.713-.034.184-.063.33-.082.446A.622.622,0,0,1,461.557,276.791Z" transform="translate(-247.014 -131.243)" fill="#e0e0e0"/>
      <path id="Trazado_251564" data-name="Trazado 251564" d="M572.639,169.86c-2.12-1.111-3.027,4.022-.922,5.123h.034l.092.1a2.912,2.912,0,0,1,.6.679c.485.883.422,1.8-.218,2.193-1.509.932-3.663.359-5.167-.349-2.634-1.237-6.084-4.7-8.815-6.972-8.5-7.074-17.262-15.176-27.169-15.913a12.94,12.94,0,0,0-6.967,1.043,12.17,12.17,0,0,0-5.3-1.087c-5.279-.136-10.5,2.125-15.312,5.308-7.549,5-14.361,12.323-21.886,17.349a8.85,8.85,0,0,1-1.606.689,6.249,6.249,0,0,1-3.4.184c-.839-.238-1.5-.708-1.014-2.125a2.425,2.425,0,0,1,.587-.844,1.75,1.75,0,0,1,.33-.277c2.067-1.13,1.164-6.22-.946-5.109-4.211,2.207-4.949,11.421-.2,13.366,3.8,1.562,7.394-.713,10.674-3.338,4.425-3.527,8.733-7.307,13.182-10.829,4.958-3.949,10.086-7.568,15.685-8.733,2.465-.509,5.4-.771,7.889.364a1.087,1.087,0,0,0,1.3.679c.543.175.97-.131,1.291-.67a12.025,12.025,0,0,1,6.031-.645c5.6.529,10.872,3.794,15.826,7.632,4.551,3.522,8.99,7.37,13.487,11.037,3.294,2.688,6.4,5.245,10.271,4.89,2.707-.252,5.283-2.319,5.2-7.006C576.147,173.416,574.551,170.864,572.639,169.86Z" transform="translate(-252.443 -98.721)" fill="#ebebeb"/>
      <path id="Trazado_251565" data-name="Trazado 251565" d="M513.87,437.563v-3.648s10.043-1.218,13.584-10.5c.223.529,15.656-7.02,16.345-16.811h5.875v30.963Z" transform="translate(-273.948 -228.434)" fill="#f5f5f5"/>
      <path id="Trazado_251566" data-name="Trazado 251566" d="M621.18,437.563v-3.648s-10.043-1.218-13.584-10.5c-.223.529-15.656-7.02-16.345-16.811H585.39v30.963Z" transform="translate(-310.77 -228.434)" fill="#f5f5f5"/>
      <path id="Trazado_251567" data-name="Trazado 251567" d="M586.286,410.4l-12.294,1.368a3,3,0,0,0,1.072,2.518,6.04,6.04,0,0,0,2.489,1.2,8.541,8.541,0,0,0,5.822-.233A4.974,4.974,0,0,0,586.286,410.4Z" transform="translate(-304.898 -230.391)" fill="#ebebeb"/>
      <ellipse id="Elipse_5856" data-name="Elipse 5856" cx="7.918" cy="8.194" rx="7.918" ry="8.194" transform="translate(267.066 167.628)" fill="#f5f5f5"/>
      <path id="Trazado_251568" data-name="Trazado 251568" d="M573.161,268.883l-12.231-16.4,9.019-12.731-2.9-4.619,2.993-85.32h3.12Z" transform="translate(-298.177 -96.229)" fill="#f5f5f5"/>
      <path id="Trazado_251569" data-name="Trazado 251569" d="M586.14,268.883l12.231-16.4-9.019-12.731,2.9-4.619-2.993-85.32h-3.12Z" transform="translate(-311.156 -96.229)" fill="#f5f5f5"/>
      <ellipse id="Elipse_5857" data-name="Elipse 5857" cx="6.443" cy="6.671" rx="6.443" ry="6.671" transform="translate(268.541 41.21)" fill="#f5f5f5"/>
      <path id="Trazado_251570" data-name="Trazado 251570" d="M585.607,130.842a12.415,12.415,0,0,0-.243-1.591,6.666,6.666,0,0,0-2.314-3.6,6.225,6.225,0,0,0-2.7-1.247,6.138,6.138,0,0,0-3.4.3,5.76,5.76,0,0,0-1.606.912,6.18,6.18,0,0,0-1.324,1.4,6.379,6.379,0,0,0-.883,1.8,7.28,7.28,0,0,0-.315,2.033,7.507,7.507,0,0,0,.31,2.038,6.564,6.564,0,0,0,.888,1.79,5.983,5.983,0,0,0,1.324,1.4,5.643,5.643,0,0,0,1.606.912,6.186,6.186,0,0,0,3.4.306,6.336,6.336,0,0,0,2.7-1.247,6.69,6.69,0,0,0,2.314-3.61,12.157,12.157,0,0,0,.243-1.591,2.545,2.545,0,0,1,0,.422,3.4,3.4,0,0,1-.034.485,5.516,5.516,0,0,1-.116.689,6.432,6.432,0,0,1-.679,1.785,6.525,6.525,0,0,1-1.62,1.941,6.307,6.307,0,0,1-6.268,1.024,5.919,5.919,0,0,1-1.674-.941,6.233,6.233,0,0,1-1.378-1.455,6.793,6.793,0,0,1-.922-1.858,7.016,7.016,0,0,1,0-4.221,6.856,6.856,0,0,1,.922-1.858,6.306,6.306,0,0,1,1.378-1.455,6.167,6.167,0,0,1,1.674-.941,6.307,6.307,0,0,1,6.268,1.024,6.482,6.482,0,0,1,1.62,1.941,6.355,6.355,0,0,1,.679,1.781,5.672,5.672,0,0,1,.116.689,3.432,3.432,0,0,1,.034.485,2.5,2.5,0,0,1,0,.466Z" transform="translate(-304.18 -82.961)" fill="#e0e0e0"/>
      <path id="Trazado_251571" data-name="Trazado 251571" d="M428.39,326.94l12.187,12.614h25.257l12.847-12.566Z" transform="translate(-229.94 -187.422)" fill="#ebebeb"/>
      <path id="Trazado_251572" data-name="Trazado 251572" d="M573.54,325.67h12.226l-2.9,4.619h-6.423Z" transform="translate(-304.669 -186.769)" fill="#ebebeb"/>
      <path id="Trazado_251573" data-name="Trazado 251573" d="M585.636,325.566a.971.971,0,0,1,.315-.039v.078c-.767.049-3.1.087-5.875.087-1.708,0-3.255,0-4.366-.039-.558,0-1.014-.024-1.324-.039a1.751,1.751,0,0,1-.485-.048,1.751,1.751,0,0,1,.485-.048c.31,0,.767-.029,1.324-.039,1.121,0,2.668-.039,4.366-.039,2.77,0,5.109.039,5.875.087v.078A.969.969,0,0,1,585.636,325.566Z" transform="translate(-304.854 -186.65)" fill="#e0e0e0"/>
      <path id="Trazado_251574" data-name="Trazado 251574" d="M585.707,334.85a.648.648,0,0,1,.17-.039v.078c-.412.053-1.669.087-3.158.087a21.576,21.576,0,0,1-3.328-.126,22.32,22.32,0,0,1,3.328-.126c1.49,0,2.746.039,3.158.087v.078A.646.646,0,0,1,585.707,334.85Z" transform="translate(-307.681 -191.422)" fill="#e0e0e0"/>
      <path id="Trazado_251575" data-name="Trazado 251575" d="M560.93,361.43l9.024,12.081a9.829,9.829,0,0,1,6.428,0l9-12.081Z" transform="translate(-298.177 -205.179)" fill="#ebebeb"/>
      <path id="Trazado_251576" data-name="Trazado 251576" d="M585.413,361.371c0,.068-5.468.126-12.216.126s-12.216-.058-12.216-.126,5.468-.131,12.216-.131S585.413,361.3,585.413,361.371Z" transform="translate(-298.202 -205.081)" fill="#e0e0e0"/>
      <path id="Trazado_251577" data-name="Trazado 251577" d="M586.03,385.64a14.6,14.6,0,0,0-3.343-.412,30.446,30.446,0,0,0-3.357.412,3.3,3.3,0,0,1,.97-.33,10.932,10.932,0,0,1,2.426-.335,8.175,8.175,0,0,1,2.426.286A2.746,2.746,0,0,1,586.03,385.64Z" transform="translate(-307.65 -217.299)" fill="#e0e0e0"/>
      <path id="Trazado_251578" data-name="Trazado 251578" d="M586.528,409.4a2.573,2.573,0,0,1-.262.587,7.567,7.567,0,0,1-1.009,1.422,8.09,8.09,0,0,1-2.013,1.645,7.962,7.962,0,0,1-3.013,1.019,7.831,7.831,0,0,1-3.163-.3,8.145,8.145,0,0,1-2.329-1.15,7.425,7.425,0,0,1-1.3-1.174,2.544,2.544,0,0,1-.383-.514,12.707,12.707,0,0,0,1.781,1.538,8.058,8.058,0,0,0,5.337,1.349,8.248,8.248,0,0,0,4.92-2.528A13.125,13.125,0,0,0,586.528,409.4Z" transform="translate(-304.422 -229.876)" fill="#e0e0e0"/>
      <path id="Trazado_251579" data-name="Trazado 251579" d="M585.266,440.966c0,.073-9.7.126-21.638.126s-21.638-.053-21.638-.126,9.7-.126,21.638-.126S585.266,440.918,585.266,440.966Z" transform="translate(-288.426 -246.063)" fill="#e0e0e0"/>
      <path id="Trazado_251580" data-name="Trazado 251580" d="M583.984,462.786c0,.068-15.777.126-35.242.126s-35.242-.058-35.242-.126,15.777-.126,35.242-.126S583.984,462.713,583.984,462.786Z" transform="translate(-273.758 -257.296)" fill="#e0e0e0"/>
      <path id="Trazado_251581" data-name="Trazado 251581" d="M478.554,336.236c0,.068-9.194.126-20.532.126s-20.532-.058-20.532-.126,9.194-.126,20.532-.126S478.554,336.163,478.554,336.236Z" transform="translate(-234.625 -192.143)" fill="#e0e0e0"/>
      <rect id="Rectángulo_43953" data-name="Rectángulo 43953" width="1.95" height="7.001" rx="0.975" transform="translate(222.621 80.527)" fill="#e0e0e0"/>
      <path id="Trazado_251582" data-name="Trazado 251582" d="M668.5,270.012s-.053-.087-.141-.267l-.393-.8-1.485-3.057-5.424-11.333-17.81-37.425h.228c-6.957,14.608-13.255,27.829-17.815,37.411l-5.424,11.324c-.64,1.329-1.145,2.363-1.485,3.071l-.393.8-.141.272s.034-.1.116-.281l.369-.805,1.456-3.1,5.337-11.358c4.546-9.587,10.819-22.8,17.747-37.445l.116-.238.112.238v.024c6.928,14.623,13.2,27.863,17.742,37.454l5.337,11.367,1.456,3.1.369.805A1.448,1.448,0,0,1,668.5,270.012Z" transform="translate(-327.672 -130.708)" fill="#e0e0e0"/>
      <path id="Trazado_251583" data-name="Trazado 251583" d="M651.366,276.256a.75.75,0,0,1,0-.155,3.46,3.46,0,0,1,.063-.446c.058-.412.141-.97.247-1.722.228-1.509.553-3.663.97-6.307.805-5.337,1.912-12.721,3.129-20.862s2.348-15.525,3.2-20.862c.437-2.649.786-4.8,1.033-6.307.126-.733.223-1.305.3-1.713.034-.184.063-.33.082-.441a.486.486,0,0,1,.039-.15.58.58,0,0,1,0,.15l-.058.451c-.058.408-.141.97-.247,1.717-.228,1.509-.553,3.663-.97,6.307-.805,5.337-1.912,12.716-3.129,20.862s-2.353,15.525-3.2,20.862c-.437,2.654-.786,4.8-1.033,6.307-.126.733-.228,1.305-.3,1.713-.034.184-.063.33-.082.446a.621.621,0,0,1-.044.15Z" transform="translate(-344.735 -130.97)" fill="#e0e0e0"/>
      <path id="Trazado_251584" data-name="Trazado 251584" d="M618.2,326.4l12.182,12.614h25.262l12.847-12.566Z" transform="translate(-327.662 -187.144)" fill="#ebebeb"/>
      <path id="Trazado_251585" data-name="Trazado 251585" d="M668.359,335.7c0,.068-9.194.126-20.527.126s-20.532-.058-20.532-.126,9.189-.126,20.532-.126S668.359,335.623,668.359,335.7Z" transform="translate(-332.347 -191.865)" fill="#e0e0e0"/>
      <rect id="Rectángulo_43954" data-name="Rectángulo 43954" width="1.95" height="7.001" rx="0.975" transform="translate(314.709 80.27)" fill="#e0e0e0"/>
      <rect id="Rectángulo_43955" data-name="Rectángulo 43955" width="49.118" height="71.192" transform="translate(28.629 0)" fill="#e0e0e0"/>
      <rect id="Rectángulo_43956" data-name="Rectángulo 43956" width="49.118" height="71.192" transform="translate(26.17 0)" fill="#f5f5f5"/>
      <rect id="Rectángulo_43957" data-name="Rectángulo 43957" width="36.911" height="55.774" transform="translate(32.273 7.709)" fill="#fff"/>
      <path id="Trazado_251586" data-name="Trazado 251586" d="M122.7,110.9v-4.124c0-2.673,0-6.569-.034-11.489,0-9.834-.034-23.773-.058-40.162l.121.121H85.815l.131-.131c0,21.041,0,40.438-.029,55.793l-.1-.107,26.863.053,7.423.029h.024l-7.4.029-26.931.058h-.107v-.107c0-15.336,0-34.733-.029-55.793V55h37.158v.121c0,16.432-.044,30.386-.058,40.239,0,4.91-.024,8.8-.034,11.464v3.809A.933.933,0,0,1,122.7,110.9Z" transform="translate(-53.489 -47.417)" fill="#e0e0e0"/>
      <path id="Trazado_251587" data-name="Trazado 251587" d="M167.7,39.37a9.069,9.069,0,0,1-.878,1.276c-.572.762-1.383,1.8-2.3,2.911s-1.79,2.115-2.426,2.824A8.671,8.671,0,0,1,161,47.487a9.282,9.282,0,0,1,.97-1.223l2.363-2.872,2.363-2.867a8.937,8.937,0,0,1,1-1.155Z" transform="translate(-92.277 -39.37)" fill="#e0e0e0"/>
      <path id="Trazado_251588" data-name="Trazado 251588" d="M162.34,169.85a45.92,45.92,0,0,0,6.438,8.049" transform="translate(-92.967 -106.546)" fill="#fff"/>
      <path id="Trazado_251589" data-name="Trazado 251589" d="M168.778,177.9a7.2,7.2,0,0,1-1.126-1.019,35.488,35.488,0,0,1-2.426-2.741,36.229,36.229,0,0,1-2.14-2.969,7.364,7.364,0,0,1-.747-1.32,9.33,9.33,0,0,1,.9,1.213c.543.757,1.305,1.8,2.193,2.911s1.732,2.081,2.358,2.775A10.485,10.485,0,0,1,168.778,177.9Z" transform="translate(-92.967 -106.546)" fill="#e0e0e0"/>
      <path id="Trazado_251590" data-name="Trazado 251590" d="M73.27,177.577,79.7,169.64" transform="translate(-47.11 -106.438)" fill="#fff"/>
      <path id="Trazado_251591" data-name="Trazado 251591" d="M79.7,169.63a48,48,0,0,1-3.11,4.061,49.3,49.3,0,0,1-3.323,3.881,50.174,50.174,0,0,1,3.115-4.051A50.616,50.616,0,0,1,79.7,169.63Z" transform="translate(-47.11 -106.433)" fill="#e0e0e0"/>
      <path id="Trazado_251592" data-name="Trazado 251592" d="M73.29,39.37A43.664,43.664,0,0,1,76.41,43.1a43.247,43.247,0,0,1,2.911,3.881A44.791,44.791,0,0,1,76.2,43.246,44.945,44.945,0,0,1,73.29,39.37Z" transform="translate(-47.12 -39.37)" fill="#e0e0e0"/>
      <rect id="Rectángulo_43958" data-name="Rectángulo 43958" width="12.362" height="35.092" transform="translate(45.324 19.033)" fill="#e0e0e0"/>
      <path id="Trazado_251593" data-name="Trazado 251593" d="M34.113,367.912a16.768,16.768,0,0,0-7.176-2.469,4.767,4.767,0,0,0-3.4.626c-.2.15-.4.374-.349.616a.737.737,0,0,0,.33.427,10.263,10.263,0,0,0,10.591.8" transform="translate(-21.324 -207.217)" fill="#e0e0e0"/>
      <path id="Trazado_251594" data-name="Trazado 251594" d="M37.221,358.231a34.355,34.355,0,0,1-4.633-4.08,11.712,11.712,0,0,1-2.911-5.376,2.174,2.174,0,0,1,.233-1.8c3.7,2.887,6.6,6.618,7.311,11.251" transform="translate(-24.616 -197.74)" fill="#e0e0e0"/>
      <path id="Trazado_251595" data-name="Trazado 251595" d="M45.379,358.745a16.753,16.753,0,0,1,.087-6.079,8.248,8.248,0,0,1,3.246-5.026,7.2,7.2,0,0,1-.087,4.774,23.093,23.093,0,0,1-3.217,6.768" transform="translate(-32.629 -198.08)" fill="#e0e0e0"/>
      <path id="Trazado_251596" data-name="Trazado 251596" d="M43.5,383.92a10.606,10.606,0,0,0-5.754,2.911,10.872,10.872,0,0,0-3.294,5.652c2.154-.131,3.988-1.654,5.313-3.357s2.232-3.581,3.687-5.167" transform="translate(-27.124 -216.758)" fill="#e0e0e0"/>
      <path id="Trazado_251597" data-name="Trazado 251597" d="M53.673,371.8a14.215,14.215,0,0,1,1.64-13.434,17.077,17.077,0,0,1-1.64,13.434" transform="translate(-36.513 -203.604)" fill="#e0e0e0"/>
      <path id="Trazado_251598" data-name="Trazado 251598" d="M54.013,397.789a10.261,10.261,0,0,0-9.815,5.647c-.126.247-.233.553-.068.771a.733.733,0,0,0,.65.194,8.542,8.542,0,0,0,5.065-2.615,49.7,49.7,0,0,1,4.211-4.007" transform="translate(-32.065 -223.888)" fill="#e0e0e0"/>
      <path id="Trazado_251599" data-name="Trazado 251599" d="M63.4,382.736a18.252,18.252,0,0,1-.184-10.218,5,5,0,0,1,2.178-3.314.422.422,0,0,1,.335-.058.456.456,0,0,1,.213.243,6.113,6.113,0,0,1,.485,2.911,18.073,18.073,0,0,1-.456,2.969c-.383,1.81-.587,3.76-1.582,5.337a10.076,10.076,0,0,0-.631,1.169c-.189.4-.189.539-.364.854" transform="translate(-41.606 -209.146)" fill="#e0e0e0"/>
      <path id="Trazado_251600" data-name="Trazado 251600" d="M90.025,389.119a13.174,13.174,0,0,1,2.3-10.829c.17-.218.388-.446.66-.422.412.039.519.592.485,1a19.552,19.552,0,0,1-3.464,10.247" transform="translate(-55.555 -213.641)" fill="#e0e0e0"/>
      <path id="Trazado_251601" data-name="Trazado 251601" d="M92.75,398.7a15.753,15.753,0,0,0,12.925-2.63,10.48,10.48,0,0,0-6.981-.859,9.975,9.975,0,0,0-5.929,3.488" transform="translate(-57.139 -222.442)" fill="#e0e0e0"/>
      <path id="Trazado_251602" data-name="Trazado 251602" d="M94.74,390.562a14.954,14.954,0,0,1,11.731-6.792,7.238,7.238,0,0,1-3.838,4.24A21.253,21.253,0,0,1,97,389.655a3.95,3.95,0,0,0-2.261.9" transform="translate(-58.164 -216.681)" fill="#e0e0e0"/>
      <path id="Trazado_251603" data-name="Trazado 251603" d="M89.108,359.492a34.141,34.141,0,0,0,1.509-6.88,11.457,11.457,0,0,0-1.368-6.792,14.953,14.953,0,0,0-.2,13.9" transform="translate(-54.4 -197.143)" fill="#e0e0e0"/>
      <path id="Trazado_251604" data-name="Trazado 251604" d="M106.65,356.218A18.418,18.418,0,0,1,120.2,347c-2.11,5.264-7.874,9.334-13.546,9.218" transform="translate(-64.295 -197.75)" fill="#e0e0e0"/>
      <path id="Trazado_251605" data-name="Trazado 251605" d="M103.2,367.166c3.959.6,7.336,3.134,11.033,4.662a4.919,4.919,0,0,0,2.494.485,1.941,1.941,0,0,0,1.223-3.454,5.337,5.337,0,0,0-1.81-1.1,20.168,20.168,0,0,0-12.614-.7" transform="translate(-62.519 -207.727)" fill="#e0e0e0"/>
      <path id="Trazado_251606" data-name="Trazado 251606" d="M98.48,373.488a4.65,4.65,0,0,1,1.912,1.329,20.678,20.678,0,0,0,8.369,4.294c.315.083.737.112.893-.175s-.034-.558-.213-.786a11.522,11.522,0,0,0-5.051-3.425c-1.941-.718-3.6-1.586-5.909-1.4" transform="translate(-60.089 -211.289)" fill="#e0e0e0"/>
      <path id="Trazado_251607" data-name="Trazado 251607" d="M93.14,338.676a15.845,15.845,0,0,0,12.129,4.129.825.825,0,0,0,.553-.2c.306-.33-.063-.844-.417-1.121a13.982,13.982,0,0,0-12.275-2.809" transform="translate(-57.335 -193.244)" fill="#e0e0e0"/>
      <path id="Trazado_251608" data-name="Trazado 251608" d="M99.47,333.326a16.913,16.913,0,0,1,15.147-2.5A12.037,12.037,0,0,1,107.4,334a22.9,22.9,0,0,1-7.928-.67" transform="translate(-60.599 -189.015)" fill="#e0e0e0"/>
      <path id="Trazado_251609" data-name="Trazado 251609" d="M94.833,309.565c-.349-3.561-.121-6.37-.369-9.951,0-.286-.082-.631-.349-.733-.374-.141-.684.315-.805.694a11.4,11.4,0,0,0,1.523,9.912" transform="translate(-57.16 -172.964)" fill="#e0e0e0"/>
      <path id="Trazado_251610" data-name="Trazado 251610" d="M96.43,309.867a20.945,20.945,0,0,0,5.9-5.735c1.164-1.6,2.149-3.508,1.882-5.463a5.652,5.652,0,0,0-4.255,2.1,11.906,11.906,0,0,0-2.169,4.366c-.485,1.567-.805,3.178-1.358,4.721" transform="translate(-59.034 -172.868)" fill="#e0e0e0"/>
      <path id="Trazado_251611" data-name="Trazado 251611" d="M108.3,308.961a47.614,47.614,0,0,0,14.521-8.563,7.415,7.415,0,0,0-5.453.417,17.208,17.208,0,0,0-9.145,8.107" transform="translate(-65.104 -173.573)" fill="#e0e0e0"/>
      <path id="Trazado_251612" data-name="Trazado 251612" d="M99.79,321.3a29.341,29.341,0,0,0,8.063.039,33.112,33.112,0,0,0,7.525-2.5.912.912,0,0,0,.514-.388.592.592,0,0,0-.184-.645,1.558,1.558,0,0,0-.64-.3,13.971,13.971,0,0,0-8.136.485A37.845,37.845,0,0,0,99.79,321.3" transform="translate(-60.764 -182.36)" fill="#e0e0e0"/>
      <path id="Trazado_251613" data-name="Trazado 251613" d="M66.823,326.854a14.254,14.254,0,0,1-.131-11.8,9.021,9.021,0,0,1,1.043,5.87c-.2,2.018-.815,4.09-.859,6.118" transform="translate(-43.099 -181.301)" fill="#e0e0e0"/>
      <path id="Trazado_251614" data-name="Trazado 251614" d="M40.221,331.789A16.5,16.5,0,0,0,28,337a11.489,11.489,0,0,0,6.686-1.227,34.345,34.345,0,0,0,5.739-3.842" transform="translate(-23.803 -189.918)" fill="#e0e0e0"/>
      <path id="Trazado_251615" data-name="Trazado 251615" d="M30.858,328.173c-2.237-.18-4.366-.456-6.53.2a7.835,7.835,0,0,0-4.978,4.221,11.78,11.78,0,0,0,6.137-1.155,35.7,35.7,0,0,0,5.385-3.265" transform="translate(-19.35 -187.947)" fill="#e0e0e0"/>
      <path id="Trazado_251616" data-name="Trazado 251616" d="M44.154,324.916a20.6,20.6,0,0,0-6.409-3.207,6.986,6.986,0,0,0-6.686,1.625,12.464,12.464,0,0,0,6.39,1.237,21.978,21.978,0,0,1,6.957.708" transform="translate(-25.379 -184.612)" fill="#e0e0e0"/>
      <path id="Trazado_251617" data-name="Trazado 251617" d="M53.941,313.871c-3.435-3.372-4.74-9.432-3.357-14.041a21.386,21.386,0,0,1,3.357,14.041" transform="translate(-35.15 -173.465)" fill="#e0e0e0"/>
      <path id="Trazado_251618" data-name="Trazado 251618" d="M77.55,297.311c.645-1.5,1.1-3.086,1.684-4.619a13.337,13.337,0,0,1,2.426-4.26,6.351,6.351,0,0,1,4.255-2.2,17.126,17.126,0,0,1-8.248,11.105" transform="translate(-49.314 -166.463)" fill="#e0e0e0"/>
      <path id="Trazado_251619" data-name="Trazado 251619" d="M64.573,306.756c-1.072-1.455-2.309-3.479-3.76-4.58a6.284,6.284,0,0,0-5.123-1.344,11.93,11.93,0,0,0,8.883,5.924" transform="translate(-38.059 -173.914)" fill="#e0e0e0"/>
      <path id="Trazado_251620" data-name="Trazado 251620" d="M72.78,297.581a25.283,25.283,0,0,1-1.693-5.5,8.558,8.558,0,0,1,.854-5.574c1.882,3.566,2.494,7.394.932,11.11" transform="translate(-45.912 -166.607)" fill="#e0e0e0"/>
      <path id="Trazado_251621" data-name="Trazado 251621" d="M77.58,278.507c1.067-3.532,4.3-6.132,7.8-7.326a2.91,2.91,0,0,1,1.368-.2,1.179,1.179,0,0,1,1.009.839c.126.6-.369,1.14-.839,1.538a26.433,26.433,0,0,1-9.334,5.152" transform="translate(-49.329 -158.604)" fill="#e0e0e0"/>
      <path id="Trazado_251622" data-name="Trazado 251622" d="M77.6,267.957a25.446,25.446,0,0,1,1.019-6.749,8.514,8.514,0,0,1,4.25-5.128c.354,2.3-.665,4.59-1.887,6.569s-2.7,3.847-3.435,6.06" transform="translate(-49.314 -150.941)" fill="#e0e0e0"/>
      <path id="Trazado_251623" data-name="Trazado 251623" d="M70.527,270.646c-.883-2.576-.97-5.846-2.518-8.088-1.077-1.572-2.8-2.639-3.731-4.3a6.535,6.535,0,0,0,.218,4.876,14,14,0,0,0,2.853,4.085c1.14,1.218,2.115,2.135,3.178,3.425" transform="translate(-42.29 -152.063)" fill="#e0e0e0"/>
      <path id="Trazado_251624" data-name="Trazado 251624" d="M77.441,358.673c-.068,0-.126-17.18-.131-38.362s.049-38.371.116-38.371.126,17.175.131,38.371S77.509,358.673,77.441,358.673Z" transform="translate(-49.19 -164.255)" fill="#e0e0e0"/>
      <path id="Trazado_251625" data-name="Trazado 251625" d="M92.571,334a3.984,3.984,0,0,1-.65.243l-1.776.6c-1.5.514-3.556,1.252-5.793,2.169a21.914,21.914,0,0,0-5.487,2.746,4.06,4.06,0,0,0-1.1,1.455c-.17.4-.2.65-.223.645s0-.063,0-.18a3.092,3.092,0,0,1,.126-.485,3.882,3.882,0,0,1,1.063-1.548,9.744,9.744,0,0,1,2.426-1.48c.97-.441,2.009-.907,3.129-1.368,2.241-.917,4.313-1.63,5.822-2.1.757-.238,1.373-.412,1.8-.524A3.428,3.428,0,0,1,92.571,334Z" transform="translate(-49.304 -191.057)" fill="#e0e0e0"/>
      <path id="Trazado_251626" data-name="Trazado 251626" d="M98.756,309.12s-.058.073-.18.194l-.553.519L95.966,311.7l-6.85,6.094c-2.673,2.382-4.983,4.658-6.584,6.37-.805.854-1.455,1.562-1.868,2.057l-.485.568c-.116.126-.18.194-.189.189a1.457,1.457,0,0,1,.15-.223,6.809,6.809,0,0,1,.485-.6c.408-.514,1.024-1.242,1.81-2.115a87.44,87.44,0,0,1,6.55-6.433c2.683-2.372,5.123-4.507,6.9-6.045l2.11-1.81.582-.485a1.242,1.242,0,0,1,.18-.15Z" transform="translate(-50.57 -178.248)" fill="#e0e0e0"/>
      <path id="Trazado_251627" data-name="Trazado 251627" d="M92.844,325.688c-.068-.029.485-1.32,1.043-2.95s.83-3.008.9-3a9.926,9.926,0,0,1-.66,3.076,19.355,19.355,0,0,1-.834,2.067,3.217,3.217,0,0,1-.446.805Z" transform="translate(-57.185 -183.715)" fill="#e0e0e0"/>
      <path id="Trazado_251628" data-name="Trazado 251628" d="M67.05,340.111a3.06,3.06,0,0,1-.412-.485l-1.058-1.354c-.888-1.145-2.11-2.731-3.483-4.459s-2.639-3.285-3.556-4.41l-1.077-1.334a3.707,3.707,0,0,1-.374-.509,2.73,2.73,0,0,1,.446.446c.277.3.665.737,1.14,1.286.97,1.1,2.237,2.634,3.614,4.366s2.581,3.333,3.43,4.507c.427.587.767,1.067.995,1.4A3.571,3.571,0,0,1,67.05,340.111Z" transform="translate(-38.78 -187.742)" fill="#e0e0e0"/>
      <path id="Trazado_251629" data-name="Trazado 251629" d="M69.026,339.2a6.055,6.055,0,0,1-1.373-2.581,7.452,7.452,0,0,1-.315-2.6h.112c-.049.2-.082.3-.107.3s0-.116,0-.32h.107a11.857,11.857,0,0,0,.441,2.533,19.519,19.519,0,0,0,1.135,2.668Z" transform="translate(-44.05 -191.057)" fill="#e0e0e0"/>
      <path id="Trazado_251630" data-name="Trazado 251630" d="M54.167,332.559A4.667,4.667,0,0,0,53.2,332a6.525,6.525,0,0,0-2.673-.213,16.672,16.672,0,0,0-2.7.432,8.292,8.292,0,0,1-1.106.267,3.731,3.731,0,0,1,1.058-.437,12.424,12.424,0,0,1,2.722-.514,5.793,5.793,0,0,1,2.756.3,1.693,1.693,0,0,1,.912.723Z" transform="translate(-33.441 -189.762)" fill="#e0e0e0"/>
      <path id="Trazado_251631" data-name="Trazado 251631" d="M48.931,329.327c0,.039-.563-.223-1.455-.534a15.039,15.039,0,0,0-3.682-.757,15.244,15.244,0,0,0-3.755.189c-.97.17-1.523.349-1.538.306a1.577,1.577,0,0,1,.393-.165A9.575,9.575,0,0,1,40,328.051a13.207,13.207,0,0,1,3.809-.262,13.027,13.027,0,0,1,3.721.839,9.563,9.563,0,0,1,1.053.485,1.568,1.568,0,0,1,.344.213Z" transform="translate(-29.209 -187.84)" fill="#e0e0e0"/>
      <path id="Trazado_251632" data-name="Trazado 251632" d="M75.522,311.745a60.339,60.339,0,0,1-1.912-7.535,30.626,30.626,0,0,1,1.077,3.741A32.017,32.017,0,0,1,75.522,311.745Z" transform="translate(-47.285 -175.72)" fill="#e0e0e0"/>
      <path id="Trazado_251633" data-name="Trazado 251633" d="M74.56,315.446a17.86,17.86,0,0,0-1.193-2.237,9.776,9.776,0,0,0-1.756-1.81,1.689,1.689,0,0,1,.679.349,5.468,5.468,0,0,1,1.281,1.32A4.978,4.978,0,0,1,74.56,315.446Z" transform="translate(-46.255 -179.422)" fill="#e0e0e0"/>
      <path id="Trazado_251634" data-name="Trazado 251634" d="M60.884,394.618s-.078-.412-.267-1.145a16.6,16.6,0,0,0-1.15-2.974,41.2,41.2,0,0,0-6.094-8.582c-1.358-1.553-2.678-3.018-3.8-4.42a30.567,30.567,0,0,1-2.712-3.92,18.513,18.513,0,0,1-1.373-2.911c-.126-.359-.218-.636-.272-.83a1.275,1.275,0,0,1-.068-.3s.146.393.432,1.092a21.16,21.16,0,0,0,1.455,2.853,32.834,32.834,0,0,0,2.741,3.881c1.126,1.392,2.426,2.848,3.809,4.405a39.572,39.572,0,0,1,6.045,8.65,14.928,14.928,0,0,1,1.087,3.027c.078.374.131.665.15.864A1.31,1.31,0,0,1,60.884,394.618Z" transform="translate(-32.633 -209.355)" fill="#e0e0e0"/>
      <path id="Trazado_251635" data-name="Trazado 251635" d="M91.14,389.64a5.649,5.649,0,0,1-.708.4,15.765,15.765,0,0,0-1.844,1.218,21.2,21.2,0,0,0-2.426,2.207c-.854.9-1.727,1.941-2.62,3.061-1.79,2.241-3.459,4.226-4.459,5.822-.485.786-.878,1.456-1.121,1.912a5.735,5.735,0,0,1-.393.718.776.776,0,0,1,.068-.2c.053-.126.126-.32.238-.558a18.647,18.647,0,0,1,1.058-1.941,62.759,62.759,0,0,1,4.415-5.87c.893-1.121,1.781-2.169,2.649-3.061a19.486,19.486,0,0,1,2.479-2.193,12.75,12.75,0,0,1,1.907-1.164c.233-.116.427-.189.553-.247a1.157,1.157,0,0,1,.2-.1Z" transform="translate(-49.324 -219.703)" fill="#e0e0e0"/>
      <path id="Trazado_251636" data-name="Trazado 251636" d="M96.143,399.876a10.508,10.508,0,0,1-1.5.218,20.074,20.074,0,0,0-3.561.7,10.624,10.624,0,0,0-3.192,1.674c-.737.568-1.082,1.038-1.116,1.009a1.14,1.14,0,0,1,.223-.344,5.749,5.749,0,0,1,.781-.781A9.761,9.761,0,0,1,91,400.579a16.248,16.248,0,0,1,3.644-.65,8.082,8.082,0,0,1,1.5-.053Z" transform="translate(-54.06 -224.966)" fill="#e0e0e0"/>
      <path id="Trazado_251637" data-name="Trazado 251637" d="M87.664,400.794c-.078-.044.6-1.082,1.126-2.469s.606-2.639.7-2.625a2.581,2.581,0,0,1-.024.81,8.9,8.9,0,0,1-.441,1.9,9.18,9.18,0,0,1-.868,1.742A2.575,2.575,0,0,1,87.664,400.794Z" transform="translate(-54.517 -222.823)" fill="#e0e0e0"/>
      <path id="Trazado_251638" data-name="Trazado 251638" d="M95.525,362.14a.85.85,0,0,1-.243.126l-.7.32c-.311.136-.684.3-1.106.524s-.922.446-1.455.757l-.82.485c-.286.165-.568.359-.868.543-.6.369-1.208.82-1.853,1.281a35.1,35.1,0,0,0-3.881,3.4,34.71,34.71,0,0,0-3.27,3.988c-.441.665-.873,1.286-1.218,1.9-.175.306-.359.592-.514.883l-.437.834c-.3.524-.485,1.029-.708,1.456a10.074,10.074,0,0,0-.485,1.126c-.121.315-.218.529-.3.718a1.266,1.266,0,0,1-.116.243.97.97,0,0,1,.068-.262c.068-.194.155-.437.257-.733s.252-.708.446-1.145.393-.97.674-1.485c.136-.272.281-.553.427-.849s.335-.587.485-.9c.344-.626.771-1.252,1.208-1.941a30.778,30.778,0,0,1,7.243-7.457,21.818,21.818,0,0,1,1.882-1.271c.3-.184.587-.374.878-.534l.83-.456c.524-.3,1.029-.519,1.455-.723s.815-.369,1.13-.485l.728-.277a.916.916,0,0,1,.262-.068Z" transform="translate(-49.314 -205.545)" fill="#e0e0e0"/>
      <path id="Trazado_251639" data-name="Trazado 251639" d="M92.47,375.095a1.747,1.747,0,0,1,.592-.883,3.755,3.755,0,0,1,2.377-.912,6.516,6.516,0,0,1,2.5.485,3.561,3.561,0,0,1,.97.485,5.821,5.821,0,0,1-1-.3,7.7,7.7,0,0,0-2.426-.408,3.881,3.881,0,0,0-2.275.8A6.615,6.615,0,0,0,92.47,375.095Z" transform="translate(-56.995 -211.29)" fill="#e0e0e0"/>
      <path id="Trazado_251640" data-name="Trazado 251640" d="M89.16,375.613a9.015,9.015,0,0,0,.679-2.2,8.878,8.878,0,0,0-.155-2.295,1.455,1.455,0,0,1,.281.64,4.585,4.585,0,0,1-.383,3.294C89.369,375.428,89.184,375.627,89.16,375.613Z" transform="translate(-55.291 -210.168)" fill="#e0e0e0"/>
      <path id="Trazado_251641" data-name="Trazado 251641" d="M53.13,426.3a56.872,56.872,0,0,0,5.39,19.993H71.755a57.361,57.361,0,0,0,5.07-19.993Z" transform="translate(-36.741 -238.577)" fill="#e0e0e0"/>
      <path id="Trazado_251642" data-name="Trazado 251642" d="M76.926,448.066c0,.068-4.366.121-9.732.121s-9.7-.053-9.7-.121,4.366-.126,9.7-.126S76.926,447.993,76.926,448.066Z" transform="translate(-38.986 -249.718)" fill="#fafafa"/>
      <path id="Trazado_251643" data-name="Trazado 251643" d="M77.577,452.966c0,.068-4.085.121-9.121.121s-9.126-.053-9.126-.121,4.085-.126,9.126-.126S77.577,452.918,77.577,452.966Z" transform="translate(-39.933 -252.241)" fill="#fafafa"/>
      <path id="Trazado_251644" data-name="Trazado 251644" d="M64.551,435.18a36.915,36.915,0,0,1,0,6.1,38.391,38.391,0,0,1,0-6.1Z" transform="translate(-42.559 -243.149)" fill="#fafafa"/>
      <path id="Trazado_251645" data-name="Trazado 251645" d="M79.162,435.18a39.6,39.6,0,0,1,0,6.307A41.186,41.186,0,0,1,79.162,435.18Z" transform="translate(-50.081 -243.149)" fill="#fafafa"/>
      <path id="Trazado_251646" data-name="Trazado 251646" d="M92.871,435.07a41.2,41.2,0,0,1,0,6.443,42.84,42.84,0,0,1,0-6.443Z" transform="translate(-57.139 -243.092)" fill="#fafafa"/>
      <path id="Trazado_251647" data-name="Trazado 251647" d="M76.877,435.051c0,.073-5.109.126-11.411.126s-11.416-.053-11.416-.126,5.114-.121,11.416-.121S76.877,434.964,76.877,435.051Z" transform="translate(-37.215 -243.02)" fill="#fafafa"/>
    </g>
    <g id="freepik--Floor--inject-34" transform="translate(182.979 6855.554)">
      <path id="Trazado_251648" data-name="Trazado 251648" d="M361.716,470.286c0,.068-75.273.126-168.1.126s-168.123-.058-168.123-.126,75.258-.126,168.123-.126S361.716,470.213,361.716,470.286Z" transform="translate(-25.49 -470.16)" fill="#263238"/>
    </g>
    <g id="freepik--Books--inject-34" transform="translate(200.653 6786.341)">
      <path id="Trazado_251649" data-name="Trazado 251649" d="M108.157,396.374H186.1V374.94H108.157a10.717,10.717,0,0,0-10.717,10.7h0a10.717,10.717,0,0,0,10.717,10.732Z" transform="translate(-80.207 -351.924)" fill="#455a64"/>
      <path id="Trazado_251650" data-name="Trazado 251650" d="M110.558,396.786H188.61V380.32H110.558a8.248,8.248,0,0,0-8.248,8.248h0A8.248,8.248,0,0,0,110.558,396.786Z" transform="translate(-82.714 -354.694)" fill="#f5f5f5"/>
      <path id="Trazado_251651" data-name="Trazado 251651" d="M292.243,380.3a8.621,8.621,0,0,0-3.823,7.277,16.829,16.829,0,0,0,3.217,9.189H266s-3.4-2.135-3.052-8.248a8.224,8.224,0,0,1,2.683-5.9,12.491,12.491,0,0,1,5.672-2.334Z" transform="translate(-165.402 -354.678)" fill="#e0e0e0"/>
      <path id="Trazado_251652" data-name="Trazado 251652" d="M280.19,377.55h23.472a1.305,1.305,0,0,0,1.305-1.305h0a1.305,1.305,0,0,0-1.305-1.305H280.19Z" transform="translate(-174.294 -351.924)" fill="#455a64"/>
      <path id="Trazado_251653" data-name="Trazado 251653" d="M280.19,416.618h23.6a1.179,1.179,0,0,0,1.179-1.179h0a1.179,1.179,0,0,0-1.179-1.179h-23.6Z" transform="translate(-174.294 -372.167)" fill="#455a64"/>
      <path id="Trazado_251654" data-name="Trazado 251654" d="M277.76,409.366c0-.068,4.027-.126,8.99-.126s8.995.058,8.995.126-4.027.126-8.995.126S277.76,409.434,277.76,409.366Z" transform="translate(-173.043 -369.583)" fill="#263238"/>
      <path id="Trazado_251655" data-name="Trazado 251655" d="M272.35,400.346c0-.068,4.4-.126,9.82-.126s9.815.058,9.815.126-4.4.126-9.815.126S272.35,400.419,272.35,400.346Z" transform="translate(-170.258 -364.939)" fill="#263238"/>
      <path id="Trazado_251656" data-name="Trazado 251656" d="M269.34,396.341c0-.073,3.634-.131,8.117-.131s8.122.058,8.122.131-3.634.126-8.122.126S269.34,396.409,269.34,396.341Z" transform="translate(-168.708 -362.875)" fill="#263238"/>
      <path id="Trazado_251657" data-name="Trazado 251657" d="M272,389.526c0-.068,4.439-.126,9.917-.126s9.912.058,9.912.126-4.439.126-9.912.126S272,389.6,272,389.526Z" transform="translate(-170.077 -359.368)" fill="#263238"/>
      <path id="Trazado_251658" data-name="Trazado 251658" d="M282.57,383.516c0-.068,3.483-.126,7.763-.126s7.763.058,7.763.126-3.483.126-7.763.126S282.57,383.589,282.57,383.516Z" transform="translate(-175.519 -356.274)" fill="#263238"/>
      <path id="Trazado_251659" data-name="Trazado 251659" d="M124.08,387.726c0-.068,14.8-.126,33.049-.126s33.054.058,33.054.126-14.8.126-33.054.126S124.08,387.794,124.08,387.726Z" transform="translate(-93.922 -358.442)" fill="#263238"/>
      <path id="Trazado_251660" data-name="Trazado 251660" d="M114.46,391.936c0-.073,14.865-.126,33.195-.126s33.2.053,33.2.126-14.86.126-33.2.126S114.46,392,114.46,391.936Z" transform="translate(-88.97 -360.609)" fill="#263238"/>
      <path id="Trazado_251661" data-name="Trazado 251661" d="M107,396.746c0-.073,16.151-.126,36.067-.126s36.067.053,36.067.126-16.146.126-36.067.126S107,396.8,107,396.746Z" transform="translate(-85.129 -363.086)" fill="#263238"/>
      <path id="Trazado_251662" data-name="Trazado 251662" d="M117.06,401.346c0-.068,15.04-.126,33.636-.126s33.636.058,33.636.126-15.04.126-33.636.126S117.06,401.419,117.06,401.346Z" transform="translate(-90.308 -365.454)" fill="#263238"/>
      <path id="Trazado_251663" data-name="Trazado 251663" d="M120.27,407.161c0-.073,14.341-.131,32.021-.131s32.021.058,32.021.131-14.336.126-32.021.126S120.27,407.229,120.27,407.161Z" transform="translate(-91.961 -368.445)" fill="#263238"/>
      <g id="Grupo_145415" data-name="Grupo 145415" transform="translate(105.896 23.016)" opacity="0.3">
        <path id="Trazado_251664" data-name="Trazado 251664" d="M280.19,377.55h23.472a1.305,1.305,0,0,0,1.305-1.305h0a1.305,1.305,0,0,0-1.305-1.305H280.19Z" transform="translate(-280.19 -374.94)"/>
      </g>
      <g id="Grupo_145416" data-name="Grupo 145416" transform="translate(105.896 42.093)" opacity="0.3">
        <path id="Trazado_251665" data-name="Trazado 251665" d="M280.19,416.618h23.6a1.179,1.179,0,0,0,1.179-1.179h0a1.179,1.179,0,0,0-1.179-1.179h-23.6Z" transform="translate(-280.19 -414.26)"/>
      </g>
      <path id="Trazado_251666" data-name="Trazado 251666" d="M211.869,443.983H121.28V419.07h90.589a12.454,12.454,0,0,1,12.459,12.454h0A12.459,12.459,0,0,1,211.869,443.983Z" transform="translate(-92.481 -374.644)" fill="#20cb7d"/>
      <path id="Trazado_251667" data-name="Trazado 251667" d="M212.005,444.464H121.28V425.32h90.725a9.567,9.567,0,0,1,9.567,9.572h0A9.572,9.572,0,0,1,212.005,444.464Z" transform="translate(-92.481 -377.862)" fill="#f5f5f5"/>
      <path id="Trazado_251668" data-name="Trazado 251668" d="M71.1,425.31a10.023,10.023,0,0,1,4.444,8.461A19.533,19.533,0,0,1,71.8,444.444h29.813s3.939-2.484,3.547-9.572a9.59,9.59,0,0,0-3.115-6.86,14.506,14.506,0,0,0-6.593-2.712Z" transform="translate(-66.646 -377.851)" fill="#e0e0e0"/>
      <path id="Trazado_251669" data-name="Trazado 251669" d="M90.719,422.1H63.439a1.519,1.519,0,0,1-1.519-1.519h0a1.519,1.519,0,0,1,1.519-1.514H90.719Z" transform="translate(-61.92 -374.644)" fill="#20cb7d"/>
      <path id="Trazado_251670" data-name="Trazado 251670" d="M90.719,467.516H63.288a1.368,1.368,0,0,1-1.368-1.368h0a1.368,1.368,0,0,1,1.368-1.368H90.719Z" transform="translate(-61.92 -398.177)" fill="#20cb7d"/>
      <path id="Trazado_251671" data-name="Trazado 251671" d="M101.91,459.106c0,.068-4.677.126-10.45.126S81,459.174,81,459.106s4.677-.126,10.45-.126S101.91,459.033,101.91,459.106Z" transform="translate(-71.743 -395.191)" fill="#263238"/>
      <path id="Trazado_251672" data-name="Trazado 251672" d="M106.172,448.626c0,.068-5.109.126-11.411.126s-11.411-.058-11.411-.126,5.109-.126,11.411-.126S106.172,448.553,106.172,448.626Z" transform="translate(-72.953 -389.796)" fill="#263238"/>
      <path id="Trazado_251673" data-name="Trazado 251673" d="M113.868,443.966c0,.068-4.226.126-9.436.126S95,444.034,95,443.966s4.226-.126,9.436-.126S113.868,443.918,113.868,443.966Z" transform="translate(-78.951 -387.396)" fill="#263238"/>
      <path id="Trazado_251674" data-name="Trazado 251674" d="M106.4,436.046c0,.068-5.162.126-11.527.126s-11.523-.058-11.523-.126,5.157-.126,11.523-.126S106.4,435.959,106.4,436.046Z" transform="translate(-72.953 -383.319)" fill="#263238"/>
      <path id="Trazado_251675" data-name="Trazado 251675" d="M99.327,429.056c0,.073-4.046.126-9.039.126s-9.039-.053-9.039-.126,4.046-.126,9.039-.126S99.327,428.988,99.327,429.056Z" transform="translate(-71.872 -379.72)" fill="#263238"/>
      <path id="Trazado_251676" data-name="Trazado 251676" d="M221.2,433.946c0,.073-17.2.131-38.415.131s-38.42-.058-38.42-.131,17.2-.126,38.42-.126S221.2,433.878,221.2,433.946Z" transform="translate(-104.369 -382.238)" fill="#263238"/>
      <path id="Trazado_251677" data-name="Trazado 251677" d="M232.025,438.866c0,.068-17.277.126-38.585.126s-38.59-.058-38.59-.126,17.272-.126,38.59-.126S232.025,438.784,232.025,438.866Z" transform="translate(-109.764 -384.771)" fill="#263238"/>
      <path id="Trazado_251678" data-name="Trazado 251678" d="M233.565,444.436c0,.068-18.771.126-41.923.126s-41.923-.058-41.923-.126,18.766-.126,41.923-.126S233.565,444.363,233.565,444.436Z" transform="translate(-107.123 -387.638)" fill="#263238"/>
      <path id="Trazado_251679" data-name="Trazado 251679" d="M227.913,449.786c0,.073-17.5.126-39.094.126s-39.1-.053-39.1-.126,17.5-.126,39.1-.126S227.913,449.718,227.913,449.786Z" transform="translate(-107.123 -390.393)" fill="#263238"/>
      <path id="Trazado_251680" data-name="Trazado 251680" d="M228.147,456.546c0,.068-16.675.126-37.231.126s-37.236-.058-37.236-.126,16.67-.126,37.236-.126S228.147,456.473,228.147,456.546Z" transform="translate(-109.162 -393.873)" fill="#263238"/>
      <g id="Grupo_145417" data-name="Grupo 145417" transform="translate(0 44.426)" opacity="0.3">
        <path id="Trazado_251681" data-name="Trazado 251681" d="M90.719,422.1H63.439a1.519,1.519,0,0,1-1.519-1.519h0a1.519,1.519,0,0,1,1.519-1.514H90.719Z" transform="translate(-61.92 -419.07)"/>
      </g>
      <g id="Grupo_145418" data-name="Grupo 145418" transform="translate(0 66.603)" opacity="0.3">
        <path id="Trazado_251682" data-name="Trazado 251682" d="M90.719,467.516H63.288a1.368,1.368,0,0,1-1.368-1.368h0a1.368,1.368,0,0,1,1.368-1.368H90.719Z" transform="translate(-61.92 -464.78)"/>
      </g>
      <path id="Trazado_251683" data-name="Trazado 251683" d="M200.59,327.5h84.486a11.615,11.615,0,0,1,11.615,11.615h0a11.615,11.615,0,0,1-11.615,11.615H200.59Z" transform="translate(-133.313 -327.5)" fill="#20cb7d"/>
      <path id="Trazado_251684" data-name="Trazado 251684" d="M285.207,351.179H200.59V333.33h84.617a8.927,8.927,0,0,1,8.927,8.927h0a8.922,8.922,0,0,1-8.927,8.922Z" transform="translate(-133.313 -330.501)" fill="#f5f5f5"/>
      <path id="Trazado_251685" data-name="Trazado 251685" d="M153.79,333.33a9.335,9.335,0,0,1,4.143,7.889,18.256,18.256,0,0,1-3.483,9.96h27.79s3.668-2.314,3.309-8.922a8.928,8.928,0,0,0-2.911-6.4,13.538,13.538,0,0,0-6.147-2.528Z" transform="translate(-109.218 -330.501)" fill="#e0e0e0"/>
      <path id="Trazado_251686" data-name="Trazado 251686" d="M172.088,330.328H146.647a1.412,1.412,0,0,1-1.417-1.417h0a1.412,1.412,0,0,1,1.417-1.412h25.442Z" transform="translate(-104.811 -327.5)" fill="#20cb7d"/>
      <path id="Trazado_251687" data-name="Trazado 251687" d="M172.088,372.672H146.506a1.276,1.276,0,0,1-1.276-1.276h0a1.276,1.276,0,0,1,1.276-1.276h25.583Z" transform="translate(-104.811 -349.442)" fill="#20cb7d"/>
      <path id="Trazado_251688" data-name="Trazado 251688" d="M182.513,364.866c0,.068-4.366.126-9.747.126s-9.766-.078-9.766-.126,4.366-.126,9.747-.126S182.513,364.774,182.513,364.866Z" transform="translate(-113.96 -346.673)" fill="#263238"/>
      <path id="Trazado_251689" data-name="Trazado 251689" d="M186.494,355.046c0,.073-4.764.126-10.64.126s-10.644-.053-10.644-.126,4.764-.126,10.644-.126S186.494,354.959,186.494,355.046Z" transform="translate(-115.098 -341.617)" fill="#263238"/>
      <path id="Trazado_251690" data-name="Trazado 251690" d="M193.667,350.706c0,.068-3.939.126-8.8.126s-8.8-.058-8.8-.126,3.94-.126,8.8-.126S193.667,350.638,193.667,350.706Z" transform="translate(-120.689 -339.382)" fill="#263238"/>
      <path id="Trazado_251691" data-name="Trazado 251691" d="M186.707,343.326c0,.068-4.813.126-10.751.126s-10.746-.058-10.746-.126,4.813-.126,10.746-.126S186.707,343.253,186.707,343.326Z" transform="translate(-115.098 -335.583)" fill="#263238"/>
      <path id="Trazado_251692" data-name="Trazado 251692" d="M180.109,336.806c0,.068-3.775.126-8.427.126s-8.432-.058-8.432-.126,3.775-.126,8.432-.126S180.109,336.738,180.109,336.806Z" transform="translate(-114.089 -332.226)" fill="#263238"/>
      <path id="Trazado_251693" data-name="Trazado 251693" d="M293.763,341.366c0,.073-16.039.126-35.824.126s-35.829-.053-35.829-.126,16.039-.126,35.829-.126S293.763,341.3,293.763,341.366Z" transform="translate(-144.392 -334.574)" fill="#263238"/>
      <path id="Trazado_251694" data-name="Trazado 251694" d="M303.854,345.926c0,.073-16.112.126-35.98.126s-35.984-.053-35.984-.126S248,345.8,267.874,345.8,303.854,345.858,303.854,345.926Z" transform="translate(-149.427 -336.922)" fill="#263238"/>
      <path id="Trazado_251695" data-name="Trazado 251695" d="M305.294,351.136c0,.073-17.5.131-39.089.131s-39.094-.058-39.094-.131,17.5-.126,39.094-.126S305.294,351.068,305.294,351.136Z" transform="translate(-146.966 -339.604)" fill="#263238"/>
      <path id="Trazado_251696" data-name="Trazado 251696" d="M300.025,356.136c0,.068-16.326.126-36.455.126s-36.46-.058-36.46-.126,16.321-.126,36.46-.126S300.025,356.068,300.025,356.136Z" transform="translate(-146.966 -342.178)" fill="#263238"/>
      <path id="Trazado_251697" data-name="Trazado 251697" d="M300.241,362.436c0,.068-15.549.126-34.718.126s-34.723-.058-34.723-.126,15.525-.126,34.723-.126S300.241,362.363,300.241,362.436Z" transform="translate(-148.866 -345.422)" fill="#263238"/>
      <g id="Grupo_145419" data-name="Grupo 145419" transform="translate(40.419)" opacity="0.3">
        <path id="Trazado_251698" data-name="Trazado 251698" d="M172.088,330.328H146.647a1.412,1.412,0,0,1-1.417-1.417h0a1.412,1.412,0,0,1,1.417-1.412h25.442Z" transform="translate(-145.23 -327.5)"/>
      </g>
      <g id="Grupo_145420" data-name="Grupo 145420" transform="translate(40.419 20.678)" opacity="0.3">
        <path id="Trazado_251699" data-name="Trazado 251699" d="M172.088,372.672H146.506a1.276,1.276,0,0,1-1.276-1.276h0a1.276,1.276,0,0,1,1.276-1.276h25.583Z" transform="translate(-145.23 -370.12)"/>
      </g>
    </g>
    <g id="freepik--Parchment--inject-34" transform="translate(279.574 6643.33)">
      <path id="Trazado_251700" data-name="Trazado 251700" d="M523.718,33.175s14.894-1.193,16.559,34.626h-48l2.377-26.839Z" transform="translate(-362.407 -32.957)" fill="#e0e0e0"/>
      <path id="Trazado_251701" data-name="Trazado 251701" d="M386.954,160.24c-2.455-21.43-6.865-42.447-8.582-64s-7.942-52.965,7.539-63.2c0,0-115.871-.131-121.188-.131-23.807,0-32.341,31.793-28.193,63.333,2.814,21.381,6.132,42.568,8.587,64s2.848,43.951-3.212,64.1c-3.042,10.125-9.145,20.5-17.3,20.828H369.925s10.674-10.358,13.822-20.828C389.807,204.215,389.409,181.665,386.954,160.24Z" transform="translate(-224.6 -32.822)" fill="#fff"/>
      <path id="Trazado_251702" data-name="Trazado 251702" d="M386.944,160.148s.063.519.18,1.543.291,2.547.485,4.551c.378,4.012.883,9.956,1.038,17.674.053,3.857,0,8.156-.233,12.866a135.381,135.381,0,0,1-1.742,15.278c-.228,1.363-.534,2.741-.805,4.148s-.655,2.809-.97,4.255c-.2.713-.4,1.431-.6,2.154l-.306,1.092-.15.553-.189.539c-.252.723-.485,1.455-.8,2.174-.155.354-.306.713-.485,1.077s-.34.7-.514,1.058a53.119,53.119,0,0,1-5.157,8.248,74.863,74.863,0,0,1-6.715,7.763h-.034l-145.315.034v-.238a10.509,10.509,0,0,0,3.517-.8,13.212,13.212,0,0,0,3.12-1.878,23.4,23.4,0,0,0,4.886-5.511,41.992,41.992,0,0,0,3.508-6.613,54.646,54.646,0,0,0,2.494-7.151,125.177,125.177,0,0,0,4.459-30.7,223.538,223.538,0,0,0-1.591-32.108c-1.237-10.814-2.722-21.75-4.265-32.8-1.523-10.911-3.09-21.7-4.463-32.38-.34-2.673-.543-5.337-.708-8.025s-.184-5.337-.136-8a91.293,91.293,0,0,1,1.606-15.734,58.535,58.535,0,0,1,4.852-14.793,30.476,30.476,0,0,1,9.611-11.687,22.366,22.366,0,0,1,6.846-3.207l1.844-.412c.616-.116,1.242-.175,1.863-.262l.485-.058h.485l.936-.039c.626-.039,1.247-.034,1.868-.034h14.744l105.314.131h.32l-.267.175a18.15,18.15,0,0,0-5.148,5.259,25.878,25.878,0,0,0-2.989,6.574,43.262,43.262,0,0,0-1.456,6.914c-.3,2.309-.456,4.6-.534,6.87a131.335,131.335,0,0,0,.34,13.211c.306,4.269.713,8.4,1.13,12.386s.82,7.845,1.126,11.566.64,7.277,1.048,10.707c.781,6.841,1.688,13.075,2.528,18.679s1.611,10.591,2.266,14.914,1.179,7.986,1.577,10.955c.8,5.938,1.121,9.077,1.121,9.077s-.1-.781-.291-2.309-.485-3.794-.883-6.758-.946-6.632-1.606-10.955-1.455-9.3-2.295-14.9-1.761-11.838-2.547-18.679c-.412-3.42-.747-7-1.062-10.717s-.742-7.569-1.15-11.537-.83-8.117-1.14-12.386a130.263,130.263,0,0,1-.349-13.23,53.465,53.465,0,0,1,2-13.832,26.159,26.159,0,0,1,3-6.642,18.3,18.3,0,0,1,5.215-5.337l.053.175-105.348-.092H265.824c-.621,0-1.242,0-1.863.034l-.927.039h-.485l-.461.058c-.611.087-1.232.141-1.844.257l-1.824.408a22.045,22.045,0,0,0-6.768,3.178,30.891,30.891,0,0,0-9.592,11.644,58.292,58.292,0,0,0-4.8,14.729,91.208,91.208,0,0,0-1.6,15.69c-.048,2.654,0,5.337.141,7.981s.364,5.337.708,8.005c1.368,10.674,2.935,21.468,4.459,32.38,1.548,11.047,3.027,21.983,4.265,32.8a223.3,223.3,0,0,1,1.591,32.142,125.422,125.422,0,0,1-4.473,30.759,54.7,54.7,0,0,1-2.518,7.21A42.694,42.694,0,0,1,236.3,236.9a23.657,23.657,0,0,1-4.939,5.57,13.387,13.387,0,0,1-3.173,1.916,10.673,10.673,0,0,1-3.6.815v-.238l145.315.039h-.058a74.554,74.554,0,0,0,6.7-7.763,53.674,53.674,0,0,0,5.152-8.219c.17-.354.354-.7.514-1.058s.306-.718.456-1.072c.325-.7.548-1.455.8-2.159l.184-.539.155-.548.306-1.092c.2-.723.4-1.455.6-2.154.335-1.455.694-2.848.995-4.245s.577-2.78.805-4.143a135.479,135.479,0,0,0,1.766-15.239c.267-4.706.3-9,.252-12.862-.141-7.714-.631-13.657-.97-17.67-.175-2-.344-3.527-.451-4.551S386.944,160.148,386.944,160.148Z" transform="translate(-224.59 -32.73)" fill="#263238"/>
      <path id="Trazado_251703" data-name="Trazado 251703" d="M389.619,157.267s.073.558.2,1.654.325,2.731.582,4.852c.485,4.284,1.281,10.606,1.941,18.8.315,4.095.558,8.66.6,13.667a106.821,106.821,0,0,1-1.009,16.253c-.238,1.455-.432,2.911-.791,4.4-.16.742-.325,1.489-.485,2.241s-.427,1.485-.64,2.237a76.223,76.223,0,0,1-3.352,9.077l-1.067,2.275c-.378.757-.8,1.494-1.2,2.251a42.054,42.054,0,0,1-2.8,4.366c-.243.364-.539.694-.815,1.043s-.543.7-.849,1.024l-.917.97c-.306.325-.65.616-.97.932a12.866,12.866,0,0,1-4.658,2.877h0l-130.77.087v-.238a6.356,6.356,0,0,0,3.129-1.062,11.037,11.037,0,0,0,2.489-2.29,27.445,27.445,0,0,0,3.532-5.895,76.481,76.481,0,0,0,4.366-13.318,161.98,161.98,0,0,0,4.134-28.624,182.781,182.781,0,0,0-.907-29.871q-.82-7.539-2.067-15.132c-.82-5.055-1.747-10.13-2.615-15.239-1.81-10.5-3.357-20.935-4.755-31.249a117.112,117.112,0,0,1-.8-30.725c.3-2.513.713-5,1.218-7.462a67.481,67.481,0,0,1,1.994-7.234,43.738,43.738,0,0,1,2.979-6.792,30.568,30.568,0,0,1,4.231-6.035,21.347,21.347,0,0,1,5.735-4.541,19.377,19.377,0,0,1,6.9-2.13c2.4-.262,4.789-.141,7.156-.165h7.078l101.321.131H388l-.189.17a18.063,18.063,0,0,0-4.109,5.458,28.411,28.411,0,0,0-2.222,6.307,58.845,58.845,0,0,0-1.315,12.852,219.119,219.119,0,0,0,1.606,23.7c.388,3.692.762,7.277,1.043,10.707s.568,6.753.893,9.922c.626,6.341,1.305,12.129,1.941,17.33,1.3,10.407,2.314,18.5,3,24,.325,2.746.572,4.852.737,6.259s.238,2.135.238,2.135c-.024-.189-.359-2.911-1.029-8.388s-1.727-13.585-3.052-23.986c-.645-5.206-1.334-10.989-1.965-17.33-.325-3.173-.616-6.482-.9-9.926s-.665-7.006-1.058-10.7a218.961,218.961,0,0,1-1.625-23.715,59.284,59.284,0,0,1,1.31-12.9,28.483,28.483,0,0,1,2.237-6.331,18.291,18.291,0,0,1,4.143-5.516l.063.17L286.42,38.524h-7.078c-2.368.024-4.764-.092-7.127.165a19.213,19.213,0,0,0-6.821,2.106,21.1,21.1,0,0,0-5.672,4.463,30.618,30.618,0,0,0-4.2,5.972,43.668,43.668,0,0,0-2.959,6.792,67.241,67.241,0,0,0-2,7.2c-.485,2.455-.917,4.934-1.213,7.442a117.068,117.068,0,0,0,.8,30.662c1.4,10.31,2.95,20.741,4.755,31.239.873,5.109,1.8,10.188,2.62,15.244s1.514,10.111,2.067,15.147a182.686,182.686,0,0,1,.9,29.91,162.09,162.09,0,0,1-4.109,28.654,77,77,0,0,1-4.41,13.361,27.655,27.655,0,0,1-3.566,5.948,11.508,11.508,0,0,1-2.542,2.334,6.627,6.627,0,0,1-3.251,1.1v-.238l130.727.029h0a12.682,12.682,0,0,0,4.575-2.833c.325-.311.67-.6.97-.927l.912-.97c.306-.32.563-.679.849-1.019a11.058,11.058,0,0,0,.81-1.038,42.766,42.766,0,0,0,2.794-4.366c.4-.752.82-1.489,1.2-2.241s.713-1.519,1.063-2.271a75.938,75.938,0,0,0,3.357-9.053c.214-.752.427-1.494.64-2.232s.33-1.494.485-2.237c.364-1.455.558-2.945.8-4.366a106.685,106.685,0,0,0,1.029-16.233c-.034-5-.272-9.567-.582-13.662-.626-8.185-1.4-14.506-1.873-18.8-.247-2.14-.432-3.775-.558-4.852S389.619,157.267,389.619,157.267Z" transform="translate(-233.873 -35.574)" fill="#263238"/>
      <path id="Trazado_251704" data-name="Trazado 251704" d="M403,55.586c0,.068-24.685.126-55.124.126s-55.134-.058-55.134-.126,24.68-.126,55.134-.126S403,55.518,403,55.586Z" transform="translate(-259.676 -44.432)" fill="#263238"/>
      <path id="Trazado_251705" data-name="Trazado 251705" d="M401.6,60.776c0,.073-24.685.126-55.124.126s-55.134-.053-55.134-.126,24.68-.126,55.134-.126S401.6,60.708,401.6,60.776Z" transform="translate(-258.956 -47.104)" fill="#263238"/>
      <path id="Trazado_251739" data-name="Trazado 251739" d="M397.054,195.806c0,.068-22.317.126-49.787.126s-49.8-.058-49.8-.126,22.288-.126,49.8-.126S397.054,195.733,397.054,195.806Z" transform="translate(-262.112 -116.623)" fill="#263238"/>
      <path id="Trazado_251740" data-name="Trazado 251740" d="M397.054,208.526c0,.068-22.317.126-49.787.126s-49.8-.058-49.8-.126,22.288-.126,49.8-.126S397.054,208.453,397.054,208.526Z" transform="translate(-262.112 -123.172)" fill="#263238"/>
      <path id="Trazado_251741" data-name="Trazado 251741" d="M399.714,221.246c0,.068-22.293.126-49.787.126s-49.8-.058-49.8-.126,22.288-.126,49.8-.126S399.714,221.173,399.714,221.246Z" transform="translate(-263.481 -129.72)" fill="#263238"/>
      <path id="Trazado_251742" data-name="Trazado 251742" d="M403.089,235.086c0,.073-22.317.126-49.792.126s-49.8-.053-49.8-.126,22.293-.126,49.8-.126S403.089,235.018,403.089,235.086Z" transform="translate(-265.216 -136.846)" fill="#263238"/>
      <path id="Trazado_251743" data-name="Trazado 251743" d="M404.324,248.926c0,.073-22.293.131-49.787.131s-49.8-.058-49.8-.131,22.288-.126,49.8-.126S404.324,248.858,404.324,248.926Z" transform="translate(-265.854 -143.971)" fill="#263238"/>
      <path id="Trazado_251744" data-name="Trazado 251744" d="M406.459,262.776c0,.068-22.293.126-49.792.126s-49.8-.058-49.8-.126,22.293-.126,49.8-.126S406.459,262.7,406.459,262.776Z" transform="translate(-266.951 -151.102)" fill="#263238"/>
      <path id="Trazado_251745" data-name="Trazado 251745" d="M406.459,276.616c0,.073-22.293.126-49.792.126s-49.8-.053-49.8-.126,22.293-.126,49.8-.126S406.459,276.548,406.459,276.616Z" transform="translate(-266.951 -158.227)" fill="#263238"/>
      <path id="Trazado_251746" data-name="Trazado 251746" d="M409.834,290.466c0,.068-22.293.126-49.787.126s-49.8-.058-49.8-.126,22.288-.126,49.8-.126S409.834,290.393,409.834,290.466Z" transform="translate(-268.691 -165.358)" fill="#263238"/>
      <path id="Trazado_251747" data-name="Trazado 251747" d="M409.834,304.306c0,.068-22.293.126-49.787.126s-49.8-.058-49.8-.126,22.288-.126,49.8-.126S409.834,304.238,409.834,304.306Z" transform="translate(-268.691 -172.483)" fill="#263238"/>
      <path id="Trazado_251754" data-name="Trazado 251754" d="M436.2,390.939a.645.645,0,0,1-.2.349c-.073.063-.311.189-.335,0a1.32,1.32,0,0,1,.063-.33c.058-.141.121-.049.214-.029S436.121,390.852,436.2,390.939Z" transform="translate(-333.257 -217.121)" fill="#20cb7d"/>
      <path id="Trazado_251756" data-name="Trazado 251756" d="M434.83,358.334c0,.049-.053.039-.092.068s-.073.121-.112.131-.141-.078-.209-.058-.029.092-.053.18a.281.281,0,0,1-.184-.2c0-.053.063-.092.078-.16a.669.669,0,0,0-.078-.277v-.034c.082,0,.238.165.417.2S434.825,358.193,434.83,358.334Z" transform="translate(-332.495 -200.181)" fill="#20cb7d"/>
      <path id="Trazado_251757" data-name="Trazado 251757" d="M434.76,379.6c0,.082-.107.073-.121,0S434.745,379.536,434.76,379.6Z" transform="translate(-332.731 -211.287)" fill="#20cb7d"/>
      <path id="Trazado_251758" data-name="Trazado 251758" d="M433.7,357c.082.053.277.175.141.281A.257.257,0,0,1,433.7,357Z" transform="translate(-332.248 -199.677)" fill="#20cb7d"/>
      <path id="Trazado_251759" data-name="Trazado 251759" d="M432.765,378.591c.092-.063.2-.2.364-.131-.039.126-.16.121-.243.18s-.146.16-.243.17a.132.132,0,0,0-.034-.039C432.61,378.659,432.7,378.635,432.765,378.591Z" transform="translate(-331.687 -210.716)" fill="#20cb7d"/>
      <path id="Trazado_251760" data-name="Trazado 251760" d="M432.053,374.819c.1,0,.189-.039.257,0,0,.252-.33.058-.543.1-.044,0-.058.049-.107.029a.2.2,0,0,1,.155-.18C431.878,374.77,431.966,374.819,432.053,374.819Z" transform="translate(-331.198 -208.825)" fill="#20cb7d"/>
      <path id="Trazado_251761" data-name="Trazado 251761" d="M431.965,375.479c0,.136-.146.155-.189.262.068.126.1.3.175.417a.525.525,0,0,1-.024.213c-.165.039-.257-.325-.32-.451-.126.029,0,.519-.18.461-.087-.034,0-.175,0-.281s-.092-.116-.1-.189.053-.131.073-.194,0-.262.1-.267.107.112.131.116C431.713,375.6,431.829,375.445,431.965,375.479Z" transform="translate(-331.028 -209.175)" fill="#20cb7d"/>
      <path id="Trazado_251762" data-name="Trazado 251762" d="M431.773,378.5c-.034.078-.2.044-.214-.029S431.773,378.419,431.773,378.5Z" transform="translate(-331.146 -210.708)" fill="#20cb7d"/>
      <path id="Trazado_251763" data-name="Trazado 251763" d="M431.5,378.957a.117.117,0,0,1-.029.039c-.063-.024-.131-.044-.15-.121S431.5,378.864,431.5,378.957Z" transform="translate(-331.021 -210.921)" fill="#20cb7d"/>
      <path id="Trazado_251764" data-name="Trazado 251764" d="M430.786,378.465c-.044.073-.189,0-.238.073-.087,0-.175,0-.189-.092s.1,0,.165-.029S430.757,378.319,430.786,378.465Z" transform="translate(-330.527 -210.681)" fill="#20cb7d"/>
      <path id="Trazado_251767" data-name="Trazado 251767" d="M427.839,377.707c.048,0,.082-.049.126-.049s.189.087.3.068c.024.034,0,.063,0,.112.1.063.252.053.306.17-.073.092-.18.029-.272,0a.792.792,0,0,0-.262,0c-.087,0-.218-.092-.33-.112a.661.661,0,0,0-.2,0c-.063,0-.349-.141-.349-.228s.121-.116.238-.1S427.65,377.741,427.839,377.707Z" transform="translate(-328.881 -210.263)" fill="#20cb7d"/>
      <path id="Trazado_251769" data-name="Trazado 251769" d="M427.762,376c.209,0,.209.393,0,.393S427.549,376,427.762,376Z" transform="translate(-329.109 -209.459)" fill="#20cb7d"/>
      <path id="Trazado_251771" data-name="Trazado 251771" d="M419.239,371.55c.068.024.306.374.238.568a.179.179,0,0,1-.184.112c-.16-.034-.131-.485-.078-.65a.029.029,0,0,1,.024-.029Z" transform="translate(-324.769 -207.168)" fill="#20cb7d"/>
      <path id="Trazado_251774" data-name="Trazado 251774" d="M406.34,349.441c0-.107.146-.092.116,0a.078.078,0,0,1-.116,0Z" transform="translate(-318.162 -195.747)" fill="#20cb7d"/>
      <path id="Trazado_251775" data-name="Trazado 251775" d="M404.26,361.775c0-.082.16-.112.189-.039S404.294,361.872,404.26,361.775Z" transform="translate(-317.091 -202.094)" fill="#20cb7d"/>
      <path id="Trazado_251776" data-name="Trazado 251776" d="M398.45,360.7c.087-.082.277-.029.4-.029a.324.324,0,0,1-.078.218A.427.427,0,0,1,398.45,360.7Z" transform="translate(-314.1 -201.558)" fill="#20cb7d"/>
      <path id="Trazado_251777" data-name="Trazado 251777" d="M397.21,359.584c.112-.146.233-.068.189.209-.029.082-.146.194-.2.068A1.286,1.286,0,0,0,397.21,359.584Z" transform="translate(-313.456 -200.97)" fill="#20cb7d"/>
      <path id="Trazado_251778" data-name="Trazado 251778" d="M397.444,358.969a.146.146,0,0,1-.058.15C397.279,359.095,397.362,358.857,397.444,358.969Z" transform="translate(-313.526 -200.675)" fill="#20cb7d"/>
      <path id="Trazado_251779" data-name="Trazado 251779" d="M393.917,353.846a.184.184,0,0,0-.073-.165.133.133,0,0,1-.1-.029,1.4,1.4,0,0,0-.155-.189,1.17,1.17,0,0,1,0-.262.51.51,0,0,1,.18-.189c.073-.029.146,0,.189-.068a.034.034,0,0,1,.039,0c0,.063-.044.073-.048.131s.141.034.155.116-.078.112-.082.184.1.17.15.247.1.1.131.16.034.116.058.141.141.058.146.131-.1.131-.083.238c-.112.112-.3.053-.485.082-.082,0-.175.112-.262.029s.073-.078.082-.141-.068-.049-.082-.1.1-.1.092-.213S393.908,353.938,393.917,353.846Z" transform="translate(-311.595 -197.585)" fill="#20cb7d"/>
      <path id="Trazado_251780" data-name="Trazado 251780" d="M392.655,354.274c.107-.083.3,0,.311.078s-.058.087-.082.175,0,.165-.024.218-.092.044-.141.058-.3.189-.388,0c0-.087.082-.1.107-.18s-.049-.087-.039-.15.058-.049.121-.078S392.6,354.322,392.655,354.274Z" transform="translate(-310.949 -198.255)" fill="#20cb7d"/>
      <path id="Trazado_251781" data-name="Trazado 251781" d="M381.19,349.774c0,.087-.218.2-.243.092S381.127,349.658,381.19,349.774Z" transform="translate(-305.088 -195.929)" fill="#20cb7d"/>
      <path id="Trazado_251782" data-name="Trazado 251782" d="M380.756,396.345h-.126a.145.145,0,0,1,.126,0Z" transform="translate(-304.926 -219.926)" fill="#20cb7d"/>
      <path id="Trazado_251783" data-name="Trazado 251783" d="M380.12,348.359a.039.039,0,0,1,.053,0,.04.04,0,0,1-.053.039Z" transform="translate(-304.663 -195.222)" fill="#20cb7d"/>
      <path id="Trazado_251784" data-name="Trazado 251784" d="M378.428,351.589c0,.053-.165.146-.18.039a.087.087,0,0,1,.029-.082C378.321,351.517,378.428,351.536,378.428,351.589Z" transform="translate(-303.699 -196.862)" fill="#20cb7d"/>
      <path id="Trazado_251785" data-name="Trazado 251785" d="M371.523,370.783v.044C371.417,370.822,371.5,370.686,371.523,370.783Z" transform="translate(-300.21 -206.755)" fill="#20cb7d"/>
      <path id="Trazado_251786" data-name="Trazado 251786" d="M364.709,356.381c.058-.039.112.063.073.112S364.7,356.42,364.709,356.381Z" transform="translate(-296.728 -199.354)" fill="#20cb7d"/>
      <path id="Trazado_251788" data-name="Trazado 251788" d="M364.312,353.55v.039c0,.039-.044,0-.053,0S364.287,353.55,364.312,353.55Z" transform="translate(-296.496 -197.901)" fill="#20cb7d"/>
      <path id="Trazado_251789" data-name="Trazado 251789" d="M363.7,354.714a.184.184,0,0,1-.116.121.189.189,0,0,1-.039-.049C363.545,354.689,363.652,354.621,363.7,354.714Z" transform="translate(-296.127 -198.477)" fill="#20cb7d"/>
      <path id="Trazado_251806" data-name="Trazado 251806" d="M400.352,441.326c0,.068-21.468.126-47.944.126s-47.948-.058-47.948-.126,21.464-.126,47.948-.126S400.352,441.258,400.352,441.326Z" transform="translate(-265.71 -243.026)" fill="#263238"/>
    </g>
    <g id="freepik--Mullet--inject-34" transform="translate(386.972 6785.083)">
      <path id="Trazado_251807" data-name="Trazado 251807" d="M616.2,371.928,599.7,340.14l-22.337,12.3,16.854,31.118Z" transform="translate(-513.608 -332.749)" fill="#20cb7d"/>
      <g id="Grupo_145421" data-name="Grupo 145421" transform="translate(63.752 7.391)" opacity="0.3">
        <path id="Trazado_251808" data-name="Trazado 251808" d="M616.2,371.928,599.7,340.14l-22.337,12.3,16.854,31.118Z" transform="translate(-577.36 -340.14)"/>
      </g>
      <path id="Trazado_251809" data-name="Trazado 251809" d="M571.933,344.32l21.347-11.159a4.366,4.366,0,0,0,1.853-5.9h0a4.367,4.367,0,0,0-5.9-1.848l-21.347,11.159a4.367,4.367,0,0,0-1.853,5.9h0a4.367,4.367,0,0,0,5.9,1.848Z" transform="translate(-507.516 -324.907)" fill="#263238"/>
      <path id="Trazado_251810" data-name="Trazado 251810" d="M613.345,420.851l21.347-11.159a4.366,4.366,0,0,0,1.887-5.9h0a4.366,4.366,0,0,0-5.9-1.853L609.328,413.1a4.367,4.367,0,0,0-1.858,5.9h0A4.366,4.366,0,0,0,613.345,420.851Z" transform="translate(-528.852 -364.308)" fill="#263238"/>
      <path id="Trazado_251811" data-name="Trazado 251811" d="M457.646,432.92l33.787-18.368c12.129-5.822,25.117-12.017,30.031-14.967l-2.911-5.565c-6.035,2.586-16.568,9.47-29.376,16.277-10.6,5.638-22.87,10.824-34.446,17.063Z" transform="translate(-450.473 -360.489)" fill="#20cb7d"/>
      <path id="Trazado_251812" data-name="Trazado 251812" d="M526.892,431.137h0a1.975,1.975,0,0,0,.834-2.664l-2.106-4.027a1.97,1.97,0,0,0-2.659-.834h0a1.97,1.97,0,0,0-.839,2.659l2.106,4.032A1.975,1.975,0,0,0,526.892,431.137Z" transform="translate(-485.055 -375.608)" fill="#20cb7d"/>
      <path id="Trazado_251813" data-name="Trazado 251813" d="M446.569,465.326a5.39,5.39,0,1,0-.366-4.112,5.4,5.4,0,0,0,.366,4.112Z" transform="translate(-445.955 -393.137)" fill="#20cb7d"/>
      <path id="Trazado_251814" data-name="Trazado 251814" d="M.01,0H70.926V4.915a.81.81,0,0,1-.81.81H.81A.81.81,0,0,1,0,4.915V0Z" transform="translate(127.396 70.476) rotate(180)" fill="#20cb7d"/>
      <path id="Trazado_251815" data-name="Trazado 251815" d="M633.726,450.912v-3.576a5.3,5.3,0,0,0-5.3-5.337h-54.43a5.3,5.3,0,0,0-5.3,5.337v3.59Z" transform="translate(-509.144 -385.191)" fill="#20cb7d"/>
      <rect id="Rectángulo_43962" data-name="Rectángulo 43962" width="57.758" height="5.118" transform="translate(121.05 59.264) rotate(180)" fill="#20cb7d"/>
      <path id="Trazado_251816" data-name="Trazado 251816" d="M583.028,363.752l22.458-11.731a3.1,3.1,0,0,0,1.315-4.192h0a3.105,3.105,0,0,0-4.192-1.315l-22.458,11.731a3.11,3.11,0,0,0-1.315,4.192h0A3.1,3.1,0,0,0,583.028,363.752Z" transform="translate(-514.186 -335.849)" fill="#20cb7d"/>
      <path id="Trazado_251817" data-name="Trazado 251817" d="M602.095,402.59l22.458-11.731a3.11,3.11,0,0,0,1.315-4.192h0a3.11,3.11,0,0,0-4.192-1.32l-22.448,11.736a3.1,3.1,0,0,0-1.315,4.192h0A3.105,3.105,0,0,0,602.095,402.59Z" transform="translate(-524.006 -355.843)" fill="#20cb7d"/>
      <path id="Trazado_251818" data-name="Trazado 251818" d="M590.4,398.138h0a1.742,1.742,0,0,0,.674-2.368l-3.251-5.909a1.751,1.751,0,0,0-2.372-.689h0a1.751,1.751,0,0,0-.689,2.377l3.251,5.909a1.747,1.747,0,0,0,2.387.679Z" transform="translate(-517.306 -357.882)" fill="#20cb7d"/>
      <path id="Trazado_251819" data-name="Trazado 251819" d="M575.48,441.866c0-.073,13.1-.126,29.221-.126s29.226.053,29.226.126-13.1.126-29.226.126S575.48,441.953,575.48,441.866Z" transform="translate(-512.64 -385.057)" fill="#263238"/>
      <path id="Trazado_251820" data-name="Trazado 251820" d="M564.76,458.226c0-.068,15.35-.126,34.286-.126s34.291.058,34.291.126-15.351.126-34.291.126S564.76,458.294,564.76,458.226Z" transform="translate(-507.121 -393.48)" fill="#263238"/>
      <path id="Trazado_251821" data-name="Trazado 251821" d="M584.38,393.13a5.432,5.432,0,0,1,.558.97c.325.621.776,1.455,1.315,2.4s1.053,1.737,1.456,2.324a6.007,6.007,0,0,1,.582.97,4.493,4.493,0,0,1-.733-.873,25.62,25.62,0,0,1-1.5-2.3,26.075,26.075,0,0,1-1.257-2.426A4.746,4.746,0,0,1,584.38,393.13Z" transform="translate(-517.222 -360.031)" fill="#263238"/>
      <path id="Trazado_251822" data-name="Trazado 251822" d="M532.166,429.855a13.7,13.7,0,0,1-1.329-2.319,13.872,13.872,0,0,1-1.106-2.426,14.519,14.519,0,0,1,1.329,2.319A15.014,15.014,0,0,1,532.166,429.855Z" transform="translate(-489.086 -376.495)" fill="#263238"/>
      <path id="Trazado_251823" data-name="Trazado 251823" d="M524.258,433.82a13.405,13.405,0,0,1-1.208-2.3,13.615,13.615,0,0,1-.97-2.426,13.581,13.581,0,0,1,1.2,2.3A13.272,13.272,0,0,1,524.258,433.82Z" transform="translate(-485.147 -378.544)" fill="#263238"/>
    </g>
    <g id="freepik--Character--inject-34" transform="translate(187.617 6672.332)">
      <path id="Trazado_251824" data-name="Trazado 251824" d="M137.6,168.84a1.2,1.2,0,0,1,.563-.941c5.031-3.328,8.825-10.707,9.218-16.956,0-.354,0-.718.034-1.082h0c.291-8.932,1.606-19.765,2.785-22.657,2.183-5.337,9.572-5.822,9.572-5.822,9.805-.7,11.557,6.831,12.546,13.7.616,4.269,2.989,19.518,2.989,19.518l-1.8.7a22.191,22.191,0,0,1-13.124,13.72c-1.81.684-3.338.97-4.056.369A24.685,24.685,0,0,1,146,175.651a12.91,12.91,0,0,1-4.89.65,3.9,3.9,0,0,1-2.838-1.32,2.465,2.465,0,0,1,2.11-3.92C140,169.844,137.556,170.2,137.6,168.84Z" transform="translate(-87.846 -107.35)" fill="#263238"/>
      <path id="Trazado_251825" data-name="Trazado 251825" d="M172.512,126.492l.611-.582,6.632,2.673a1.844,1.844,0,0,1,1.747,1.79l-.058,21.6a6.045,6.045,0,0,1-1.169,3.881l-.932,1.232a4.886,4.886,0,0,1-8.17-.519,2.117,2.117,0,0,1-.238-.558,4.685,4.685,0,0,1-.1-.485c-.2-1.742-.209-3.246-.209-3.246-.116-1.912-.16-2.693-.16-2.673s-4.061-.485-5.157-5.681a42.912,42.912,0,0,1-.291-9.669C165.235,129.423,168.607,126.487,172.512,126.492Z" transform="translate(-101.902 -109.705)" fill="#ffbf9d"/>
      <path id="Trazado_251826" data-name="Trazado 251826" d="M183.39,148.485a.674.674,0,0,0,.684.645.65.65,0,0,0,.665-.64.674.674,0,0,0-.684-.65.645.645,0,0,0-.665.645Z" transform="translate(-111.421 -120.995)" fill="#263238"/>
      <path id="Trazado_251827" data-name="Trazado 251827" d="M169.26,148.865a.674.674,0,0,0,.684.645.645.645,0,0,0,.665-.64.674.674,0,0,0-.684-.65.645.645,0,0,0-.665.645Z" transform="translate(-104.147 -121.191)" fill="#263238"/>
      <path id="Trazado_251828" data-name="Trazado 251828" d="M166.567,145.173c.087.082.582-.32,1.305-.354s1.276.3,1.349.209-.053-.194-.3-.354a1.863,1.863,0,0,0-1.087-.277,1.766,1.766,0,0,0-1.029.393C166.591,144.989,166.523,145.173,166.567,145.173Z" transform="translate(-102.754 -119.221)" fill="#263238"/>
      <path id="Trazado_251829" data-name="Trazado 251829" d="M181.734,145.2c.1.078.543-.378,1.261-.485s1.3.17,1.363.068-.073-.189-.33-.32a1.839,1.839,0,0,0-1.106-.16,1.746,1.746,0,0,0-.97.485C181.739,145,181.691,145.172,181.734,145.2Z" transform="translate(-110.561 -119.162)" fill="#263238"/>
      <path id="Trazado_251830" data-name="Trazado 251830" d="M174.554,150.614a5.172,5.172,0,0,0-1.189-.15c-.184,0-.364-.039-.4-.165a.971.971,0,0,1,.1-.553c.15-.456.311-.936.485-1.455a24.235,24.235,0,0,0,1.043-3.75,24.463,24.463,0,0,0-1.344,3.653l-.456,1.455a1.1,1.1,0,0,0-.058.733.485.485,0,0,0,.32.257,1.227,1.227,0,0,0,.315.024,4.468,4.468,0,0,0,1.189-.049Z" transform="translate(-105.914 -119.296)" fill="#263238"/>
      <path id="Trazado_251831" data-name="Trazado 251831" d="M176.38,172.442a13.42,13.42,0,0,0,6.948-2.232s-1.586,3.726-6.875,3.5Z" transform="translate(-107.812 -132.512)" fill="#ff9a6c"/>
      <path id="Trazado_251832" data-name="Trazado 251832" d="M177.259,160.056a1.315,1.315,0,0,1,1.15-.548,1.2,1.2,0,0,1,.844.4.762.762,0,0,1,.1.864.883.883,0,0,1-.941.286,2.741,2.741,0,0,1-.97-.509.733.733,0,0,1-.218-.2.233.233,0,0,1,0-.267" transform="translate(-108.226 -127.001)" fill="#ff9a6c"/>
      <path id="Trazado_251833" data-name="Trazado 251833" d="M178.652,157.88c-.116,0-.078.786-.728,1.378s-1.485.548-1.485.66.194.141.548.136a1.989,1.989,0,0,0,1.242-.485,1.688,1.688,0,0,0,.558-1.155C178.793,158.064,178.7,157.87,178.652,157.88Z" transform="translate(-107.843 -126.164)" fill="#263238"/>
      <path id="Trazado_251834" data-name="Trazado 251834" d="M180.311,139.525c.1.184.805,0,1.659-.049s1.577.1,1.659-.092c.039-.092-.107-.257-.412-.408a2.911,2.911,0,0,0-2.528.107C180.4,139.259,180.268,139.433,180.311,139.525Z" transform="translate(-109.832 -116.31)" fill="#263238"/>
      <path id="Trazado_251835" data-name="Trazado 251835" d="M166.775,138.738c.136.155.626-.039,1.227-.078s1.116.053,1.223-.121c.049-.087-.044-.247-.272-.393a1.732,1.732,0,0,0-1.014-.223,1.688,1.688,0,0,0-.97.383C166.775,138.486,166.712,138.66,166.775,138.738Z" transform="translate(-102.855 -115.886)" fill="#263238"/>
      <path id="Trazado_251836" data-name="Trazado 251836" d="M188.826,139.216s-3.716,1.16-5.822-8.01a12.615,12.615,0,0,0-3.624-5.672l1.179-.354s7.326,2.062,7.447,2.154,1.848,3.789,1.848,3.789Z" transform="translate(-109.357 -109.329)" fill="#263238"/>
      <path id="Trazado_251837" data-name="Trazado 251837" d="M197,151.816c0-.393.388-1.339.771-1.417,1.024-.213,2.887-.223,3.037,2.4.2,3.58-3.435,3.047-3.445,2.945S197.044,153.17,197,151.816Z" transform="translate(-118.428 -122.269)" fill="#ffbf9d"/>
      <path id="Trazado_251838" data-name="Trazado 251838" d="M199.8,155.556a1.634,1.634,0,0,0,.175.082.626.626,0,0,0,.485,0,1.538,1.538,0,0,0,.636-1.426,2.067,2.067,0,0,0-.228-.878.723.723,0,0,0-.485-.451.32.32,0,0,0-.359.189c-.039.107,0,.175-.034.184s-.078-.058-.058-.209a.412.412,0,0,1,.131-.233.456.456,0,0,1,.34-.107.864.864,0,0,1,.679.514,2.106,2.106,0,0,1,.277.97,1.65,1.65,0,0,1-.825,1.6.669.669,0,0,1-.577-.063C199.813,155.638,199.788,155.561,199.8,155.556Z" transform="translate(-119.868 -123.501)" fill="#ff9a6c"/>
      <path id="Trazado_251839" data-name="Trazado 251839" d="M186.524,138.206a5.225,5.225,0,0,1-.539-.107,3.256,3.256,0,0,1-1.276-.742,4.25,4.25,0,0,1-.665-.776,6.075,6.075,0,0,1-.543-1.048,23.221,23.221,0,0,1-.771-2.605,26.606,26.606,0,0,0-.825-2.6,14.331,14.331,0,0,0-.932-2.023,11.1,11.1,0,0,0-.82-1.261c-.107-.141-.2-.243-.257-.315a.577.577,0,0,0-.1-.107l.082.116c.053.078.141.184.243.33a12.346,12.346,0,0,1,.791,1.266,16.268,16.268,0,0,1,.912,2.023c.291.781.563,1.664.81,2.6a21.988,21.988,0,0,0,.786,2.615,6.2,6.2,0,0,0,.553,1.058,4.394,4.394,0,0,0,.689.781,3.134,3.134,0,0,0,1.31.728A1.94,1.94,0,0,0,186.524,138.206Z" transform="translate(-109.573 -110.071)" fill="#263238"/>
      <path id="Trazado_251840" data-name="Trazado 251840" d="M193.206,152.18a.628.628,0,0,1,.039-.175c.039-.116.049-.291.087-.485.078-.456.184-1.111.325-1.941h-.087a3.514,3.514,0,0,1-.058.422h0c0,.049-.049.1-.073.16l.087.029a34.014,34.014,0,0,0,1.15-5.764,34.56,34.56,0,0,0,.218-3.731,16.772,16.772,0,0,0-.354-4.09,6.4,6.4,0,0,0-.65-1.625,8.873,8.873,0,0,0-.97-1.378c-.728-.839-1.514-1.567-2.232-2.285l-3.842-3.779L184.24,125l-.713-.684c-.078-.073-.136-.131-.189-.175a.3.3,0,0,0-.068-.058l.058.068.175.189c.17.17.4.4.694.7l2.566,2.576,3.823,3.809c.713.723,1.494,1.455,2.212,2.28a7.069,7.069,0,0,1,1.606,2.945,17.029,17.029,0,0,1,.354,4.046,35.65,35.65,0,0,1-.209,3.716,35.214,35.214,0,0,1-1.1,5.754l.092.034q.039-.087.073-.16h0a2.85,2.85,0,0,1,.053-.427h-.087c-.121.834-.218,1.489-.281,1.941-.029.218-.053.388-.068.514A.8.8,0,0,0,193.206,152.18Z" transform="translate(-111.359 -108.763)" fill="#455a64"/>
      <path id="Trazado_251841" data-name="Trazado 251841" d="M126.024,148.964a25.912,25.912,0,0,0-8.481-4.075c-2.557-.733-15.127-10.222-15.127-10.222L92.266,116.23,87.9,118.1s3,17.378,9.218,23.356,19.77,17.437,19.77,17.437Z" transform="translate(-62.259 -104.721)" fill="#ffbf9d"/>
      <path id="Trazado_251842" data-name="Trazado 251842" d="M183.938,454.147l-.18-4.536-7.908-.3.121,5.555,2.877,1.732Z" transform="translate(-107.539 -276.204)" fill="#ffbf9d"/>
      <path id="Trazado_251843" data-name="Trazado 251843" d="M166.354,458.352v.519s-8.777,3.624-8.854,5.3l17.495-.257-.32-5.822A10.014,10.014,0,0,1,166.354,458.352Z" transform="translate(-98.092 -280.724)" fill="#455a64"/>
      <g id="Grupo_145422" data-name="Grupo 145422" transform="translate(73.98 179.252)" opacity="0.6">
        <path id="Trazado_251844" data-name="Trazado 251844" d="M188.392,461.988a.718.718,0,0,1,.485.81.689.689,0,0,1-.8.509.757.757,0,0,1-.529-.859.708.708,0,0,1,.888-.437" transform="translate(-187.535 -461.977)" fill="#fff"/>
      </g>
      <g id="Grupo_145423" data-name="Grupo 145423" transform="translate(59.399 181.785)" opacity="0.6">
        <path id="Trazado_251845" data-name="Trazado 251845" d="M174.986,468.6l-.078-1.4-16.743.762s-.771.349-.674.9Z" transform="translate(-157.483 -467.2)" fill="#fff"/>
      </g>
      <path id="Trazado_251846" data-name="Trazado 251846" d="M175.629,459.715c0,.087.432.121.854.388s.655.626.733.587-.058-.524-.577-.839S175.61,459.638,175.629,459.715Z" transform="translate(-107.426 -281.52)" fill="#263238"/>
      <path id="Trazado_251847" data-name="Trazado 251847" d="M171.87,461.381c0,.082.354.223.65.582s.383.737.485.733.136-.485-.243-.927S171.87,461.3,171.87,461.381Z" transform="translate(-105.49 -282.4)" fill="#263238"/>
      <path id="Trazado_251848" data-name="Trazado 251848" d="M169.039,464.446c.078,0,.189-.412-.039-.873s-.626-.645-.665-.577.218.32.4.7S168.952,464.446,169.039,464.446Z" transform="translate(-103.669 -283.243)" fill="#263238"/>
      <path id="Trazado_251849" data-name="Trazado 251849" d="M188.06,437.46l1.383,13.507,6.2-1.029.136-13.3Z" transform="translate(-113.826 -269.681)" fill="#ffbf9d"/>
      <path id="Trazado_251850" data-name="Trazado 251850" d="M194.531,458.77s-4.1,3.449-6.472,1.029l-.437,1.324-1.645,9.3a1.223,1.223,0,0,0,.844,1.392,1.237,1.237,0,0,0,1.252-.364c1.645-1.844,7.661-8.655,7.52-9.49l-.243-2.222a1.135,1.135,0,0,0-.834-.97Z" transform="translate(-112.743 -281.075)" fill="#455a64"/>
      <g id="Grupo_145424" data-name="Grupo 145424" transform="translate(74.312 180.107)" opacity="0.6">
        <path id="Trazado_251851" data-name="Trazado 251851" d="M188.22,474.414,196.7,463.74l.044.485a1.334,1.334,0,0,1-.344,1.116,86.564,86.564,0,0,1-7.108,8.66,1.252,1.252,0,0,1-1.072.4Z" transform="translate(-188.22 -463.74)" fill="#fff"/>
      </g>
      <g id="Grupo_145425" data-name="Grupo 145425" transform="translate(81.018 178.637)" opacity="0.6">
        <path id="Trazado_251852" data-name="Trazado 251852" d="M202.3,460.851a.7.7,0,0,0-.112.97.713.713,0,0,0,.97.112.679.679,0,1,0-.9-1.014" transform="translate(-202.042 -460.711)" fill="#fff"/>
      </g>
      <path id="Trazado_251853" data-name="Trazado 251853" d="M190.184,473.666a3.507,3.507,0,0,0-1.116-.8,3.677,3.677,0,0,0-1.378-.126c0-.029.126-.131.4-.194a1.941,1.941,0,0,1,1.941.713C190.179,473.481,190.213,473.651,190.184,473.666Z" transform="translate(-113.635 -288.145)" fill="#263238"/>
      <path id="Trazado_251854" data-name="Trazado 251854" d="M189,477.474a10.672,10.672,0,0,0-1.087-.4,10.074,10.074,0,0,0-1.164-.039,1.383,1.383,0,0,1,1.213-.209C188.676,476.964,189.059,477.44,189,477.474Z" transform="translate(-113.151 -290.342)" fill="#263238"/>
      <path id="Trazado_251855" data-name="Trazado 251855" d="M192.05,469.35a11.4,11.4,0,0,0-1.635-.723,12.48,12.48,0,0,0-1.785-.238,2.761,2.761,0,0,1,1.858,0A2.673,2.673,0,0,1,192.05,469.35Z" transform="translate(-114.119 -285.944)" fill="#263238"/>
      <path id="Trazado_251856" data-name="Trazado 251856" d="M192.3,464.446c0,.073-.7-.131-1.553-.083s-1.5.306-1.533.238A3.066,3.066,0,0,1,192.3,464.446Z" transform="translate(-114.418 -283.82)" fill="#263238"/>
      <path id="Trazado_251857" data-name="Trazado 251857" d="M189.541,462.391a1.009,1.009,0,0,1,.029-.437,2.911,2.911,0,0,1,.461-1.106,1.344,1.344,0,0,1,.65-.587.485.485,0,0,1,.534.15.762.762,0,0,1,.141.534,1.713,1.713,0,0,1-1.645,1.412,1.979,1.979,0,0,1-1.848-1.174.674.674,0,0,1,.044-.577.485.485,0,0,1,.519-.2,1.669,1.669,0,0,1,.737.456,3.4,3.4,0,0,1,.723.97,1.038,1.038,0,0,1,.141.412,5.438,5.438,0,0,0-.97-1.242,1.6,1.6,0,0,0-.665-.4.262.262,0,0,0-.286.112.437.437,0,0,0,0,.364,1.766,1.766,0,0,0,1.616,1,1.485,1.485,0,0,0,1.407-1.179.539.539,0,0,0-.078-.378.267.267,0,0,0-.3-.087,1.266,1.266,0,0,0-.558.485,4.488,4.488,0,0,0-.655,1.465Z" transform="translate(-113.7 -281.829)" fill="#263238"/>
      <path id="Trazado_251858" data-name="Trazado 251858" d="M146.589,268.4s-3.265,5.118-3.765,14.007,6.734,36.159,7.733,41.991a344.018,344.018,0,0,0,8.971,35.2l5.279.679s-4.022-40.239-3.852-44.431,1.674-26.485,1.674-26.485l2.178-16.937Z" transform="translate(-90.523 -183.065)" fill="#263238"/>
      <path id="Trazado_251859" data-name="Trazado 251859" d="M196.05,268.4c-.485.17-17.951,3.2-17.951,3.2s-5.982,45.891-6.482,51.912,8.015,36.746,8.015,36.746h8.553s-.17-20.289-1.509-26.49-1.344-7.714-.485-11.571,8.68-22.356,10.863-32.583S196.05,268.4,196.05,268.4Z" transform="translate(-105.349 -183.065)" fill="#263238"/>
      <path id="Trazado_251860" data-name="Trazado 251860" d="M176.486,300v.2c0,.131-.039.34-.063.587-.063.529-.155,1.286-.267,2.261-.247,1.97-.6,4.8-1.029,8.3l-3.445,27.363a21.057,21.057,0,0,0,.257,3.954c.18,1.3.4,2.566.65,3.809.485,2.494,1.043,4.876,1.6,7.142,1.116,4.531,2.237,8.583,3.2,11.979s1.776,6.137,2.338,8.029c.281.936.485,1.669.65,2.178.068.238.126.427.165.568s.049.194.049.194-.029-.063-.073-.189-.107-.32-.184-.563l-.689-2.164c-.592-1.887-1.426-4.619-2.426-8.01s-2.12-7.437-3.251-11.969c-.563-2.266-1.121-4.658-1.611-7.151-.252-1.247-.485-2.523-.66-3.823a21.348,21.348,0,0,1-.257-4c1.324-10.7,2.605-20.377,3.513-27.368.485-3.493.834-6.307,1.1-8.287.131-.97.238-1.727.306-2.256q.058-.369.087-.582A1.721,1.721,0,0,1,176.486,300Z" transform="translate(-105.264 -199.334)" fill="#455a64"/>
      <path id="Trazado_251861" data-name="Trazado 251861" d="M194.025,289.587a14.915,14.915,0,0,1-1.684.272c-1.043.155-2.474.408-4.032.776s-2.95.805-3.949,1.14a14.589,14.589,0,0,1-1.62.519,1.5,1.5,0,0,1,.408-.213c.267-.126.66-.286,1.155-.485a31.841,31.841,0,0,1,3.949-1.213,31.361,31.361,0,0,1,4.066-.708c.524-.058.97-.092,1.247-.1a2,2,0,0,1,.461.015Z" transform="translate(-111.087 -193.961)" fill="#455a64"/>
      <path id="Trazado_251862" data-name="Trazado 251862" d="M146.764,175.832s-4.221-1.62-7.622-3.105c-3.813-1.664-6.341-3.037-6.341-3.037-.456.267-6.841,10.285-6.841,10.285l15.147,11.3,6.123-14.962Z" transform="translate(-81.854 -132.245)" fill="#20cb7d"/>
      <path id="Trazado_251863" data-name="Trazado 251863" d="M232.12,213.834a6.244,6.244,0,0,0,.155-5.186c-1.15-2.974-14.337-18.058-14.337-18.058s-5.182,2.426-4.91,7.161l2.833,4.5,7.763,8.951Z" transform="translate(-126.675 -143.005)" fill="#ffbf9d"/>
      <path id="Trazado_251864" data-name="Trazado 251864" d="M220,244.566l7.932-14.036s7.617,3.731,7.763,3.881-7.932,9.931-13.429,14l-1.97-1.019Z" transform="translate(-130.27 -163.568)" fill="#ffbf9d"/>
      <path id="Trazado_251865" data-name="Trazado 251865" d="M187.372,182.381l-3.318-1.121-11.362.33-1.887.349s-.626,10.475-.534,10.674,4.454,3.784,4.638,3.973,9.194-2.838,9.194-2.838l5.924-10.674Z" transform="translate(-104.662 -138.201)" fill="#ffbf9d"/>
      <path id="Trazado_251866" data-name="Trazado 251866" d="M173.027,181.26c.485,0,8.316,1.329,10.455,3.1,2.271,1.882,7.85,9.645,7.85,9.645l-10.441,6.307-1.674,11.426s4.274,10.237,4.852,14.579c0,0-24.064,18.722-36.979-.582,0,0,4.085-7.195,4.658-12.44.073-.655-2.562-10.038-2.547-12.527.024-4,1.194-11.916,1.194-11.916l4.163-6.909,6.821-.388,3.5,6.5Z" transform="translate(-92.733 -138.201)" fill="#20cb7d"/>
      <path id="Trazado_251867" data-name="Trazado 251867" d="M154.229,195.31c.044,0-.311.82-.767,2.154a34.445,34.445,0,0,0-1.329,5.337,28.446,28.446,0,0,0-.378,5.458c.053,1.407.257,2.261.213,2.271a2.363,2.363,0,0,1-.175-.592,14.63,14.63,0,0,1-.233-1.669,24.87,24.87,0,0,1,.315-5.536,29.177,29.177,0,0,1,1.417-5.337c.257-.66.485-1.189.66-1.543a2.61,2.61,0,0,1,.277-.543Z" transform="translate(-95.015 -145.435)" fill="#263238"/>
      <path id="Trazado_251868" data-name="Trazado 251868" d="M198.937,251.846s3.338-.9,3.673-.713,2.828,1.5,2.828,1.5a12.391,12.391,0,0,0,1.174,1.276,3.28,3.28,0,0,0,1.455.839,2.649,2.649,0,0,0,.936-.1l1.97,4.037s-1.029,1.329-1.756,1.315a36.154,36.154,0,0,1-4.745-1.7l-.97-.209s-3.648.524-3.944-.572l-.034-.311,3.58-.7,1.363.078-2.426-.621s-3.4.165-3.736.112-.733-.485-.626-.791l.7-.17s-.83-.446-.854-.941l3.158-.859S198.651,252.554,198.937,251.846Z" transform="translate(-118.701 -174.161)" fill="#ffbf9d"/>
      <path id="Trazado_251869" data-name="Trazado 251869" d="M198.52,258.145a1.322,1.322,0,0,0,.291-.073l.781-.214c.66-.17,1.582-.388,2.605-.616a2.745,2.745,0,0,1,.369-.073,1.189,1.189,0,0,1,.349.024c.228.063.461.141.674.214.427.146.805.291,1.121.427a7.846,7.846,0,0,1,.723.354,2.557,2.557,0,0,0,.262.146,1.033,1.033,0,0,0-.228-.194,5.479,5.479,0,0,0-.713-.4c-.311-.146-.694-.306-1.121-.461-.218-.073-.437-.155-.684-.223a1.188,1.188,0,0,0-.393-.029,3.139,3.139,0,0,0-.393.073c-1.024.228-1.941.461-2.6.66-.33.1-.592.189-.771.262A.937.937,0,0,0,198.52,258.145Z" transform="translate(-119.211 -177.205)" fill="#ff9a6c"/>
      <path id="Trazado_251870" data-name="Trazado 251870" d="M203.88,255.411a5.68,5.68,0,0,1,.67-.243,3.881,3.881,0,0,1,1.688-.136,3.929,3.929,0,0,1,1.582.616c.364.247.553.446.572.427a1.848,1.848,0,0,0-.514-.514,3.551,3.551,0,0,0-3.357-.485,1.868,1.868,0,0,0-.64.335Z" transform="translate(-121.97 -176.091)" fill="#ff9a6c"/>
      <path id="Trazado_251871" data-name="Trazado 251871" d="M216.585,199.67a2.71,2.71,0,0,1,0,.577c0,.374,0,.912-.039,1.577-.053,1.324-.165,3.158-.344,5.177s-.393,3.847-.572,5.162c-.092.66-.175,1.189-.238,1.557a3.057,3.057,0,0,1-.121.568,2.314,2.314,0,0,1,0-.582c.044-.422.092-.946.155-1.562.136-1.32.325-3.144.485-5.162s.32-3.847.417-5.167c.049-.621.087-1.145.121-1.572A2.46,2.46,0,0,1,216.585,199.67Z" transform="translate(-127.825 -147.68)" fill="#263238"/>
      <path id="Trazado_251872" data-name="Trazado 251872" d="M88.418,104.134v-2.047a9.286,9.286,0,0,0-.408-3.794,47.568,47.568,0,0,0-3.449-5.783c-1.062-.029-1.145,1.169-.674,3.144C84.517,98.21,80,101.926,80,102.159s3.944,4.318,3.944,4.318l4.488-1.941v-.417" transform="translate(-58.192 -92.509)" fill="#ffbf9d"/>
      <path id="Trazado_251873" data-name="Trazado 251873" d="M91.3,102a10.62,10.62,0,0,0-.713,2.61,10.3,10.3,0,0,0,.238,2.688,1.78,1.78,0,0,1-.32-.747,5.584,5.584,0,0,1,.344-3.881A1.849,1.849,0,0,1,91.3,102Z" transform="translate(-63.5 -97.395)" fill="#ff9a6c"/>
      <path id="Trazado_251874" data-name="Trazado 251874" d="M51.47,188.407a2.251,2.251,0,0,1-.189-.325l-.485-.97-1.79-3.551-5.822-11.77h.228l-5.822,11.77-1.8,3.551q-.315.6-.485.97a2.251,2.251,0,0,1-.189.325,1.65,1.65,0,0,1,.141-.349l.456-.97,1.722-3.59c1.485-3.037,3.513-7.2,5.759-11.794l.112-.233.116.233h0c2.212,4.58,4.25,8.757,5.705,11.785l1.722,3.59.456.97a1.65,1.65,0,0,1,.16.359Z" transform="translate(-35.086 -133.161)" fill="#263238"/>
      <path id="Trazado_251875" data-name="Trazado 251875" d="M45.844,190.562c-.068,0,.539-4.172,1.354-9.3S48.726,172,48.794,172s-.534,4.172-1.349,9.3S45.917,190.577,45.844,190.562Z" transform="translate(-40.605 -133.434)" fill="#263238"/>
      <rect id="Rectángulo_43963" data-name="Rectángulo 43963" width="0.636" height="2.203" rx="0.318" transform="translate(7.874 36.664)" fill="#20cb7d"/>
      <path id="Trazado_251880" data-name="Trazado 251880" d="M123.057,187.8a2.129,2.129,0,0,1-.194-.335l-.509-.97-1.834-3.668-5.967-12.056h.228c-2.324,4.7-4.43,8.951-5.967,12.056-.767,1.519-1.392,2.756-1.834,3.639l-.514.97a1.737,1.737,0,0,1-.194.335,2.6,2.6,0,0,1,.15-.359l.485-1,1.766-3.673,5.9-12.09.116-.228.112.228h0l5.895,12.114c.737,1.533,1.334,2.785,1.761,3.678l.485,1A2.148,2.148,0,0,1,123.057,187.8Z" transform="translate(-71.717 -132.621)" fill="#263238"/>
      <path id="Trazado_251881" data-name="Trazado 251881" d="M117.335,190.033c-.068,0,.553-4.274,1.388-9.524S120.284,171,120.357,171s-.553,4.274-1.388,9.529S117.4,190.043,117.335,190.033Z" transform="translate(-77.411 -132.919)" fill="#263238"/>
      <path id="Trazado_251883" data-name="Trazado 251883" d="M123.006,209.126c0,.068-3.066.126-6.85.126s-6.855-.058-6.855-.126,3.071-.126,6.855-.126S123.006,209.058,123.006,209.126Z" transform="translate(-73.277 -152.483)" fill="#263238"/>
      <rect id="Rectángulo_43964" data-name="Rectángulo 43964" width="0.65" height="2.256" rx="0.325" transform="translate(42.621 36.145)" fill="#20cb7d"/>
      <path id="Trazado_251886" data-name="Trazado 251886" d="M83.567,113.444a2.877,2.877,0,1,1,2.877-2.877A2.877,2.877,0,0,1,83.567,113.444Zm0-5.269a2.392,2.392,0,1,0,2.392,2.392,2.392,2.392,0,0,0-2.392-2.392Z" transform="translate(-58.547 -100.325)" fill="#20cb7d"/>
      <path id="Trazado_251887" data-name="Trazado 251887" d="M80.22,101.579s1.213,1.32,2.018,1.116a1.029,1.029,0,0,0,.636-1.533.805.805,0,0,0,1.271.039,1.494,1.494,0,0,0,.1-1.645s.456.049.64-.8a2.592,2.592,0,0,0-.577-1.8,1.941,1.941,0,0,0,.412-1.882,3.757,3.757,0,0,0-2.295-2.125c-.087,0-1.106-.306-1.334.606a1.966,1.966,0,0,0-.063,1.227s-.927.243-.543,2.047c0,0-1.169.441-.636,2.086a5.7,5.7,0,0,0-.781,2.426,3.158,3.158,0,0,0,.694,1.4" transform="translate(-57.704 -92.71)" fill="#ffbf9d"/>
      <path id="Trazado_251888" data-name="Trazado 251888" d="M79.656,102.564a.9.9,0,0,1-.2-.213,2.911,2.911,0,0,1-.417-.723,1.989,1.989,0,0,1-.15-.6,2.426,2.426,0,0,1,.1-.723,8.656,8.656,0,0,1,.67-1.62v.073a2.353,2.353,0,0,1-.116-1.174,1.412,1.412,0,0,1,.8-1.043l-.068.126a3.43,3.43,0,0,1-.063-1.145,1.242,1.242,0,0,1,.7-1.038l-.073.175a1.4,1.4,0,0,1-.063-.636,3.672,3.672,0,0,1,.1-.606,1.072,1.072,0,0,1,.31-.587,1.043,1.043,0,0,1,.64-.243,2.3,2.3,0,0,1,.66.078,2.683,2.683,0,0,1,.606.286,5.036,5.036,0,0,1,1.014.864,2.712,2.712,0,0,1,.742,1.514,2.067,2.067,0,0,1-.534,1.553v-.165a2.988,2.988,0,0,1,.616,1.494,1.669,1.669,0,0,1-.146.791.737.737,0,0,1-.65.485l.112-.17a1.848,1.848,0,0,1,.223.9,1.329,1.329,0,0,1-.306.83.9.9,0,0,1-.757.383,1.087,1.087,0,0,1-.7-.388l.16-.1a1.354,1.354,0,0,1,.063.97,1,1,0,0,1-.64.616,1.033,1.033,0,0,1-.767-.044,2.426,2.426,0,0,1-.548-.311,4.627,4.627,0,0,1-.655-.568,1.2,1.2,0,0,1-.194-.228,6.882,6.882,0,0,0,.907.713,2.911,2.911,0,0,0,.539.277.907.907,0,0,0,.67,0,.844.844,0,0,0,.529-.529,1.16,1.16,0,0,0-.073-.859l-.252-.539.408.441a.927.927,0,0,0,.568.306.684.684,0,0,0,.577-.315,1.339,1.339,0,0,0,.049-1.485l-.092-.175h.2c.15,0,.33-.17.408-.374a1.412,1.412,0,0,0,.121-.674,2.727,2.727,0,0,0-.572-1.358l-.063-.082.073-.082a1.844,1.844,0,0,0,.485-1.354,2.489,2.489,0,0,0-.684-1.368,4.755,4.755,0,0,0-.97-.815,2.373,2.373,0,0,0-.539-.257,2.164,2.164,0,0,0-.572-.01.781.781,0,0,0-.485.18.82.82,0,0,0-.243.456,3.881,3.881,0,0,0-.092.563,1.407,1.407,0,0,0,.034.485l.049.126-.136.078a1.033,1.033,0,0,0-.543.839,3.27,3.27,0,0,0,.053,1.067v.087l-.087.039a1.208,1.208,0,0,0-.679.873,2.173,2.173,0,0,0,.092,1.077v.073c-.587,1.111-1.029,2.149-.684,2.819A4.658,4.658,0,0,0,79.656,102.564Z" transform="translate(-57.62 -92.55)" fill="#ff9a6c"/>
      <path id="Trazado_251889" data-name="Trazado 251889" d="M83.637,107.4a2.613,2.613,0,0,1-.359-.514,6.526,6.526,0,0,0-1-1.1,3.043,3.043,0,0,0-.636-.485,2.566,2.566,0,0,0-.616-.209c-.359-.087-.514.16-.543.121s0-.073.087-.16a.582.582,0,0,1,.485-.141,2.106,2.106,0,0,1,.694.175,2.678,2.678,0,0,1,.708.485,4.493,4.493,0,0,1,.97,1.193C83.637,107.148,83.666,107.376,83.637,107.4Z" transform="translate(-58.433 -98.89)" fill="#ff9a6c"/>
      <path id="Trazado_251890" data-name="Trazado 251890" d="M85.683,103.657a4.012,4.012,0,0,1-.485-.519c-.286-.32-.742-.728-1.242-1.179a3.483,3.483,0,0,0-1.412-.868c-.412-.116-.694-.112-.694-.155a1.184,1.184,0,0,1,.733-.024,3.134,3.134,0,0,1,1.548.854,9.7,9.7,0,0,1,1.189,1.257C85.6,103.38,85.712,103.637,85.683,103.657Z" transform="translate(-59.144 -96.81)" fill="#ff9a6c"/>
      <path id="Trazado_251891" data-name="Trazado 251891" d="M86.6,99.216c-.058.029-.587-.839-1.514-1.684a2.673,2.673,0,0,0-1.339-.742c-.393-.073-.65-.034-.655-.078a1.033,1.033,0,0,1,.679-.1,2.479,2.479,0,0,1,1.494.718,6.534,6.534,0,0,1,1.053,1.252A1.558,1.558,0,0,1,86.6,99.216Z" transform="translate(-59.783 -94.611)" fill="#ff9a6c"/>
    </g>
  </g>
</svg>
