<svg xmlns="http://www.w3.org/2000/svg" width="400" height="296.095" viewBox="0 0 400 296.095">
  <g id="Grupo_145527" data-name="Grupo 145527" transform="translate(-1020 -1656)">
    <rect id="BG" width="400" height="296.095" rx="14" transform="translate(1020 1656)" fill="#e5e7f2"/>
    <circle id="Elipse_5852" data-name="Elipse 5852" cx="127.606" cy="127.606" r="127.606" transform="translate(1086.675 1680.123)" fill="#cbe6da"/>
    <g id="illustrations" transform="translate(1085 1708.127)">
      <rect id="Rectángulo_43782" data-name="Rectángulo 43782" width="91.532" height="63.952" rx="3.89" transform="translate(31.815 0)" fill="#dfe8f0"/>
      <path id="Trazado_250790" data-name="Trazado 250790" d="M99.82,79.042A31.815,31.815,0,1,1,68.056,47.21,31.815,31.815,0,0,1,99.82,79.042Z" transform="translate(-36.19 -47.21)" fill="#dfe8f0"/>
      <path id="Trazado_250791" data-name="Trazado 250791" d="M90.478,76.016A24.429,24.429,0,1,1,83.3,58.707,24.429,24.429,0,0,1,90.478,76.016Z" transform="translate(-32.421 -44.184)" fill="#c5d3e1"/>
      <path id="Trazado_250792" data-name="Trazado 250792" d="M79.142,72.622A16.365,16.365,0,0,1,65.725,88.733V86.005a.678.678,0,0,0-.678-.678H60.778a.7.7,0,0,0-.695.678v2.727a16.348,16.348,0,0,1,0-32.273v2.609a.712.712,0,0,0,.695.695h4.269a.7.7,0,0,0,.678-.695V56.494A16.382,16.382,0,0,1,79.142,72.622Z" transform="translate(-29.132 -40.79)" fill="#9caab8"/>
      <path id="Trazado_250793" data-name="Trazado 250793" d="M57.054,67.52a3.727,3.727,0,1,1-3.727-3.71,3.727,3.727,0,0,1,3.727,3.71Z" transform="translate(-26.882 -35.688)" fill="#4d5a68"/>
      <path id="Trazado_250794" data-name="Trazado 250794" d="M65.834,67.52a3.727,3.727,0,1,1-3.727-3.71,3.727,3.727,0,0,1,3.727,3.71Z" transform="translate(-20.788 -35.688)" fill="#4d5a68"/>
      <rect id="Rectángulo_43783" data-name="Rectángulo 43783" width="38.32" height="45.114" rx="1.59" transform="translate(65.358 10.097)" fill="#dfe8f0"/>
      <path id="Trazado_250795" data-name="Trazado 250795" d="M110.681,99.212H77.748a3.388,3.388,0,0,1-3.388-3.388V56.148a3.388,3.388,0,0,1,3.388-3.388h32.933a3.388,3.388,0,0,1,3.388,3.388v39.71A3.388,3.388,0,0,1,110.681,99.212Zm-32.933-45.1a2.033,2.033,0,0,0-2.033,2.033v39.71a2.033,2.033,0,0,0,2.033,2.033h32.933a2.033,2.033,0,0,0,2.033-2.033V56.148a2.033,2.033,0,0,0-2.033-2.033Z" transform="translate(-9.696 -43.358)" fill="#8c9aa8"/>
      <rect id="Rectángulo_43784" data-name="Rectángulo 43784" width="14.586" height="10.334" rx="1.59" transform="translate(110.743 10.097)" fill="#4d5a68"/>
      <rect id="Rectángulo_43785" data-name="Rectángulo 43785" width="14.586" height="10.317" rx="1.59" transform="translate(110.743 22.718)" fill="#4d5a68"/>
      <rect id="Rectángulo_43786" data-name="Rectángulo 43786" width="14.586" height="10.317" rx="1.59" transform="translate(110.743 35.339)" fill="#4d5a68"/>
      <rect id="Rectángulo_43787" data-name="Rectángulo 43787" width="14.586" height="10.317" rx="1.59" transform="translate(110.743 47.943)" fill="#4d5a68"/>
      <path id="Trazado_250796" data-name="Trazado 250796" d="M84.328,63.842H78.89v-.983l2.067-2.067a17.075,17.075,0,0,0,1.22-1.338,3.388,3.388,0,0,0,.424-.728,1.83,1.83,0,0,0,.136-.745,1.1,1.1,0,0,0-.322-.847,1.186,1.186,0,0,0-.9-.322,2.541,2.541,0,0,0-.881.169,4.167,4.167,0,0,0-1,.61l-.695-.847a4.523,4.523,0,0,1,1.288-.8,4,4,0,0,1,1.355-.237,2.626,2.626,0,0,1,1.694.593,1.948,1.948,0,0,1,.678,1.559,2.948,2.948,0,0,1-.186,1.033,4.286,4.286,0,0,1-.61,1A11.5,11.5,0,0,1,81.821,61.3l-1.389,1.338h3.9Z" transform="translate(-6.552 -41.31)" fill="#8c9aa8"/>
      <path id="Trazado_250797" data-name="Trazado 250797" d="M87.81,57.691a1.9,1.9,0,0,1-.44,1.271,2.439,2.439,0,0,1-1.254.678h0a2.406,2.406,0,0,1,1.44.61,1.694,1.694,0,0,1,.491,1.271,2.1,2.1,0,0,1-.83,1.779,3.676,3.676,0,0,1-2.321.627A5.218,5.218,0,0,1,82.66,63.5V62.35a4.743,4.743,0,0,0,1.067.39,5.083,5.083,0,0,0,1.1.136,2.355,2.355,0,0,0,1.389-.339,1.271,1.271,0,0,0,.457-1.067,1.016,1.016,0,0,0-.508-.949,3.185,3.185,0,0,0-1.592-.3H83.88V59.182h.712c1.271,0,1.914-.457,1.914-1.338a1,1,0,0,0-.339-.8,1.508,1.508,0,0,0-.983-.271,3.083,3.083,0,0,0-.881.136,3.829,3.829,0,0,0-1,.491l-.627-.9a4.184,4.184,0,0,1,2.558-.813,3.016,3.016,0,0,1,1.9.525A1.694,1.694,0,0,1,87.81,57.691Z" transform="translate(-3.935 -41.326)" fill="#8c9aa8"/>
      <path id="Trazado_250798" data-name="Trazado 250798" d="M91.875,59.808a5.777,5.777,0,0,1-.661,3.151,2.287,2.287,0,0,1-2.05,1.016,2.253,2.253,0,0,1-2.033-1.05,7.3,7.3,0,0,1,0-6.183,2.546,2.546,0,0,1,4.083.051,5.641,5.641,0,0,1,.661,3.015Zm-4.134,0a5.827,5.827,0,0,0,.339,2.338,1.186,1.186,0,0,0,2.168,0,8.183,8.183,0,0,0,0-4.659,1.169,1.169,0,0,0-2.168,0,5.946,5.946,0,0,0-.339,2.321Z" transform="translate(-1.309 -41.292)" fill="#8c9aa8"/>
      <path id="Trazado_250799" data-name="Trazado 250799" d="M92.878,58.844a2.8,2.8,0,0,1,1.931.627,2.3,2.3,0,0,1,.695,1.694,2.558,2.558,0,0,1-.8,2.016,3.388,3.388,0,0,1-2.287.712,4.269,4.269,0,0,1-2.1-.424V62.3a3.982,3.982,0,0,0,1.016.39,4.981,4.981,0,0,0,1.067.136,2.016,2.016,0,0,0,1.321-.39,1.406,1.406,0,0,0,.457-1.152c0-.966-.61-1.44-1.83-1.44h-.627l-.678.119-.576-.339.322-3.913h4.151v1.152H91.912l-.169,1.982.474-.085A3.794,3.794,0,0,1,92.878,58.844Z" transform="translate(1.381 -41.31)" fill="#8c9aa8"/>
      <path id="Trazado_250800" data-name="Trazado 250800" d="M82.543,71.691H81.255V65.135a2.526,2.526,0,0,1-.3.288L79.714,66.44l-.644-.813,2.355-1.847h1.067Z" transform="translate(-6.427 -35.709)" fill="#8c9aa8"/>
      <path id="Trazado_250801" data-name="Trazado 250801" d="M88.422,70H87.355v1.694H86.1V70H82.51v-.983l3.659-5.3h1.254v5.218h1ZM86.1,68.928V65.235h0a5.081,5.081,0,0,1-.474.881l-2,2.9Z" transform="translate(-4.04 -35.757)" fill="#8c9aa8"/>
      <path id="Trazado_250802" data-name="Trazado 250802" d="M86.463,68.37c0-3.134,1.288-4.71,3.829-4.71a4.269,4.269,0,0,1,1.016.1v1.067a3.914,3.914,0,0,0-.949-.119,2.575,2.575,0,0,0-1.948.695,3.388,3.388,0,0,0-.695,2.219h0a1.694,1.694,0,0,1,.728-.695,2.456,2.456,0,0,1,2.778.424,2.575,2.575,0,0,1,.61,1.813,2.677,2.677,0,0,1-.695,1.982,2.558,2.558,0,0,1-1.914.745,2.626,2.626,0,0,1-1.508-.424,2.558,2.558,0,0,1-.966-1.2A4.574,4.574,0,0,1,86.463,68.37Zm2.8,2.456a1.355,1.355,0,0,0,1.033-.424,1.965,1.965,0,0,0,.356-1.22,1.694,1.694,0,0,0-.339-1.084,1.237,1.237,0,0,0-1.016-.407,1.694,1.694,0,0,0-.762.186,1.321,1.321,0,0,0-.559.491,1.1,1.1,0,0,0-.2.627,2.118,2.118,0,0,0,.424,1.3A1.372,1.372,0,0,0,89.259,70.826Z" transform="translate(-1.301 -35.792)" fill="#8c9aa8"/>
      <path id="Trazado_250803" data-name="Trazado 250803" d="M95.37,65.632a1.83,1.83,0,0,1-.457,1.271,2.2,2.2,0,0,1-1.237.678h0a2.406,2.406,0,0,1,1.44.593,1.694,1.694,0,0,1,.474,1.271,2.135,2.135,0,0,1-.813,1.8,3.778,3.778,0,0,1-2.321.627,5.2,5.2,0,0,1-2.236-.44V70.29a5.727,5.727,0,0,0,1.067.39,5.083,5.083,0,0,0,1.1.136,2.236,2.236,0,0,0,1.389-.356,1.22,1.22,0,0,0,.457-1.067.983.983,0,0,0-.508-.932,3.185,3.185,0,0,0-1.592-.3H91.44v-1.05h.695q1.931,0,1.931-1.321a1,1,0,0,0-.339-.8,1.508,1.508,0,0,0-.983-.288,3.083,3.083,0,0,0-.881.136,3.963,3.963,0,0,0-1,.508l-.627-.9a4.184,4.184,0,0,1,2.558-.813,2.931,2.931,0,0,1,1.88.525A1.694,1.694,0,0,1,95.37,65.632Z" transform="translate(1.312 -35.816)" fill="#8c9aa8"/>
      <path id="Trazado_250804" data-name="Trazado 250804" d="M81.541,74.706a2.778,2.778,0,0,1,1.914.627,2.321,2.321,0,0,1,.695,1.694,2.541,2.541,0,0,1-.8,2,3.388,3.388,0,0,1-2.287.712A4.269,4.269,0,0,1,79,79.382V78.213a3.981,3.981,0,0,0,1.016.39,5.083,5.083,0,0,0,1.067.136,2.016,2.016,0,0,0,1.3-.39,1.406,1.406,0,0,0,.457-1.135c0-.966-.61-1.44-1.83-1.44h-.627a5.214,5.214,0,0,0-.661.119l-.576-.339.3-3.913h4.167v1.152H80.576l-.186,1.982h.474A3.9,3.9,0,0,1,81.541,74.706Z" transform="translate(-6.476 -30.253)" fill="#8c9aa8"/>
      <path id="Trazado_250805" data-name="Trazado 250805" d="M86.323,79.683H85.035V73.042l-.3.288-1.237,1-.644-.813L85.2,71.67h1.067Z" transform="translate(-3.804 -30.232)" fill="#8c9aa8"/>
      <path id="Trazado_250806" data-name="Trazado 250806" d="M91.874,75.682a5.692,5.692,0,0,1-.661,3.1,2.541,2.541,0,0,1-4.083,0,7.352,7.352,0,0,1,0-6.2,2.546,2.546,0,0,1,4.083.051,5.641,5.641,0,0,1,.661,3.049Zm-4.134,0a5.828,5.828,0,0,0,.339,2.338,1.186,1.186,0,0,0,2.168,0,8.183,8.183,0,0,0,0-4.659,1.169,1.169,0,0,0-1.084-.728,1.152,1.152,0,0,0-1.084.712,5.946,5.946,0,0,0-.339,2.338Z" transform="translate(-1.308 -30.297)" fill="#8c9aa8"/>
      <path id="Trazado_250807" data-name="Trazado 250807" d="M95.37,73.616a1.694,1.694,0,0,1-.457,1.254,2.135,2.135,0,0,1-1.237.695h0a2.406,2.406,0,0,1,1.44.61,1.694,1.694,0,0,1,.474,1.271,2.1,2.1,0,0,1-.813,1.694,3.676,3.676,0,0,1-2.321.627,5.218,5.218,0,0,1-2.236-.424V78.19a4.743,4.743,0,0,0,1.067.39,5.082,5.082,0,0,0,1.1.136,2.355,2.355,0,0,0,1.389-.339,1.271,1.271,0,0,0,.457-1.067,1.033,1.033,0,0,0-.508-.949,3.185,3.185,0,0,0-1.592-.3H91.44V75.022h.695c1.288,0,1.931-.44,1.931-1.338a.966.966,0,0,0-.339-.779,1.508,1.508,0,0,0-.983-.288,3.084,3.084,0,0,0-.881.136,4.455,4.455,0,0,0-1,.491l-.627-.9a4.184,4.184,0,0,1,2.558-.813,3.033,3.033,0,0,1,1.88.525A1.694,1.694,0,0,1,95.37,73.616Z" transform="translate(1.312 -30.331)" fill="#8c9aa8"/>
      <path id="Trazado_250808" data-name="Trazado 250808" d="M106.636,62.438H77.074a.661.661,0,1,1,0-1.3h29.562a.661.661,0,1,1,0,1.3Z" transform="translate(-8.344 -37.552)" fill="#8c9aa8"/>
      <path id="Trazado_250809" data-name="Trazado 250809" d="M106.593,71.121H77.031a.661.661,0,0,1,0-1.321h29.562a.661.661,0,0,1,0,1.321Z" transform="translate(-8.301 -31.53)" fill="#8c9aa8"/>
      <path id="Trazado_250810" data-name="Trazado 250810" d="M188.617,200.051H121.531a5.218,5.218,0,0,1-5.2-5.2V179.722a1.694,1.694,0,1,1,3.388,0v15.145a1.694,1.694,0,0,0,1.694,1.694h67.2a1.694,1.694,0,0,0,1.694-1.694V111.314a1.694,1.694,0,1,1,3.388,0v83.553a5.218,5.218,0,0,1-5.082,5.184Z" transform="translate(19.435 -3.891)" fill="#f5b400"/>
      <rect id="Rectángulo_43788" data-name="Rectángulo 43788" width="90.837" height="144.591" rx="5.11" transform="translate(81.859 38.016)" fill="#34b67a"/>
      <path id="Trazado_250811" data-name="Trazado 250811" d="M173.423,204.158h-61.9a5.2,5.2,0,0,1-5.2-5.184V183.812a1.736,1.736,0,1,1,3.473,0v15.111a1.694,1.694,0,0,0,1.694,1.694h61.9a1.694,1.694,0,0,0,1.694-1.694v-83.5a1.736,1.736,0,1,1,3.473,0v83.5a5.2,5.2,0,0,1-5.133,5.235Z" transform="translate(12.487 -1.07)" fill="#f5b400"/>
      <path id="Trazado_250812" data-name="Trazado 250812" d="M149.678,106.636a1.084,1.084,0,0,1-1.084,1.084h0a1.084,1.084,0,0,1-1.084-1.084V82.817a1.067,1.067,0,0,1,1.084-1.067h0a1.084,1.084,0,0,1,1.084,1.067Z" transform="translate(41.077 -23.236)" fill="#5c6a78"/>
      <path id="Trazado_250813" data-name="Trazado 250813" d="M153.318,130.223a3.473,3.473,0,0,1-3.388,3.388h-.542A3.388,3.388,0,0,1,146,130.223V93.868a3.388,3.388,0,0,1,3.388-3.388h.44a3.473,3.473,0,0,1,3.388,3.388Z" transform="translate(40.029 -17.176)" fill="#4dbfd9"/>
      <path id="Trazado_250814" data-name="Trazado 250814" d="M159.446,97.458a2.168,2.168,0,0,1-2.168,2.152H145.588a2.151,2.151,0,0,1-2.168-2.152h0a2.168,2.168,0,0,1,2.168-2.168h11.689a2.168,2.168,0,0,1,2.168,2.168Z" transform="translate(38.238 -13.838)" fill="#4dbfd9"/>
      <path id="Trazado_250815" data-name="Trazado 250815" d="M162.2,103.566a1.084,1.084,0,0,1-1.084,1.084h0a1.084,1.084,0,0,1-1.084-1.084v-23.8a1.084,1.084,0,0,1,1.084-1.084h0a1.084,1.084,0,0,1,1.084,1.084Z" transform="translate(49.767 -25.367)" fill="#5c6a78"/>
      <path id="Trazado_250816" data-name="Trazado 250816" d="M161.922,87.37h.44a3.388,3.388,0,0,1,3.388,3.388v36.355a3.388,3.388,0,0,1-3.388,3.388h-.424a3.388,3.388,0,0,1-3.388-3.388V90.826a3.388,3.388,0,0,1,3.371-3.456Z" transform="translate(48.739 -19.335)" fill="#d73d32"/>
      <path id="Trazado_250817" data-name="Trazado 250817" d="M171.966,94.388a2.168,2.168,0,0,1-2.168,2.168H158.108a2.168,2.168,0,0,1-2.168-2.168h0a2.168,2.168,0,0,1,2.168-2.168H169.8A2.168,2.168,0,0,1,171.966,94.388Z" transform="translate(46.928 -15.969)" fill="#d73d32"/>
      <path id="Trazado_250818" data-name="Trazado 250818" d="M105.928,152.78h8.216a3.388,3.388,0,0,1,3.388,3.388v2.168a3.388,3.388,0,0,1-3.388,3.388h-8.216a3.388,3.388,0,0,1-3.388-3.388v-2.168A3.388,3.388,0,0,1,105.928,152.78Z" transform="translate(9.863 26.066)" fill="#109d59"/>
      <path id="Trazado_250819" data-name="Trazado 250819" d="M116.141,152.78h8.233a3.388,3.388,0,0,1,3.388,3.388v2.168a3.388,3.388,0,0,1-3.388,3.388h-8.216a3.388,3.388,0,0,1-3.388-3.388v-2.168a3.388,3.388,0,0,1,3.388-3.388Z" transform="translate(16.964 26.066)" fill="#109d59"/>
      <path id="Trazado_250820" data-name="Trazado 250820" d="M91.819,74.94h69.458a2.44,2.44,0,0,1,2.439,2.439v35.847a2.456,2.456,0,0,1-2.389,2.473H91.869a2.439,2.439,0,0,1-2.439-2.439V77.379a2.44,2.44,0,0,1,2.389-2.439Z" transform="translate(0.764 -27.963)" fill="#e0e0e0"/>
      <path id="Trazado_250821" data-name="Trazado 250821" d="M151.308,136.747a28.444,28.444,0,1,1-28.433-28.427A28.444,28.444,0,0,1,151.308,136.747Z" transform="translate(4.227 -4.794)" fill="#198762"/>
      <path id="Trazado_250822" data-name="Trazado 250822" d="M110.888,155.562a2.423,2.423,0,0,1-3.388,0l-8.352-8.335a2.456,2.456,0,0,1,0-3.388L130.488,112.5a2.456,2.456,0,0,1,3.388,0l8.352,8.335a2.456,2.456,0,0,1,0,3.388Z" transform="translate(7.038 -2.364)" fill="#11a35d"/>
      <path id="Trazado_250823" data-name="Trazado 250823" d="M125.353,79A45.741,45.741,0,0,0,91.2,94.247l12.757,11.4a28.529,28.529,0,0,1,31.561-7.691l9.3-14.637A45.74,45.74,0,0,0,125.353,79Z" transform="translate(1.992 -25.145)" fill="#4dbfd9"/>
      <path id="Trazado_250824" data-name="Trazado 250824" d="M126.661,81.54l-9.3,14.637a28.545,28.545,0,0,1,11.571,8.166L141.907,93.2A45.5,45.5,0,0,0,126.661,81.54Z" transform="translate(20.15 -23.382)" fill="#d73d32"/>
      <path id="Trazado_250825" data-name="Trazado 250825" d="M115.31,104.163a2.694,2.694,0,0,1-5.37,0c0-1.491,2.694-19.923,2.694-19.923S115.31,102.6,115.31,104.163Z" transform="translate(15 -21.508)" fill="#666"/>
      <path id="Trazado_250826" data-name="Trazado 250826" d="M102.09,109.275a6.065,6.065,0,1,1-6.048-6.065,6.065,6.065,0,0,1,6.048,6.065Z" transform="translate(1.131 -8.341)" fill="#4d5a68"/>
      <path id="Trazado_250827" data-name="Trazado 250827" d="M137.1,109.275a6.065,6.065,0,1,1-6.048-6.065,6.065,6.065,0,0,1,6.048,6.065Z" transform="translate(25.432 -8.341)" fill="#d73d32"/>
      <rect id="Rectángulo_43789" data-name="Rectángulo 43789" width="76.014" height="47.367" rx="2.01" transform="translate(11.994 155.061)" fill="#2c3a48"/>
      <rect id="Rectángulo_43790" data-name="Rectángulo 43790" width="70.339" height="41.133" rx="2.01" transform="translate(14.84 157.89)" fill="#4d5a68"/>
      <path id="Trazado_250828" data-name="Trazado 250828" d="M51.292,137.2h6.183a.729.729,0,0,1,.728.728V139.2a.728.728,0,0,1-.728.728H51.292a.712.712,0,0,1-.712-.712v-1.271A.728.728,0,0,1,51.292,137.2Z" transform="translate(-26.202 15.252)" fill="#2c3a48"/>
      <path id="Trazado_250829" data-name="Trazado 250829" d="M51.292,135.31h6.183a.728.728,0,0,1,.728.728v1.271a.728.728,0,0,1-.728.728H51.292a.712.712,0,0,1-.712-.712v-1.271a.728.728,0,0,1,.712-.745Z" transform="translate(-26.202 13.94)" fill="#2c3a48"/>
      <path id="Trazado_250830" data-name="Trazado 250830" d="M51.292,133.41h6.183a.728.728,0,0,1,.728.728v1.254a.728.728,0,0,1-.728.728H51.292a.712.712,0,0,1-.712-.712v-1.271a.728.728,0,0,1,.712-.728Z" transform="translate(-26.202 12.621)" fill="#2c3a48"/>
      <path id="Trazado_250831" data-name="Trazado 250831" d="M77.092,137.2h6.183a.729.729,0,0,1,.728.728v1.254a.728.728,0,0,1-.728.728H77.092a.712.712,0,0,1-.712-.712v-1.271a.728.728,0,0,1,.712-.728Z" transform="translate(-8.294 15.252)" fill="#2c3a48"/>
      <path id="Trazado_250832" data-name="Trazado 250832" d="M77.092,135.31h6.183a.728.728,0,0,1,.728.728v1.254a.728.728,0,0,1-.728.728H77.092a.712.712,0,0,1-.712-.712v-1.271a.728.728,0,0,1,.712-.728Z" transform="translate(-8.294 13.94)" fill="#2c3a48"/>
      <path id="Trazado_250833" data-name="Trazado 250833" d="M77.092,133.41h6.183a.728.728,0,0,1,.728.728v1.254a.728.728,0,0,1-.728.728H77.092a.712.712,0,0,1-.712-.712v-1.271a.728.728,0,0,1,.712-.728Z" transform="translate(-8.294 12.621)" fill="#2c3a48"/>
      <rect id="Rectángulo_43791" data-name="Rectángulo 43791" width="86.67" height="9.368" rx="0.86" transform="translate(6.675 197.447)" fill="#2c3a48"/>
      <path id="Trazado_250834" data-name="Trazado 250834" d="M49,148.846V146H60.6v2.88Z" transform="translate(-27.299 21.36)" fill="#34b67a"/>
      <path id="Trazado_250835" data-name="Trazado 250835" d="M80.3,150.275H75.62v-2.084H80.3V143.38h2.118v4.811h4.71v2.084h-4.71v4.777H80.3Z" transform="translate(-8.822 19.541)" fill="#d73d32"/>
      <path id="Trazado_250836" data-name="Trazado 250836" d="M64.892,172.434h0l6.878-12.5H60.86l9.606-16.551H74.65l-8.487,14.891H77.276Z" transform="translate(-19.067 19.541)" fill="#f8be49"/>
      <rect id="Rectángulo_43792" data-name="Rectángulo 43792" width="52.348" height="40.692" rx="0.96" transform="translate(207.933 181.251)" fill="#2c3a48"/>
      <path id="Trazado_250837" data-name="Trazado 250837" d="M224.221,162.756A35.136,35.136,0,1,1,189.1,127.62,35.136,35.136,0,0,1,224.221,162.756Z" transform="translate(45.547 8.602)" fill="#2c3a48"/>
      <path id="Trazado_250838" data-name="Trazado 250838" d="M221.747,162.034a33.357,33.357,0,1,1-9.77-23.6,33.374,33.374,0,0,1,9.77,23.6Z" transform="translate(46.275 9.324)" fill="#4d5a68"/>
      <rect id="Rectángulo_43793" data-name="Rectángulo 43793" width="55.075" height="32.662" rx="1.1" transform="translate(206.798 154.264)" fill="#c5d3e1"/>
      <rect id="Rectángulo_43794" data-name="Rectángulo 43794" width="1.016" height="2.66" rx="0.08" transform="translate(217.488 182.268)" fill="#3c4a58"/>
      <rect id="Rectángulo_43795" data-name="Rectángulo 43795" width="1" height="2.66" rx="0.08" transform="translate(219.368 182.268)" fill="#3c4a58"/>
      <rect id="Rectángulo_43796" data-name="Rectángulo 43796" width="1.016" height="2.66" rx="0.08" transform="translate(221.232 182.268)" fill="#3c4a58"/>
      <rect id="Rectángulo_43797" data-name="Rectángulo 43797" width="1" height="2.66" rx="0.08" transform="translate(223.095 182.268)" fill="#3c4a58"/>
      <rect id="Rectángulo_43798" data-name="Rectángulo 43798" width="1" height="2.66" rx="0.08" transform="translate(224.976 182.268)" fill="#3c4a58"/>
      <rect id="Rectángulo_43799" data-name="Rectángulo 43799" width="1" height="2.66" rx="0.08" transform="translate(226.839 182.268)" fill="#3c4a58"/>
      <rect id="Rectángulo_43800" data-name="Rectángulo 43800" width="1" height="2.66" rx="0.08" transform="translate(228.703 182.268)" fill="#3c4a58"/>
      <rect id="Rectángulo_43801" data-name="Rectángulo 43801" width="1.016" height="2.66" rx="0.08" transform="translate(230.566 182.268)" fill="#3c4a58"/>
      <rect id="Rectángulo_43802" data-name="Rectángulo 43802" width="1.016" height="2.66" rx="0.08" transform="translate(232.447 182.268)" fill="#3c4a58"/>
      <rect id="Rectángulo_43803" data-name="Rectángulo 43803" width="1" height="2.66" rx="0.08" transform="translate(234.31 182.268)" fill="#3c4a58"/>
      <rect id="Rectángulo_43804" data-name="Rectángulo 43804" width="1.016" height="2.66" rx="0.08" transform="translate(236.174 182.268)" fill="#3c4a58"/>
      <rect id="Rectángulo_43805" data-name="Rectángulo 43805" width="1.016" height="2.66" rx="0.08" transform="translate(238.037 182.268)" fill="#3c4a58"/>
      <rect id="Rectángulo_43806" data-name="Rectángulo 43806" width="1" height="2.66" rx="0.08" transform="translate(239.918 182.268)" fill="#3c4a58"/>
      <rect id="Rectángulo_43807" data-name="Rectángulo 43807" width="1.016" height="2.66" rx="0.08" transform="translate(241.781 182.268)" fill="#3c4a58"/>
      <rect id="Rectángulo_43808" data-name="Rectángulo 43808" width="1" height="2.66" rx="0.08" transform="translate(243.645 182.268)" fill="#3c4a58"/>
      <rect id="Rectángulo_43809" data-name="Rectángulo 43809" width="1.016" height="2.66" rx="0.08" transform="translate(245.508 182.268)" fill="#3c4a58"/>
      <rect id="Rectángulo_43810" data-name="Rectángulo 43810" width="1.016" height="2.66" rx="0.08" transform="translate(247.389 182.268)" fill="#3c4a58"/>
      <rect id="Rectángulo_43811" data-name="Rectángulo 43811" width="1.016" height="2.66" rx="0.08" transform="translate(249.252 182.268)" fill="#3c4a58"/>
      <rect id="Rectángulo_43812" data-name="Rectángulo 43812" width="46.977" height="14.315" rx="1.1" transform="translate(210.22 159.872)" fill="#6c7a88"/>
      <path id="Trazado_250839" data-name="Trazado 250839" d="M166.957,147.688a5.777,5.777,0,0,1-.661,3.1,2.287,2.287,0,0,1-2.05,1.016,2.253,2.253,0,0,1-2.016-1.05,5.438,5.438,0,0,1-.695-3.066,5.811,5.811,0,0,1,.661-3.117,2.321,2.321,0,0,1,2.05-1,2.287,2.287,0,0,1,2.033,1.05A5.641,5.641,0,0,1,166.957,147.688Zm-4.117,0a5.54,5.54,0,0,0,.339,2.338,1.1,1.1,0,0,0,1.067.695,1.152,1.152,0,0,0,1.084-.712,5.794,5.794,0,0,0,.39-2.321,5.913,5.913,0,0,0-.339-2.321,1.152,1.152,0,0,0-1.084-.712,1.1,1.1,0,0,0-1.067.695A5.642,5.642,0,0,0,162.84,147.688Z" transform="translate(50.802 19.671)" fill="#deeeff"/>
      <path id="Trazado_250840" data-name="Trazado 250840" d="M171.165,149.848h-1.152v1.694h-1.254v-1.694H165.1v-.983l3.659-5.286h1.254v5.2H171.1Zm-2.338-1.067v-3.693h0a6.225,6.225,0,0,1-.491.881l-1.982,2.88Z" transform="translate(53.286 19.68)" fill="#deeeff"/>
      <path id="Trazado_250841" data-name="Trazado 250841" d="M171.745,146.647a2.694,2.694,0,0,1,1.9.627,2.236,2.236,0,0,1,.712,1.694,2.558,2.558,0,0,1-.8,2,3.388,3.388,0,0,1-2.287.728,4.3,4.3,0,0,1-2.1-.44v-1.169a3.845,3.845,0,0,0,1.016.39,4.183,4.183,0,0,0,1.067.136,2.016,2.016,0,0,0,1.321-.373,1.44,1.44,0,0,0,.457-1.152q0-1.423-1.83-1.423h-.627a5.219,5.219,0,0,0-.661.119l-.576-.339.3-3.913h4.151v1.152h-3.016l-.186,1.982.474-.085a4,4,0,0,1,.678.068Z" transform="translate(56.111 19.645)" fill="#deeeff"/>
      <path id="Trazado_250842" data-name="Trazado 250842" d="M187.66,143.42h-3.388v.745l.576.339.728-.1a5.342,5.342,0,0,1,.627,0c1.22,0,1.83.491,1.83,1.44a1.389,1.389,0,0,1-.457,1.135,2.016,2.016,0,0,1-1.321.39,5.082,5.082,0,0,1-1.067-.136,3.847,3.847,0,0,1-1.016-.39v1.169a4.354,4.354,0,0,0,2.118.424,3.388,3.388,0,0,0,2.27-.712,2.575,2.575,0,0,0,.8-2,2.135,2.135,0,0,0-1.694-2.236Z" transform="translate(66.522 19.569)" fill="#deeeff"/>
      <path id="Trazado_250843" data-name="Trazado 250843" d="M185.483,149.4l.136-1.372h3.016V146.88h-4.151l-.2,2.524Z" transform="translate(66.599 21.97)" fill="#deeeff"/>
      <path id="Trazado_250844" data-name="Trazado 250844" d="M172.872,148.223c0-3.117,1.271-4.693,3.829-4.693a4.473,4.473,0,0,1,1.016.1V144.7a3.39,3.39,0,0,0-.966-.119,2.507,2.507,0,0,0-1.931.678,3.388,3.388,0,0,0-.695,2.219h0a1.863,1.863,0,0,1,.712-.695,2.457,2.457,0,0,1,1.1-.237,2.185,2.185,0,0,1,1.694.661,2.609,2.609,0,0,1,.61,1.813,2.744,2.744,0,0,1-.712,2,2.863,2.863,0,0,1-3.388.3,2.694,2.694,0,0,1-.983-1.2A4.878,4.878,0,0,1,172.872,148.223Zm2.8,2.456a1.237,1.237,0,0,0,1.016-.424,1.863,1.863,0,0,0,.356-1.22,1.542,1.542,0,0,0-.339-1.084,1.2,1.2,0,0,0-1-.39,1.694,1.694,0,0,0-.779.169,1.508,1.508,0,0,0-.542.491,1.1,1.1,0,0,0-.2.627,1.982,1.982,0,0,0,.423,1.3,1.271,1.271,0,0,0,1.067.525Z" transform="translate(58.677 19.645)" fill="#deeeff"/>
      <path id="Trazado_250845" data-name="Trazado 250845" d="M182.032,147.031a5.438,5.438,0,0,1-.949,3.524,3.388,3.388,0,0,1-2.863,1.169,4.946,4.946,0,0,1-1.05,0v-1.084a4.031,4.031,0,0,0,.983.136,2.558,2.558,0,0,0,1.948-.695,3.388,3.388,0,0,0,.695-2.2h0a2.067,2.067,0,0,1-.779.712,2.609,2.609,0,0,1-1.067.22,2.135,2.135,0,0,1-1.694-.661,2.575,2.575,0,0,1-.61-1.813,2.5,2.5,0,0,1,4-2.355,2.694,2.694,0,0,1,.983,1.2A4.574,4.574,0,0,1,182.032,147.031Zm-2.778-2.456a1.287,1.287,0,0,0-1.033.44,1.864,1.864,0,0,0-.356,1.22,1.576,1.576,0,0,0,.339,1.067,1.2,1.2,0,0,0,1,.39,1.575,1.575,0,0,0,1.1-.39,1.186,1.186,0,0,0,.44-.9,2.389,2.389,0,0,0-.186-.915,1.694,1.694,0,0,0-.525-.661,1.3,1.3,0,0,0-.779-.254Z" transform="translate(61.29 19.668)" fill="#deeeff"/>
      <path id="Trazado_250846" data-name="Trazado 250846" d="M183.112,143.532a2.762,2.762,0,0,1,1.8.525,1.694,1.694,0,0,1,.661,1.389,2.2,2.2,0,0,1-1.474,1.965,4.082,4.082,0,0,1,1.338.983,1.863,1.863,0,0,1,.39,1.169,1.9,1.9,0,0,1-.728,1.576,2.931,2.931,0,0,1-1.965.61,3.2,3.2,0,0,1-2.016-.559,1.9,1.9,0,0,1-.712-1.592,1.965,1.965,0,0,1,.373-1.186,3.1,3.1,0,0,1,1.237-.949,3.219,3.219,0,0,1-1.05-.932,1.914,1.914,0,0,1-.322-1.1,1.694,1.694,0,0,1,.695-1.372,2.812,2.812,0,0,1,1.779-.525Zm-1.474,6.031a1.033,1.033,0,0,0,.39.881,1.973,1.973,0,0,0,2.185-.017,1.084,1.084,0,0,0,.39-.881,1.067,1.067,0,0,0-.373-.8,3.387,3.387,0,0,0-1.084-.695h-.152a2.966,2.966,0,0,0-1.05.695A1.389,1.389,0,0,0,181.638,149.563Zm1.457-5.082a1.338,1.338,0,0,0-.881.271.864.864,0,0,0-.322.728,1.017,1.017,0,0,0,.119.508,1,1,0,0,0,.356.407,4.353,4.353,0,0,0,.762.44,2.457,2.457,0,0,0,.932-.61,1.1,1.1,0,0,0,.271-.745.881.881,0,0,0-.339-.728,1.355,1.355,0,0,0-.881-.22Z" transform="translate(63.904 19.643)" fill="#deeeff"/>
      <path id="Trazado_250847" data-name="Trazado 250847" d="M200.437,153.152a1.559,1.559,0,0,1-1.559,1.542H165.115a1.559,1.559,0,1,1,0-3.1h33.763A1.559,1.559,0,0,1,200.437,153.152Z" transform="translate(52.102 25.236)" fill="#6c7a88"/>
      <rect id="Rectángulo_43813" data-name="Rectángulo 43813" width="21.159" height="3.117" transform="translate(223.451 176.83)" fill="#e57368"/>
      <path id="Trazado_250848" data-name="Trazado 250848" d="M179.316,133.9a3.388,3.388,0,1,1-3.388-3.388A3.388,3.388,0,0,1,179.316,133.9Z" transform="translate(58.45 10.608)" fill="#4d5a68"/>
      <path id="Trazado_250849" data-name="Trazado 250849" d="M179.316,166.2a3.388,3.388,0,1,1-3.388-3.388A3.388,3.388,0,0,1,179.316,166.2Z" transform="translate(58.45 33.027)" fill="#4d5a68"/>
    </g>
  </g>
</svg>
