<svg xmlns="http://www.w3.org/2000/svg" width="400" height="296.095" viewBox="0 0 400 296.095">
  <g id="Grupo_145529" data-name="Grupo 145529" transform="translate(-1020 -2387)">
    <rect id="BG" width="400" height="296.095" rx="14" transform="translate(1020 2387)" fill="#e5e7f2"/>
    <g id="background" transform="translate(1081.767 2395.995)" opacity="0.25">
      <circle id="Elipse_5853" data-name="Elipse 5853" cx="136.548" cy="136.548" r="136.548" transform="translate(0 273.074) rotate(-89.27)" fill="#29398a"/>
    </g>
    <g id="illustrations" transform="translate(1069 2397.424)">
      <path id="Trazado_250850" data-name="Trazado 250850" d="M57.672,47.45v56.5a8.22,8.22,0,0,1-7.442,8.182v-61.8a1.78,1.78,0,0,0-3.542,0v61.726a8.2,8.2,0,0,1-6.856-8.106V47.45a8.239,8.239,0,0,1,8.22-8.22h1.383a8.239,8.239,0,0,1,8.239,8.22Z" transform="translate(-36.819 -39.23)" fill="#c6c6c6"/>
      <path id="Trazado_250851" data-name="Trazado 250851" d="M68.152,47.45v56.5a8.22,8.22,0,0,1-7.442,8.182v-61.8a1.78,1.78,0,0,0-3.542,0v61.726a8.2,8.2,0,0,1-6.856-8.106V47.45a8.22,8.22,0,0,1,8.22-8.22h1.383a8.239,8.239,0,0,1,8.239,8.22Z" transform="translate(-27.449 -39.23)" fill="#c6c6c6"/>
      <path id="Trazado_250852" data-name="Trazado 250852" d="M81.954,79.613v6.951a4.432,4.432,0,0,1-.417,1.78c-1.458,3.333-6.288,6.61-6.288,7.1v8.883a7.178,7.178,0,0,1-7.2,7.2H52.142a7.2,7.2,0,0,1-7.2-7.2V95.446c0-.492-4.83-3.788-6.307-7.084a4.83,4.83,0,0,1-.4-1.8V79.613a7.065,7.065,0,0,1,1.439-4.28,7.14,7.14,0,0,1,5.682-2.822H74.738a7.254,7.254,0,0,1,7.216,7.2Z" transform="translate(-38.24 -9.477)" fill="#f7f7f7"/>
      <path id="Trazado_250853" data-name="Trazado 250853" d="M43.9,99.845c0,1.458,4.981,2.614,11.137,2.614s11.137-1.155,11.137-2.614S61.136,97.25,55.037,97.25,43.9,98.424,43.9,99.845Z" transform="translate(-33.18 12.641)" fill="#6c7a88"/>
      <path id="Trazado_250854" data-name="Trazado 250854" d="M74.6,91.56a3.03,3.03,0,0,1-3.03,3.049H43.919A3.03,3.03,0,0,1,40.87,91.56,2.482,2.482,0,0,1,41,90.727a3.011,3.011,0,0,1,2.917-2.2H71.572a3.163,3.163,0,0,1,2.159.871,3.3,3.3,0,0,1,.758,1.326,3.049,3.049,0,0,1,.114.833Z" transform="translate(-35.889 4.845)" fill="#c5d3e1"/>
      <path id="Trazado_250855" data-name="Trazado 250855" d="M74.6,94.754a3.03,3.03,0,0,1-3.03,3.125H43.92a3.03,3.03,0,0,1-3.049-3.049A2.4,2.4,0,0,1,41,94,3.011,3.011,0,0,1,43.92,91.78H71.572a3.106,3.106,0,0,1,2.159.89A3.3,3.3,0,0,1,74.489,94,2.954,2.954,0,0,1,74.6,94.754Z" transform="translate(-35.889 7.75)" fill="#c5d3e1"/>
      <path id="Trazado_250856" data-name="Trazado 250856" d="M74.6,97.974a3.049,3.049,0,0,1-3.03,3.049H43.919a3.049,3.049,0,0,1-3.049-3.049A2.6,2.6,0,0,1,41,97.121,3.011,3.011,0,0,1,43.919,95H71.572a3.106,3.106,0,0,1,2.159.89,3.352,3.352,0,0,1,.758,1.307,3.183,3.183,0,0,1,.114.777Z" transform="translate(-35.889 10.629)" fill="#c5d3e1"/>
      <rect id="Rectángulo_43814" data-name="Rectángulo 43814" width="30.266" height="1.78" transform="translate(6.724 91.803)" fill="#c5d3e1"/>
      <path id="Trazado_250857" data-name="Trazado 250857" d="M81.954,78.28v6.951a4.432,4.432,0,0,1-.417,1.78h-42.9a4.83,4.83,0,0,1-.4-1.8V78.28A7.065,7.065,0,0,1,39.679,74H80.439a7.084,7.084,0,0,1,1.515,4.28Z" transform="translate(-38.24 -8.145)" fill="#ebf0f5"/>
      <path id="Trazado_250858" data-name="Trazado 250858" d="M50.557,80a3.371,3.371,0,0,1-.777-2.121,3.3,3.3,0,0,1,2.064.909c.8.833,1.136,1.78.777,2.121S51.333,80.778,50.557,80Z" transform="translate(-27.923 -4.676)" fill="#7bd0a9"/>
      <path id="Trazado_250859" data-name="Trazado 250859" d="M50.691,79.374a3.447,3.447,0,0,1,.966-2.064,3.466,3.466,0,0,1,.814,2.121c0,1.136-.473,2.064-.947,2.046S50.653,80.511,50.691,79.374Z" transform="translate(-27.111 -5.186)" fill="#7bd0a9"/>
      <path id="Trazado_250860" data-name="Trazado 250860" d="M51.206,80.58a3.371,3.371,0,0,1-2.046-.966,3.447,3.447,0,0,1,2.1-.814c1.155,0,2.064.455,2.064.947S52.361,80.618,51.206,80.58Z" transform="translate(-28.477 -3.854)" fill="#7bd0a9"/>
      <path id="Trazado_250861" data-name="Trazado 250861" d="M55.252,82H52.6V77.28h2.652v.663H53.358v1.269h1.78v.644h-1.78v1.477h1.894Z" transform="translate(-25.402 -5.213)" fill="#7bd0a9"/>
      <path id="Trazado_250862" data-name="Trazado 250862" d="M56.63,77.913a1.269,1.269,0,0,0-1.042.474,2.411,2.411,0,0,0,0,2.595,1.231,1.231,0,0,0,1.042.455,2.935,2.935,0,0,0,.587,0,3.784,3.784,0,0,0,.587-.152v.663a3.788,3.788,0,0,1-1.25.208,1.894,1.894,0,0,1-1.591-.625,2.538,2.538,0,0,1-.549-1.78,2.746,2.746,0,0,1,.265-1.288,1.894,1.894,0,0,1,.852-.928,2.424,2.424,0,0,1,1.193-.284,2.841,2.841,0,0,1,1.326.3l-.284.644-.492-.208A1.894,1.894,0,0,0,56.63,77.913Z" transform="translate(-23.787 -5.24)" fill="#7bd0a9"/>
      <path id="Trazado_250863" data-name="Trazado 250863" d="M61.029,79.658a2.633,2.633,0,0,1-.587,1.894,2.443,2.443,0,0,1-3.258,0,2.6,2.6,0,0,1-.568-1.894,2.538,2.538,0,0,1,.568-1.78,2.121,2.121,0,0,1,1.648-.625,2.065,2.065,0,0,1,1.61.625A2.576,2.576,0,0,1,61.029,79.658Zm-3.6,0a2.045,2.045,0,0,0,.36,1.326,1.193,1.193,0,0,0,1.023.455,1.212,1.212,0,0,0,1.042-.455,2.178,2.178,0,0,0,.341-1.326,2.14,2.14,0,0,0-.341-1.307,1.193,1.193,0,0,0-1.023-.455,1.231,1.231,0,0,0-1.042.455,2.027,2.027,0,0,0-.436,1.307Z" transform="translate(-21.823 -5.242)" fill="#7bd0a9"/>
      <rect id="Rectángulo_43815" data-name="Rectángulo 43815" width="70.874" height="70.874" rx="2.76" transform="translate(141.407 122.827)" fill="#dfe8f0"/>
      <path id="Trazado_250864" data-name="Trazado 250864" d="M175.05,171.525H119.442a5.3,5.3,0,0,1-5.322-5.3V110.613a5.3,5.3,0,0,1,5.322-5.3H175.05a5.3,5.3,0,0,1,5.3,5.3v55.608A5.3,5.3,0,0,1,175.05,171.525Zm-55.608-65.211a4.318,4.318,0,0,0-4.318,4.3v55.608a4.318,4.318,0,0,0,4.318,4.3H175.05a4.3,4.3,0,0,0,4.3-4.3V110.613a4.3,4.3,0,0,0-4.3-4.3Z" transform="translate(29.598 19.846)" fill="#fff"/>
      <path id="Trazado_250865" data-name="Trazado 250865" d="M129.694,113.4h11.591a2.386,2.386,0,0,1,2.386,2.386v30.778a2.4,2.4,0,0,1-2.405,2.405H129.675a2.4,2.4,0,0,1-2.405-2.405V115.786A2.4,2.4,0,0,1,129.694,113.4Z" transform="translate(41.354 27.079)" fill="#d0d0d0"/>
      <path id="Trazado_250866" data-name="Trazado 250866" d="M146.925,113.5v39.13a3.03,3.03,0,0,1-3.03,3.049H129.178a3.049,3.049,0,0,1-3.068-3.049V113.5a3.049,3.049,0,0,1,3.068-3.03h14.716A3.03,3.03,0,0,1,146.925,113.5Z" transform="translate(40.317 24.459)" fill="#7c8a98"/>
      <path id="Trazado_250867" data-name="Trazado 250867" d="M146.925,122.88v19.546a3.012,3.012,0,0,1-3.03,3.03H129.178a3.03,3.03,0,0,1-3.068-3.03V122.88Z" transform="translate(40.317 35.554)" fill="#5c6a78"/>
      <rect id="Rectángulo_43816" data-name="Rectángulo 43816" width="113.167" height="113.167" rx="4.4" transform="translate(21.44 122.561)" fill="#f7f7f7"/>
      <path id="Trazado_250868" data-name="Trazado 250868" d="M148.787,211.633H60a8.466,8.466,0,0,1-8.466-8.466v-88.81A8.466,8.466,0,0,1,60,105.89h88.81a8.485,8.485,0,0,1,8.485,8.466v88.81a8.485,8.485,0,0,1-8.5,8.466ZM60,107.5a6.875,6.875,0,0,0-6.856,6.856v88.81A6.856,6.856,0,0,0,60,210.023h88.81a6.856,6.856,0,0,0,6.856-6.856v-88.81a6.875,6.875,0,0,0-6.856-6.856Z" transform="translate(-26.359 20.365)" fill="#cec2f2"/>
      <path id="Trazado_250869" data-name="Trazado 250869" d="M94.84,181.571A33.163,33.163,0,0,1,62.226,154.4l5.473,0a1.383,1.383,0,0,0,1.383-1.383v-8.656a1.383,1.383,0,0,0-1.383-1.383H62.13a33.164,33.164,0,0,1,65.419,0H122.3a1.4,1.4,0,0,0-1.4,1.383v8.656a1.4,1.4,0,0,0,1.4,1.383h5.152A33.145,33.145,0,0,1,94.84,181.571Z" transform="translate(-16.882 28.759)" fill="#9caab8"/>
      <rect id="Rectángulo_43817" data-name="Rectángulo 43817" width="90.875" height="13.769" transform="translate(32.407 169.722)" fill="#9caab8"/>
      <path id="Trazado_250870" data-name="Trazado 250870" d="M118.069,63.28h60.438a5.209,5.209,0,0,1,5.209,5.152v60.494a5.209,5.209,0,0,1-5.209,5.209H118.069a5.209,5.209,0,0,1-5.209-5.209V68.432a5.227,5.227,0,0,1,5.209-5.152Z" transform="translate(28.471 -17.729)" fill="#dfe8f0"/>
      <path id="Trazado_250871" data-name="Trazado 250871" d="M175.01,130.725H119.383a5.322,5.322,0,0,1-5.3-5.3V69.813a5.3,5.3,0,0,1,5.3-5.3H175.01a5.3,5.3,0,0,1,5.3,5.3v55.608a5.322,5.322,0,0,1-5.3,5.3ZM119.383,65.438a4.3,4.3,0,0,0-4.3,4.3v55.684a4.3,4.3,0,0,0,4.3,4.3H175.01a4.3,4.3,0,0,0,4.28-4.3V69.813a4.281,4.281,0,0,0-4.28-4.375Z" transform="translate(29.562 -16.629)" fill="#fff"/>
      <rect id="Rectángulo_43818" data-name="Rectángulo 43818" width="6.553" height="13.864" rx="0.53" transform="translate(173.472 60.173)" fill="#4d5a68"/>
      <rect id="Rectángulo_43819" data-name="Rectángulo 43819" width="13.883" height="6.553" rx="0.53" transform="translate(152.165 89.681)" fill="#4d5a68"/>
      <rect id="Rectángulo_43820" data-name="Rectángulo 43820" width="13.864" height="6.553" rx="0.53" transform="translate(186.56 89.681)" fill="#4d5a68"/>
      <path id="Trazado_250872" data-name="Trazado 250872" d="M76.467,62.76h60.438a5.209,5.209,0,0,1,5.209,5.209v60.438a5.209,5.209,0,0,1-5.209,5.209H76.467a5.227,5.227,0,0,1-5.227-5.227V67.969a5.209,5.209,0,0,1,5.227-5.209Z" transform="translate(-8.738 -18.194)" fill="#dfe8f0"/>
      <path id="Trazado_250873" data-name="Trazado 250873" d="M133.36,130.308H77.733a5.322,5.322,0,0,1-5.3-5.3V69.283a5.322,5.322,0,0,1,5.3-5.3H133.36a5.322,5.322,0,0,1,5.3,5.3V124.91a5.322,5.322,0,0,1-5.3,5.4ZM77.733,65a4.3,4.3,0,0,0-4.224,4.28V124.91a4.3,4.3,0,0,0,4.3,4.3H133.36a4.3,4.3,0,0,0,4.3-4.3V69.283a4.3,4.3,0,0,0-4.3-4.28Z" transform="translate(-7.674 -17.103)" fill="#fff"/>
      <path id="Trazado_250874" data-name="Trazado 250874" d="M126.684,92.692A24.982,24.982,0,1,1,101.7,67.71a24.982,24.982,0,0,1,24.982,24.982Z" transform="translate(-3.838 -13.769)" fill="#c5d3e1"/>
      <path id="Trazado_250875" data-name="Trazado 250875" d="M121.638,91.184a21.554,21.554,0,1,1-43.108,0,20.929,20.929,0,0,1,.341-3.788,21.554,21.554,0,0,1,42.445,0,20.321,20.321,0,0,1,.322,3.788Z" transform="translate(-2.22 -12.072)" fill="#dfe8f0"/>
      <path id="Trazado_250876" data-name="Trazado 250876" d="M114.377,81.973a2.594,2.594,0,0,0-.246-.379h0A17.349,17.349,0,0,0,81,89.379a13.694,13.694,0,0,1,10.247-9.925A13.258,13.258,0,0,1,106.4,85.647c0,.17.189.341.265.511s0,0,0,.095a4.375,4.375,0,0,0,4.735,1.894h0a4.451,4.451,0,0,0,2.405-1.553,4.261,4.261,0,0,0,.852-3.788,4.109,4.109,0,0,0-.284-.833Z" transform="translate(-0.017 -10.436)" fill="#e54d42"/>
      <path id="Trazado_250877" data-name="Trazado 250877" d="M170.512,179.206a34.907,34.907,0,0,1,24.243-56.726h2.765a34.907,34.907,0,0,1,24.243,56.82h0s-8.428,22.255-6.989,31.175a3.883,3.883,0,0,1,.511,1.894v.966a3.788,3.788,0,0,1-3.788,3.883H180.815a3.788,3.788,0,0,1-3.788-3.883v-.966a3.883,3.883,0,0,1,.511-1.894c1.439-8.921-6.989-31.175-6.989-31.175Z" transform="translate(73.077 35.196)" fill="#f7f7f7"/>
      <path id="Trazado_250878" data-name="Trazado 250878" d="M191.492,183.785a7.576,7.576,0,0,1-7.576,7.576h0a7.576,7.576,0,0,1-7.576-7.576V161.966a7.576,7.576,0,0,1,7.576-7.576h0a7.576,7.576,0,0,1,7.576,7.576Z" transform="translate(85.223 63.724)" fill="#c5d3e1"/>
      <path id="Trazado_250879" data-name="Trazado 250879" d="M174,184.323c0,1.572,5.379,2.822,12.027,2.822s12.027-1.25,12.027-2.822-5.379-2.8-12.027-2.8S174,182.865,174,184.323Z" transform="translate(83.131 87.979)" fill="#6c7a88"/>
      <path id="Trazado_250880" data-name="Trazado 250880" d="M207.2,175.426a3.258,3.258,0,0,1-3.258,3.3H174.056a3.277,3.277,0,0,1-3.3-3.3,2.861,2.861,0,0,1,.133-.909,3.277,3.277,0,0,1,3.163-2.386h29.888a3.333,3.333,0,0,1,2.311.966,3.447,3.447,0,0,1,.833,1.421,3.521,3.521,0,0,1,.114.909Z" transform="translate(80.234 79.584)" fill="#9caab8"/>
      <path id="Trazado_250881" data-name="Trazado 250881" d="M207.2,178.906a3.258,3.258,0,0,1-3.258,3.277H174.056a3.277,3.277,0,0,1-3.3-3.277,2.785,2.785,0,0,1,.133-.909,3.277,3.277,0,0,1,3.163-2.386h29.888a3.315,3.315,0,0,1,2.311.947,3.656,3.656,0,0,1,.833,1.439,3.41,3.41,0,0,1,.114.909Z" transform="translate(80.234 82.695)" fill="#9caab8"/>
      <path id="Trazado_250882" data-name="Trazado 250882" d="M207.2,182.376a3.258,3.258,0,0,1-3.258,3.3H174.056a3.277,3.277,0,0,1-3.3-3.3,2.937,2.937,0,0,1,.133-.909,3.277,3.277,0,0,1,3.163-2.386h29.888a3.333,3.333,0,0,1,2.311.966,3.447,3.447,0,0,1,.833,1.421A3.615,3.615,0,0,1,207.2,182.376Z" transform="translate(80.234 85.797)" fill="#9caab8"/>
      <path id="Trazado_250883" data-name="Trazado 250883" d="M199.21,203.051h-1.629V172.993l11.857-26.838c-4.47,0-10.815-1.458-12.557-3.011a5.021,5.021,0,0,1-1-1.25,35.428,35.428,0,0,1-4.186.682,35.716,35.716,0,0,1-4.943-.758,4.393,4.393,0,0,1-1.042,1.326c-1.742,1.553-8.106,2.993-12.557,3.011l11.667,27.16V203.05h-1.629V173.485l-11.913-27.5a6.343,6.343,0,0,1-1.894-.492,1.78,1.78,0,0,1-1.117-1.78c0-.436.152-1.78,1.193-2.027s2.083,1.08,2.462,1.667l.474,1.08c4.053.133,10.758-1.307,12.2-2.576a3.466,3.466,0,0,0,.511-.568,3.22,3.22,0,0,1-1.894-1.439,1.383,1.383,0,0,1,.36-1.477,2.14,2.14,0,0,1,2.121-.777,2.178,2.178,0,0,1,1.458,1.667,3.467,3.467,0,0,1,0,.909,36.934,36.934,0,0,0,4.508.72,35.989,35.989,0,0,0,3.788-.625,4.165,4.165,0,0,1,0-1,2.159,2.159,0,0,1,1.477-1.667,2.065,2.065,0,0,1,2.1.777,1.4,1.4,0,0,1,.379,1.515,3.163,3.163,0,0,1-1.894,1.458,3.883,3.883,0,0,0,.474.511c1.439,1.269,8.144,2.727,12.2,2.576l.417-.966c.436-.7,1.421-2.046,2.519-1.78s1.155,1.591,1.193,2.027a1.761,1.761,0,0,1-1.1,1.78,6.629,6.629,0,0,1-1.894.492l-11.951,27.425Zm13.258-59.51a6.038,6.038,0,0,0-.606.72c.549-.152.663-.322.663-.322a2.19,2.19,0,0,0,.019-.4Zm-42.653,0v.4c0,.171.114.17.644.322h0a3.542,3.542,0,0,0-.568-.72Zm27.425-4.3h0a.829.829,0,0,0-.284.474.36.36,0,0,0,0,.151,3.259,3.259,0,0,0,.777-.379c-.189-.189-.322-.246-.417-.246Zm-12.576.208a2.726,2.726,0,0,0,.739.341h0a.5.5,0,0,0-.3-.474.549.549,0,0,0-.284.133Z" transform="translate(77.997 48.664)" fill="#9caab8"/>
      <rect id="Rectángulo_43821" data-name="Rectángulo 43821" width="1.633" height="16.753" transform="matrix(0.987, -0.16, 0.16, 0.987, 265.796, 189.393)" fill="#9caab8"/>
      <rect id="Rectángulo_43822" data-name="Rectángulo 43822" width="16.705" height="1.629" transform="translate(270.358 206.601) rotate(-81.02)" fill="#9caab8"/>
      <path id="Trazado_250884" data-name="Trazado 250884" d="M187.9,149a1.667,1.667,0,0,1-1.667,1.648h-6.894A1.648,1.648,0,0,1,177.69,149h0a1.648,1.648,0,0,1,1.648-1.667h6.894A1.667,1.667,0,0,1,187.9,149Z" transform="translate(86.43 57.413)" fill="#c5d3e1"/>
      <path id="Trazado_250885" data-name="Trazado 250885" d="M184.06,167.122c0,1.989-1.117,3.6-2.5,3.6h0c-1.383,0-2.5-1.61-2.5-3.6V150.929c0-1.894,1.117-3.6,2.5-3.6h0c1.383,0,2.5,1.61,2.5,3.6Z" transform="translate(87.655 57.413)" fill="#c5d3e1"/>
      <path id="Trazado_250886" data-name="Trazado 250886" d="M184.584,183.757v-22.2a2.746,2.746,0,0,0-5.474,0v22.2Z" transform="translate(87.699 67.882)" fill="#dfe8f0"/>
      <path id="Trazado_250887" data-name="Trazado 250887" d="M118.663,76.011a.947.947,0,0,1-.947-.947V70.519a.947.947,0,0,1,1.894,0v4.546A.947.947,0,0,1,118.663,76.011Zm0-10.228a.947.947,0,0,1-.947-.947V59.154a.947.947,0,0,1,1.894,0v5.682a.947.947,0,0,1-.947.947Zm0-11.364a.947.947,0,0,1-.947-.947V49.5a2.727,2.727,0,0,0-.284-1.231.966.966,0,0,1,.436-1.269.985.985,0,0,1,1.269.436,4.64,4.64,0,0,1,.474,2.064v3.977a.947.947,0,0,1-.947.947Zm-5.227-7.765h-5.682a.947.947,0,0,1-.947-.947.966.966,0,0,1,.947-.947h5.682a.947.947,0,1,1,0,1.894Zm-11.364,0H96.389a.947.947,0,0,1-.947-.947.966.966,0,0,1,.947-.947h5.682a.947.947,0,0,1,0,1.894Zm-11.364,0H85.025a.947.947,0,0,1-.947-.947.966.966,0,0,1,.947-.947h5.682a.947.947,0,0,1,0,1.894Zm-11.364,0H73.661a.947.947,0,0,1-.947-.947.966.966,0,0,1,.947-.947h5.682a.947.947,0,1,1,0,1.894Zm-11.364,0H62.3a.947.947,0,0,1-.947-.947.966.966,0,0,1,.947-.947h5.682a.947.947,0,1,1,0,1.894Z" transform="translate(-17.579 -34.286)" fill="#fff"/>
      <path id="Trazado_250888" data-name="Trazado 250888" d="M195.982,180.742H190.3a.947.947,0,1,1,0-1.894h5.682a.947.947,0,0,1,0,1.894Zm-11.364,0h-5.682a.947.947,0,0,1,0-1.894h5.682a.947.947,0,0,1,0,1.894Zm-11.364,0h-5.682a.947.947,0,0,1,0-1.894h5.682a.947.947,0,1,1,0,1.894Zm-11.364,0h-5.682a.947.947,0,1,1,0-1.894h5.682a.947.947,0,0,1,0,1.894Zm-11.364,0h-5.682a.947.947,0,1,1,0-1.894h5.682a.947.947,0,0,1,0,1.894Zm-11.364,0h-2.311a5.019,5.019,0,0,1-3.693-1.648.947.947,0,1,1,1.4-1.269,3.106,3.106,0,0,0,2.292,1.023h2.311a.947.947,0,0,1,0,1.894Zm-6.345-6.762a.947.947,0,0,1-.947-.947v-5.682a.966.966,0,0,1,.947-.947.947.947,0,0,1,.947.947v5.682A.947.947,0,0,1,132.817,173.98Zm0-11.364a.947.947,0,0,1-.947-.947v-5.682a.966.966,0,0,1,.947-.947.947.947,0,0,1,.947.947v5.682A.947.947,0,0,1,132.817,162.616Zm0-11.364a.947.947,0,0,1-.947-.947v-4.678a.966.966,0,0,1,.947-.947.947.947,0,0,1,.947.947v4.678A.947.947,0,0,1,132.817,151.252Z" transform="translate(45.466 55.043)" fill="#fff"/>
      <path id="Trazado_250889" data-name="Trazado 250889" d="M208.592,154.813a.947.947,0,0,1-.947-.947v-2.178a.966.966,0,0,1,.947-.947.947.947,0,0,1,.947.947v2.178A.947.947,0,0,1,208.592,154.813Zm0-7.86a.947.947,0,0,1-.947-.947v-5.682a.966.966,0,0,1,.947-.947.947.947,0,0,1,.947.947v5.682A.947.947,0,0,1,208.592,146.953Zm0-11.364a.947.947,0,0,1-.947-.947V128.96a.966.966,0,0,1,.947-.947.947.947,0,0,1,.947.947v5.682A.947.947,0,0,1,208.592,135.589Zm0-11.364a.947.947,0,0,1-.947-.947V117.6a.966.966,0,0,1,.947-.947.947.947,0,0,1,.947.947v5.682A.947.947,0,0,1,208.592,124.225Zm0-11.364a.947.947,0,0,1-.947-.947v-5.682a.966.966,0,0,1,.947-.947.947.947,0,0,1,.947.947v5.682A.947.947,0,0,1,208.592,112.861Zm0-11.364a.947.947,0,0,1-.947-.947V94.868a.966.966,0,0,1,.947-.947.947.947,0,0,1,.947.947v5.682A.947.947,0,0,1,208.592,101.5Zm0-11.364a.947.947,0,0,1-.947-.947V85.019a2.859,2.859,0,0,0-.208-1.117.948.948,0,1,1,1.761-.7,5,5,0,0,1,.341,1.894v4.167A.947.947,0,0,1,208.592,90.133Zm-4.887-8.239h-5.682a.947.947,0,0,1,0-1.894h5.682a.947.947,0,0,1,0,1.894Zm-11.364,0h-5.682a.947.947,0,0,1,0-1.894h5.682a.947.947,0,1,1,0,1.894Zm-11.364,0H175.3a.947.947,0,1,1,0-1.894h5.682a.947.947,0,1,1,0,1.894Zm-11.364,0h-5.682a.947.947,0,1,1,0-1.894h5.682a.947.947,0,0,1,0,1.894Zm-11.364,0h-5.682a.947.947,0,0,1,0-1.894h5.682a.947.947,0,0,1,0,1.894Z" transform="translate(63.123 -2.781)" fill="#fff"/>
      <rect id="Rectángulo_43823" data-name="Rectángulo 43823" width="45.437" height="6.875" transform="translate(56.044 162.847)" fill="#5c6a78"/>
      <rect id="Rectángulo_43824" data-name="Rectángulo 43824" width="45.437" height="6.875" transform="translate(56.044 185.026)" fill="#5c6a78"/>
    </g>
  </g>
</svg>
