<svg xmlns="http://www.w3.org/2000/svg" width="507.939" height="301.546" viewBox="0 0 507.939 301.546">
  <g id="Grupo_145538" data-name="Grupo 145538" transform="translate(-848.061 -5882.095)">
    <g id="Background_Complete" data-name="Background Complete" transform="translate(853.351 5882.095)">
      <path id="Trazado_251100" data-name="Trazado 251100" d="M653.307,238.606H608.148a5.649,5.649,0,0,1-5.648-5.649v-62.5a5.649,5.649,0,0,1,5.648-5.649h28.638l22.169,22.848v45.3A5.648,5.648,0,0,1,653.307,238.606Z" transform="translate(-188.919 -84.596)" fill="#ebebeb"/>
      <path id="Trazado_251101" data-name="Trazado 251101" d="M648.45,164.81V182.4a5.261,5.261,0,0,0,5.224,5.261h16.915Z" transform="translate(-200.582 -84.596)" fill="#f5f5f5"/>
      <path id="Trazado_251102" data-name="Trazado 251102" d="M648.759,190.45a5.842,5.842,0,0,0,4.634,5.671c.187.052.373.09.56.127,2.239.4,16.744,2.985,16.744,2.641v-4.723H653.781S649.558,194.024,648.759,190.45Z" transform="translate(-200.66 -91.105)" fill="#e0e0e0"/>
      <path id="Trazado_251103" data-name="Trazado 251103" d="M653.257,238.544a6.385,6.385,0,0,0,.977-.112,5.715,5.715,0,0,0,2.559-1.194,5.6,5.6,0,0,0,2.022-3.985v-6.3c0-9.461-.045-23-.075-39.361l.045.112L636.6,164.889l.134.06H609.374a13.82,13.82,0,0,0-2.164.082,5.439,5.439,0,0,0-3.544,2.239,5.357,5.357,0,0,0-1,2.776v61.589a13.069,13.069,0,0,0,.1,2.373,5.507,5.507,0,0,0,2.559,3.634,5.394,5.394,0,0,0,2.082.746,18.359,18.359,0,0,0,2.238.06h8.521l25.721.06,6.992.037h-6.992l-25.721.067h-8.588a19.42,19.42,0,0,1-2.239-.052,5.79,5.79,0,0,1-4.91-4.611,12.672,12.672,0,0,1-.119-2.432V170a5.82,5.82,0,0,1,4.865-5.343,14.113,14.113,0,0,1,2.239-.082h27.444l.052.06L659.069,187.5l.045.045v.067c0,16.356-.052,29.9-.067,39.361,0,2.365,0,4.477-.045,6.305a5.663,5.663,0,0,1-4.716,5.223,3.775,3.775,0,0,1-.746.06A2.031,2.031,0,0,1,653.257,238.544Z" transform="translate(-188.868 -84.534)" fill="#e0e0e0"/>
      <path id="Trazado_251104" data-name="Trazado 251104" d="M670.551,187.645a1.977,1.977,0,0,1-.433,0l-1.246.037-4.582.06-6.8.045h-4.014a5.469,5.469,0,0,1-5.037-3.8,6.178,6.178,0,0,1-.246-2.156v-4.014c0-2.544,0-4.85.045-6.8s.045-3.447.06-4.582v-1.246a1.973,1.973,0,0,1,.037-.433,1.5,1.5,0,0,1,0,.433v1.246c0,1.134.037,2.686.067,4.582s0,4.253.037,6.8v4.014a5.223,5.223,0,0,0,1.268,3.858,5.074,5.074,0,0,0,3.641,1.716h4.007l6.8.037,4.581.067h1.246A1.493,1.493,0,0,1,670.551,187.645Z" transform="translate(-200.515 -84.584)" fill="#e0e0e0"/>
      <path id="Trazado_251105" data-name="Trazado 251105" d="M639.187,185.774c0,.112-5.335.2-11.939.2s-11.939-.09-11.939-.2,5.335-.194,11.939-.194S639.187,185.67,639.187,185.774Z" transform="translate(-192.17 -89.868)" fill="#e0e0e0"/>
      <path id="Trazado_251106" data-name="Trazado 251106" d="M650.51,197.534c0,.112-7.865.194-17.565.194s-17.565-.082-17.565-.194,7.865-.194,17.565-.194S650.51,197.43,650.51,197.534Z" transform="translate(-192.188 -92.853)" fill="#e0e0e0"/>
      <path id="Trazado_251107" data-name="Trazado 251107" d="M650.51,209.294c0,.112-7.865.194-17.565.194s-17.565-.082-17.565-.194,7.865-.194,17.565-.194S650.51,209.19,650.51,209.294Z" transform="translate(-192.188 -95.838)" fill="#e0e0e0"/>
      <path id="Trazado_251108" data-name="Trazado 251108" d="M650.51,221.054c0,.112-7.865.194-17.565.194s-17.565-.082-17.565-.194,7.865-.194,17.565-.194S650.51,220.964,650.51,221.054Z" transform="translate(-192.188 -98.823)" fill="#e0e0e0"/>
      <path id="Trazado_251109" data-name="Trazado 251109" d="M650.51,232.814c0,.112-7.865.194-17.565.194s-17.565-.082-17.565-.194,7.865-.194,17.565-.194S650.51,232.71,650.51,232.814Z" transform="translate(-192.188 -101.808)" fill="#e0e0e0"/>
      <path id="Trazado_251110" data-name="Trazado 251110" d="M650.51,247.324c0,.1-7.865.194-17.565.194s-17.565-.09-17.565-.194,7.865-.194,17.565-.194S650.51,247.212,650.51,247.324Z" transform="translate(-192.188 -105.492)" fill="#e0e0e0"/>
      <rect id="Rectángulo_43903" data-name="Rectángulo 43903" width="38.353" height="17.237" rx="4.22" transform="translate(403.455 124.596)" fill="#e0e0e0"/>
      <path id="Trazado_251111" data-name="Trazado 251111" d="M594.89,231.82h2.985c2.134,0,3.589,1.283,3.589,3.261s-1.455,3.253-3.589,3.253H594.89Zm2.88,5.275a2.022,2.022,0,1,0,0-4.037H596.4V237.1Z" transform="translate(-186.987 -101.605)" fill="#fff"/>
      <path id="Trazado_251112" data-name="Trazado 251112" d="M604.628,234.908a3.567,3.567,0,1,1,3.567,3.365,3.373,3.373,0,0,1-3.567-3.365Zm5.6,0a2.037,2.037,0,1,0-2.037,2.082,1.985,1.985,0,0,0,2.037-2.082Z" transform="translate(-189.457 -101.433)" fill="#fff"/>
      <path id="Trazado_251113" data-name="Trazado 251113" d="M615.15,235.034a3.582,3.582,0,0,1,6.216-2.239l-.97.9a2.082,2.082,0,1,0,0,2.671l.97.9a3.582,3.582,0,0,1-6.216-2.2Z" transform="translate(-192.13 -101.559)" fill="#fff"/>
      <path id="Trazado_251114" data-name="Trazado 251114" d="M628.513,238.334l-1.574-2.239-1.537,2.239H623.67l2.41-3.313-2.291-3.2H625.5l1.492,2.112,1.492-2.112h1.627l-2.239,3.149,2.425,3.365Z" transform="translate(-194.292 -101.605)" fill="#fff"/>
      <path id="Trazado_251115" data-name="Trazado 251115" d="M562.744,371.215l-34.19,59.791-67.655.978a4.089,4.089,0,0,0-4.029,3.865h0l68.8.194,2.589-.082,86.138.164L631.8,406.106l22.236-31.869a3.149,3.149,0,0,0-2.589-4.947l-85.989.328a3.156,3.156,0,0,0-2.716,1.6Z" transform="translate(-151.954 -136.499)" fill="#ebebeb"/>
      <path id="Trazado_251116" data-name="Trazado 251116" d="M679.614,372.2a1.491,1.491,0,0,1-.41.045l-1.216.045-4.649.075-17.1.142-56.441.119h-4.111a3.387,3.387,0,0,0-3.126,1.492l-3.835,6.91-7.26,13.1-12.334,22.176c-3.515,6.245-6.372,11.319-8.387,14.923l-2.313,4.029c-.254.418-.455.746-.627,1.037a1.967,1.967,0,0,1-.231.343,1.276,1.276,0,0,1,.157-.388l.552-1.075,2.171-4.111c1.962-3.619,4.738-8.738,8.148-15.043l12.178-22.258L588,380.633l3.85-6.962a4.231,4.231,0,0,1,3.835-1.865H599.8l56.44.127,17.1.134,4.649.082H679.2a1.5,1.5,0,0,1,.411.052Z" transform="translate(-177.514 -137.135)" fill="#e0e0e0"/>
      <path id="Trazado_251117" data-name="Trazado 251117" d="M639.5,412.126a3.635,3.635,0,1,0,5.432-.642A3.914,3.914,0,0,0,639.5,412.126Z" transform="translate(-198.016 -146.996)" fill="#fff"/>
      <path id="Trazado_251118" data-name="Trazado 251118" d="M54.409,373.38v35.757H48.44v3.888h5.969v23.93h111.6V415.173h-8.253v-4.768h8.253v-7.089h3.731v-3.231h-4.4V373.38Z" transform="translate(-48.283 -137.537)" fill="#f5f5f5"/>
      <path id="Trazado_251119" data-name="Trazado 251119" d="M166.3,373.477v63.081h29.638V414.778H187.67v-4.343l8.268.142v-7.111h3.746l-.075-3.671-4.358-.112v-26.3Z" transform="translate(-78.199 -137.537)" fill="#e0e0e0"/>
      <path id="Trazado_251120" data-name="Trazado 251120" d="M138.442,425.685c0,.216-20.2.4-45.106.4s-45.106-.179-45.106-.4,20.191-.4,45.106-.4S138.442,425.462,138.442,425.685Z" transform="translate(-48.23 -150.713)" fill="#e0e0e0"/>
      <path id="Trazado_251121" data-name="Trazado 251121" d="M138.442,420.865c0,.216-20.2.4-45.106.4s-45.106-.179-45.106-.4,20.191-.4,45.106-.4S138.442,420.612,138.442,420.865Z" transform="translate(-48.23 -149.49)" fill="#e0e0e0"/>
      <path id="Trazado_251122" data-name="Trazado 251122" d="M146.2,407.713c0,.216-20.191.4-45.1.4S56,407.929,56,407.713s20.191-.4,45.114-.4S146.2,407.489,146.2,407.713Z" transform="translate(-50.202 -146.15)" fill="#e0e0e0"/>
      <path id="Trazado_251123" data-name="Trazado 251123" d="M146.952,443.41c0,.216-20.2.4-45.106.4s-45.106-.179-45.106-.4,20.191-.41,45.106-.41S146.952,443.194,146.952,443.41Z" transform="translate(-50.39 -155.209)" fill="#e0e0e0"/>
      <path id="Trazado_251124" data-name="Trazado 251124" d="M538.7,144.838H494.592a5.514,5.514,0,0,1-5.522-5.514V78.264a5.514,5.514,0,0,1,5.522-5.514h28l21.639,22.318v44.278a5.514,5.514,0,0,1-5.536,5.492Z" transform="translate(-160.127 -61.229)" fill="#ebebeb"/>
      <path id="Trazado_251125" data-name="Trazado 251125" d="M534,72.75V89.912a5.134,5.134,0,0,0,5.134,5.134h16.505Z" transform="translate(-171.532 -61.229)" fill="#f5f5f5"/>
      <path id="Trazado_251126" data-name="Trazado 251126" d="M534.26,97.8a5.71,5.71,0,0,0,4.529,5.537,4.633,4.633,0,0,0,.537.119c2.164.388,16.364,2.91,16.364,2.589v-4.619h-16.52S535.043,101.285,534.26,97.8Z" transform="translate(-171.597 -67.587)" fill="#e0e0e0"/>
      <path id="Trazado_251127" data-name="Trazado 251127" d="M538.627,144.767a6.006,6.006,0,0,0,.955-.112,5.469,5.469,0,0,0,4.477-5.059v-6.148c0-9.245-.037-22.475-.067-38.45l.045.112L522.4,72.807l.127.06H495.767a14.126,14.126,0,0,0-2.119.075,5.335,5.335,0,0,0-3.462,2.164,5.223,5.223,0,0,0-.97,2.709c-.045.977,0,2.007,0,2.985v57.179a12.48,12.48,0,0,0,.1,2.321,5.35,5.35,0,0,0,2.492,3.544,5.163,5.163,0,0,0,2.037.746,18.954,18.954,0,0,0,2.164.06h8.327l25.131.06,6.828.037h-6.828l-25.131.067h-8.38a20.055,20.055,0,0,1-2.238-.052,5.671,5.671,0,0,1-4.805-4.477,12.863,12.863,0,0,1-.112-2.388v-60.1a5.581,5.581,0,0,1,1.045-2.91,5.686,5.686,0,0,1,3.731-2.313,13.524,13.524,0,0,1,2.186-.082h26.8l.06.052,21.639,22.34.052.045v.067c0,15.976-.052,29.205-.074,38.45,0,2.306,0,4.358-.037,6.156a5.514,5.514,0,0,1-4.611,5.1,3.576,3.576,0,0,1-.746.06Z" transform="translate(-160.057 -61.159)" fill="#e0e0e0"/>
      <path id="Trazado_251128" data-name="Trazado 251128" d="M555.565,95.035a1.94,1.94,0,0,1-.425,0l-1.216.037-4.477.06H538.888a5.335,5.335,0,0,1-4.925-3.731,6.268,6.268,0,0,1-.246-2.112V78.731c0-1.91.052-3.365.067-4.477V73.038a1.4,1.4,0,0,1,.037-.418,1.822,1.822,0,0,1,0,.418v1.216c0,1.112.037,2.627.06,4.477s0,4.156.045,6.641v3.917a5.127,5.127,0,0,0,1.239,3.731,4.97,4.97,0,0,0,3.559,1.679h3.917l6.634.045,4.477.067h1.216a1.627,1.627,0,0,1,.6.224Z" transform="translate(-171.457 -61.196)" fill="#e0e0e0"/>
      <path id="Trazado_251129" data-name="Trazado 251129" d="M524.923,93.224c0,.112-5.223.2-11.633.2s-11.64-.09-11.64-.2,5.223-.194,11.64-.194S524.923,93.12,524.923,93.224Z" transform="translate(-163.32 -66.377)" fill="#e0e0e0"/>
      <path id="Trazado_251130" data-name="Trazado 251130" d="M535.964,104.714c0,.112-7.685.194-17.162.194s-17.162-.082-17.162-.194,7.678-.194,17.162-.194S535.964,104.61,535.964,104.714Z" transform="translate(-163.318 -69.293)" fill="#e0e0e0"/>
      <path id="Trazado_251131" data-name="Trazado 251131" d="M535.964,116.2c0,.1-7.685.194-17.162.194s-17.162-.09-17.162-.194,7.678-.194,17.162-.194S535.964,116.1,535.964,116.2Z" transform="translate(-163.318 -72.21)" fill="#e0e0e0"/>
      <path id="Trazado_251132" data-name="Trazado 251132" d="M535.964,127.694c0,.1-7.685.194-17.162.194s-17.162-.09-17.162-.194,7.678-.194,17.162-.194S535.964,127.582,535.964,127.694Z" transform="translate(-163.318 -75.126)" fill="#e0e0e0"/>
      <path id="Trazado_251133" data-name="Trazado 251133" d="M535.964,139.184c0,.1-7.685.194-17.162.194s-17.162-.09-17.162-.194,7.678-.194,17.162-.194S535.964,139.072,535.964,139.184Z" transform="translate(-163.318 -78.043)" fill="#e0e0e0"/>
      <path id="Trazado_251134" data-name="Trazado 251134" d="M535.964,153.344c0,.112-7.685.194-17.162.194s-17.162-.082-17.162-.194,7.678-.194,17.162-.194S535.964,153.24,535.964,153.344Z" transform="translate(-163.318 -81.637)" fill="#e0e0e0"/>
      <rect id="Rectángulo_43904" data-name="Rectángulo 43904" width="37.465" height="16.834" rx="4.22" transform="translate(319.048 54.874)" fill="#e0e0e0"/>
      <path id="Trazado_251135" data-name="Trazado 251135" d="M493.551,140.516c0,1.418-1.06,2.306-2.761,2.306h-1.3v1.754H488V138.21h2.753C492.477,138.21,493.551,139.09,493.551,140.516Zm-1.492,0c0-.694-.455-1.1-1.358-1.1h-1.209v2.239h1.194c.925-.03,1.38-.44,1.38-1.134Z" transform="translate(-159.856 -77.845)" fill="#fff"/>
      <path id="Trazado_251136" data-name="Trazado 251136" d="M496.84,138.21h2.9c2.074,0,3.507,1.254,3.507,3.179s-1.433,3.186-3.507,3.186h-2.9Zm2.821,5.156a1.977,1.977,0,1,0,0-3.947h-1.343v3.947Z" transform="translate(-162.099 -77.845)" fill="#fff"/>
      <path id="Trazado_251137" data-name="Trazado 251137" d="M508.362,139.389v1.686h2.985v1.179h-2.985v2.321H506.87V138.21h4.805v1.179Z" transform="translate(-164.645 -77.845)" fill="#fff"/>
      <rect id="Rectángulo_43905" data-name="Rectángulo 43905" width="23.833" height="41.069" transform="translate(179.611 56.858) rotate(180)" fill="#ebebeb"/>
      <rect id="Rectángulo_43906" data-name="Rectángulo 43906" width="18.818" height="51.27" transform="translate(108.12 57.515) rotate(180)" fill="#ebebeb"/>
      <path id="Trazado_251138" data-name="Trazado 251138" d="M167.62,70.541a80.543,80.543,0,0,1,9.611-.291,80.543,80.543,0,0,1,9.611.291,81.7,81.7,0,0,1-9.611.284A81.7,81.7,0,0,1,167.62,70.541Z" transform="translate(-78.534 -60.595)" fill="#fafafa"/>
      <path id="Trazado_251139" data-name="Trazado 251139" d="M169,73.8a70.526,70.526,0,0,1,9.088-.291,70.694,70.694,0,0,1,9.1.291,71.5,71.5,0,0,1-9.1.284A73.023,73.023,0,0,1,169,73.8Z" transform="translate(-78.885 -61.422)" fill="#fafafa"/>
      <path id="Trazado_251140" data-name="Trazado 251140" d="M179.7,110.519c-.157,0-.291-6.8-.291-15.17s.134-15.17.291-15.17.284,6.79.284,15.17S179.85,110.519,179.7,110.519Z" transform="translate(-81.527 -63.115)" fill="#fafafa"/>
      <path id="Trazado_251141" data-name="Trazado 251141" d="M167.91,127.024a75.032,75.032,0,0,1,9.208-.284,75.209,75.209,0,0,1,9.215.284,75.107,75.107,0,0,1-9.215.284A74.93,74.93,0,0,1,167.91,127.024Z" transform="translate(-78.608 -74.933)" fill="#fafafa"/>
      <path id="Trazado_251142" data-name="Trazado 251142" d="M167.91,129.974a78.728,78.728,0,0,1,9.439-.284,78.909,78.909,0,0,1,9.447.284,78.933,78.933,0,0,1-9.447.284A78.755,78.755,0,0,1,167.91,129.974Z" transform="translate(-78.608 -75.682)" fill="#fafafa"/>
      <rect id="Rectángulo_43907" data-name="Rectángulo 43907" width="15.117" height="56.814" transform="translate(123.223 57.515) rotate(180)" fill="#e0e0e0"/>
      <path id="Trazado_251143" data-name="Trazado 251143" d="M193,93.21a14.581,14.581,0,0,1,2.343,1.619L200.8,98.97l5.447,4.149a14.923,14.923,0,0,1,2.186,1.821,13.855,13.855,0,0,1-2.425-1.492c-1.448-.992-3.425-2.4-5.552-4.022s-4.022-3.141-5.365-4.276A13.653,13.653,0,0,1,193,93.21Z" transform="translate(-84.977 -66.422)" fill="#fafafa"/>
      <path id="Trazado_251144" data-name="Trazado 251144" d="M192.9,81.289a87.022,87.022,0,0,1,7.73,6.253c4.164,3.574,7.462,6.566,7.365,6.716s-3.567-2.679-7.738-6.253A83.007,83.007,0,0,1,192.9,81.289Z" transform="translate(-84.95 -63.396)" fill="#fafafa"/>
      <rect id="Rectángulo_43908" data-name="Rectángulo 43908" width="7.23" height="54.12" transform="translate(49.643 57.552) rotate(180)" fill="#ebebeb"/>
      <path id="Trazado_251145" data-name="Trazado 251145" d="M105.47,71.673c0,.187,1.492.336,3.388.336s3.388-.149,3.388-.336-1.492-.343-3.388-.343S105.47,71.479,105.47,71.673Z" transform="translate(-62.759 -60.869)" fill="#fafafa"/>
      <path id="Trazado_251146" data-name="Trazado 251146" d="M105.27,70.093c0,.187,1.492.336,3.388.336s3.388-.149,3.388-.336-1.492-.343-3.388-.343A9.341,9.341,0,0,0,105.27,70.093Z" transform="translate(-62.708 -60.468)" fill="#fafafa"/>
      <path id="Trazado_251147" data-name="Trazado 251147" d="M105.47,128.713c0,.187,1.492.343,3.388.343s3.388-.157,3.388-.343-1.492-.343-3.388-.343S105.47,128.527,105.47,128.713Z" transform="translate(-62.759 -75.347)" fill="#fafafa"/>
      <path id="Trazado_251148" data-name="Trazado 251148" d="M105.27,127.133c0,.187,1.492.343,3.388.343s3.388-.157,3.388-.343-1.492-.343-3.388-.343S105.27,126.947,105.27,127.133Z" transform="translate(-62.708 -74.946)" fill="#fafafa"/>
      <path id="Trazado_251149" data-name="Trazado 251149" d="M110.086,108.36c.194,0,.343-6.2.343-13.849s-.149-13.842-.343-13.842-.336,6.193-.336,13.842S109.937,108.36,110.086,108.36Z" transform="translate(-63.845 -63.239)" fill="#fafafa"/>
      <rect id="Rectángulo_43909" data-name="Rectángulo 43909" width="14.461" height="54.12" transform="translate(89.272 57.202) rotate(180)" fill="#e0e0e0"/>
      <path id="Trazado_251150" data-name="Trazado 251150" d="M159.3,116.3a1.127,1.127,0,0,0,.164-.291c.1-.2.246-.5.418-.9a15.611,15.611,0,0,0,1.045-3.671,9.559,9.559,0,0,0-.843-5.969,8.044,8.044,0,0,0-2.559-2.828,6.014,6.014,0,0,0-4.171-.985,4.417,4.417,0,0,0-2.149,1,2.828,2.828,0,0,0-1.037,2.283,3.261,3.261,0,0,0,1.239,2.291,4.387,4.387,0,0,0,2.462,1.045,6.536,6.536,0,0,0,5.126-1.865,8.26,8.26,0,0,0,2.544-5.223,13.864,13.864,0,0,0-.746-6.037,11.148,11.148,0,0,0-3.544-5.275,5.857,5.857,0,0,0-3.119-1.231,4.059,4.059,0,0,0-3.253,1.157,2.611,2.611,0,0,0-.746,1.694,3.1,3.1,0,0,0,.492,1.768,4.716,4.716,0,0,0,2.925,1.992,6.805,6.805,0,0,0,6.365-2.134,10.648,10.648,0,0,0,2.485-6.1,14.924,14.924,0,0,0-.627-6.313,8.685,8.685,0,0,0-3.731-4.805,6.38,6.38,0,0,0-5.768-.567,3.022,3.022,0,0,0-1.873,2.239,3.507,3.507,0,0,0,.657,2.724,4.514,4.514,0,0,0,4.872,1.291,8.38,8.38,0,0,0,3.843-2.731,12.26,12.26,0,0,0,2.947-7.447,11.939,11.939,0,0,0-3.611-8.954,7.59,7.59,0,0,0-.746-.649,1.358,1.358,0,0,0-.276-.194,13.841,13.841,0,0,1,3.022,4.022,11.767,11.767,0,0,1,1.194,5.746,11.939,11.939,0,0,1-2.873,7.126A7.9,7.9,0,0,1,155.8,81.04a3.977,3.977,0,0,1-4.268-1.119A2.94,2.94,0,0,1,151,77.683a2.44,2.44,0,0,1,1.537-1.776,5.805,5.805,0,0,1,5.178.6,8.1,8.1,0,0,1,3.447,4.477,14.461,14.461,0,0,1,.575,6.037,10.013,10.013,0,0,1-2.321,5.708,6.148,6.148,0,0,1-5.716,1.925,4.022,4.022,0,0,1-2.492-1.686,2.074,2.074,0,0,1,.157-2.641,3.4,3.4,0,0,1,2.716-.948,5.223,5.223,0,0,1,2.761,1.089,10.6,10.6,0,0,1,3.335,4.955,13.252,13.252,0,0,1,.746,5.753,7.626,7.626,0,0,1-2.328,4.843,5.969,5.969,0,0,1-4.656,1.739,3.448,3.448,0,0,1-3.238-2.806,2.35,2.35,0,0,1,.843-1.88,3.977,3.977,0,0,1,1.9-.9,5.529,5.529,0,0,1,3.85.873,7.462,7.462,0,0,1,2.462,2.649,9.327,9.327,0,0,1,.918,5.738,16.955,16.955,0,0,1-.918,3.656A12.532,12.532,0,0,0,159.3,116.3Z" transform="translate(-74.095 -58.401)" fill="#fafafa"/>
      <rect id="Rectángulo_43910" data-name="Rectángulo 43910" width="25.086" height="49.292" transform="translate(74.61 57.224) rotate(180)" fill="#fafafa"/>
      <path id="Trazado_251151" data-name="Trazado 251151" d="M115.75,78.806c0,.194,5.44.343,12.148.343s12.14-.149,12.14-.343-5.447-.336-12.163-.336S115.75,78.619,115.75,78.806Z" transform="translate(-65.368 -62.681)" fill="#e0e0e0"/>
      <path id="Trazado_251152" data-name="Trazado 251152" d="M115.34,83.813c0,.187,5.365.343,11.984.343s11.991-.157,11.991-.343-5.365-.343-11.991-.343S115.34,83.627,115.34,83.813Z" transform="translate(-65.264 -63.95)" fill="#e0e0e0"/>
      <path id="Trazado_251153" data-name="Trazado 251153" d="M114.26,126.423c0,.187,5.649.336,12.618.336s12.625-.149,12.625-.336-5.648-.343-12.625-.343S114.26,126.237,114.26,126.423Z" transform="translate(-64.99 -74.766)" fill="#e0e0e0"/>
      <path id="Trazado_251154" data-name="Trazado 251154" d="M114.71,120.533c0,.187,5.507.343,12.3.343s12.3-.157,12.3-.343-5.507-.343-12.3-.343S114.71,120.347,114.71,120.533Z" transform="translate(-65.104 -73.271)" fill="#e0e0e0"/>
      <rect id="Rectángulo_43911" data-name="Rectángulo 43911" width="14.461" height="54.12" transform="translate(137.669 56.858) rotate(180)" fill="#ebebeb"/>
      <path id="Trazado_251155" data-name="Trazado 251155" d="M224.163,115.826a3.031,3.031,0,0,0,.172-.3c.1-.2.239-.5.41-.9a15.67,15.67,0,0,0,1.052-3.671,9.551,9.551,0,0,0-.843-5.969,7.879,7.879,0,0,0-2.567-2.828,5.969,5.969,0,0,0-4.164-.985,4.365,4.365,0,0,0-2.156.992,2.858,2.858,0,0,0-1.037,2.283,3.328,3.328,0,0,0,1.239,2.3,4.544,4.544,0,0,0,2.47,1.045,6.581,6.581,0,0,0,5.126-1.865,8.245,8.245,0,0,0,2.537-5.223,13.752,13.752,0,0,0-.746-6.037,11.133,11.133,0,0,0-3.544-5.275,5.8,5.8,0,0,0-3.126-1.231,4.044,4.044,0,0,0-3.238,1.216A2.679,2.679,0,0,0,215,91.076a3.1,3.1,0,0,0,.5,1.768,4.693,4.693,0,0,0,2.918,1.992,6.813,6.813,0,0,0,6.372-2.134,10.618,10.618,0,0,0,2.477-6.089,15,15,0,0,0-.619-6.32,8.745,8.745,0,0,0-3.731-4.805,6.425,6.425,0,0,0-5.746-.6,3.044,3.044,0,0,0-1.865,2.239,3.53,3.53,0,0,0,.657,2.731,4.477,4.477,0,0,0,4.873,1.283,8.4,8.4,0,0,0,3.865-2.783,12.312,12.312,0,0,0,2.888-7.462,11.894,11.894,0,0,0-1.343-5.88,11.634,11.634,0,0,0-2.239-3.067c-.321-.3-.575-.515-.746-.649s-.269-.2-.276-.187a13.842,13.842,0,0,1,3.067,4.022,11.857,11.857,0,0,1,1.194,5.746A11.991,11.991,0,0,1,224.372,78a7.947,7.947,0,0,1-3.626,2.537,3.977,3.977,0,0,1-4.268-1.127,2.9,2.9,0,0,1-.537-2.239,2.4,2.4,0,0,1,1.537-1.768,5.775,5.775,0,0,1,5.178.589,8.089,8.089,0,0,1,3.44,4.477,14.349,14.349,0,0,1,.575,6.037,9.984,9.984,0,0,1-2.313,5.708,6.148,6.148,0,0,1-5.716,1.925,4,4,0,0,1-2.5-1.686,2.082,2.082,0,0,1,.164-2.641,3.41,3.41,0,0,1,2.709-.94,5.134,5.134,0,0,1,2.7,1.089,10.447,10.447,0,0,1,3.328,4.955,13.132,13.132,0,0,1,.746,5.753,7.648,7.648,0,0,1-2.328,4.835,5.969,5.969,0,0,1-4.656,1.746,3.456,3.456,0,0,1-3.238-2.806,2.313,2.313,0,0,1,.843-1.88,3.873,3.873,0,0,1,1.9-.9,5.522,5.522,0,0,1,3.85.866,7.678,7.678,0,0,1,2.462,2.649,9.447,9.447,0,0,1,.918,5.738,17.16,17.16,0,0,1-.918,3.656C224.319,115.393,224.14,115.811,224.163,115.826Z" transform="translate(-90.56 -58.274)" fill="#fafafa"/>
      <rect id="Rectángulo_43912" data-name="Rectángulo 43912" width="20.094" height="56.858" transform="translate(42.412 56.858) rotate(180)" fill="#e0e0e0"/>
      <rect id="Rectángulo_43913" data-name="Rectángulo 43913" width="18.796" height="50.613" transform="translate(156.465 56.858) rotate(180)" fill="#e0e0e0"/>
      <path id="Trazado_251156" data-name="Trazado 251156" d="M258.55,99.427a15.668,15.668,0,0,0,2.985,2.127,10.446,10.446,0,0,0,3.783,1.052,9.753,9.753,0,0,0,4.686-.821c1.589-.672,3.044-1.545,4.477-2.052a7.059,7.059,0,0,1,4.1-.373,4.328,4.328,0,0,1,2.373,1.433,1.776,1.776,0,0,1,.47.91c-.052,0-.194-.313-.634-.746a4.529,4.529,0,0,0-2.3-1.194,7.007,7.007,0,0,0-3.828.478c-1.4.515-2.828,1.388-4.477,2.089a9.916,9.916,0,0,1-4.962.813,10.141,10.141,0,0,1-3.917-1.216,8.7,8.7,0,0,1-2.194-1.679,2.583,2.583,0,0,1-.56-.821Z" transform="translate(-101.615 -67.946)" fill="#fafafa"/>
      <path id="Trazado_251157" data-name="Trazado 251157" d="M258,106.144a16.054,16.054,0,0,0,2.985,2.119,10.334,10.334,0,0,0,3.783,1.052,9.783,9.783,0,0,0,4.693-.813c1.582-.679,3.037-1.552,4.477-2.059a7.081,7.081,0,0,1,4.1-.373,4.343,4.343,0,0,1,2.373,1.44,1.716,1.716,0,0,1,.463.9,9.541,9.541,0,0,0-.634-.746,4.358,4.358,0,0,0-2.291-1.194,6.924,6.924,0,0,0-3.828.47c-1.4.515-2.828,1.388-4.477,2.089a9.939,9.939,0,0,1-4.962.813,10.141,10.141,0,0,1-3.925-1.216,8.676,8.676,0,0,1-2.186-1.671A2.79,2.79,0,0,1,258,106.144Z" transform="translate(-101.475 -69.649)" fill="#fafafa"/>
      <path id="Trazado_251158" data-name="Trazado 251158" d="M258.4,84.394c0-.157,5.178-.284,11.558-.284s11.558.127,11.558.284-5.171.284-11.558.284S258.4,84.55,258.4,84.394Z" transform="translate(-101.577 -64.113)" fill="#fafafa"/>
      <path id="Trazado_251159" data-name="Trazado 251159" d="M245.8,76.4a2.783,2.783,0,0,0-1.642-.134,1.97,1.97,0,0,0-1.268,1.052,1.821,1.821,0,0,0,2.335,2.239,1.977,1.977,0,0,0,1-1.313,2.663,2.663,0,0,0-.2-1.627.838.838,0,0,1,.366.351,2.045,2.045,0,0,1,.231,1.358,2.22,2.22,0,1,1-2.552-2.462,2.074,2.074,0,0,1,1.365.187A.831.831,0,0,1,245.8,76.4Z" transform="translate(-97.481 -62.009)" fill="#fafafa"/>
      <path id="Trazado_251160" data-name="Trazado 251160" d="M245.271,115.937c-.164,0-.291-7.1-.291-15.849s.127-15.849.291-15.849.284,7.1.284,15.849S245.428,115.937,245.271,115.937Z" transform="translate(-98.171 -64.146)" fill="#fafafa"/>
      <rect id="Rectángulo_43914" data-name="Rectángulo 43914" width="194.512" height="11.103" transform="translate(4.731 56.567)" fill="#ebebeb"/>
      <rect id="Rectángulo_43915" data-name="Rectángulo 43915" width="16.983" height="11.103" transform="translate(182.26 56.567)" fill="#e0e0e0"/>
    </g>
    <g id="Character" transform="translate(960.878 5889.487)">
      <path id="Trazado_251161" data-name="Trazado 251161" d="M328.035,119.5l-.948,76.416c-.164,13,2.239,32.123,22.811,31.436h0c17.8-1.933,22.512-18.774,22.654-30.906.067-5.753.134-10.543.179-11.14,0,0,19.475-1.582,21.117-20.818.8-9.3.873-28.578.746-46.024A35.951,35.951,0,0,0,361.24,82.89l-1.858-.142C339.258,82.443,327.766,99.351,328.035,119.5Z" transform="translate(-226.536 -71.158)" fill="#ffbe9d"/>
      <path id="Trazado_251162" data-name="Trazado 251162" d="M379.917,217.028s-12.192-.172-24.527-9.238c0,0,5.089,14.506,24.422,14.177Z" transform="translate(-233.722 -102.898)" fill="#eb996e"/>
      <path id="Trazado_251163" data-name="Trazado 251163" d="M369.455,140c-.388.388-2.6-1.4-5.828-1.492s-5.634,1.492-5.969,1.082c-.164-.187.231-.9,1.283-1.634a8.089,8.089,0,0,1,4.79-1.358,7.82,7.82,0,0,1,4.626,1.686C369.328,139.09,369.641,139.822,369.455,140Z" transform="translate(-234.289 -84.827)" fill="#263238"/>
      <path id="Trazado_251164" data-name="Trazado 251164" d="M370.8,149.224a2.612,2.612,0,0,1-2.7,2.44,2.492,2.492,0,0,1-2.507-2.537,2.6,2.6,0,0,1,2.694-2.447,2.5,2.5,0,0,1,2.515,2.544Z" transform="translate(-236.311 -87.386)" fill="#263238"/>
      <path id="Trazado_251165" data-name="Trazado 251165" d="M384.3,162.793c0-.172,1.858-.351,4.865-.515.746,0,1.492-.119,1.656-.627a4.237,4.237,0,0,0-.343-2.239l-1.813-5.917c-2.507-8.417-4.261-15.319-3.917-15.416s2.641,6.648,5.149,15.065q.9,3.112,1.716,5.969a4.395,4.395,0,0,1,.179,2.985,1.933,1.933,0,0,1-1.328,1.015,4.993,4.993,0,0,1-1.291.082C386.158,163.084,384.3,162.964,384.3,162.793Z" transform="translate(-241.06 -85.204)" fill="#263238"/>
      <path id="Trazado_251166" data-name="Trazado 251166" d="M367.569,124.1c-.313.746-2.9.172-5.969.336s-5.626.836-5.969.149c-.157-.328.321-.985,1.373-1.627a10.155,10.155,0,0,1,9.118-.373C367.181,123.135,367.7,123.754,367.569,124.1Z" transform="translate(-233.776 -81.041)" fill="#263238"/>
      <path id="Trazado_251167" data-name="Trazado 251167" d="M408.639,132.067c-.336.582-2.85-.067-5.9-.157s-5.574.291-5.895-.313c-.142-.291.358-.813,1.418-1.276a10.648,10.648,0,0,1,4.514-.746,11.006,11.006,0,0,1,4.477,1.1C408.3,131.224,408.788,131.791,408.639,132.067Z" transform="translate(-244.238 -83.041)" fill="#263238"/>
      <path id="Trazado_251168" data-name="Trazado 251168" d="M324.478,150.916c-.313-.164-12.939-4.88-13.483,8.32s12.819,11.014,12.857,10.633S324.478,150.916,324.478,150.916Z" transform="translate(-222.449 -88.221)" fill="#ffbe9d"/>
      <path id="Trazado_251169" data-name="Trazado 251169" d="M321.153,166.144c-.052-.045-.231.157-.627.313a2.321,2.321,0,0,1-1.724,0c-1.373-.575-2.455-2.835-2.418-5.223a7.581,7.581,0,0,1,.746-3.261,2.664,2.664,0,0,1,1.8-1.694,1.171,1.171,0,0,1,1.336.686c.157.373.067.634.134.657s.291-.209.209-.746a1.493,1.493,0,0,0-.485-.851,1.768,1.768,0,0,0-1.261-.388,3.246,3.246,0,0,0-2.485,1.948,7.872,7.872,0,0,0-.948,3.649c0,2.656,1.239,5.223,3.119,5.835a2.47,2.47,0,0,0,2.119-.269C321.123,166.465,321.2,166.174,321.153,166.144Z" transform="translate(-223.579 -89.659)" fill="#eb996e"/>
      <path id="Trazado_251170" data-name="Trazado 251170" d="M377.744,180.557c.149-.328-2.44-1.1-4.253-3.529a14.748,14.748,0,0,1-1.828-3.447c-.381-.955-.679-1.56-.821-1.492s-.1.694.112,1.731a9.82,9.82,0,0,0,1.7,3.865,7.9,7.9,0,0,0,3.365,2.574C377.028,180.647,377.714,180.677,377.744,180.557Z" transform="translate(-237.623 -93.835)" fill="#263238"/>
      <path id="Trazado_251171" data-name="Trazado 251171" d="M414.358,97.238a3.134,3.134,0,0,0-1.492-1.821c-1.492-.888-3.246-.746-4.917-.8a27.8,27.8,0,0,1-14.468-4.395,65.313,65.313,0,0,0-6.716-8.163c-5.835-5.969-10.633-10.1-15.6-12.1-6.417-2.582-17.162-3.626-23.878-1.873S334.63,75.263,333.7,82.128c-3.753-3.134-9.394-3.134-13.953-1.306l-.119-.052c-5.1,1.813-7.991,7.178-9.491,12.4s-2.142,10.745-4.895,15.4c-.575.97-1.254,2.134-.746,3.149a2.142,2.142,0,0,0,2.239.977,6.268,6.268,0,0,0,2.373-1.074l-1.7,4.082a12.1,12.1,0,0,0,5.537-.366,119.208,119.208,0,0,0,3.619,13.685c2.127,0,4.074.149,5.387,1.328,1.783,1.6,2.582,4.619,5.544,3.477,1.492-.582,2.888-3.731,3.4-5.283a75.206,75.206,0,0,0,3.246-31.779,24.049,24.049,0,0,1,7.462-5.38l-.231.2c5.38-1.865,11.461-3.731,16.558-1.179,3.962,1.962,6.283,6.066,9.245,9.342A30.235,30.235,0,0,0,388.7,109.7c.284,5.41-.172,13.065.112,18.483l4.559-8.671v.037c.373-.634.686-1.276.985-1.918l.1-.194h0a33.751,33.751,0,0,1,1.492-3.082l.045.045c2.94,2.589,7.26-1.365,4.947-4.522a7.612,7.612,0,0,0-1.634-1.649,5.357,5.357,0,0,0,5.1,1.328,4.216,4.216,0,0,0,2.985-4.156,3.559,3.559,0,0,0-2.134-2.865,12.1,12.1,0,0,0,6.865-1.492C413.485,100.215,414.814,98.939,414.358,97.238Z" transform="translate(-220.76 -67.217)" fill="#263238"/>
      <path id="Trazado_251172" data-name="Trazado 251172" d="M342.2,90.16a16.32,16.32,0,0,0-1.925,1.768,13.7,13.7,0,0,0-2.985,6.387,24.079,24.079,0,0,0-.492,4.887c0,1.776.134,3.671.269,5.671a50.063,50.063,0,0,1,.142,6.313,21.4,21.4,0,0,1-.433,3.328,6.887,6.887,0,0,1-1.358,3.231,2.9,2.9,0,0,1-2.716.91,4.3,4.3,0,0,1-2.44-1.38,9.938,9.938,0,0,1-1.858-4.887l.4.045a16.008,16.008,0,0,1-2.336,4.029,5.753,5.753,0,0,1-3.731,2.044,3.731,3.731,0,0,1-1.985-.351,3.268,3.268,0,0,1-1.351-1.328,3.335,3.335,0,0,1-.4-1.709,2.388,2.388,0,0,1,.612-1.492l.209.179a12.46,12.46,0,0,1-4.134,3.1,11.443,11.443,0,0,1-1.283.5,3.519,3.519,0,0,1-.455.112,1.925,1.925,0,0,1,.433-.187c.284-.119.709-.291,1.239-.56a12.8,12.8,0,0,0,3.992-3.149l.2.187a2.485,2.485,0,0,0-.127,2.858,2.858,2.858,0,0,0,1.224,1.171,3.365,3.365,0,0,0,1.791.3,5.357,5.357,0,0,0,3.477-1.94,15.834,15.834,0,0,0,2.239-3.947l.276-.612.127.664a9.759,9.759,0,0,0,1.768,4.678,3.925,3.925,0,0,0,2.186,1.231,2.447,2.447,0,0,0,2.313-.746,6.656,6.656,0,0,0,1.283-3.074,22.2,22.2,0,0,0,.425-3.253,52.478,52.478,0,0,0-.112-6.26c-.127-2-.254-3.91-.231-5.7a24.01,24.01,0,0,1,.552-4.955,13.678,13.678,0,0,1,3.134-6.439A7.961,7.961,0,0,1,342.2,90.16Z" transform="translate(-223.204 -73.041)" fill="#455a64"/>
      <path id="Trazado_251173" data-name="Trazado 251173" d="M411.572,105.217l-.149.127-.485.351a6.226,6.226,0,0,1-.813.522,9.842,9.842,0,0,1-1.172.619,17.013,17.013,0,0,1-8.208,1.492,21.766,21.766,0,0,1-11.61-4.283,37.682,37.682,0,0,1-9.976-11.506c-1.4-2.328-2.544-4.716-3.8-6.924a25.8,25.8,0,0,0-4.305-5.857,13.14,13.14,0,0,0-5.544-3.365,9.462,9.462,0,0,0-2.925-.336,10.537,10.537,0,0,0-2.671.515,11.193,11.193,0,0,0-6.186,5.223,13.185,13.185,0,0,0-.992,2.888.515.515,0,0,1,0-.2,4.576,4.576,0,0,1,.09-.589,9.635,9.635,0,0,1,.746-2.171,10.983,10.983,0,0,1,2.156-2.925,11.274,11.274,0,0,1,4.082-2.53,10.446,10.446,0,0,1,2.761-.56,9.76,9.76,0,0,1,3.044.321,13.431,13.431,0,0,1,5.731,3.425,25.676,25.676,0,0,1,4.395,5.969c1.268,2.239,2.41,4.6,3.8,6.917a37.838,37.838,0,0,0,9.835,11.394,21.684,21.684,0,0,0,11.364,4.276,17.3,17.3,0,0,0,8.156-1.336,26.943,26.943,0,0,0,2.679-1.455Z" transform="translate(-233.046 -69.368)" fill="#455a64"/>
      <path id="Trazado_251174" data-name="Trazado 251174" d="M426.993,103.918a2.834,2.834,0,0,1-.694.485,15.55,15.55,0,0,1-2.037,1.037,20.374,20.374,0,0,1-3.238,1.06,20.893,20.893,0,0,1-8.3.269,19.825,19.825,0,0,1-3.3-.858,14.825,14.825,0,0,1-2.1-.9,2.866,2.866,0,0,1-.746-.433c.037-.075,1.1.47,2.925,1.037a22.912,22.912,0,0,0,3.261.746,23.742,23.742,0,0,0,4.089.239,24.742,24.742,0,0,0,4.059-.5,22.257,22.257,0,0,0,3.209-.955C425.926,104.463,426.948,103.843,426.993,103.918Z" transform="translate(-246.713 -76.531)" fill="#455a64"/>
      <path id="Trazado_251175" data-name="Trazado 251175" d="M408.824,141.621c-.381.388-2.6-1.4-5.828-1.492s-5.626,1.492-5.969,1.082c-.172-.187.231-.9,1.276-1.634a8.081,8.081,0,0,1,4.8-1.358,7.73,7.73,0,0,1,4.619,1.679C408.7,140.718,409.018,141.449,408.824,141.621Z" transform="translate(-244.281 -85.238)" fill="#263238"/>
      <path id="Trazado_251176" data-name="Trazado 251176" d="M406.678,150.476a2.619,2.619,0,0,1-2.7,2.447,2.5,2.5,0,0,1-2.507-2.544,2.6,2.6,0,0,1,2.694-2.44,2.492,2.492,0,0,1,2.515,2.537Z" transform="translate(-245.418 -87.706)" fill="#263238"/>
      <path id="Trazado_251177" data-name="Trazado 251177" d="M555.267,243.092c0-5.589-5.342-5.589-5.342-5.589-2.037-2.671-4.328-1.7-4.328-1.7l-8.656,5.835c-1.268,2.186-9.7,10.446-9.7,10.446-2.291-1.7-2.291-5.1-5.037-9.23s-8.954-3.649-8.954-3.649,4.835,10.939,5.343,17.744-3.731,25.788-3.731,25.788l24.512,6.895s1.545-10.446,4.283-11.26c3.3-1.007,5.134-5.872,5.134-5.872,3.559-7.223,10.8-17.714,11.812-23.064S555.267,243.092,555.267,243.092Z" transform="translate(-273.791 -109.965)" fill="#ffbe9d"/>
      <path id="Trazado_251178" data-name="Trazado 251178" d="M311.158,229.43c15.58,9.79,31.272,13.431,47.166,7.133l23.878,6.1,23.512,157.062L267.88,400.923l6.79-36.473,17.087-131.073Z" transform="translate(-211.51 -108.391)" fill="#7e89be"/>
      <path id="Trazado_251179" data-name="Trazado 251179" d="M421.11,247.17s18.587,7.715,25.683,21.236,18.49,51.486,18.49,51.486l21-38.57,38.98,9.961s-29.011,80.02-36.294,87.3c-7.976,7.991-29.705,16-40.331,9.79s-12.8-29.765-12.8-29.765Z" transform="translate(-250.404 -112.894)" fill="#7e89be"/>
      <path id="Trazado_251180" data-name="Trazado 251180" d="M422.764,324.61c-.1,0-.194-6.977-.194-15.58s.089-15.58.194-15.58.194,6.969.194,15.58S422.891,324.61,422.764,324.61Z" transform="translate(-250.774 -124.641)" fill="#263238"/>
      <path id="Trazado_251181" data-name="Trazado 251181" d="M430.71,259.2a23.342,23.342,0,0,1-.9,2.567c-.589,1.582-1.365,3.768-2.127,6.216s-1.351,4.7-1.761,6.335a26.28,26.28,0,0,1-.7,2.634,2.559,2.559,0,0,1,.067-.746c.075-.47.194-1.142.366-1.97.343-1.649.9-3.917,1.664-6.38s1.582-4.649,2.238-6.2c.328-.746.6-1.4.813-1.828a2.545,2.545,0,0,1,.343-.627Z" transform="translate(-251.446 -115.948)" fill="#263238"/>
      <path id="Trazado_251182" data-name="Trazado 251182" d="M270.075,293.409l4.313-59.179s-32.444,2.985-43.181,25.9c-9.044,19.289-34.018,77.318-36.7,85.258-7.842,23.3,4.41,55.329,54.926,53.471l5.76-31.668Z" transform="translate(-192.334 -109.609)" fill="#7e89be"/>
      <path id="Trazado_251183" data-name="Trazado 251183" d="M247.83,416.987a5.266,5.266,0,0,1,.269-.567l.821-1.589,3.1-5.82,1.03-1.933a5.843,5.843,0,0,1,1.492-1.9,4,4,0,0,1,2.5-.746,11.194,11.194,0,0,1,2.686.433,27.7,27.7,0,0,1,5.395,2.082,14.758,14.758,0,0,1,2.6,1.664l.3.261a.9.9,0,0,1,.254.4,3.217,3.217,0,0,1,.164.813,11.518,11.518,0,0,1,.037,1.6,62.185,62.185,0,0,1-.612,6.193c-.269,1.985-.575,3.9-.88,5.708-.612,3.634-1.224,6.895-1.746,9.626s-.955,4.91-1.269,6.469c-.142.746-.261,1.328-.343,1.761a4.8,4.8,0,0,1-.134.612,3.582,3.582,0,0,1,.06-.627c.052-.4.142-1,.269-1.768.284-1.575.672-3.783,1.149-6.492s1.074-6.007,1.664-9.641c.291-1.813.59-3.731.858-5.7a61.774,61.774,0,0,0,.6-6.149,12.033,12.033,0,0,0,0-1.56,3.046,3.046,0,0,0-.142-.746.567.567,0,0,0-.157-.254l-.283-.246a13.435,13.435,0,0,0-2.537-1.619,27.225,27.225,0,0,0-5.343-2.044,10.81,10.81,0,0,0-2.6-.44,3.731,3.731,0,0,0-2.3.634,5.366,5.366,0,0,0-1.41,1.791c-.373.664-.746,1.3-1.06,1.91l-3.2,5.768c-.373.649-.664,1.171-.888,1.552A3.125,3.125,0,0,1,247.83,416.987Z" transform="translate(-206.421 -152.81)" fill="#263238"/>
      <path id="Trazado_251184" data-name="Trazado 251184" d="M216.39,383.585a1.165,1.165,0,0,1,.381,0l1.089.045c.948.045,2.313.127,4,.284a51.56,51.56,0,0,1,5.895.858,30.259,30.259,0,0,1,6.932,2.291,27.123,27.123,0,0,1,6.089,4.022,16.2,16.2,0,0,1,3.731,4.679,10.342,10.342,0,0,1,1.127,3.858,7.126,7.126,0,0,1,0,1.1,1.2,1.2,0,0,1,0,.381c-.037,0,0-.53-.134-1.492a10.947,10.947,0,0,0-1.216-3.731,16.527,16.527,0,0,0-3.731-4.537,27.884,27.884,0,0,0-6.029-3.94,31.239,31.239,0,0,0-6.835-2.3,57.907,57.907,0,0,0-5.85-.933c-1.679-.186-3.037-.313-3.977-.4l-1.082-.112a1.381,1.381,0,0,1-.388-.067Z" transform="translate(-198.44 -147.516)" fill="#263238"/>
      <path id="Trazado_251185" data-name="Trazado 251185" d="M260.661,379.58a14.181,14.181,0,0,1-.813,2.328c-.552,1.418-1.38,3.35-2.328,5.469s-1.768,3.925-2.44,5.41a16.827,16.827,0,0,1-1.06,2.239,14.83,14.83,0,0,1,.806-2.328c.56-1.418,1.388-3.35,2.336-5.469s1.768-3.917,2.44-5.41a17.45,17.45,0,0,1,1.06-2.239Z" transform="translate(-207.992 -146.503)" fill="#263238"/>
      <path id="Trazado_251186" data-name="Trazado 251186" d="M286.934,311.459c-.112,0-.194-3.731-.194-8.38s.082-8.38.194-8.38.194,3.731.194,8.38S287.023,311.459,286.934,311.459Z" transform="translate(-216.297 -124.958)" fill="#263238"/>
      <g id="Grupo_145394" data-name="Grupo 145394" transform="translate(30.298 253.537)" opacity="0.3">
        <path id="Trazado_251187" data-name="Trazado 251187" d="M249.788,407c-8.529,2.985-14.3,10.722-16.632,19.453a3.017,3.017,0,0,0,.209,2.724,2.149,2.149,0,0,0,2.679.216,6.185,6.185,0,0,0,1.9-2.186C242.05,420.625,246.065,414.521,249.788,407Z" transform="translate(-232.938 -407)"/>
      </g>
      <g id="Grupo_145395" data-name="Grupo 145395" transform="translate(9.593 232.802)" opacity="0.3">
        <path id="Trazado_251188" data-name="Trazado 251188" d="M232.164,383.091a34.378,34.378,0,0,0-14.692-3.85,21.789,21.789,0,0,0-5.969.522c-2.664.56-5.731,1.9-6.313,3.813,6.126-1.918,15.147-.649,21.415.746a23,23,0,0,1,15.006,10.6,21.378,21.378,0,0,0-9.447-11.827Z" transform="translate(-205.19 -379.213)"/>
      </g>
      <path id="Trazado_251189" data-name="Trazado 251189" d="M276.366,276.217a5.845,5.845,0,0,1-.3-.94c-.157-.6-.418-1.492-.746-2.544a40.964,40.964,0,0,0-8.82-14.983c-.746-.821-1.4-1.492-1.85-1.91a5.646,5.646,0,0,1-.672-.709,4.479,4.479,0,0,1,.746.6c.485.4,1.157,1.03,1.948,1.836a37.261,37.261,0,0,1,5.343,7.014,36.81,36.81,0,0,1,3.537,8.074,25.8,25.8,0,0,1,.657,2.6,4.559,4.559,0,0,1,.157.97Z" transform="translate(-210.52 -114.914)" fill="#263238"/>
      <path id="Trazado_251190" data-name="Trazado 251190" d="M284.059,423.169l-36.152-87.22c-1.649-3.977.418-7.208,4.626-7.208h7.238c2.985,0,4.992-1.634,5.186-4.186l.239-3.208c.194-2.552,2.239-4.186,5.223-4.186h34.555a12.088,12.088,0,0,1,8.006,3.544l2.806,2.716a12.081,12.081,0,0,0,8,3.537H367.81a12.3,12.3,0,0,1,10.514,7.208l35.816,89Z" transform="translate(-206.296 -130.659)" fill="#ff725e"/>
      <g id="Grupo_145396" data-name="Grupo 145396" transform="translate(41.044 186.501)" opacity="0.3">
        <path id="Trazado_251191" data-name="Trazado 251191" d="M284.059,423.169l-36.152-87.22c-1.649-3.977.418-7.208,4.626-7.208h7.238c2.985,0,4.992-1.634,5.186-4.186l.239-3.208c.194-2.552,2.239-4.186,5.223-4.186h34.555a12.088,12.088,0,0,1,8.006,3.544l2.806,2.716a12.081,12.081,0,0,0,8,3.537H367.81a12.3,12.3,0,0,1,10.514,7.208l35.816,89Z" transform="translate(-247.34 -317.16)"/>
      </g>
      <path id="Trazado_251192" data-name="Trazado 251192" d="M283.836,399.234,270.2,346.517c-.9-3.47,1.373-6.947,4.537-6.947H381.614a4.873,4.873,0,0,1,4.552,3.925l19.848,79.348c.873,3.485-.522,5.574-3.686,5.529l-107.531.037a4.888,4.888,0,0,1-4.477-3.895Z" transform="translate(-212.049 -136.348)" fill="#e0e0e0"/>
      <path id="Trazado_251193" data-name="Trazado 251193" d="M296.461,425.906l-5.805-83.019a5.089,5.089,0,0,1,5.074-5.447H406.462v88.466Z" transform="translate(-217.288 -135.807)" fill="#ebebeb"/>
      <path id="Trazado_251194" data-name="Trazado 251194" d="M296.78,427.841l13.177-85.579a6.126,6.126,0,0,1,6.014-4.783H427.994a6.059,6.059,0,0,1,5.656,8.432L409.459,424.26Z" transform="translate(-218.845 -135.817)" fill="#fafafa"/>
      <path id="Trazado_251195" data-name="Trazado 251195" d="M296.55,430.018l27.2-80.154a8.036,8.036,0,0,1,7.551-5.574H446.755a5.628,5.628,0,0,1,5.156,7.462l-25.265,78.3Z" transform="translate(-218.787 -137.546)" fill="#ff725e"/>
      <g id="Grupo_145397" data-name="Grupo 145397" transform="translate(80.119 244.613)" opacity="0.3">
        <path id="Trazado_251196" data-name="Trazado 251196" d="M353.188,429.483s-4.358.194-6.372.336a59.4,59.4,0,0,1-28.056-4.977c-2.716-1.216-5.6-2.925-6.417-5.783-.918-3.2,1.157-6.529,3.686-8.7s5.6-3.731,7.8-6.223,3.231-6.566,1.067-9.1l-.6.433c-1.56,3.962-5.91,5.872-9.514,8.133a33.578,33.578,0,0,0-14.1,18.431c-1.269,4.149-1.6,8.954.91,12.528,1.783,2.507,4.708,3.932,7.6,5,8.73,3.246,18.072,3.365,27.392,3.373,2.94,0,11.976-.119,11.976-.119,2.843-.746,3.776-2.239,5.484-4.649C355.613,435.968,355.269,431.207,353.188,429.483Z" transform="translate(-299.708 -395.04)"/>
      </g>
      <path id="Trazado_251197" data-name="Trazado 251197" d="M345.647,428.839l-30.13-4.529-11.693-6.716a5.275,5.275,0,0,1-2.686-4.246c0-.037,0-.067,0-.1a5.35,5.35,0,0,1,3.313-5.1c3.731-1.559,9.588-3.641,12.1-8.029,3.6-6.313,0-7.618,0-7.618l-25.153,10.073-17.8,12.118L270,434.86l24.84,8.111s27.683,1.567,35.316.709,7.641-4.417,7.641-4.417c1.418-.44,4.29-2.985,4.283-5.305,3.731-3.477,3.559-5.119,3.559-5.119" transform="translate(-212.048 -149.783)" fill="#ffbe9d"/>
      <path id="Trazado_251198" data-name="Trazado 251198" d="M319.75,452.85a6.264,6.264,0,0,1,1.239.239c.791.194,1.933.44,3.35.746a72.608,72.608,0,0,0,11.193,1.343,73.816,73.816,0,0,0,11.275-.463c1.433-.172,2.6-.336,3.4-.463a5.534,5.534,0,0,1,1.254-.142,5.968,5.968,0,0,1-1.216.336c-.791.187-1.948.41-3.388.627a61.26,61.26,0,0,1-22.6-.88c-1.418-.328-2.552-.642-3.328-.888a5.692,5.692,0,0,1-1.172-.455Z" transform="translate(-224.676 -165.101)" fill="#eb996e"/>
      <path id="Trazado_251199" data-name="Trazado 251199" d="M323.44,446.61a6.492,6.492,0,0,1,1.254.239c.8.194,1.962.448,3.41.746a72.383,72.383,0,0,0,11.379,1.261,78.139,78.139,0,0,0,11.454-.522c1.455-.179,2.634-.343,3.447-.478a5.69,5.69,0,0,1,1.269-.142,6.871,6.871,0,0,1-1.231.336c-.806.194-1.977.418-3.44.642a65.863,65.863,0,0,1-11.513.679,61.711,61.711,0,0,1-11.439-1.418c-1.44-.328-2.6-.634-3.388-.888A5.653,5.653,0,0,1,323.44,446.61Z" transform="translate(-225.612 -163.517)" fill="#eb996e"/>
      <path id="Trazado_251200" data-name="Trazado 251200" d="M535.548,268.869l-53.516,10.566a6.82,6.82,0,0,1-8.014-5.372l-14.632-74.073a6.827,6.827,0,0,1,5.372-8.014L498.7,185.26l31.615,21.893,10.6,53.687a6.82,6.82,0,0,1-5.372,8.029Z" transform="translate(-260.086 -97.18)" fill="#ebebeb"/>
      <path id="Trazado_251201" data-name="Trazado 251201" d="M512.12,185.27l4.111,20.848a6.35,6.35,0,0,0,7.462,5l20.042-3.955Z" transform="translate(-273.505 -97.182)" fill="#f5f5f5"/>
      <path id="Trazado_251202" data-name="Trazado 251202" d="M518.48,215.346s.746,5.111,6.82,5.634h.694c2.709-.052,20.542-.388,20.468-.746s-1.112-5.6-1.112-5.6l-20.042,3.955S520.271,219.383,518.48,215.346Z" transform="translate(-275.119 -104.634)" fill="#e0e0e0"/>
      <path id="Trazado_251203" data-name="Trazado 251203" d="M535.482,268.8l.291-.09a6.314,6.314,0,0,0,.843-.269,6.919,6.919,0,0,0,2.761-2.015,6.783,6.783,0,0,0,1.492-5.223c-.388-2.164-.925-4.664-1.492-7.462l-9.282-46.636.067.1-31.615-21.855h.142l-19.579,3.873-10.245,2.022-2.6.515a17.308,17.308,0,0,0-2.559.6,6.619,6.619,0,0,0-4.246,7.021c.194,1.2.47,2.425.7,3.634.478,2.425.948,4.835,1.425,7.23q1.41,7.178,2.783,14.125c1.828,9.26,3.589,18.192,5.268,26.706q1.254,6.38,2.447,12.439.6,3.022,1.172,5.969c.186.977.381,1.948.567,2.91a15.806,15.806,0,0,0,.686,2.8,6.678,6.678,0,0,0,6.551,4.111c.88-.067,1.776-.3,2.649-.455l10.1-1.985,30.5-5.969,8.275-1.589,2.156-.4.746-.127-.746.164-2.149.44-8.283,1.679-30.466,6.081-10.1,2.007a27.22,27.22,0,0,1-2.686.463,7.007,7.007,0,0,1-6.872-4.29,16.089,16.089,0,0,1-.709-2.865c-.186-.955-.381-1.925-.575-2.9q-.582-2.932-1.179-5.969-1.194-6.044-2.47-12.431c-1.679-8.506-3.447-17.438-5.283-26.7q-1.38-6.947-2.791-14.125c-.478-2.4-.948-4.805-1.433-7.23-.224-1.216-.5-2.41-.694-3.664a6.9,6.9,0,0,1,.567-3.731,7.029,7.029,0,0,1,3.925-3.679,18.5,18.5,0,0,1,2.619-.619l2.6-.515L479,188.88,498.6,185h.075l.067.045,31.608,21.908h.052v.067c3.8,19.4,6.947,35.443,9.141,46.658.537,2.806,1.052,5.29,1.433,7.462a6.827,6.827,0,0,1-4.358,7.283,5.017,5.017,0,0,1-.851.254Z" transform="translate(-260.02 -97.114)" fill="#263238"/>
      <path id="Trazado_251204" data-name="Trazado 251204" d="M543.728,207.16a2.533,2.533,0,0,1-.507.142l-1.492.321-5.417,1.134-8.044,1.634-4.761.94a6.559,6.559,0,0,1-6.812-3.306,7.542,7.542,0,0,1-.8-2.492c-.321-1.649-.634-3.238-.925-4.753-.582-3.029-1.112-5.753-1.552-8.066s-.746-4.111-1.015-5.44c-.1-.612-.186-1.1-.254-1.492a2.426,2.426,0,0,1-.06-.522,3.333,3.333,0,0,1,.134.507c.09.373.194.866.328,1.492.276,1.321.664,3.164,1.134,5.417s1.022,5.029,1.634,8.044c.3,1.492.619,3.112.948,4.761a7.364,7.364,0,0,0,.746,2.373,6.171,6.171,0,0,0,6.417,3.112l4.753-.91,8.059-1.552,5.477-1.052,1.492-.261a2.506,2.506,0,0,1,.515-.03Z" transform="translate(-273.497 -97.18)" fill="#263238"/>
      <path id="Trazado_251205" data-name="Trazado 251205" d="M506.077,210.468c0,.1-6.29,1.44-14.08,2.985s-14.14,2.709-14.177,2.6,6.275-1.433,14.08-2.985S506.055,210.363,506.077,210.468Z" transform="translate(-264.798 -103.576)" fill="#263238"/>
      <path id="Trazado_251206" data-name="Trazado 251206" d="M522.229,220.858c0,.1-9.282,2.03-20.773,4.305s-20.833,4.022-20.855,3.917,9.282-2.03,20.781-4.3S522.206,220.754,522.229,220.858Z" transform="translate(-265.504 -106.214)" fill="#263238"/>
      <path id="Trazado_251207" data-name="Trazado 251207" d="M524.979,234.8c0,.1-9.282,2.03-20.774,4.3s-20.833,4.029-20.855,3.925,9.282-2.03,20.781-4.305S524.964,234.694,524.979,234.8Z" transform="translate(-266.202 -109.753)" fill="#263238"/>
      <path id="Trazado_251208" data-name="Trazado 251208" d="M486.1,256.961c0-.112,9.282-2.037,20.781-4.305s20.833-4.029,20.856-3.917-9.282,2.03-20.781,4.3S486.122,257.066,486.1,256.961Z" transform="translate(-266.9 -113.291)" fill="#263238"/>
      <path id="Trazado_251209" data-name="Trazado 251209" d="M530.489,262.669c0,.1-9.282,2.037-20.781,4.305S488.875,271,488.86,270.891s9.275-2.03,20.773-4.3S530.467,262.564,530.489,262.669Z" transform="translate(-267.601 -116.827)" fill="#263238"/>
      <path id="Trazado_251210" data-name="Trazado 251210" d="M533.239,276.608c0,.1-9.282,2.03-20.773,4.3s-20.833,4.029-20.856,3.925,9.282-2.03,20.781-4.305S533.217,276.5,533.239,276.608Z" transform="translate(-268.299 -120.365)" fill="#263238"/>
      <rect id="Rectángulo_43916" data-name="Rectángulo 43916" width="46.33" height="20.818" rx="4.22" transform="translate(196.362 151.104) rotate(-11.17)" fill="#ff725e"/>
      <path id="Trazado_251211" data-name="Trazado 251211" d="M472.19,275.385l3.507-.694c2.522-.5,4.552.679,5.014,2.985s-.97,4.2-3.492,4.7l-3.507.694Zm4.649,5.574a2.44,2.44,0,1,0-.94-4.783l-1.634.321.948,4.783Z" transform="translate(-263.369 -119.851)" fill="#fff"/>
      <path id="Trazado_251212" data-name="Trazado 251212" d="M484.714,276.717a4.313,4.313,0,1,1,5.014,3.156,4.074,4.074,0,0,1-5.014-3.156Zm6.633-1.313a2.462,2.462,0,1,0-1.925,2.947,2.4,2.4,0,0,0,1.925-2.947Z" transform="translate(-266.513 -119.026)" fill="#fff"/>
      <path id="Trazado_251213" data-name="Trazado 251213" d="M497.216,274.418a4.328,4.328,0,0,1,6.842-4.082l-.933,1.283a2.552,2.552,0,0,0-2.119-.522,2.517,2.517,0,1,0,.97,4.94,2.485,2.485,0,0,0,1.761-1.3l1.358.836a4.328,4.328,0,0,1-7.88-1.157Z" transform="translate(-269.711 -118.562)" fill="#fff"/>
      <path id="Trazado_251214" data-name="Trazado 251214" d="M547.8,222.395s3.955-5.007,7-2.239,2.164,4.238-.746,8.663c0,0,6.462-.343,4.388,6.3,0,0,6.439-.746,5.82,4.716,0,0,4.865,4.753,2.336,7.82s-11.7,8.6-14.013,7.656-2.336-4.238-2.336-4.238-2.753-1.239-3.514-2.686.545-3.492.545-3.492-2.321-2.373-2.9-3.029.313-3.731.313-3.731l3.731-3.6s-5.1,2.239-6.171,1.373-2.239-1.574-1.127-3.119a48.382,48.382,0,0,1,5.223-5Z" transform="translate(-280.753 -105.825)" fill="#ffbe9d"/>
      <path id="Trazado_251215" data-name="Trazado 251215" d="M554.21,258.468a17.916,17.916,0,0,1,1.671-2.03,19.443,19.443,0,0,1,4.723-4.32,46.217,46.217,0,0,0,5.3-3.41,23.756,23.756,0,0,0,1.806-1.858,4.729,4.729,0,0,1-1.492,2.186,32.9,32.9,0,0,1-5.223,3.6,23.776,23.776,0,0,0-4.731,4.089A8.33,8.33,0,0,1,554.21,258.468Z" transform="translate(-284.188 -112.813)" fill="#eb996e"/>
      <path id="Trazado_251216" data-name="Trazado 251216" d="M549.418,251.267c-.119-.119,2.239-2.686,5.3-5.723,1.53-1.492,2.843-2.985,3.97-3.843a4.73,4.73,0,0,1,1.985-1.172c.045.082-.694.53-1.7,1.492s-2.276,2.432-3.82,3.947C552.09,249.021,549.538,251.387,549.418,251.267Z" transform="translate(-282.971 -111.209)" fill="#eb996e"/>
      <path id="Trazado_251217" data-name="Trazado 251217" d="M551.048,237.691c-.119-.149,1.343-1.313,2.985-2.865s2.462-3.186,2.619-3.126-.455,1.955-2.186,3.567A10.66,10.66,0,0,1,551.048,237.691Z" transform="translate(-283.384 -108.967)" fill="#eb996e"/>
      <path id="Trazado_251218" data-name="Trazado 251218" d="M547.737,222.311a1.239,1.239,0,0,1-.06.373c-.067.276-.157.619-.261,1.052-.246.97-.6,2.313-1.037,4.029v.037h0c-.746.657-1.582,1.41-2.485,2.239a21.9,21.9,0,0,0-2.761,2.94,1.493,1.493,0,0,0-.276.933,1.447,1.447,0,0,0,.5.873,9.3,9.3,0,0,0,.9.746,1.351,1.351,0,0,0,1.03.2,19.507,19.507,0,0,0,5.014-1.552l1.194-.492-.97,1-3.694,3.611.06-.082a4.723,4.723,0,0,0-.194,3.731,10.448,10.448,0,0,0,2.925,2.985l.254.187-.209.239c-.806.955-1.373,2.462-.321,3.4a13.964,13.964,0,0,0,3.5,2.4l-.433.239v-.1h0c.082.09-.172-.216.179.261.836-.388.239-.157.425-.224h0v.44a5.512,5.512,0,0,0,.06.6,4.385,4.385,0,0,0,.321,1.172,2.983,2.983,0,0,0,.657.985,1.827,1.827,0,0,0,.955.552,5.858,5.858,0,0,0,2.44-.485,20.629,20.629,0,0,0,2.425-1.089,40.508,40.508,0,0,0,4.32-2.612,24.785,24.785,0,0,0,3.776-3.1,3.044,3.044,0,0,0,1-1.918,4.715,4.715,0,0,0-.4-2.179,12.5,12.5,0,0,0-2.544-3.731l-.09-.1v-.142a4.663,4.663,0,0,0-.216-2.119,3.134,3.134,0,0,0-1.306-1.537,6.858,6.858,0,0,0-3.985-.746h-.366l.089-.366c.1-.4.209-.806.291-1.2a6.415,6.415,0,0,0,.1-1.186,3.321,3.321,0,0,0-.672-2.1,4.835,4.835,0,0,0-3.843-1.492H553.6l.231-.351a35.977,35.977,0,0,0,2.082-3.4,5.04,5.04,0,0,0,.53-1.679,2.753,2.753,0,0,0-.336-1.567,7.019,7.019,0,0,0-2.03-2.239,2.985,2.985,0,0,0-2.418-.246,8.013,8.013,0,0,0-2.985,1.88c-.306.276-.522.507-.679.657s-.216.231-.231.224a1.3,1.3,0,0,1,.187-.261,7.611,7.611,0,0,1,.627-.709,9.622,9.622,0,0,1,1.164-1.022,6.014,6.014,0,0,1,1.865-1.007,3.208,3.208,0,0,1,2.641.224l.619.448.56.537a6.527,6.527,0,0,1,1.015,1.313,3.149,3.149,0,0,1,.4,1.768,5.38,5.38,0,0,1-.545,1.828,34.964,34.964,0,0,1-2.067,3.462l-.2-.351a6.85,6.85,0,0,1,2.239.321,4.141,4.141,0,0,1,2.007,1.336,3.731,3.731,0,0,1,.791,2.388,6.788,6.788,0,0,1-.09,1.291c-.082.425-.2.843-.306,1.268l-.276-.343a7.462,7.462,0,0,1,4.328.813,3.685,3.685,0,0,1,1.537,1.806,5.223,5.223,0,0,1,.269,2.4l-.09-.239a12.751,12.751,0,0,1,2.686,3.88,5.335,5.335,0,0,1,.448,2.455,3.843,3.843,0,0,1-.358,1.269,5.808,5.808,0,0,1-.746,1.03,26.122,26.122,0,0,1-3.865,3.194,40.28,40.28,0,0,1-4.388,2.649,21.9,21.9,0,0,1-2.492,1.119,6.328,6.328,0,0,1-2.746.515,3.052,3.052,0,0,1-2.082-1.9,5.218,5.218,0,0,1-.366-1.321c0-.224-.052-.448-.06-.672V251.2h0c.179-.067-.41.157.418-.231.351.47.1.172.179.261v.172l-.045.448-.4-.209a14.18,14.18,0,0,1-3.671-2.537,2.983,2.983,0,0,1-.627-1.007,2.5,2.5,0,0,1-.052-1.194,4.567,4.567,0,0,1,1.015-1.97l.045.425a10.954,10.954,0,0,1-3.089-3.194,3.909,3.909,0,0,1-.336-2.194,6.788,6.788,0,0,1,.545-2.045v-.045h.037l3.731-3.582.269.41a20.146,20.146,0,0,1-5.171,1.545,1.814,1.814,0,0,1-1.336-.313,11.583,11.583,0,0,1-.94-.8,1.88,1.88,0,0,1-.6-1.127,1.932,1.932,0,0,1,.358-1.186,21.543,21.543,0,0,1,2.858-2.985c.925-.843,1.783-1.582,2.544-2.239l-.037.067c.493-1.7.888-3.044,1.164-4.007l.321-1.03A1.989,1.989,0,0,1,547.737,222.311Z" transform="translate(-280.693 -105.764)" fill="#eb996e"/>
    </g>
    <g id="Files" transform="translate(865.387 5897.02)">
      <path id="Trazado_251219" data-name="Trazado 251219" d="M168.384,251.762H122.36A5.76,5.76,0,0,1,116.6,246V182.27a5.76,5.76,0,0,1,5.76-5.76h29.205l22.6,23.3V246a5.76,5.76,0,0,1-5.783,5.76Z" transform="translate(-77.62 -102.492)" fill="#ebebeb"/>
      <path id="Trazado_251220" data-name="Trazado 251220" d="M163.46,176.51v17.908a5.357,5.357,0,0,0,5.358,5.357h17.244Z" transform="translate(-89.514 -102.492)" fill="#f5f5f5"/>
      <path id="Trazado_251221" data-name="Trazado 251221" d="M163.769,202.66s-.224,4.35,4.723,5.775a5.224,5.224,0,0,0,.567.134c2.239.4,17.08,3.037,17.08,2.694v-4.82H168.9S164.59,206.3,163.769,202.66Z" transform="translate(-89.592 -109.129)" fill="#e0e0e0"/>
      <path id="Trazado_251222" data-name="Trazado 251222" d="M168.327,251.693a6.154,6.154,0,0,0,.992-.119,5.784,5.784,0,0,0,2.612-1.216A5.678,5.678,0,0,0,174,246.291v-6.417c0-9.648-.037-23.452-.067-40.137l.045.112-22.617-23.273.134.052H123.609a15.474,15.474,0,0,0-2.239.082,5.582,5.582,0,0,0-3.611,2.239,5.432,5.432,0,0,0-1.022,2.835c0,1.022,0,2.089,0,3.126v59.671a12.992,12.992,0,0,0,.112,2.425,5.611,5.611,0,0,0,4.731,4.477c.746.09,1.492.045,2.239.06h8.693l26.228.067,7.133.037h-7.133l-26.228.06h-8.685a22.023,22.023,0,0,1-2.313-.06,5.783,5.783,0,0,1-2.238-.783,5.97,5.97,0,0,1-2.768-3.91,13.931,13.931,0,0,1-.119-2.485V181.776a5.88,5.88,0,0,1,1.089-3.029,5.969,5.969,0,0,1,3.873-2.41,15.668,15.668,0,0,1,2.239-.09h27.974l.06.06,22.579,23.31.052.052v.06c0,16.684-.052,30.489-.075,40.137,0,2.41,0,4.552-.037,6.432A5.82,5.82,0,0,1,172,250.424a5.746,5.746,0,0,1-2.671,1.194,4.884,4.884,0,0,1-.746.067Z" transform="translate(-77.563 -102.423)" fill="#263238"/>
      <path id="Trazado_251223" data-name="Trazado 251223" d="M185.992,199.8a1.8,1.8,0,0,1-.448.045h-1.268l-4.671.067-6.924.037h-4.1a5.544,5.544,0,0,1-4.007-1.873,5.671,5.671,0,0,1-1.127-2,6.56,6.56,0,0,1-.254-2.194c0-1.418,0-2.791,0-4.1,0-2.6,0-4.94.037-6.924s.045-3.514.067-4.671v-1.268a1.8,1.8,0,0,1,.045-.448,3.071,3.071,0,0,1,0,.448c0,.328,0,.746.037,1.268,0,1.157.037,2.738.06,4.671s0,4.328.045,6.924v4.1a6.127,6.127,0,0,0,.239,2.082,5.268,5.268,0,0,0,1.052,1.851,5.178,5.178,0,0,0,3.731,1.754H172.6l6.924.045,4.671.06,1.268.037A3.085,3.085,0,0,1,185.992,199.8Z" transform="translate(-89.445 -102.481)" fill="#263238"/>
      <path id="Trazado_251224" data-name="Trazado 251224" d="M154.028,197.934c0,.1-5.44.194-12.148.194s-12.14-.09-12.14-.194,5.432-.194,12.14-.194S154.028,197.8,154.028,197.934Z" transform="translate(-80.955 -107.88)" fill="#263238"/>
      <path id="Trazado_251225" data-name="Trazado 251225" d="M165.556,209.934c0,.112-8.021.194-17.908.194s-17.908-.082-17.908-.194,8.014-.194,17.908-.194S165.556,209.792,165.556,209.934Z" transform="translate(-80.955 -110.926)" fill="#263238"/>
      <path id="Trazado_251226" data-name="Trazado 251226" d="M165.556,221.874c0,.112-8.021.194-17.908.194s-17.908-.082-17.908-.194,8.014-.194,17.908-.194S165.556,221.77,165.556,221.874Z" transform="translate(-80.955 -113.957)" fill="#263238"/>
      <path id="Trazado_251227" data-name="Trazado 251227" d="M165.556,233.864c0,.112-8.021.194-17.908.194s-17.908-.082-17.908-.194,8.014-.194,17.908-.194S165.556,233.76,165.556,233.864Z" transform="translate(-80.955 -117)" fill="#263238"/>
      <path id="Trazado_251228" data-name="Trazado 251228" d="M165.556,245.854c0,.112-8.021.194-17.908.194s-17.908-.082-17.908-.194,8.014-.194,17.908-.194S165.556,245.75,165.556,245.854Z" transform="translate(-80.955 -120.044)" fill="#263238"/>
      <path id="Trazado_251229" data-name="Trazado 251229" d="M165.556,257.844c0,.112-8.021.194-17.908.194s-17.908-.082-17.908-.194,8.014-.194,17.908-.194S165.556,257.74,165.556,257.844Z" transform="translate(-80.955 -123.087)" fill="#263238"/>
      <rect id="Rectángulo_43917" data-name="Rectángulo 43917" width="39.107" height="17.572" rx="4.22" transform="translate(28.66 119.274)" fill="#ff725e"/>
      <path id="Trazado_251230" data-name="Trazado 251230" d="M121.33,247.24c0,1.492-1.112,2.4-2.888,2.4h-1.336v1.836H115.57V244.83h2.873C120.219,244.83,121.33,245.748,121.33,247.24Zm-1.56,0c0-.746-.47-1.157-1.41-1.157h-1.254v2.306h1.254C119.3,248.389,119.771,247.942,119.771,247.24Z" transform="translate(-77.358 -119.833)" fill="#fff"/>
      <path id="Trazado_251231" data-name="Trazado 251231" d="M124.75,244.83h2.985c2.171,0,3.664,1.306,3.664,3.32s-1.492,3.32-3.664,3.32H124.75Zm2.94,5.38a2.059,2.059,0,1,0,0-4.119h-1.4v4.089Z" transform="translate(-79.689 -119.833)" fill="#fff"/>
      <path id="Trazado_251232" data-name="Trazado 251232" d="M136.78,246.061v1.754h3.074v1.239H136.78v2.418h-1.53V244.83h5.037v1.231Z" transform="translate(-82.354 -119.833)" fill="#fff"/>
      <path id="Trazado_251233" data-name="Trazado 251233" d="M129.284,392.776H83.768a5.7,5.7,0,0,1-5.768-5.7V324.061a5.7,5.7,0,0,1,5.7-5.7h28.922l22.385,23.049v45.7a5.7,5.7,0,0,1-5.723,5.671Z" transform="translate(-67.822 -138.497)" fill="#ebebeb"/>
      <path id="Trazado_251234" data-name="Trazado 251234" d="M124.4,318.32v17.744a5.3,5.3,0,0,0,5.3,5.3h17.058Z" transform="translate(-79.6 -138.487)" fill="#f5f5f5"/>
      <path id="Trazado_251235" data-name="Trazado 251235" d="M124.709,344.18a5.9,5.9,0,0,0,4.671,5.723c.187.052.373.09.56.127,2.239.4,16.893,2.985,16.893,2.671v-4.768H129.776S125.515,347.776,124.709,344.18Z" transform="translate(-79.678 -145.051)" fill="#e0e0e0"/>
      <path id="Trazado_251236" data-name="Trazado 251236" d="M129.24,392.7a6.12,6.12,0,0,0,.985-.119,5.722,5.722,0,0,0,2.582-1.2,5.634,5.634,0,0,0,2.037-4.022V381c0-9.551-.045-23.206-.067-39.7l.045.112-22.385-23.034.134.06H84.962a14.177,14.177,0,0,0-2.194.082,5.484,5.484,0,0,0-4.582,5.029v62.126a13.306,13.306,0,0,0,.1,2.4,5.567,5.567,0,0,0,4.686,4.41,22.244,22.244,0,0,0,2.239.06h8.559l25.967.09h7.051l-7.051.037-25.952.06h-8.6a21.527,21.527,0,0,1-2.283-.06,5.792,5.792,0,0,1-2.239-.746,5.872,5.872,0,0,1-2.716-3.768,13.6,13.6,0,0,1-.119-2.455V323.525a5.9,5.9,0,0,1,4.91-5.387,14.356,14.356,0,0,1,2.239-.082h27.668l.06.052,22.34,23.064.045.052v.067c0,16.5-.052,30.153-.067,39.7,0,2.38,0,4.477-.037,6.357a5.716,5.716,0,0,1-4.761,5.268,4.8,4.8,0,0,1-.746.067Z" transform="translate(-67.778 -138.417)" fill="#263238"/>
      <path id="Trazado_251237" data-name="Trazado 251237" d="M146.686,341.367a2.836,2.836,0,0,1-.433.037l-1.261.037-4.619.06-6.857.037h-4.052a5.5,5.5,0,0,1-5.074-3.835,6.477,6.477,0,0,1-.254-2.179v-10.9c0-1.97.045-3.477.06-4.619v-1.261a1.664,1.664,0,0,1,.045-.433,2.836,2.836,0,0,1,0,.433V320c0,1.142,0,2.709.06,4.619s0,4.29.045,6.857v4.044a5.97,5.97,0,0,0,.239,2.059,5.126,5.126,0,0,0,4.723,3.574h4.037l6.857.045,4.619.06h1.261a1.663,1.663,0,0,1,.6.1Z" transform="translate(-79.531 -138.484)" fill="#263238"/>
      <path id="Trazado_251238" data-name="Trazado 251238" d="M115.067,339.474c0,.1-5.38.194-12.013.194s-12.013-.09-12.013-.194,5.372-.194,12.013-.194S115.067,339.362,115.067,339.474Z" transform="translate(-71.132 -143.807)" fill="#263238"/>
      <path id="Trazado_251239" data-name="Trazado 251239" d="M126.458,351.334c0,.1-7.932.194-17.714.194S91,351.439,91,351.334s7.924-.194,17.714-.194S126.458,351.23,126.458,351.334Z" transform="translate(-71.122 -146.818)" fill="#263238"/>
      <path id="Trazado_251240" data-name="Trazado 251240" d="M126.458,363.194c0,.112-7.932.194-17.714.194S91,363.306,91,363.194,98.924,363,108.714,363,126.458,363.089,126.458,363.194Z" transform="translate(-71.122 -149.828)" fill="#263238"/>
      <path id="Trazado_251241" data-name="Trazado 251241" d="M126.458,375.054c0,.112-7.932.194-17.714.194S91,375.166,91,375.054s7.924-.194,17.714-.194S126.458,374.964,126.458,375.054Z" transform="translate(-71.122 -152.838)" fill="#263238"/>
      <path id="Trazado_251242" data-name="Trazado 251242" d="M126.458,386.934c0,.1-7.932.194-17.714.194S91,387.031,91,386.934s7.924-.194,17.714-.194S126.458,386.815,126.458,386.934Z" transform="translate(-71.122 -155.854)" fill="#263238"/>
      <path id="Trazado_251243" data-name="Trazado 251243" d="M126.458,398.784c0,.1-7.932.194-17.714.194S91,398.9,91,398.784s7.924-.194,17.714-.194S126.458,398.68,126.458,398.784Z" transform="translate(-71.122 -158.862)" fill="#263238"/>
      <rect id="Rectángulo_43918" data-name="Rectángulo 43918" width="38.689" height="17.386" rx="4.22" transform="translate(0 224.603)" fill="#ff725e"/>
      <path id="Trazado_251244" data-name="Trazado 251244" d="M82.708,388.29c0,1.492-1.1,2.38-2.85,2.38H78.537v1.806H77V385.91h2.843C81.611,385.91,82.708,386.82,82.708,388.29Zm-1.537,0c0-.746-.47-1.142-1.4-1.142H78.537v2.283h1.239C80.731,389.432,81.171,389.007,81.171,388.29Z" transform="translate(-67.568 -155.643)" fill="#fff"/>
      <path id="Trazado_251245" data-name="Trazado 251245" d="M91.8,388.29c0,1.492-1.1,2.38-2.85,2.38H87.622v1.806H86.13V385.91h2.843C90.7,385.91,91.8,386.82,91.8,388.29Zm-1.537,0c0-.746-.47-1.142-1.4-1.142H87.622v2.283h1.239C89.764,389.432,90.264,389.007,90.264,388.29Z" transform="translate(-69.886 -155.643)" fill="#fff"/>
      <path id="Trazado_251246" data-name="Trazado 251246" d="M96.044,387.149h-2.1V385.91h5.723v1.239h-2.1v5.328H96.074Z" transform="translate(-71.868 -155.643)" fill="#fff"/>
      <path id="Trazado_251247" data-name="Trazado 251247" d="M249.436,151.558H204.173a5.663,5.663,0,0,1-5.663-5.663V83.253a5.663,5.663,0,0,1,5.663-5.663h28.705l22.221,22.9v45.4a5.663,5.663,0,0,1-5.663,5.663Z" transform="translate(-98.411 -77.383)" fill="#ebebeb"/>
      <path id="Trazado_251248" data-name="Trazado 251248" d="M244.57,77.59V95.215a5.268,5.268,0,0,0,5.268,5.268h16.953Z" transform="translate(-110.102 -77.383)" fill="#f5f5f5"/>
      <path id="Trazado_251249" data-name="Trazado 251249" d="M244.879,103.29a5.849,5.849,0,0,0,4.641,5.678,5.031,5.031,0,0,0,.56.127c2.239.4,16.789,2.985,16.789,2.656v-4.738H249.916S245.715,106.864,244.879,103.29Z" transform="translate(-110.18 -83.906)" fill="#e0e0e0"/>
      <path id="Trazado_251250" data-name="Trazado 251250" d="M249.406,151.488a6,6,0,0,0,.977-.119,5.6,5.6,0,0,0,4.589-5.186V139.87c0-9.484-.037-23.057-.067-39.45l.045.112L232.714,77.646l.134.06H205.419a13.927,13.927,0,0,0-2.171.075,5.507,5.507,0,0,0-3.552,2.239,5.387,5.387,0,0,0-1,2.783c-.037,1.007,0,2.052,0,3.074v58.664a13.137,13.137,0,0,0,.1,2.38,5.514,5.514,0,0,0,2.567,3.641,5.447,5.447,0,0,0,2.082.746,22.15,22.15,0,0,0,2.239.06h8.544l25.78.06h0l-25.78.06h-8.544a18.68,18.68,0,0,1-2.239-.052,5.828,5.828,0,0,1-4.925-4.619,12.882,12.882,0,0,1-.119-2.447v-61.6a5.85,5.85,0,0,1,4.88-5.358,14.107,14.107,0,0,1,2.239-.082h27.5l.06.052,22.2,22.922.045.045v.067c0,16.416-.052,29.966-.067,39.45,0,2.365,0,4.477-.037,6.32a5.7,5.7,0,0,1-2.112,4.059,5.618,5.618,0,0,1-2.619,1.172,4.734,4.734,0,0,1-.746.067Z" transform="translate(-98.381 -77.313)" fill="#263238"/>
      <path id="Trazado_251251" data-name="Trazado 251251" d="M266.722,100.462a3.037,3.037,0,0,1-.44,0h-1.246l-4.6.06-6.805.037H249.6a5.477,5.477,0,0,1-5.044-3.813,6.35,6.35,0,0,1-.254-2.156c0-1.4,0-2.746,0-4.029V83.755c0-1.955.052-3.455.067-4.6a12.011,12.011,0,0,1,.037-1.246,1.491,1.491,0,0,1,0-.433,1.979,1.979,0,0,1,.037.433c0,.328,0,.746,0,1.246,0,1.142.037,2.694.06,4.6s0,4.261.045,6.805V94.59a5.917,5.917,0,0,0,.239,2.045,5.119,5.119,0,0,0,4.693,3.544H253.5l6.805.045,4.6.067h1.246A1.761,1.761,0,0,1,266.722,100.462Z" transform="translate(-110.033 -77.355)" fill="#263238"/>
      <path id="Trazado_251252" data-name="Trazado 251252" d="M235.3,98.6c0,.1-5.343.194-11.939.194s-11.939-.09-11.939-.194,5.343-.194,11.939-.194S235.3,98.5,235.3,98.6Z" transform="translate(-101.688 -82.668)" fill="#263238"/>
      <path id="Trazado_251253" data-name="Trazado 251253" d="M246.632,110.394c0,.1-7.887.194-17.61.194s-17.6-.09-17.6-.194,7.895-.194,17.595-.194S246.632,110.282,246.632,110.394Z" transform="translate(-101.688 -85.66)" fill="#263238"/>
      <path id="Trazado_251254" data-name="Trazado 251254" d="M246.632,122.179c0,.112-7.887.194-17.61.194s-17.6-.082-17.6-.194,7.895-.179,17.595-.179S246.632,122.075,246.632,122.179Z" transform="translate(-101.688 -88.656)" fill="#263238"/>
      <path id="Trazado_251255" data-name="Trazado 251255" d="M246.632,133.934c0,.1-7.887.194-17.61.194s-17.6-.09-17.6-.194,7.88-.194,17.6-.194S246.632,133.852,246.632,133.934Z" transform="translate(-101.688 -91.635)" fill="#263238"/>
      <path id="Trazado_251256" data-name="Trazado 251256" d="M246.632,145.754c0,.1-7.887.194-17.61.194s-17.6-.09-17.6-.194,7.88-.194,17.6-.194S246.632,145.642,246.632,145.754Z" transform="translate(-101.688 -94.636)" fill="#263238"/>
      <path id="Trazado_251257" data-name="Trazado 251257" d="M246.632,157.534c0,.112-7.887.2-17.61.194s-17.6-.082-17.6-.194,7.88-.194,17.6-.194S246.632,157.43,246.632,157.534Z" transform="translate(-101.688 -97.626)" fill="#263238"/>
      <rect id="Rectángulo_43919" data-name="Rectángulo 43919" width="38.443" height="17.274" rx="4.22" transform="translate(89.951 44.694)" fill="#ff725e"/>
      <path id="Trazado_251258" data-name="Trazado 251258" d="M201.35,151.259l-1.582-2.239-1.545,2.239H196.5l2.418-3.32-2.291-3.209h1.739l1.492,2.119,1.492-2.119h1.634l-2.239,3.156,2.433,3.373Z" transform="translate(-97.901 -94.425)" fill="#fff"/>
      <path id="Trazado_251259" data-name="Trazado 251259" d="M206.145,144.73h1.492v5.3h3.276v1.231H206.13Z" transform="translate(-100.345 -94.425)" fill="#fff"/>
      <path id="Trazado_251260" data-name="Trazado 251260" d="M213,150.579l.507-1.134a3.9,3.9,0,0,0,2.156.679c.9,0,1.261-.3,1.261-.7,0-1.224-3.8-.381-3.8-2.806,0-1.112.9-2.037,2.753-2.037a4.417,4.417,0,0,1,2.239.582l-.47,1.149a3.626,3.626,0,0,0-1.806-.515c-.9,0-1.246.336-1.246.746,0,1.2,3.8.373,3.8,2.768,0,1.089-.9,2.022-2.768,2.022A4.634,4.634,0,0,1,213,150.579Z" transform="translate(-102.089 -94.387)" fill="#fff"/>
      <path id="Trazado_251261" data-name="Trazado 251261" d="M624.339,404.377H578.353a5.753,5.753,0,0,1-5.753-5.753V334.983a5.753,5.753,0,0,1,5.753-5.753h29.16L630.093,352.5v46.128A5.753,5.753,0,0,1,624.339,404.377Z" transform="translate(-193.365 -141.256)" fill="#ebebeb"/>
      <path id="Trazado_251262" data-name="Trazado 251262" d="M619.39,329.23v17.908a5.35,5.35,0,0,0,5.35,5.35h17.229Z" transform="translate(-205.242 -141.256)" fill="#f5f5f5"/>
      <path id="Trazado_251263" data-name="Trazado 251263" d="M619.709,355.34s-.224,4.343,4.716,5.768a5.225,5.225,0,0,0,.567.134c2.239.4,17.057,3.029,17.057,2.694v-4.813H624.821S620.523,358.974,619.709,355.34Z" transform="translate(-205.322 -147.884)" fill="#e0e0e0"/>
      <path id="Trazado_251264" data-name="Trazado 251264" d="M624.282,404.307a6.151,6.151,0,0,0,.992-.119,5.723,5.723,0,0,0,4.671-5.275c0-1.851,0-4.007,0-6.41,0-9.633,0-23.422-.067-40.077l.045.112-22.594-23.251.127.06H579.594a13.51,13.51,0,0,0-2.239.082,5.507,5.507,0,0,0-3.6,2.238,5.432,5.432,0,0,0-1.022,2.836v62.708a13,13,0,0,0,.112,2.425,5.619,5.619,0,0,0,4.723,4.477c.746.09,1.492.045,2.239.06h8.678l26.2.06,7.118.037h0l-7.118.037-26.2.06H579.8a21.752,21.752,0,0,1-2.3-.06,5.737,5.737,0,0,1-2.239-.784,5.925,5.925,0,0,1-2.761-3.9,13.9,13.9,0,0,1-.119-2.485V334.488a5.881,5.881,0,0,1,1.089-3.029,5.97,5.97,0,0,1,3.865-2.41,14.573,14.573,0,0,1,2.239-.082h27.959l.052.052,22.557,23.288.045.045v.067c0,16.655-.052,30.444-.067,40.077v6.425a5.835,5.835,0,0,1-2.142,4.126,5.744,5.744,0,0,1-2.664,1.186,4.878,4.878,0,0,1-.746.067Z" transform="translate(-193.308 -141.186)" fill="#263238"/>
      <path id="Trazado_251265" data-name="Trazado 251265" d="M641.9,352.48a3.079,3.079,0,0,1-.448,0l-1.268.037-4.664.06-6.917.037h-4.089a5.522,5.522,0,0,1-4-1.88,5.463,5.463,0,0,1-1.127-1.992,6.2,6.2,0,0,1-.254-2.194v-4.089c0-2.589,0-4.932.045-6.917s.045-3.507.06-4.664a12.414,12.414,0,0,1,.037-1.269,2.834,2.834,0,0,1,0-.44,1.693,1.693,0,0,1,.045.44v1.269c0,1.157,0,2.731.06,4.664s0,4.328,0,6.917v4.089a6.124,6.124,0,0,0,.239,2.082,5.268,5.268,0,0,0,1.052,1.851,5.179,5.179,0,0,0,3.731,1.753h4.082l6.917.045,4.664.06,1.268.037A1.8,1.8,0,0,1,641.9,352.48Z" transform="translate(-205.174 -141.241)" fill="#263238"/>
      <path id="Trazado_251266" data-name="Trazado 251266" d="M609.978,350.584c0,.1-5.432.194-12.133.194s-12.125-.09-12.125-.194,5.432-.194,12.125-.194S609.978,350.472,609.978,350.584Z" transform="translate(-196.695 -146.627)" fill="#263238"/>
      <path id="Trazado_251267" data-name="Trazado 251267" d="M621.476,362.554c0,.112-8.014.194-17.908.194s-17.908-.082-17.908-.194,8.006-.194,17.908-.194S621.476,362.45,621.476,362.554Z" transform="translate(-196.68 -149.665)" fill="#263238"/>
      <path id="Trazado_251268" data-name="Trazado 251268" d="M621.476,374.534c0,.1-8.014.194-17.908.194s-17.908-.089-17.908-.194,8.006-.194,17.908-.194S621.476,374.422,621.476,374.534Z" transform="translate(-196.68 -152.706)" fill="#263238"/>
      <path id="Trazado_251269" data-name="Trazado 251269" d="M621.476,386.5c0,.1-8.014.194-17.908.194s-17.908-.09-17.908-.194,8.006-.194,17.908-.194S621.476,386.4,621.476,386.5Z" transform="translate(-196.68 -155.745)" fill="#263238"/>
      <path id="Trazado_251270" data-name="Trazado 251270" d="M621.476,398.484c0,.1-8.014.194-17.908.194s-17.908-.09-17.908-.194,8.006-.194,17.908-.194S621.476,398.372,621.476,398.484Z" transform="translate(-196.68 -158.785)" fill="#263238"/>
      <path id="Trazado_251271" data-name="Trazado 251271" d="M621.476,413.244c0,.112-8.014.2-17.908.2s-17.908-.09-17.908-.2,8.006-.194,17.908-.194S621.476,413.14,621.476,413.244Z" transform="translate(-196.68 -162.532)" fill="#263238"/>
      <rect id="Rectángulo_43920" data-name="Rectángulo 43920" width="39.055" height="17.55" rx="4.22" transform="translate(368.93 233.169)" fill="#ff725e"/>
      <path id="Trazado_251272" data-name="Trazado 251272" d="M564.85,397.47h2.985c2.164,0,3.656,1.306,3.656,3.313S570,404.1,567.835,404.1H564.85Zm2.932,5.365a2.059,2.059,0,1,0,0-4.111h-1.4v4.111Z" transform="translate(-191.398 -158.577)" fill="#fff"/>
      <path id="Trazado_251273" data-name="Trazado 251273" d="M574.768,400.605a3.634,3.634,0,1,1,3.634,3.432,3.44,3.44,0,0,1-3.634-3.432Zm5.708,0a2.074,2.074,0,1,0-2.074,2.119,2.022,2.022,0,0,0,2.074-2.119Z" transform="translate(-193.914 -158.4)" fill="#fff"/>
      <path id="Trazado_251274" data-name="Trazado 251274" d="M585.49,400.747a3.649,3.649,0,0,1,6.327-2.238l-.985.91a2.138,2.138,0,1,0,0,2.709l.985.91a3.641,3.641,0,0,1-6.327-2.239Z" transform="translate(-196.637 -158.542)" fill="#fff"/>
      <path id="Trazado_251275" data-name="Trazado 251275" d="M599.09,404.1l-1.6-2.3-1.567,2.3H594.15l2.455-3.373-2.328-3.253h1.746l1.492,2.149,1.492-2.149h1.657l-2.313,3.2,2.47,3.425Z" transform="translate(-198.835 -158.577)" fill="#fff"/>
    </g>
    <g id="Desk" transform="translate(848.061 6181.825)">
      <path id="Trazado_251276" data-name="Trazado 251276" d="M539.374,459.172c0,.112-111.545.194-249.1.194s-249.132-.082-249.132-.194S152.655,459,290.257,459,539.374,459.067,539.374,459.172Z" transform="translate(-41.14 -459)" fill="#263238"/>
    </g>
  </g>
</svg>
