<svg xmlns="http://www.w3.org/2000/svg" width="248.884" height="262.402" viewBox="0 0 248.884 262.402">
  <g id="Grupo_145539" data-name="Grupo 145539" transform="translate(-194 -6157.607)">
    <g id="freepik--background-complete--inject-206" transform="translate(194 6158.833)">
      <rect id="Rectángulo_43926" data-name="Rectángulo 43926" width="130.233" height="178.32" rx="7.2" transform="translate(14.964 6.71)" fill="#f5f5f5"/>
      <path id="Trazado_251403" data-name="Trazado 251403" d="M426.735,59.9l.239,1.236L424.525,74.4h0a7.9,7.9,0,0,1-6.094,1.405l-13.879-2.566s-2.21-.5-1.592-3.359c0,0,.1-1.51,1.4-1.61,0,0-2.688-1.1-2.391-3.167s1.825-2.047,1.825-2.047-2.519-.636-2.257-2.968,1.621-2.333,1.621-2.333-2.916-.711-2.2-3.295a2.665,2.665,0,0,1,3.254-1.954l9.873,1.825,8.654,1.6a5.033,5.033,0,0,1,3.995,3.966Z" transform="translate(-186.832 -42.563)" fill="#ebebeb"/>
      <path id="Trazado_251404" data-name="Trazado 251404" d="M433.239,49.455a17,17,0,0,1-4.082-5.744,14.787,14.787,0,0,1-.723-4.619c0-.117.2-1.166.344-2.018a1.33,1.33,0,0,0-1.032-1.516,4.333,4.333,0,0,0-4.8,3.155c-1.166,3.977-.169,6.689-.134,7.9l.029,1.213Z" transform="translate(-195.809 -35.513)" fill="#ebebeb"/>
      <rect id="Rectángulo_43927" data-name="Rectángulo 43927" width="9.856" height="20.032" transform="matrix(-0.983, -0.182, 0.182, -0.983, 245.24, 35.624)" fill="#ebebeb"/>
      <path id="Trazado_251405" data-name="Trazado 251405" d="M437.78,79.434s.776-4.415,1.779-9.85,1.849-9.85,1.849-9.844-.776,4.415-1.784,9.855S437.8,79.439,437.78,79.434Z" transform="translate(-202.228 -45.612)" fill="#e0e0e0"/>
      <path id="Trazado_251406" data-name="Trazado 251406" d="M454.4,82.509s.776-4.42,1.784-9.855,1.837-9.844,1.854-9.844-.776,4.42-1.779,9.855S454.423,82.509,454.4,82.509Z" transform="translate(-209.155 -46.892)" fill="#e0e0e0"/>
      <path id="Trazado_251407" data-name="Trazado 251407" d="M448.44,67.471a1.843,1.843,0,1,0,.762-1.193,1.843,1.843,0,0,0-.762,1.193Z" transform="translate(-206.659 -48.2)" fill="#fff"/>
      <path id="Trazado_251408" data-name="Trazado 251408" d="M419.61,55s1.067.157,2.368.4,2.362.455,2.333.472-1.067-.157-2.368-.4S419.61,55,419.61,55Z" transform="translate(-194.654 -43.636)" fill="#e0e0e0"/>
      <path id="Trazado_251409" data-name="Trazado 251409" d="M405.49,70.76s.682.087,1.516.239a15.366,15.366,0,0,1,1.5.321s-.682-.087-1.516-.245a14.474,14.474,0,0,1-1.5-.315Z" transform="translate(-188.768 -50.205)" fill="#e0e0e0"/>
      <path id="Trazado_251410" data-name="Trazado 251410" d="M404.46,61.42s.962.14,2.146.356,2.14.414,2.134.437-.962-.14-2.146-.362S404.454,61.443,404.46,61.42Z" transform="translate(-188.339 -46.312)" fill="#e0e0e0"/>
      <path id="Trazado_251411" data-name="Trazado 251411" d="M405.79,79.45s.962.14,2.146.356,2.14.414,2.134.432-.962-.134-2.146-.356S405.784,79.467,405.79,79.45Z" transform="translate(-188.893 -53.828)" fill="#e0e0e0"/>
      <path id="Trazado_251412" data-name="Trazado 251412" d="M447.76,61.42s1.365.216,3.032.525,3.021.583,3.021.583-1.365-.21-3.032-.519S447.76,61.443,447.76,61.42Z" transform="translate(-206.388 -46.312)" fill="#fff"/>
      <path id="Trazado_251413" data-name="Trazado 251413" d="M403.493,65.363a.357.357,0,0,1-.047-.111,2.046,2.046,0,0,1-.064-.321,2.628,2.628,0,0,1,0-.484,2.764,2.764,0,0,1,.128-.583,2.7,2.7,0,0,1,.262-.536,2.094,2.094,0,0,1,.3-.373,1.575,1.575,0,0,1,.251-.21l.1-.064a4.063,4.063,0,0,0-.309.309,2.373,2.373,0,0,0-.286.379,2.516,2.516,0,0,0-.245.519,2.817,2.817,0,0,0-.134.583,2.59,2.59,0,0,0,0,.472C403.458,65.2,403.5,65.357,403.493,65.363Z" transform="translate(-187.885 -46.837)" fill="#fff"/>
      <path id="Trazado_251414" data-name="Trazado 251414" d="M402.433,56.865a.653.653,0,0,1-.192-.251,1.522,1.522,0,0,1-.181-.741,1.622,1.622,0,0,1,.2-.735.683.683,0,0,1,.2-.239,2.071,2.071,0,0,0-.152.268,1.656,1.656,0,0,0-.029,1.423,3.07,3.07,0,0,1,.146.274Z" transform="translate(-187.338 -43.594)" fill="#fff"/>
      <path id="Trazado_251415" data-name="Trazado 251415" d="M404.428,75.482a.781.781,0,0,1-.274-.245,1.324,1.324,0,0,1-.274-.828,1.359,1.359,0,0,1,.3-.816c.146-.175.274-.245.28-.233a2.677,2.677,0,0,0-.233.262,1.353,1.353,0,0,0,0,1.586A2.4,2.4,0,0,0,404.428,75.482Z" transform="translate(-188.097 -51.288)" fill="#fff"/>
      <path id="Trazado_251416" data-name="Trazado 251416" d="M406.461,84.143a.741.741,0,0,1-.187-.262,1.75,1.75,0,0,1,0-1.528.823.823,0,0,1,.187-.262,3.039,3.039,0,0,0-.14.286,1.919,1.919,0,0,0,0,1.481C406.4,84.038,406.473,84.137,406.461,84.143Z" transform="translate(-189.022 -54.928)" fill="#fff"/>
      <path id="Trazado_251417" data-name="Trazado 251417" d="M423.338,44.909a1.1,1.1,0,0,1-.064-.216,2.154,2.154,0,0,1-.064-.262,3.6,3.6,0,0,0-.064-.356,6.668,6.668,0,0,1-.076-.921,7.866,7.866,0,0,1,.07-1.166,7.757,7.757,0,0,1,.257-1.108,6.459,6.459,0,0,1,.338-.869c.052-.117.111-.222.157-.315l.134-.233a1.694,1.694,0,0,1,.128-.192.91.91,0,0,1-.1.2l-.122.239c-.047.093-.1.2-.152.321-.1.239-.216.537-.321.863a10.024,10.024,0,0,0-.245,1.1,8.623,8.623,0,0,0-.076,1.126,8.055,8.055,0,0,0,.058.916,1.854,1.854,0,0,0,.053.35c.017.1.035.192.052.262A1.089,1.089,0,0,1,423.338,44.909Z" transform="translate(-196.096 -37.079)" fill="#fff"/>
      <path id="Trazado_251418" data-name="Trazado 251418" d="M405.245,272.284l.659.752,3.569,10.071h0a6.252,6.252,0,0,1-3.639,3.377L395.3,290.193s-1.709.536-2.42-1.668c0,0-.525-1.079.327-1.662,0,0-2.28.315-2.916-1.225s.443-2.123.443-2.123a2.261,2.261,0,0,1-2.723-1.166c-.741-1.749.187-2.245.187-2.245s-2.292.671-2.811-1.388a2.111,2.111,0,0,1,1.458-2.63l7.488-2.653L400.9,271.1A3.966,3.966,0,0,1,405.245,272.284Z" transform="translate(-180.353 -133.62)" fill="#ebebeb"/>
      <path id="Trazado_251419" data-name="Trazado 251419" d="M406.135,265.695a13.49,13.49,0,0,1-5.091-2.333,11.664,11.664,0,0,1-2.333-2.881l-.583-1.522a1.05,1.05,0,0,0-1.306-.636,3.447,3.447,0,0,0-2.035,4.082,13.6,13.6,0,0,0,3.032,5.47l.5.816Z" transform="translate(-184.258 -128.367)" fill="#ebebeb"/>
      <rect id="Rectángulo_43928" data-name="Rectángulo 43928" width="7.803" height="15.856" transform="translate(235.79 149.103) rotate(160.48)" fill="#ebebeb"/>
      <path id="Trazado_251420" data-name="Trazado 251420" d="M421.8,284.947s-1.213-3.336-2.677-7.465S416.482,270,416.5,270s1.213,3.336,2.677,7.465S421.813,284.941,421.8,284.947Z" transform="translate(-193.357 -133.256)" fill="#e0e0e0"/>
      <path id="Trazado_251421" data-name="Trazado 251421" d="M434.405,280.477s-1.213-3.336-2.677-7.465-2.636-7.476-2.618-7.482,1.213,3.336,2.677,7.465S434.423,280.471,434.405,280.477Z" transform="translate(-198.614 -131.392)" fill="#e0e0e0"/>
      <path id="Trazado_251422" data-name="Trazado 251422" d="M422.94,272.9a1.458,1.458,0,1,0,.886-1.866A1.458,1.458,0,0,0,422.94,272.9Z" transform="translate(-196.007 -133.65)" fill="#fff"/>
      <path id="Trazado_251423" data-name="Trazado 251423" d="M397.87,275.5s.793-.315,1.784-.665a14.451,14.451,0,0,1,1.8-.583,17.2,17.2,0,0,1-1.784.665C398.681,275.262,397.876,275.507,397.87,275.5Z" transform="translate(-185.592 -135.024)" fill="#e0e0e0"/>
      <path id="Trazado_251424" data-name="Trazado 251424" d="M394.44,292.221s.5-.21,1.137-.432a10.737,10.737,0,0,1,1.166-.379,11.933,11.933,0,0,1-1.137.437A11.455,11.455,0,0,1,394.44,292.221Z" transform="translate(-184.162 -142.18)" fill="#e0e0e0"/>
      <path id="Trazado_251425" data-name="Trazado 251425" d="M390,286s.717-.286,1.615-.583,1.627-.583,1.633-.548a13.633,13.633,0,0,1-1.615.583C390.735,285.749,390.029,286.017,390,286Z" transform="translate(-182.311 -139.452)" fill="#e0e0e0"/>
      <path id="Trazado_251426" data-name="Trazado 251426" d="M398.08,297.833s.717-.286,1.615-.583,1.627-.583,1.633-.542a12.5,12.5,0,0,1-1.615.583C398.815,297.588,398.086,297.85,398.08,297.833Z" transform="translate(-185.679 -144.386)" fill="#e0e0e0"/>
      <path id="Trazado_251427" data-name="Trazado 251427" d="M419.73,268.517s1.015-.4,2.286-.846,2.3-.8,2.333-.781-1.015.391-2.286.84S419.736,268.528,419.73,268.517Z" transform="translate(-194.704 -131.959)" fill="#fff"/>
      <path id="Trazado_251428" data-name="Trazado 251428" d="M391.307,289.594l-.076-.058a1.614,1.614,0,0,1-.169-.192,1.747,1.747,0,0,1-.192-.332,2.031,2.031,0,0,1-.146-.449,2.177,2.177,0,0,1-.035-.467,2.04,2.04,0,0,1,.064-.379,1.256,1.256,0,0,1,.087-.245.091.091,0,0,1,.047-.082c.006,0-.047.128-.093.332a2.171,2.171,0,0,0-.047.373,2.5,2.5,0,0,0,.035.455,2.583,2.583,0,0,0,.134.437,2.85,2.85,0,0,0,.181.332C391.22,289.5,391.313,289.589,391.307,289.594Z" transform="translate(-182.598 -140.504)" fill="#fff"/>
      <path id="Trazado_251429" data-name="Trazado 251429" d="M387.012,284.369a.525.525,0,0,1-.227-.093,1.207,1.207,0,0,1-.414-.437,1.165,1.165,0,0,1-.152-.583.5.5,0,0,1,.041-.245v.245a1.388,1.388,0,0,0,.163.554,1.353,1.353,0,0,0,.385.432C386.93,284.328,387.018,284.363,387.012,284.369Z" transform="translate(-180.734 -138.679)" fill="#fff"/>
      <path id="Trazado_251430" data-name="Trazado 251430" d="M395.772,296.28a.618.618,0,0,1-.286-.064,1.067,1.067,0,0,1-.519-.455,1.091,1.091,0,0,1-.117-.682.583.583,0,0,1,.1-.268,1.411,1.411,0,0,0-.052.274,1.073,1.073,0,0,0,.128.647,1.114,1.114,0,0,0,.478.449C395.661,296.25,395.772,296.268,395.772,296.28Z" transform="translate(-184.328 -143.597)" fill="#fff"/>
      <path id="Trazado_251431" data-name="Trazado 251431" d="M400.549,301.5a.647.647,0,0,1-.233-.1,1.347,1.347,0,0,1-.426-.455,1.324,1.324,0,0,1-.181-.583.548.548,0,0,1,0-.257v.251a1.545,1.545,0,0,0,.192.583,1.626,1.626,0,0,0,.4.449A2.12,2.12,0,0,1,400.549,301.5Z" transform="translate(-186.352 -145.802)" fill="#fff"/>
      <path id="Trazado_251432" data-name="Trazado 251432" d="M396.994,267.746l-.134-.128a1.89,1.89,0,0,1-.146-.152c-.058-.064-.122-.134-.187-.216a5.407,5.407,0,0,1-.414-.583,6.468,6.468,0,0,1-.4-.8,5.738,5.738,0,0,1-.262-.863,4.839,4.839,0,0,1-.111-.729v-.49a1.121,1.121,0,0,1,0-.181.637.637,0,0,1,0,.181v.49a3.765,3.765,0,0,0,.122.717,6.1,6.1,0,0,0,1.061,2.257c.064.087.122.157.175.222l.14.163A.922.922,0,0,1,396.994,267.746Z" transform="translate(-184.535 -130.588)" fill="#fff"/>
      <rect id="Rectángulo_43929" data-name="Rectángulo 43929" width="43.918" height="43.918" rx="13.31" transform="translate(97.686 210.363)" fill="#e0e0e0"/>
      <rect id="Rectángulo_43930" data-name="Rectángulo 43930" width="43.918" height="43.918" rx="13.31" transform="translate(89.796 210.363)" fill="#ebebeb"/>
      <path id="Trazado_251433" data-name="Trazado 251433" d="M199.5,427.014l4.42-4.426,8.532,7.587L226.7,415.87l4.105,4.42-18.988,18.416Z" transform="translate(-102.904 -194.059)" fill="#fff"/>
      <rect id="Rectángulo_43931" data-name="Rectángulo 43931" width="34.074" height="34.074" rx="13.31" transform="translate(6.117 219.787)" fill="#e0e0e0"/>
      <rect id="Rectángulo_43932" data-name="Rectángulo 43932" width="34.074" height="34.074" rx="13.31" transform="translate(0 219.787)" fill="#ebebeb"/>
      <path id="Trazado_251434" data-name="Trazado 251434" d="M42.9,436.278l3.435-3.435,6.619,5.884L64,427.63l3.19,3.435L52.464,445.347Z" transform="translate(-37.628 -198.961)" fill="#fff"/>
    </g>
    <g id="freepik--Flor--inject-206" transform="translate(200.549 6411.541)">
      <path id="Trazado_251435" data-name="Trazado 251435" d="M279.418,469c0,.082-52.485.152-117.158.152S45.09,469.083,45.09,469s52.45-.152,117.17-.152S279.418,468.937,279.418,469Z" transform="translate(-45.09 -468.85)" fill="#263238"/>
    </g>
    <g id="freepik--Boxes--inject-206" transform="translate(218.937 6372.218)">
      <rect id="Rectángulo_43934" data-name="Rectángulo 43934" width="39.469" height="39.469" rx="13.31" transform="translate(7.085)" fill="#20cb7d"/>
      <g id="Grupo_145409" data-name="Grupo 145409" transform="translate(7.085)" opacity="0.3">
        <rect id="Rectángulo_43935" data-name="Rectángulo 43935" width="39.469" height="39.469" rx="13.31"/>
      </g>
      <rect id="Rectángulo_43936" data-name="Rectángulo 43936" width="39.469" height="39.469" rx="13.31" fill="#20cb7d"/>
      <path id="Trazado_251457" data-name="Trazado 251457" d="M87.09,429.083l3.977-3.977,7.669,6.817,12.8-12.853,3.691,3.971-17.063,16.55Z" transform="translate(-80.984 -408.777)" fill="#fff"/>
      <rect id="Rectángulo_43937" data-name="Rectángulo 43937" width="25.245" height="25.245" rx="8.23" transform="translate(39.072 14.223)" fill="#263238"/>
      <rect id="Rectángulo_43938" data-name="Rectángulo 43938" width="25.245" height="25.245" rx="8.23" transform="translate(34.541 14.223)" fill="#455a64"/>
      <path id="Trazado_251458" data-name="Trazado 251458" d="M142.55,443.5l2.543-2.543,4.9,4.362,8.193-8.223,2.362,2.543-10.917,10.584Z" transform="translate(-104.102 -416.293)" fill="#fff"/>
    </g>
    <g id="freepik--List--inject-206" transform="translate(214.692 6157.607)">
      <rect id="Rectángulo_43939" data-name="Rectángulo 43939" width="130.233" height="178.32" rx="7.2" transform="translate(0.132 0.146)" fill="#fff"/>
      <path id="Trazado_251459" data-name="Trazado 251459" d="M195.509,211.876a4.339,4.339,0,0,0,1.534-.309,4.082,4.082,0,0,0,1.563-1.114,4.222,4.222,0,0,0,1.05-2.4c.029-4.082,0-10.054,0-17.769,0-15.431-.029-37.76-.047-65.35V38.186a4.2,4.2,0,0,0-1-3.038,4.03,4.03,0,0,0-2.846-1.435H73.674a4.082,4.082,0,0,0-3.266,1.65,3.925,3.925,0,0,0-.735,1.749,14.177,14.177,0,0,0-.058,1.936V207.695a4.117,4.117,0,0,0,1,2.648,4.018,4.018,0,0,0,2.449,1.353,9.823,9.823,0,0,0,1.44.058h31.7l65.35.047,17.769.029H171.547l-65.35.052H74.485a10.5,10.5,0,0,1-1.475-.053,4.321,4.321,0,0,1-3.656-4.245q0-2.992,0-6.03V39a14.222,14.222,0,0,1,.064-1.983,4.222,4.222,0,0,1,.787-1.86,4.35,4.35,0,0,1,3.5-1.749h122.1a4.345,4.345,0,0,1,3.038,1.534,4.49,4.49,0,0,1,1.021,3.219v86.769c0,27.59-.041,49.919-.052,65.35,0,7.721,0,13.7-.047,17.775a4.222,4.222,0,0,1-1.079,2.426,4.082,4.082,0,0,1-1.586,1.091,3.978,3.978,0,0,1-1.166.268Z" transform="translate(-69.343 -33.41)" fill="#263238"/>
      <rect id="Rectángulo_43940" data-name="Rectángulo 43940" width="65.081" height="7.704" rx="3.852" transform="translate(45.141 53.185)" fill="#e0e0e0"/>
      <rect id="Rectángulo_43941" data-name="Rectángulo 43941" width="17.845" height="17.845" rx="5.14" transform="translate(20.275 48.589)" fill="#20cb7d"/>
      <path id="Trazado_251460" data-name="Trazado 251460" d="M108.84,129.235l1.8-1.8,3.464,3.085,5.791-5.814,1.668,1.8-7.715,7.482Z" transform="translate(-85.807 -71.467)" fill="#fff"/>
      <rect id="Rectángulo_43942" data-name="Rectángulo 43942" width="65.081" height="7.704" rx="3.852" transform="translate(45.141 80.868)" fill="#e0e0e0"/>
      <rect id="Rectángulo_43943" data-name="Rectángulo 43943" width="17.845" height="17.845" rx="5.14" transform="translate(20.275 76.278)" fill="#20cb7d"/>
      <path id="Trazado_251461" data-name="Trazado 251461" d="M108.84,176.715l1.8-1.8L114.106,178l5.791-5.808,1.668,1.8-7.715,7.482Z" transform="translate(-85.807 -91.258)" fill="#fff"/>
      <rect id="Rectángulo_43944" data-name="Rectángulo 43944" width="65.081" height="7.704" rx="3.852" transform="translate(45.141 108.556)" fill="#e0e0e0"/>
      <rect id="Rectángulo_43945" data-name="Rectángulo 43945" width="17.845" height="17.845" rx="5.14" transform="translate(20.275 103.961)" fill="#20cb7d"/>
      <path id="Trazado_251462" data-name="Trazado 251462" d="M108.84,224.185l1.8-1.8,3.464,3.085,5.791-5.814,1.668,1.8-7.715,7.482Z" transform="translate(-85.807 -111.045)" fill="#fff"/>
      <rect id="Rectángulo_43946" data-name="Rectángulo 43946" width="65.081" height="7.704" rx="3.852" transform="translate(45.141 136.239)" fill="#e0e0e0"/>
      <rect id="Rectángulo_43947" data-name="Rectángulo 43947" width="17.845" height="17.845" rx="5.14" transform="translate(20.275 131.65)" fill="#20cb7d"/>
      <path id="Trazado_251463" data-name="Trazado 251463" d="M108.84,271.661l1.8-1.8,3.464,3.079,5.791-5.814,1.668,1.8-7.715,7.482Z" transform="translate(-85.807 -130.832)" fill="#fff"/>
      <path id="Trazado_251464" data-name="Trazado 251464" d="M128.354,80.529h-2.811l-.525,1.295H123.1l2.916-6.654h1.854l2.945,6.654h-1.942Zm-.548-1.376-.857-2.134-.857,2.134Z" transform="translate(-91.751 -50.817)" fill="#263238"/>
      <path id="Trazado_251465" data-name="Trazado 251465" d="M137.28,75.17h3.143c2.2,0,3.715,1.283,3.715,3.33s-1.51,3.324-3.715,3.324H137.28Zm3.067,5.149a1.825,1.825,0,1,0,0-3.651h-1.166v3.651Z" transform="translate(-97.661 -50.817)" fill="#263238"/>
      <path id="Trazado_251466" data-name="Trazado 251466" d="M156.535,75.17l-2.869,6.654h-1.854L149,75.17h2.029l1.808,4.333,1.843-4.333Z" transform="translate(-102.547 -50.817)" fill="#263238"/>
      <path id="Trazado_251467" data-name="Trazado 251467" d="M166.076,80.529h-2.823l-.519,1.295H160.81l2.916-6.654h1.86l2.945,6.654h-1.959Zm-.583-1.382-.857-2.134-.8,2.14Z" transform="translate(-107.47 -50.817)" fill="#263238"/>
      <path id="Trazado_251468" data-name="Trazado 251468" d="M181.327,75.17v6.654h-1.545l-2.916-3.546v3.546H175V75.17h1.551l2.916,3.546V75.17Z" transform="translate(-113.384 -50.817)" fill="#263238"/>
      <path id="Trazado_251469" data-name="Trazado 251469" d="M189.1,76.663H187.06V75.17h5.96v1.493h-2.035v5.161H189.1Z" transform="translate(-118.411 -50.817)" fill="#263238"/>
      <path id="Trazado_251470" data-name="Trazado 251470" d="M201.794,80.529h-2.811l-.525,1.295H196.54l2.916-6.654h1.854l2.945,6.654H202.3Zm-.548-1.376-.857-2.134-.851,2.134Z" transform="translate(-122.363 -50.817)" fill="#263238"/>
      <path id="Trazado_251471" data-name="Trazado 251471" d="M214.769,78.279h1.662v2.758a4.986,4.986,0,0,1-2.793.846A3.452,3.452,0,1,1,213.673,75a3.633,3.633,0,0,1,2.916,1.213l-1.2,1.085a2.082,2.082,0,0,0-1.615-.741,1.9,1.9,0,0,0,0,3.8,2.4,2.4,0,0,0,1.021-.222Z" transform="translate(-127.961 -50.742)" fill="#263238"/>
      <path id="Trazado_251472" data-name="Trazado 251472" d="M228.442,80.372v1.452H223.1V75.17h5.249v1.458h-3.382v1.12h2.951v1.405h-2.951v1.219Z" transform="translate(-133.434 -50.817)" fill="#263238"/>
      <path id="Trazado_251473" data-name="Trazado 251473" d="M233.25,81.131l.618-1.382a4.245,4.245,0,0,0,2.2.653c.776,0,1.085-.222,1.085-.542,0-1.056-3.785-.286-3.785-2.758,0-1.166.968-2.152,2.945-2.152a4.992,4.992,0,0,1,2.414.583l-.583,1.394a4,4,0,0,0-1.849-.513c-.787,0-1.073.268-1.073.583,0,1.021,3.773.257,3.773,2.712,0,1.166-.968,2.146-2.945,2.146A5.248,5.248,0,0,1,233.25,81.131Z" transform="translate(-137.665 -50.725)" fill="#263238"/>
    </g>
    <g id="freepik--Character--inject-206" transform="translate(324.128 6167.619)">
      <path id="Trazado_251474" data-name="Trazado 251474" d="M323.086,433.744l-.5,13.162s13.209,4.934,13.36,7.371l-25.566-.052-.058-20.545Z" transform="translate(-279.226 -210.269)" fill="#263238"/>
      <path id="Trazado_251475" data-name="Trazado 251475" d="M317.273,454.4a1.044,1.044,0,0,0-.723,1.166,1,1,0,0,0,1.166.729,1.1,1.1,0,0,0,.758-1.26,1.044,1.044,0,0,0-1.3-.624" transform="translate(-281.817 -218.889)" fill="#e0e0e0"/>
      <path id="Trazado_251476" data-name="Trazado 251476" d="M310.42,467.43l.076-2.07,24.493.828s1.166.5,1.009,1.295Z" transform="translate(-279.267 -223.474)" fill="#455a64"/>
      <path id="Trazado_251477" data-name="Trazado 251477" d="M330.391,456.06c0,.122-.63.181-1.242.583s-.945.921-1.061.869.076-.77.828-1.236S330.42,455.943,330.391,456.06Z" transform="translate(-286.619 -219.551)" fill="#fff"/>
      <path id="Trazado_251478" data-name="Trazado 251478" d="M335.435,458.015c.029.122-.507.332-.933.857s-.548,1.091-.676,1.085-.2-.711.338-1.359S335.435,457.9,335.435,458.015Z" transform="translate(-288.985 -220.392)" fill="#fff"/>
      <path id="Trazado_251479" data-name="Trazado 251479" d="M339.145,462.022c-.111,0-.286-.583.041-1.283s.9-.951.956-.846-.309.466-.583,1.032S339.273,462.01,339.145,462.022Z" transform="translate(-291.179 -221.186)" fill="#fff"/>
      <path id="Trazado_251480" data-name="Trazado 251480" d="M329.79,450.7c-.052.117-.63-.058-1.335,0s-1.254.268-1.318.163.467-.583,1.295-.583S329.848,450.589,329.79,450.7Z" transform="translate(-286.233 -217.188)" fill="#fff"/>
      <path id="Trazado_251481" data-name="Trazado 251481" d="M269.895,430.71l-1.382,15.915,2.525,12.83a1.633,1.633,0,0,1-1.4,1.936h0a1.621,1.621,0,0,1-1.405-.513c-2.274-2.484-10.614-11.663-10.444-12.83.192-1.341.35-16.848.35-16.848Z" transform="translate(-257.328 -209.031)" fill="#263238"/>
      <path id="Trazado_251482" data-name="Trazado 251482" d="M269.653,473.044l-11.78-14.4-.047.676a2.49,2.49,0,0,0,.478,1.627c.939,1.248,3.592,4.665,9.914,11.587a1.639,1.639,0,0,0,1.452.513Z" transform="translate(-257.343 -220.673)" fill="#455a64"/>
      <g id="Grupo_145410" data-name="Grupo 145410" transform="translate(2.647 232.86)" opacity="0.6">
        <path id="Trazado_251483" data-name="Trazado 251483" d="M263.015,450.068a.991.991,0,0,1,.187,1.306.956.956,0,0,1-1.295.2,1.05,1.05,0,0,1-.187-1.388.986.986,0,0,1,1.365-.052" transform="translate(-261.539 -449.883)" fill="#fff"/>
      </g>
      <path id="Trazado_251484" data-name="Trazado 251484" d="M272.632,469.792a5.049,5.049,0,0,1,1.475-1.166,4.817,4.817,0,0,1,1.854-.233c0-.041-.181-.175-.548-.251a2.589,2.589,0,0,0-2.572,1.067C272.632,469.559,272.6,469.792,272.632,469.792Z" transform="translate(-263.511 -224.617)" fill="#fff"/>
      <path id="Trazado_251485" data-name="Trazado 251485" d="M274.344,474.071a14.261,14.261,0,0,1,1.452-.583,14.491,14.491,0,0,1,1.569-.1,1.819,1.819,0,0,0-1.645-.239C274.764,473.354,274.262,474.025,274.344,474.071Z" transform="translate(-264.226 -226.68)" fill="#fff"/>
      <path id="Trazado_251486" data-name="Trazado 251486" d="M269.33,464.933a15.653,15.653,0,0,1,2.175-1.067,20.4,20.4,0,0,1,2.4-.4,3.464,3.464,0,0,0-2.5.064,3.6,3.6,0,0,0-2.07,1.4Z" transform="translate(-262.14 -222.61)" fill="#fff"/>
      <path id="Trazado_251487" data-name="Trazado 251487" d="M269.36,457.39c.035.1.933-.21,2.082-.181s2.035.367,2.076.268a4.053,4.053,0,0,0-4.158-.087Z" transform="translate(-262.152 -219.931)" fill="#fff"/>
      <path id="Trazado_251488" data-name="Trazado 251488" d="M269.849,449.321a7.832,7.832,0,0,1,2.164-.245,8.03,8.03,0,0,1,2.076.665c.058-.087-.134-.245-.484-.478a3.534,3.534,0,0,0-1.557-.536,3.459,3.459,0,0,0-1.627.222C270.024,449.111,269.825,449.286,269.849,449.321Z" transform="translate(-262.355 -216.533)" fill="#fff"/>
      <path id="Trazado_251489" data-name="Trazado 251489" d="M272.109,445.524a1.329,1.329,0,0,0,.064-.583,4.2,4.2,0,0,0-.379-1.6,1.854,1.854,0,0,0-.741-.939.665.665,0,0,0-.746.1,1.085,1.085,0,0,0-.3.706,2.333,2.333,0,0,0,1.884,2.257,2.677,2.677,0,0,0,2.712-1.225.927.927,0,0,0,.093-.77.642.642,0,0,0-.647-.385,2.274,2.274,0,0,0-1.085.478,4.624,4.624,0,0,0-1.166,1.166,1.435,1.435,0,0,0-.28.531,7.583,7.583,0,0,1,1.586-1.493,2.064,2.064,0,0,1,.951-.391.338.338,0,0,1,.356.2.647.647,0,0,1-.087.5,2.391,2.391,0,0,1-2.368,1.038,2.006,2.006,0,0,1-1.627-1.9.776.776,0,0,1,.187-.5.35.35,0,0,1,.414-.064,1.691,1.691,0,0,1,.641.781A6.1,6.1,0,0,1,272.109,445.524Z" transform="translate(-262.423 -213.873)" fill="#fff"/>
      <path id="Trazado_251490" data-name="Trazado 251490" d="M313.171,240.944a56.428,56.428,0,0,1,1.236,16.638c-.257,3.546-12.211,101.413-12.211,101.413H286.077l4.531-91.983-1.318.286s-8.8,39.23-9.517,45.58c-.641,5.709-8.065,47.19-8.065,47.19L257,360.219l4.665-54.818,5.476-52.642,2.105-15.349Z" transform="translate(-257 -128.457)" fill="#263238"/>
      <path id="Trazado_251491" data-name="Trazado 251491" d="M313.63,268.762a.549.549,0,0,0,.1.111,1.061,1.061,0,0,0,.391.181,1.831,1.831,0,0,0,1.528-.362,2.992,2.992,0,0,0,1.044-2.082c.117-.875.134-1.814.2-2.811.111-1.994.192-3.8.233-5.1a15.1,15.1,0,0,0,0-2.117,13.493,13.493,0,0,0-.227,2.105c-.1,1.306-.216,3.1-.327,5.1-.064.991-.076,1.954-.169,2.788a2.863,2.863,0,0,1-.892,1.948,1.779,1.779,0,0,1-1.365.42A2.917,2.917,0,0,1,313.63,268.762Z" transform="translate(-280.605 -136.447)" fill="#455a64"/>
      <path id="Trazado_251492" data-name="Trazado 251492" d="M273,258.222a1.359,1.359,0,0,0,.449.163,7.366,7.366,0,0,0,1.289.216,9.278,9.278,0,0,0,7.756-3.114,8.036,8.036,0,0,0,.781-1.05A1.563,1.563,0,0,0,283.5,254c-.047,0-.408.548-1.166,1.33a9.914,9.914,0,0,1-7.581,3.044C273.653,258.339,273,258.17,273,258.222Z" transform="translate(-263.669 -135.372)" fill="#455a64"/>
      <path id="Trazado_251493" data-name="Trazado 251493" d="M342.31,254.22a5.166,5.166,0,0,0,.245,1.615,12.077,12.077,0,0,0,4.315,6.5,5.359,5.359,0,0,0,1.4.857,17.42,17.42,0,0,1-3.831-3.919A18.981,18.981,0,0,1,342.31,254.22Z" transform="translate(-292.56 -135.463)" fill="#455a64"/>
      <path id="Trazado_251494" data-name="Trazado 251494" d="M425.423,204.918l3.7,1.166,6.718-3.715,3.814,10.619-9.144,2.175-6.928-.764Z" transform="translate(-326.436 -113.851)" fill="#ae7461"/>
      <path id="Trazado_251495" data-name="Trazado 251495" d="M353,133.64s3.779,2.269,6.911,9.978c6.147,15.162,10.013,23.327,10.013,23.327l28.2,8.893-2.257,11.313s-28.61-3.989-32.442-5.423c-5.248-1.965-9.132-12.3-9.132-12.3Z" transform="translate(-297.016 -85.202)" fill="#e0e0e0"/>
      <path id="Trazado_251496" data-name="Trazado 251496" d="M328.086,65.048a2.98,2.98,0,0,0,.968-5.832,3.1,3.1,0,0,0-2.962-5.079,3.709,3.709,0,0,0-5.738-2.753,4.175,4.175,0,0,0-5.132.157,2.962,2.962,0,0,0-2.333,5.155" transform="translate(-279.881 -50.579)" fill="#263238"/>
      <path id="Trazado_251497" data-name="Trazado 251497" d="M309.965,57.278h.653a12.626,12.626,0,0,1,13.156,10.975c.793,6.077,1.592,12.795,1.714,16.066.257,6.776-6.467,8.164-6.467,8.164l.98,8.106-16.463.309-2.916-29.438C299.66,64.434,302.938,58.042,309.965,57.278Z" transform="translate(-275.115 -53.365)" fill="#ae7461"/>
      <path id="Trazado_251498" data-name="Trazado 251498" d="M325.975,116.058A16.468,16.468,0,0,1,317,113.9s2.333,4.77,9.057,3.826Z" transform="translate(-282.01 -76.974)" fill="#6f4439"/>
      <path id="Trazado_251499" data-name="Trazado 251499" d="M334.9,86.189a.962.962,0,0,1-.881,1.021A.927.927,0,0,1,333,86.387a.974.974,0,0,1,.886-1.021.921.921,0,0,1,1.015.822Z" transform="translate(-288.678 -65.077)" fill="#263238"/>
      <path id="Trazado_251500" data-name="Trazado 251500" d="M335.469,81.209c-.117.134-.875-.373-1.919-.321s-1.749.612-1.9.5.052-.292.373-.548a2.659,2.659,0,0,1,1.51-.548,2.572,2.572,0,0,1,1.534.408C335.4,80.929,335.522,81.15,335.469,81.209Z" transform="translate(-288.099 -62.961)" fill="#263238"/>
      <path id="Trazado_251501" data-name="Trazado 251501" d="M318.615,86.643a.962.962,0,0,1-.9,1.032.921.921,0,0,1-1.038-.822.968.968,0,0,1,.881-1.021.921.921,0,0,1,1.056.811Z" transform="translate(-281.875 -65.27)" fill="#263238"/>
      <path id="Trazado_251502" data-name="Trazado 251502" d="M317.946,82.415c-.117.128-.875-.379-1.913-.321a13.8,13.8,0,0,0-1.9.49c-.122-.093.052-.286.373-.548a2.659,2.659,0,0,1,1.51-.548,2.554,2.554,0,0,1,1.534.414C317.882,82.129,318,82.368,317.946,82.415Z" transform="translate(-280.798 -63.461)" fill="#263238"/>
      <path id="Trazado_251503" data-name="Trazado 251503" d="M327.177,89.818a7,7,0,0,1,1.68-.391c.262-.041.513-.1.548-.286a1.394,1.394,0,0,0-.216-.781c-.286-.63-.583-1.295-.886-1.983a34.507,34.507,0,0,1-2.029-5.208,34.924,34.924,0,0,1,2.443,5.033c.3.694.583,1.359.851,1.994a1.54,1.54,0,0,1,.192,1.038.659.659,0,0,1-.42.408,1.784,1.784,0,0,1-.449.087A6.736,6.736,0,0,1,327.177,89.818Z" transform="translate(-285.871 -63.33)" fill="#263238"/>
      <path id="Trazado_251504" data-name="Trazado 251504" d="M318.858,75.438c-.128.274-1.032.029-2.134.047s-2.012.251-2.129,0c-.047-.128.134-.379.519-.583a3.306,3.306,0,0,1,1.633-.432,3.184,3.184,0,0,1,1.61.408C318.735,75.065,318.91,75.309,318.858,75.438Z" transform="translate(-281.005 -60.537)" fill="#263238"/>
      <path id="Trazado_251505" data-name="Trazado 251505" d="M334.957,73.811c-.21.245-1.079.041-2.117.082s-1.9.257-2.111,0c-.093-.117.029-.362.4-.583a3.335,3.335,0,0,1,1.7-.472,3.277,3.277,0,0,1,1.709.391C334.887,73.45,335.015,73.689,334.957,73.811Z" transform="translate(-287.72 -59.856)" fill="#263238"/>
      <path id="Trazado_251506" data-name="Trazado 251506" d="M321.8,64.518s-2-4.152-4.082-5.039c-2.537-1.073-3.464,1.7-5.832,1.166s-4.817-1.575-7.138.367c-2.537,2.129-1.23,3.464-1.248,6.479-.052,12.217-2.105,15.775-3.027,10.065-.1-.624-1.872-1.038-2.263-3.68-.5-3.429-.846-7.581-.2-10.089a9.662,9.662,0,0,1,3.68-5.248c3.2-2.642,7.768-2.916,10.888-2.764S321.821,59.194,321.8,64.518Z" transform="translate(-273.949 -52.732)" fill="#263238"/>
      <path id="Trazado_251507" data-name="Trazado 251507" d="M299.935,91.572a1.843,1.843,0,0,0-2.076-1.674c-1.26.181-2.624.968-2.414,3.575.379,4.625,4.939,3.289,4.939,3.161S300.11,93.5,299.935,91.572Z" transform="translate(-273.016 -66.962)" fill="#ae7461"/>
      <path id="Trazado_251508" data-name="Trazado 251508" d="M300.429,96.048a1.625,1.625,0,0,1-.2.14.822.822,0,0,1-.583.058,2,2,0,0,1-1.073-1.709,2.659,2.659,0,0,1,.134-1.166.939.939,0,0,1,.554-.671.42.42,0,0,1,.5.181c.07.128.047.222.076.227s.093-.087.041-.274a.559.559,0,0,0-.665-.356,1.131,1.131,0,0,0-.781.787,2.758,2.758,0,0,0-.175,1.312,2.112,2.112,0,0,0,1.341,1.9.846.846,0,0,0,.723-.187A.377.377,0,0,0,300.429,96.048Z" transform="translate(-274.187 -68.038)" fill="#6f4439"/>
      <path id="Trazado_251509" data-name="Trazado 251509" d="M299.236,67.246a4.386,4.386,0,0,0,2.012.8,1.51,1.51,0,0,0,1.621-1.166c.041-.327-.058-.694.14-.956s.711-.239,1.1-.216c1.353.076,2.852-1.493,3.126-2.817a1.213,1.213,0,0,0,1.633.251,4.322,4.322,0,0,0,1.067-1.044,1.913,1.913,0,0,1,1.551-.875,4.449,4.449,0,0,0,1.015.169c.583-.082.869-.811.933-1.417s.1-1.318.583-1.668a2.3,2.3,0,0,1,1.656-.128c.566.058,1.277-.111,1.394-.671a1.079,1.079,0,0,0-.251-.828,3,3,0,0,0-3.592-.956,4.082,4.082,0,0,0-7.505-.373,4.135,4.135,0,0,0-6.52,1.831,3,3,0,0,0-3.155,4.52,2.828,2.828,0,0,0-1.446,2.333,1.616,1.616,0,0,0,1.924,1.569A1.664,1.664,0,1,0,299.5,67.1" transform="translate(-272.673 -51.61)" fill="#263238"/>
      <path id="Trazado_251510" data-name="Trazado 251510" d="M313.961,60v.338a3.026,3.026,0,0,1-.292.9,3.319,3.319,0,0,1-.974,1.166,3.073,3.073,0,0,1-1.872.636l.076-.128a1.691,1.691,0,0,1-.029,1.283,5.02,5.02,0,0,1-.735,1.166,3.569,3.569,0,0,1-.5.583,1.586,1.586,0,0,1-.717.309,1.691,1.691,0,0,1-1.516-.461l.169-.058a3.464,3.464,0,0,1-1.341,2.455,2.554,2.554,0,0,1-1.5.583,4.584,4.584,0,0,1-1.51-.251l.117-.064a3.633,3.633,0,0,1-1.044,1.452,1.954,1.954,0,0,1-1.592.519,2.554,2.554,0,0,1-2.053-1.878l.1.047a2.368,2.368,0,0,1-1.575.309,2.578,2.578,0,0,1-1.137-.437,2.275,2.275,0,0,1-.548-.542.944.944,0,0,1-.128-.233,2.858,2.858,0,0,0,.723.711,2.479,2.479,0,0,0,1.1.391,2.245,2.245,0,0,0,1.487-.321l.088-.052v.1a2.408,2.408,0,0,0,1.948,1.75,1.75,1.75,0,0,0,1.446-.49,3.5,3.5,0,0,0,.962-1.405l.029-.087h.093a4.333,4.333,0,0,0,1.446.245A2.333,2.333,0,0,0,306.077,68a3.266,3.266,0,0,0,1.277-2.333v-.216l.157.157a1.493,1.493,0,0,0,1.335.408,1.435,1.435,0,0,0,.641-.268,3.371,3.371,0,0,0,.461-.525,4.6,4.6,0,0,0,.723-1.126,1.493,1.493,0,0,0,.041-1.166l-.041-.111h.117a2.962,2.962,0,0,0,1.8-.583,3.3,3.3,0,0,0,1-1.073A3.569,3.569,0,0,0,313.961,60Z" transform="translate(-272.994 -54.506)" fill="#455a64"/>
      <path id="Trazado_251511" data-name="Trazado 251511" d="M325.076,100.273c-.035-.175-1.166.122-2.216-.63s-1.248-1.989-1.405-1.954-.152.321-.029.834a2.916,2.916,0,0,0,1.108,1.645,2.531,2.531,0,0,0,1.837.461C324.854,100.547,325.1,100.349,325.076,100.273Z" transform="translate(-283.817 -70.216)" fill="#263238"/>
      <path id="Trazado_251512" data-name="Trazado 251512" d="M327.132,156.386c-.1-.367-6.135-16.778-8.054-20.37-2.3-4.3-7.144-6.2-10.147-6.415S273.8,131.98,273.8,131.98s-9.6,2.146-10.824,10.4c-1.411,9.506-2.642,31.264-2.642,31.264l14.626-7.5,1.9-4.77,30.266,6.753,7.389-10.894Z" transform="translate(-258.388 -83.513)" fill="#e0e0e0"/>
      <path id="Trazado_251513" data-name="Trazado 251513" d="M278.121,127.516l12.55-5.534,1.405-5.412,14.655,6.928L309.8,120.1l1.289,3.826,3.207,1.05,7.505,13.2V166.3l1.516,24.26-1.65,3.826-13.442,1.983a15.255,15.255,0,0,1-4.432,0l-27.292-4.45-.7-8.03,2.916-22.1Z" transform="translate(-264.836 -78.086)" fill="#e0e0e0"/>
      <path id="Trazado_251514" data-name="Trazado 251514" d="M302.772,116.57a36.339,36.339,0,0,1,5.832,2.718c4.123,2.2,8.806,4.21,8.806,4.21l-.356,6.613-15.594-7.826" transform="translate(-275.532 -78.086)" fill="#e0e0e0"/>
      <path id="Trazado_251515" data-name="Trazado 251515" d="M331.907,122.63l-3.067,3.394,1.639,7.091,2.735-6.409" transform="translate(-286.945 -80.612)" fill="#e0e0e0"/>
      <g id="Grupo_145411" data-name="Grupo 145411" transform="translate(27.31 44.858)" opacity="0.3">
        <path id="Trazado_251516" data-name="Trazado 251516" d="M318.473,128.783c.134.1.986,8.164.986,8.164L303.83,127.5l14.229,7.144Z" transform="translate(-303.83 -127.5)"/>
      </g>
      <path id="Trazado_251517" data-name="Trazado 251517" d="M328.733,165.5c-.239-6.182.735-21.95.735-21.95l2.041-.332a230.769,230.769,0,0,1,5.248,34.121c.583,7.581.583,16.416.583,16.416l-4.082,8.782-4.525-8.747S329.019,173.02,328.733,165.5Z" transform="translate(-286.885 -89.195)" fill="#455a64"/>
      <path id="Trazado_251518" data-name="Trazado 251518" d="M278.179,137c-.029.029.42.379,1.056,1.032a12.888,12.888,0,0,1,3.312,6.164c.192.886.239,1.452.274,1.446a1.231,1.231,0,0,0,0-.4,8.465,8.465,0,0,0-.134-1.079,11.413,11.413,0,0,0-1.166-3.388,11.541,11.541,0,0,0-2.169-2.858,7.676,7.676,0,0,0-.828-.7,1.794,1.794,0,0,0-.344-.222Z" transform="translate(-265.828 -86.602)" fill="#263238"/>
      <path id="Trazado_251519" data-name="Trazado 251519" d="M328.539,133.482l1.394-.542,1.324,2.269.239,3.726-1.866.3-1.4-2.3Z" transform="translate(-286.691 -84.91)" fill="#455a64"/>
      <path id="Trazado_251520" data-name="Trazado 251520" d="M354.561,152.89c-.058,0-.111,8.071-.111,18.02s.052,18.026.111,18.026.111-8.065.111-18.026S354.619,152.89,354.561,152.89Z" transform="translate(-297.621 -93.226)" fill="#263238"/>
      <path id="Trazado_251521" data-name="Trazado 251521" d="M328.59,128.349a15.624,15.624,0,0,0,.793,1.347,37.32,37.32,0,0,1,1.749,3.324c.052.111.1.216.152.321l.1.21.1-.21a25.706,25.706,0,0,0,1.3-3.307c.134-.426.233-.776.292-1.021a1.056,1.056,0,0,0,.07-.385c-.029,0-.192.519-.5,1.359a35.022,35.022,0,0,1-1.359,3.26h.2l-.152-.321a27.767,27.767,0,0,0-1.837-3.312c-.268-.4-.5-.723-.659-.945S328.6,128.338,328.59,128.349Z" transform="translate(-286.841 -82.996)" fill="#263238"/>
      <path id="Trazado_251522" data-name="Trazado 251522" d="M301.3,125.85a1.126,1.126,0,0,0,.216.128l.63.332,2.333,1.207c1.965,1.021,4.665,2.478,7.639,4.082,1.814.968,3.534,1.866,5.033,2.613l.14.07V134.1c0-1.942.035-3.575.047-4.759V128a3.339,3.339,0,0,0,0-.478,2.778,2.778,0,0,0-.041.478c0,.332-.029.781-.052,1.335-.029,1.166-.07,2.823-.122,4.759l.14-.082c-1.487-.764-3.2-1.668-5.021-2.636-2.98-1.592-5.686-3.027-7.669-4.018-.991-.49-1.8-.881-2.362-1.166l-.653-.292A.892.892,0,0,0,301.3,125.85Z" transform="translate(-275.466 -81.955)" fill="#263238"/>
      <path id="Trazado_251523" data-name="Trazado 251523" d="M351.408,134.6c-.035,0,.21.432.531,1.166a13.172,13.172,0,0,1,.892,2.875,12.975,12.975,0,0,1,.187,3.009c-.041.776-.122,1.248-.087,1.254a1.166,1.166,0,0,0,.1-.327,8.466,8.466,0,0,0,.14-.916,10.829,10.829,0,0,0-1.1-5.96,6.472,6.472,0,0,0-.461-.8C351.489,134.687,351.419,134.588,351.408,134.6Z" transform="translate(-296.351 -85.601)" fill="#263238"/>
      <path id="Trazado_251524" data-name="Trazado 251524" d="M331.218,143.487a1.964,1.964,0,0,0,.787-.373c.4-.257.711-.5.677-.554a1.925,1.925,0,0,0-.793.373C331.486,143.19,331.183,143.435,331.218,143.487Z" transform="translate(-287.935 -88.92)" fill="#263238"/>
      <path id="Trazado_251525" data-name="Trazado 251525" d="M330.07,139.843a10.553,10.553,0,0,0,.945-1.889,10.961,10.961,0,0,0,.764-1.954,9.752,9.752,0,0,0-.951,1.884,10.136,10.136,0,0,0-.758,1.959Z" transform="translate(-287.458 -86.186)" fill="#263238"/>
      <path id="Trazado_251526" data-name="Trazado 251526" d="M268.648,137.72s-4.834,3.5-5.441,5.406-3.172,33.176-3.627,36.9-.91,10.666,1.965,12.935,9.068,3.971,9.068,3.971l5.721-11.809-3.032-6.351,3.032-23.735Z" transform="translate(-257.935 -86.902)" fill="#e0e0e0"/>
      <path id="Trazado_251527" data-name="Trazado 251527" d="M276.37,208.222a1.587,1.587,0,0,1,.309,0,7.487,7.487,0,0,0,.892-.058,6.5,6.5,0,0,0,3.091-1.12,8.427,8.427,0,0,0,2.951-4.036,18.341,18.341,0,0,0,1.12-6.362l.029.082-4.444-6.152-.035-.047v-.058a3.939,3.939,0,0,1,.064-.5c.851-6.654,1.627-12.684,2.193-17.075.28-2.164.507-3.925.671-5.173.076-.583.134-1.061.181-1.411s.064-.49.07-.49a.279.279,0,0,1,0,.128v.367c-.035.35-.076.822-.128,1.417-.122,1.225-.321,3-.583,5.184-.513,4.38-1.254,10.421-2.105,17.093a3.386,3.386,0,0,1-.064.5v-.1l4.426,6.158v.082a18.5,18.5,0,0,1-1.166,6.456,8.567,8.567,0,0,1-3.079,4.082,5.832,5.832,0,0,1-1.749.811l-.4.111-.373.064a3.942,3.942,0,0,1-.653.076,5.247,5.247,0,0,1-.9,0A1.587,1.587,0,0,1,276.37,208.222Z" transform="translate(-265.074 -98.616)" fill="#263238"/>
      <path id="Trazado_251528" data-name="Trazado 251528" d="M266.333,210.115a4.922,4.922,0,0,1,1.271-.9,11.862,11.862,0,0,1,7.272-1.417,5.068,5.068,0,0,1,1.516.362,14.521,14.521,0,0,0-10.083,1.959Z" transform="translate(-260.881 -116.073)" fill="#263238"/>
      <path id="Trazado_251529" data-name="Trazado 251529" d="M313.8,131.288h0s.28,1.038.717,2.869a13.04,13.04,0,0,1,3.732-3.569h0s7.465-7.418,9.85-15.215a37.324,37.324,0,0,0,1.3-11.937c-.07-.3-.653-2.957-1.126-5.132a3.4,3.4,0,0,1,2.461-4.012c3.691-1,13.728-2.939,16.06,3.791,3.435,10.06-2.123,20.924-2.059,24.032v1.452c2.945-.682,5.249-1.166,5.249-1.12h0l19.326-4.508s6.386-1.936,8.578,4.613-5.249,8.747-5.249,8.747,3.5-.157,4.444,5.8-5.441,7.884-5.441,7.884,3.913-.251,4.928,5.027c.986,5.138-5.4,8.234-5.744,8.4a13.482,13.482,0,0,1,1.54-.292,8.7,8.7,0,0,1-1.166.338c2.98.379,3.411,3.925,3.411,3.925,1.919,7.272-3.68,8.8-3.68,8.8l-35.3,8.234A20.306,20.306,0,0,1,325,179.026c.338,1.5.519,2.333.507,2.333h0l-24.65,5.756c-.052,0-2.712-11.191-5.942-25.012s-5.8-25.076-5.75-25.076Z" transform="translate(-270.405 -68.364)" fill="#20cb7d"/>
      <g id="Grupo_145412" data-name="Grupo 145412" transform="translate(18.754 24.882)" opacity="0.3">
        <path id="Trazado_251530" data-name="Trazado 251530" d="M313.8,131.288h0s.28,1.038.717,2.869a13.04,13.04,0,0,1,3.732-3.569h0s7.465-7.418,9.85-15.215a37.324,37.324,0,0,0,1.3-11.937c-.07-.3-.653-2.957-1.126-5.132a3.4,3.4,0,0,1,2.461-4.012c3.691-1,13.728-2.939,16.06,3.791,3.435,10.06-2.123,20.924-2.059,24.032v1.452c2.945-.682,5.249-1.166,5.249-1.12h0l19.326-4.508s6.386-1.936,8.578,4.613-5.249,8.747-5.249,8.747,3.5-.157,4.444,5.8-5.441,7.884-5.441,7.884,3.913-.251,4.928,5.027c.986,5.138-5.4,8.234-5.744,8.4a13.482,13.482,0,0,1,1.54-.292,8.7,8.7,0,0,1-1.166.338c2.98.379,3.411,3.925,3.411,3.925,1.919,7.272-3.68,8.8-3.68,8.8l-35.3,8.234A20.306,20.306,0,0,1,325,179.026c.338,1.5.519,2.333.507,2.333h0l-24.65,5.756c-.052,0-2.712-11.191-5.942-25.012s-5.8-25.076-5.75-25.076Z" transform="translate(-289.159 -93.246)"/>
      </g>
      <path id="Trazado_251531" data-name="Trazado 251531" d="M339.248,154.831l-.478,3.207,7.884,33.736h0a20.306,20.306,0,0,0,15.856,2.857l35.293-8.24s5.6-1.528,3.68-8.8c0,0-.461-3.861-3.791-3.966,0,0,6.765-3.126,5.756-8.4s-4.922-5.021-4.922-5.021,6.386-1.936,5.435-7.89-4.444-5.8-4.444-5.8,7.435-2.175,5.249-8.747-8.578-4.613-8.578-4.613l-25.076,5.832-22,5.138A12.906,12.906,0,0,0,339.248,154.831Z" transform="translate(-291.085 -84.886)" fill="#20cb7d"/>
      <path id="Trazado_251532" data-name="Trazado 251532" d="M349.65,128.964s7.465-7.418,9.85-15.215a37.293,37.293,0,0,0,1.3-11.932c-.07-.3-.653-2.962-1.125-5.138a3.4,3.4,0,0,1,2.461-4.012c3.709-1,10.4.84,12.7,7.581,3.435,10.054,1.23,17.128,1.289,20.236l.058,3.108Z" transform="translate(-295.62 -68.017)" fill="#20cb7d"/>
      <rect id="Rectángulo_43948" data-name="Rectángulo 43948" width="25.309" height="51.424" transform="translate(24.957 67.379) rotate(-13.15)" fill="#20cb7d"/>
      <path id="Trazado_251533" data-name="Trazado 251533" d="M353.752,206.344c.052,0-2.519-11.232-5.75-25.076s-5.89-25.029-5.942-25.018,2.519,11.232,5.75,25.076S353.688,206.356,353.752,206.344Z" transform="translate(-292.455 -94.626)" fill="#263238"/>
      <path id="Trazado_251534" data-name="Trazado 251534" d="M311.488,216.194c.052,0-2.525-11.232-5.756-25.076s-5.89-25.029-5.942-25.018,2.519,11.232,5.75,25.076S311.429,216.194,311.488,216.194Z" transform="translate(-274.836 -98.732)" fill="#263238"/>
      <path id="Trazado_251535" data-name="Trazado 251535" d="M325.048,176.8a4.735,4.735,0,1,1-5.692-3.534A4.735,4.735,0,0,1,325.048,176.8Z" transform="translate(-281.469 -101.669)" fill="#fff"/>
      <path id="Trazado_251536" data-name="Trazado 251536" d="M395.5,141.118c0-.052-2.712.531-6.024,1.306s-5.995,1.44-5.983,1.493,2.712-.531,6.024-1.3S395.509,141.17,395.5,141.118Z" transform="translate(-309.725 -88.317)" fill="#263238"/>
      <path id="Trazado_251537" data-name="Trazado 251537" d="M436.686,179.926c0-.052-1.749.309-3.861.8a37.322,37.322,0,0,0-3.826.991c0,.052,1.75-.309,3.861-.8A39.2,39.2,0,0,0,436.686,179.926Z" transform="translate(-328.695 -104.493)" fill="#263238"/>
      <path id="Trazado_251538" data-name="Trazado 251538" d="M435.934,155.847c0-.052-2.461.478-5.47,1.166s-5.435,1.312-5.423,1.37,2.461-.478,5.47-1.166A54.935,54.935,0,0,0,435.934,155.847Z" transform="translate(-327.045 -94.457)" fill="#263238"/>
      <path id="Trazado_251539" data-name="Trazado 251539" d="M434.684,202.237c0-.052-2.461.472-5.47,1.166s-5.435,1.312-5.423,1.365,2.461-.472,5.47-1.166S434.7,202.29,434.684,202.237Z" transform="translate(-326.524 -113.794)" fill="#263238"/>
      <g id="Grupo_145413" data-name="Grupo 145413" transform="translate(65.978 26.164)" opacity="0.3">
        <path id="Trazado_251540" data-name="Trazado 251540" d="M370.885,96.41a2.916,2.916,0,0,0-.583,2.916,18.848,18.848,0,0,0,1.347,2.84,10.666,10.666,0,0,1,.828,6.782,2.46,2.46,0,0,0,.1,2.047c.63.781,1.9.35,2.694-.262a10.083,10.083,0,0,0,3.5-10.188,7.091,7.091,0,0,0-2.484-4.006,4.2,4.2,0,0,0-5.453-.146" transform="translate(-370.138 -95.445)" fill="#fff"/>
      </g>
      <g id="Grupo_145414" data-name="Grupo 145414" transform="translate(85.118 49.122)" opacity="0.3">
        <path id="Trazado_251541" data-name="Trazado 251541" d="M425.242,134.852a6.047,6.047,0,0,0-2.607.274l-14.894,3.779c-1.621.414-4.665.781-4.7,2.438h0a1.971,1.971,0,0,0,1.248,2.3,5.248,5.248,0,0,0,2.852.1c1.989-.315,3.954-.781,5.919-1.248a74.48,74.48,0,0,0,11.663-3.5,5.429,5.429,0,0,0,1.563-.881,2.024,2.024,0,0,0,.741-1.58,2.082,2.082,0,0,0-1.784-1.685Z" transform="translate(-402.958 -134.813)" fill="#fff"/>
      </g>
      <path id="Trazado_251542" data-name="Trazado 251542" d="M321.664,161c0-.052-3.5.711-7.715,1.7s-7.68,1.837-7.669,1.889,3.464-.706,7.715-1.7S321.676,161.08,321.664,161Z" transform="translate(-277.542 -96.605)" fill="#fff"/>
      <path id="Trazado_251543" data-name="Trazado 251543" d="M444.742,165.935a.96.96,0,0,0,.093-.292,3.931,3.931,0,0,0,.128-.828,6.125,6.125,0,0,0-.041-1.242,7.14,7.14,0,0,0-.4-1.475,6.787,6.787,0,0,0-.735-1.341,5.833,5.833,0,0,0-.828-.933,4.287,4.287,0,0,0-.665-.507.886.886,0,0,0-.268-.146c0,.035.344.268.84.758a6.374,6.374,0,0,1,.77.933,7.26,7.26,0,0,1,.7,1.306,7.827,7.827,0,0,1,.4,1.429,7.166,7.166,0,0,1,.082,1.213C444.806,165.486,444.7,165.923,444.742,165.935Z" transform="translate(-334.127 -95.844)" fill="#fff"/>
      <path id="Trazado_251544" data-name="Trazado 251544" d="M447.631,143.967a1.819,1.819,0,0,0,.467-.665,3.808,3.808,0,0,0,.362-1.919,3.931,3.931,0,0,0-.583-1.86,1.819,1.819,0,0,0-.548-.583c-.029,0,.187.245.426.671a4.169,4.169,0,0,1,.531,1.8,4.24,4.24,0,0,1-.292,1.849C447.789,143.693,447.6,143.944,447.631,143.967Z" transform="translate(-336.334 -87.411)" fill="#fff"/>
      <path id="Trazado_251545" data-name="Trazado 251545" d="M444.422,191.868a1.994,1.994,0,0,0,.659-.653,3.365,3.365,0,0,0-.257-4.222,1.994,1.994,0,0,0-.735-.583,4.864,4.864,0,0,1,.63.659,3.6,3.6,0,0,1,.781,1.989,3.563,3.563,0,0,1-.537,2.07C444.673,191.612,444.393,191.845,444.422,191.868Z" transform="translate(-334.986 -107.198)" fill="#fff"/>
      <path id="Trazado_251546" data-name="Trazado 251546" d="M440.655,214.4a2.066,2.066,0,0,0,.443-.7,4.415,4.415,0,0,0-.169-3.913,2.058,2.058,0,0,0-.5-.659c-.029,0,.163.268.379.723a4.993,4.993,0,0,1,.466,1.878,4.923,4.923,0,0,1-.3,1.913C440.8,214.116,440.626,214.384,440.655,214.4Z" transform="translate(-333.458 -116.669)" fill="#fff"/>
      <path id="Trazado_251547" data-name="Trazado 251547" d="M391.33,115.909a3.42,3.42,0,0,0,.146-.583c.041-.181.087-.408.128-.676s.093-.583.117-.91a16.619,16.619,0,0,0,.087-2.379,18.212,18.212,0,0,0-1.1-5.721,17.049,17.049,0,0,0-.974-2.175,9.158,9.158,0,0,0-.449-.8c-.134-.216-.262-.426-.373-.583a2.916,2.916,0,0,0-.35-.472,3.539,3.539,0,0,0,.286.513c.1.163.216.362.338.583s.286.5.426.811a19.864,19.864,0,0,1,.921,2.175,21.573,21.573,0,0,1,.764,2.788,22.217,22.217,0,0,1,.332,2.875,19,19,0,0,1-.047,2.333,7.545,7.545,0,0,1-.087.9c-.029.262-.064.5-.093.682a2.861,2.861,0,0,0-.07.636Z" transform="translate(-311.839 -71.851)" fill="#fff"/>
      <path id="Trazado_251548" data-name="Trazado 251548" d="M293.613,226.133a7.875,7.875,0,0,1,3.377-1.563c1.44-.058,3.312.5,3.686.309s1.254-1.009,1.814-.315,1.254,3.19-1.749,3.878h-2.064a10.016,10.016,0,0,0,.752,2.875c.5.811,7.505,9.628,7.505,9.628s.875.881.437,1.749-2.333.373-2.333.373a3.04,3.04,0,0,1-2.811.624,10.41,10.41,0,0,1-2.129-1,2.782,2.782,0,0,1-3.377,0c-1.749-1.312-7.581-8.631-7.581-8.631l2.088-8.164Z" transform="translate(-270.397 -122.988)" fill="#ae7461"/>
      <path id="Trazado_251549" data-name="Trazado 251549" d="M281.184,219.15l6.077,4.84-4.461,7.937-8.9-3.231S274.157,219.319,281.184,219.15Z" transform="translate(-264.044 -120.845)" fill="#ae7461"/>
      <path id="Trazado_251550" data-name="Trazado 251550" d="M446.661,199.32s-.192-2.175-1.411-1.75-1.75,3.009-1.75,3.009Z" transform="translate(-334.74 -111.827)" fill="#ae7461"/>
      <path id="Trazado_251551" data-name="Trazado 251551" d="M441.135,202.727a6.9,6.9,0,0,1,5.056-2.175c2.939.192,1.091,2.688,1.091,2.688a2.111,2.111,0,0,1,.583,3.266l-.257.513s1.854.7-.064,2.683a1.959,1.959,0,0,1-.257,2.245c-.962.956-3.359-.321-3.359-.321s-2.21.513-2.4-.385a1.7,1.7,0,0,1,.513-1.685c.192-.128,1.347-.583,1.347-.583s-2.56.321-2.624-.321-.321-1.347,1.6-1.983l1.026-.274s-2.659.082-2.677-.583-.14-.9.816-1.341a14.7,14.7,0,0,0,1.75-.962S440.756,204.074,441.135,202.727Z" transform="translate(-333.571 -113.088)" fill="#ae7461"/>
      <path id="Trazado_251552" data-name="Trazado 251552" d="M440.65,207.044a10.847,10.847,0,0,1,3.167-1.621,11.034,11.034,0,0,1,3.546-.28,2.916,2.916,0,0,0-1.044-.222,7.208,7.208,0,0,0-4.9,1.382,2.717,2.717,0,0,0-.77.741Z" transform="translate(-333.552 -114.903)" fill="#6f4439"/>
      <path id="Trazado_251553" data-name="Trazado 251553" d="M440.906,212.917a1.389,1.389,0,0,1-.122-.227,1.021,1.021,0,0,1,0-.665,1.511,1.511,0,0,1,.583-.8,3.365,3.365,0,0,1,1.166-.484,28.789,28.789,0,0,1,3.359-.408,3.143,3.143,0,0,0-1-.111,10.445,10.445,0,0,0-2.414.262,3.353,3.353,0,0,0-1.254.548,1.621,1.621,0,0,0-.618.951.991.991,0,0,0,.088.758C440.818,212.894,440.9,212.929,440.906,212.917Z" transform="translate(-333.516 -117.12)" fill="#6f4439"/>
      <path id="Trazado_251554" data-name="Trazado 251554" d="M442.479,217.693a1.555,1.555,0,0,1-.222-.181,1.079,1.079,0,0,1,.058-1.6,4.38,4.38,0,0,1,1.254-.583,8.485,8.485,0,0,1,2.566-.134,3,3,0,0,0,1.09-.058,8.162,8.162,0,0,0-1.079-.128,7.132,7.132,0,0,0-2.653.07,4.309,4.309,0,0,0-1.335.647,1.166,1.166,0,0,0-.379.583,1.451,1.451,0,0,0,0,.583,1.079,1.079,0,0,0,.437.706C442.362,217.7,442.479,217.7,442.479,217.693Z" transform="translate(-334.01 -119.079)" fill="#6f4439"/>
      <path id="Trazado_251555" data-name="Trazado 251555" d="M441.379,202.735a1.189,1.189,0,0,1,.187-.2,7,7,0,0,1,.583-.472,8.345,8.345,0,0,1,2.169-1.166,5.616,5.616,0,0,1,2.414-.35,9.464,9.464,0,0,1,.986.28,1.75,1.75,0,0,0-.951-.461,5,5,0,0,0-2.525.28C442.318,201.33,441.222,202.648,441.379,202.735Z" transform="translate(-333.849 -112.991)" fill="#6f4439"/>
    </g>
  </g>
</svg>
