<svg xmlns="http://www.w3.org/2000/svg" width="393.578" height="380.48" viewBox="0 0 393.578 380.48">
  <g id="Grupo_145542" data-name="Grupo 145542" transform="translate(-921.922 -6849.095)">
    <g id="freepik--background-complete--inject-474" transform="translate(924.067 6849.095)">
      <rect id="Rectángulo_43965" data-name="Rectángulo 43965" width="193.315" height="272.167" transform="translate(19.846 56.957)" fill="#ebebeb"/>
      <path id="Trazado_251894" data-name="Trazado 251894" d="M446.4,58.617a25.736,25.736,0,0,0-6.279-2.727l-1.294-6.219-10.509-.191L426.8,55.655a25.69,25.69,0,0,0-6.384,2.51l-5.307-3.474-7.565,7.3,3.292,5.428a25.786,25.786,0,0,0-2.727,6.288L401.892,75l-.182,10.509,6.167,1.511a25.837,25.837,0,0,0,2.51,6.375l-3.474,5.315,7.3,7.556,5.428-3.292a25.76,25.76,0,0,0,6.279,2.736l1.294,6.219,10.509.182,1.511-6.166a25.838,25.838,0,0,0,6.375-2.51l5.315,3.474,7.556-7.3-3.292-5.428a25.342,25.342,0,0,0,2.736-6.288l6.219-1.294.182-10.509-6.166-1.511a26.108,26.108,0,0,0-2.51-6.375l3.474-5.307-7.3-7.565Zm-5.6,14a7.971,7.971,0,1,0,0,.017Z" transform="translate(-401.449 -31.797)" fill="#e0e0e0"/>
      <path id="Trazado_251895" data-name="Trazado 251895" d="M444.6,75.585a8.451,8.451,0,0,0-2.1-1.859,11.169,11.169,0,0,0-7.348-1.737,11.343,11.343,0,0,0-5,1.737,11.607,11.607,0,0,0,4.421,21.148,10.856,10.856,0,0,0,3.474.052,10.674,10.674,0,0,0,3.2-.869A11.426,11.426,0,0,0,446.4,77.834a8.59,8.59,0,0,0-1.737-2.163c-.061.052.677.738,1.546,2.284a11.23,11.23,0,0,1,1.251,7.217,11.02,11.02,0,0,1-1.937,4.7,11.01,11.01,0,0,1-10.822,4.421,10.943,10.943,0,0,1-9-9.319,11.16,11.16,0,0,1,1-6.288,11.03,11.03,0,0,1,3.8-4.343,10.856,10.856,0,0,1,4.759-1.737,11.213,11.213,0,0,1,7.165,1.5A17.967,17.967,0,0,1,444.6,75.585Z" transform="translate(-405.254 -34.747)" fill="#e0e0e0"/>
      <path id="Trazado_251896" data-name="Trazado 251896" d="M446.366,58.592a2.12,2.12,0,0,0,.347-.182l1.042-.6L451.89,55.4h-.13l7.252,7.608V62.8l-3.474,5.3-.174.043.052.1a25.438,25.438,0,0,1,2.467,6.331V74.7H458l6.166,1.529L464,76.006q-.1,4.968-.208,10.509l.261-.13-6.219,1.277h-.165l-.043.156a25.239,25.239,0,0,1-2.71,6.21l-.087.148.087.148,3.283,5.428.043-.356-7.565,7.3h.373l-5.307-3.474-.156-.1-.165.1a25.865,25.865,0,0,1-6.3,2.475h-.182l-.052.182c-.469,1.928-.99,4.039-1.511,6.166l.313-.234-10.509-.191.313.252-1.294-6.219-.043-.191-.191-.052a25.431,25.431,0,0,1-6.193-2.692h0l-.174-.1-.165.1L414,106h.4l-7.3-7.556v.4l3.474-5.315.113-.156-.1-.174a25.428,25.428,0,0,1-2.484-6.288l-.043-.191h-.182l-6.175-1.5.234.3q.087-5.385.174-10.509l-.234.287,6.219-1.3h.174l.043-.174a25.711,25.711,0,0,1,2.692-6.219l.087-.148-.035-.182-3.3-5.428-.043.339,7.547-7.322h-.313l5.324,3.474.113.078.122-.069a25.474,25.474,0,0,1,6.314-2.5h.13v-.122c.547-2.249,1.034-4.264,1.494-6.175l-.191.148,10.509.13-.139-.113c.538,2.484.973,4.516,1.338,6.21v.061h.061a27.238,27.238,0,0,1,4.812,1.85l1.129.591a2.6,2.6,0,0,0,.373.191,4.073,4.073,0,0,0-.347-.235c-.243-.148-.608-.373-1.112-.643a25.457,25.457,0,0,0-4.794-1.954l.069.078c-.339-1.737-.747-3.735-1.251-6.227v-.113H438.8l-10.509-.234h-.148v.148c-.469,1.911-.973,3.926-1.529,6.166l.156-.156a26,26,0,0,0-6.444,2.51h.243l-5.3-3.474-.165-.1-.148.13L407.387,61.8l-.156.148.113.182c1.068,1.737,2.154,3.578,3.283,5.437v-.287a26.2,26.2,0,0,0-2.771,6.349l.217-.208-6.219,1.294h-.234v.243q-.1,5.116-.2,10.5v.252l.234.052,6.167,1.52-.226-.226a26.247,26.247,0,0,0,2.536,6.453v-.33l-3.474,5.315-.139.208.182.182,7.3,7.565.174.182.226-.13,5.359-3.266h-.33A25.908,25.908,0,0,0,425.782,106l-.226-.243,1.294,6.219.052.252h.261l10.509.174h.252l.061-.243c.521-2.137,1.034-4.238,1.5-6.175l-.226.234a26.664,26.664,0,0,0,6.453-2.545h-.321l5.315,3.474.2.13.174-.165c2.606-2.545,5.211-5.02,7.556-7.313l.165-.165-.122-.191-3.3-5.428v.3a26.272,26.272,0,0,0,2.745-6.358l-.156.174,6.219-1.3h.2v-.2q.1-5.532.165-10.509v-.182l-.174-.043L458.2,74.39l.148.148a25.855,25.855,0,0,0-2.571-6.392v.191l3.474-5.324.069-.113-.1-.087-7.339-7.565-.061-.061-.069.043-4,2.493-1.034.651A4.075,4.075,0,0,0,446.366,58.592Z" transform="translate(-401.42 -31.772)" fill="#e0e0e0"/>
      <path id="Trazado_251897" data-name="Trazado 251897" d="M384.013,34.7a15.728,15.728,0,0,0-3.769-1.633l-.773-3.717-6.288-.113-.869,3.691a15.278,15.278,0,0,0-3.822,1.5l-3.179-2.084-4.525,4.343,1.972,3.248a15.149,15.149,0,0,0-1.711,3.787l-3.726.782L357.21,50.8l3.7.869a15.278,15.278,0,0,0,1.5,3.821l-2.084,3.179,4.343,4.525L368,61.254a15.477,15.477,0,0,0,3.752,1.65l.773,3.726,6.3.1.869-3.691a15.217,15.217,0,0,0,3.813-1.5l3.179,2.084,4.525-4.343-1.928-3.326a15.815,15.815,0,0,0,1.633-3.761l3.717-.773.113-6.3-3.691-.869a15.425,15.425,0,0,0-1.5-3.813l2.084-3.179-4.343-4.534L384.039,34.7Zm-3.361,8.381a6.74,6.74,0,1,1-4.743-2.068,6.748,6.748,0,0,1,4.743,2.068Z" transform="translate(-293.209 -29.136)" fill="#f5f5f5"/>
      <path id="Trazado_251898" data-name="Trazado 251898" d="M382.828,44.849a5.046,5.046,0,0,0-1.251-1.1,6.722,6.722,0,0,0-4.4-1.042,6.844,6.844,0,0,0-5.411,3.8,6.217,6.217,0,0,0-.617,1.893,6.393,6.393,0,0,0,0,2.076,6.879,6.879,0,0,0,5.689,5.906,6.723,6.723,0,0,0,2.084,0,6.9,6.9,0,0,0,4.725-2.875,6.766,6.766,0,0,0,1.164-2.953,6.7,6.7,0,0,0-.868-4.438,5.211,5.211,0,0,0-1.06-1.294,7.886,7.886,0,0,1,.929,1.372,6.627,6.627,0,0,1-3.1,9.311,6.08,6.08,0,0,1-1.824.5,5.75,5.75,0,0,1-1.963-.043,6.514,6.514,0,0,1-5.385-5.576,5.95,5.95,0,0,1,0-1.963,6.486,6.486,0,0,1,.565-1.8,6.67,6.67,0,0,1,2.284-2.606,6.522,6.522,0,0,1,2.814-1.06,6.766,6.766,0,0,1,4.343.869C382.4,44.432,382.8,44.884,382.828,44.849Z" transform="translate(-295.386 -30.901)" fill="#f5f5f5"/>
      <path id="Trazado_251899" data-name="Trazado 251899" d="M383.965,34.687l.208-.1.617-.365,2.449-1.442h-.069l4.343,4.551v-.122l-2.093,3.17V40.5a15.772,15.772,0,0,1,1.477,3.8v.069h.069l3.691.921-.1-.139c0,1.98-.078,4.082-.122,6.288l.122-.148-3.726.773h-.1v.1a15.374,15.374,0,0,1-1.624,3.717l-.052.087.052.087,1.963,3.248v-.208l-4.534,4.343h.226l-3.179-2.084-.1-.061-.1.052a15.286,15.286,0,0,1-3.769,1.476h-.113v.113c-.287,1.155-.6,2.414-.912,3.691l.191-.139-6.288-.113.182.148c-.243-1.173-.512-2.441-.773-3.717v-.122H371.8a15.563,15.563,0,0,1-3.709-1.615h0l-.1-.061-.1.061-3.248,1.972h.243C363.4,61.5,361.94,60,360.533,58.5v.243l2.084-3.179.061-.1-.052-.1a15.208,15.208,0,0,1-1.485-3.769v-.113h-.1l-3.691-.869.139.182q.052-3.214.1-6.288l-.148.174,3.726-.782h.1v-.1a15.382,15.382,0,0,1,1.607-3.726l.061-.087-.061-.087-1.972-3.24v.191q2.384-2.306,4.516-4.343h-.182l3.187,2.076.069.052h.069a15.3,15.3,0,0,1,3.726-1.6h.078v-.069c.321-1.346.617-2.553.869-3.7l-.113.087,6.288.078-.087-.061c.321,1.485.582,2.7.8,3.717h0a16.5,16.5,0,0,1,2.936,1.138l.677.356a.807.807,0,0,0,.226.113l-.217-.139c-.139-.087-.356-.226-.66-.382A15.149,15.149,0,0,0,380.213,33l.043.052c-.2-1.016-.443-2.241-.747-3.735v-.061h-.069l-6.288-.139h-.087v.1c-.287,1.138-.582,2.345-.869,3.691l.087-.1a15.39,15.39,0,0,0-3.848,1.5h.139l-3.231-2.1-.1-.069-.087.087-4.534,4.343-.087.087.061.113,1.972,3.248v-.174a15.4,15.4,0,0,0-1.659,3.8l.13-.122-3.726.773h-.139v.139c-.043,2.05-.078,4.143-.122,6.3v.139l.139.043,3.7.869-.139-.139a15.467,15.467,0,0,0,1.511,3.865v-.191l-2.128,3.222-.078.122.1.113L364.5,63.3l.1.113.13-.078,3.257-1.972h-.2a15.5,15.5,0,0,0,3.8,1.65l-.139-.139c.269,1.277.53,2.545.782,3.717v.156h.156l6.288.1h.156v-.148c.313-1.277.617-2.536.869-3.7l-.139.139a15.937,15.937,0,0,0,4.013-1.476h-.191l3.179,2.084.122.078.1-.078c1.563-1.52,3.1-3,4.516-4.343l.1-.1-.078-.113-1.972-3.248v.174a15.634,15.634,0,0,0,1.642-3.8l-.122.113,3.726-.842h.122v-.122c0-2.206.061-4.343.1-6.288v-.113h-.1l-3.7-.869.1.1a15.408,15.408,0,0,0-1.529-3.848v.122l2.067-3.187.043-.069-.052-.052c-1.789-1.833-3.266-3.352-4.395-4.5h-.043l-2.4,1.494-.608.391Z" transform="translate(-293.162 -29.12)" fill="#f5f5f5"/>
      <rect id="Rectángulo_43966" data-name="Rectángulo 43966" width="113.698" height="188.208" transform="translate(259.296 19.429)" fill="#e0e0e0"/>
      <rect id="Rectángulo_43967" data-name="Rectángulo 43967" width="113.698" height="188.208" transform="translate(263.074 19.429)" fill="#ebebeb"/>
      <rect id="Rectángulo_43968" data-name="Rectángulo 43968" width="104.022" height="180.574" transform="translate(267.912 23.242)" fill="#fafafa"/>
      <rect id="Rectángulo_43969" data-name="Rectángulo 43969" width="63.966" height="133.648" transform="translate(288.166 46.709)" fill="#ebebeb"/>
      <path id="Trazado_251900" data-name="Trazado 251900" d="M133.1,174.857c.148-12.481-11.082-24.666-23.45-26.412-5.9-.869-12.159.339-17.666-1.919-9.832-4.03-12.958-17.092-22.859-20.966l-.452,96.6H133.1Z" transform="translate(219.037 -41.8)" fill="#e0e0e0"/>
      <path id="Trazado_251901" data-name="Trazado 251901" d="M371.641,418.71a16.77,16.77,0,0,0-4.134-1.8l-.869-4.091-6.9-.122-1,4.056a17.136,17.136,0,0,0-4.195,1.65l-3.474-2.284-4.968,4.794,2.163,3.57a17.058,17.058,0,0,0-1.8,4.134l-4.091.869-.122,6.948,4.091.947a17.275,17.275,0,0,0,1.65,4.195l-2.284,3.474,4.794,4.968,3.578-2.163a16.773,16.773,0,0,0,4.134,1.8l.868,4.091,6.9.122,1-4.065a17.109,17.109,0,0,0,4.195-1.641l3.474,2.284,4.968-4.8-2.163-3.57a16.772,16.772,0,0,0,1.8-4.134l4.091-.868.122-6.9-4.125-.964a17.136,17.136,0,0,0-1.65-4.195l2.284-3.474-4.794-4.977-3.578,2.171Zm-3.683,9.206a7.408,7.408,0,1,1-5.2-2.265A7.417,7.417,0,0,1,367.958,427.916Z" transform="translate(-268.947 -79.554)" fill="#f5f5f5"/>
    </g>
    <g id="freepik--Table--inject-474" transform="translate(921.922 7229.219)">
      <path id="Trazado_251902" data-name="Trazado 251902" d="M28.44,466.894H23.42v.078c19.542.1,99.124.174,194.27.174l140.943-.069,42.705-.1H412.95l-11.612-.043-42.705-.069L217.69,466.79c-95.146,0-174.728.078-194.27.174v.009H27.2C28.032,466.912,28.44,466.894,28.44,466.894Z" transform="translate(-23.42 -466.79)" fill="#263238"/>
    </g>
    <g id="freepik--Form--inject-474" transform="translate(959.225 6891.635)">
      <rect id="Rectángulo_43970" data-name="Rectángulo 43970" width="194.661" height="274.669" transform="translate(0.208 0.235)" fill="#fff"/>
      <path id="Trazado_251903" data-name="Trazado 251903" d="M209.208,353c0-1.833.087-112.412.208-274.669l-.208.2H403.852l-.226-.226c0,102.928,0,198.109.043,274.669l.182-.182-194.661.182,194.661.182h.243V78.1H209v.208C209.122,240.591,209.208,351.171,209.208,353Z" transform="translate(-209 -78.1)" fill="#263238"/>
      <rect id="Rectángulo_43971" data-name="Rectángulo 43971" width="83.1" height="19.055" rx="6.69" transform="translate(98.664 182.597)" fill="#f5f5f5"/>
      <rect id="Rectángulo_43972" data-name="Rectángulo 43972" width="81.259" height="19.055" rx="6.69" transform="translate(11.951 182.597)" fill="#f5f5f5"/>
      <rect id="Rectángulo_43973" data-name="Rectángulo 43973" width="171.35" height="19.055" rx="6.69" transform="translate(10.804 221.646)" fill="#f5f5f5"/>
      <path id="Trazado_251904" data-name="Trazado 251904" d="M226.98,279.476c0,.122,8.025.226,17.935.226s17.935-.1,17.935-.226-8.025-.226-17.935-.226S226.98,279.354,226.98,279.476Z" transform="translate(-83.371 -104.548)" fill="#263238"/>
      <path id="Trazado_251905" data-name="Trazado 251905" d="M333.47,279.476c0,.122,6.323.226,14.122.226s14.131-.1,14.131-.226-6.323-.226-14.131-.226S333.47,279.354,333.47,279.476Z" transform="translate(-274.732 -104.548)" fill="#263238"/>
      <path id="Trazado_251906" data-name="Trazado 251906" d="M227.5,324.216c0,.122,13.028.226,29.1.226s29.1-.1,29.1-.226-13.028-.226-29.1-.226S227.5,324.094,227.5,324.216Z" transform="translate(-106.663 -110.43)" fill="#263238"/>
      <rect id="Rectángulo_43974" data-name="Rectángulo 43974" width="174.407" height="20.827" rx="6.51" transform="translate(10.804 139.336)" fill="#e0e0e0"/>
      <path id="Trazado_251907" data-name="Trazado 251907" d="M283.97,250.486c0,.13,15.477.226,34.558.226s34.567-.1,34.567-.226-15.477-.226-34.567-.226S283.97,250.364,283.97,250.486Z" transform="translate(-223.113 -100.736)" fill="#263238"/>
      <rect id="Rectángulo_43975" data-name="Rectángulo 43975" width="174.407" height="20.827" rx="6.51" transform="translate(10.804 12.706)" fill="#e0e0e0"/>
      <path id="Trazado_251908" data-name="Trazado 251908" d="M283.97,104.686c0,.122,15.477.226,34.558.226s34.567-.1,34.567-.226-15.477-.226-34.567-.226S283.97,104.556,283.97,104.686Z" transform="translate(-223.113 -81.566)" fill="#263238"/>
      <path id="Trazado_251909" data-name="Trazado 251909" d="M209.05,122.476c0,.13,43.617.234,97.413.234s97.43-.1,97.43-.234-43.617-.226-97.43-.226S209.05,122.354,209.05,122.476Z" transform="translate(-208.842 -83.905)" fill="#ebebeb"/>
      <path id="Trazado_251910" data-name="Trazado 251910" d="M209.05,228.566c0,.13,43.617.226,97.413.226s97.43-.1,97.43-.226-43.617-.226-97.43-.226S209.05,228.444,209.05,228.566Z" transform="translate(-208.842 -97.854)" fill="#ebebeb"/>
      <rect id="Rectángulo_43976" data-name="Rectángulo 43976" width="83.1" height="19.055" rx="6.69" transform="translate(98.664 59.459)" fill="#f5f5f5"/>
      <rect id="Rectángulo_43977" data-name="Rectángulo 43977" width="81.259" height="19.055" rx="6.69" transform="translate(11.951 59.459)" fill="#f5f5f5"/>
      <rect id="Rectángulo_43978" data-name="Rectángulo 43978" width="171.35" height="19.055" rx="6.69" transform="translate(10.804 98.507)" fill="#f5f5f5"/>
      <path id="Trazado_251911" data-name="Trazado 251911" d="M226.98,137.7c0,.122,8.025.226,17.935.226s17.935-.1,17.935-.226-8.025-.226-17.935-.226S226.98,137.574,226.98,137.7Z" transform="translate(-83.371 -85.906)" fill="#263238"/>
      <path id="Trazado_251912" data-name="Trazado 251912" d="M333.47,137.7c0,.122,6.323.226,14.122.226s14.131-.1,14.131-.226-6.323-.226-14.131-.226S333.47,137.574,333.47,137.7Z" transform="translate(-274.732 -85.906)" fill="#263238"/>
      <path id="Trazado_251913" data-name="Trazado 251913" d="M227.5,182.436c0,.122,13.028.226,29.1.226s29.1-.1,29.1-.226-13.028-.226-29.1-.226S227.5,182.314,227.5,182.436Z" transform="translate(-106.663 -91.789)" fill="#263238"/>
      <path id="Trazado_251914" data-name="Trazado 251914" d="M348.92,368.536c0,.13,12.706.226,28.383.226s28.375-.1,28.375-.226-12.7-.226-28.374-.226S348.92,368.414,348.92,368.536Z" transform="translate(-332.105 -116.257)" fill="#263238"/>
      <path id="Trazado_251915" data-name="Trazado 251915" d="M233.07,158.763a9.788,9.788,0,0,0,1.346.339,15.92,15.92,0,0,0,10.031-1.433,5.61,5.61,0,0,0,1.537-1.173,3.613,3.613,0,0,0,.929-1.85,2.727,2.727,0,0,0-.443-2.154,2.084,2.084,0,0,0-2.2-.695,1.563,1.563,0,0,0-.964.808,2.006,2.006,0,0,0-.165,1.268,4.568,4.568,0,0,0,1.2,2.232,11,11,0,0,0,4.343,2.979,10.518,10.518,0,0,0,5.628.5,6.21,6.21,0,0,0,2.753-1.207A3.274,3.274,0,0,0,258.4,155.6a3.022,3.022,0,0,0-.6-1.52,2.414,2.414,0,0,0-1.372-.955,1.737,1.737,0,0,0-1.624.538,2.441,2.441,0,0,0-.582,1.607,3.361,3.361,0,0,0,.4,1.65,3.761,3.761,0,0,0,1.181,1.242,10.552,10.552,0,0,0,3.109,1.242c2.111.6,4.412,1.251,6.757.721a6.331,6.331,0,0,0,3.109-1.685,4.473,4.473,0,0,0,1.355-3.326,2.979,2.979,0,0,0-.947-2.111,2.163,2.163,0,0,0-2.293-.243,1.737,1.737,0,0,0-.964,2.041,3.387,3.387,0,0,0,1.355,1.8,17.735,17.735,0,0,0,7.817,2.97,8.016,8.016,0,0,0,4.073-.356,4.108,4.108,0,0,0,2.5-3.075,2.788,2.788,0,0,0-2.067-3.118,1.946,1.946,0,0,0-1.859.66,3.005,3.005,0,0,0-.651,1.807,3.63,3.63,0,0,0,.4,1.833,4.272,4.272,0,0,0,1.233,1.346,9.553,9.553,0,0,0,3.187,1.338c2.128.565,4.343.964,6.358.226a5.437,5.437,0,0,0,2.414-1.737,3.978,3.978,0,0,0,.868-2.684,3.752,3.752,0,0,0-1.164-2.354,2.545,2.545,0,0,0-2.319-.695H288v.087a6.731,6.731,0,0,0,1.737,4.621,7.009,7.009,0,0,0,3.048,2.076,5.672,5.672,0,0,0,2.276.3c.521-.078.782-.148.782-.148a6.028,6.028,0,0,1-3.014-.278,6.948,6.948,0,0,1-2.944-2.067,6.575,6.575,0,0,1-1.6-4.482l-.1.113a2.328,2.328,0,0,1,2.076.651,3.474,3.474,0,0,1,1.051,2.18,4.354,4.354,0,0,1-3.092,4.1,10.863,10.863,0,0,1-6.149-.269,9.224,9.224,0,0,1-3.057-1.294,3.917,3.917,0,0,1-1.112-1.216,3.188,3.188,0,0,1-.347-1.633,2.605,2.605,0,0,1,.556-1.555,1.537,1.537,0,0,1,1.477-.53,2.388,2.388,0,0,1,1.737,2.666,3.683,3.683,0,0,1-2.249,2.727,7.582,7.582,0,0,1-3.856.321,17.232,17.232,0,0,1-7.6-2.9,3.014,3.014,0,0,1-1.19-1.537,1.294,1.294,0,0,1,.73-1.529,1.737,1.737,0,0,1,1.8.182,2.519,2.519,0,0,1,.79,1.789,4.021,4.021,0,0,1-1.225,2.979,5.889,5.889,0,0,1-2.883,1.563c-2.189.5-4.438-.1-6.54-.7a10.371,10.371,0,0,1-2.979-1.181,3.3,3.3,0,0,1-1.051-1.086,2.961,2.961,0,0,1-.347-1.433,2.015,2.015,0,0,1,.469-1.329,1.285,1.285,0,0,1,1.216-.408,2.44,2.44,0,0,1,1.642,2.1,2.875,2.875,0,0,1-1.233,2.406,5.932,5.932,0,0,1-2.606,1.138,10.188,10.188,0,0,1-5.42-.478,10.509,10.509,0,0,1-4.23-2.857,4.264,4.264,0,0,1-1.129-2.05,1.424,1.424,0,0,1,.869-1.737,1.737,1.737,0,0,1,1.859.582,2.449,2.449,0,0,1,.408,1.911,4.151,4.151,0,0,1-2.31,2.849,15.851,15.851,0,0,1-5.949,1.737,17.075,17.075,0,0,1-3.943-.139l-1.016-.191A2.314,2.314,0,0,0,233.07,158.763Z" transform="translate(-121.648 -87.779)" fill="#7f91bb"/>
      <path id="Trazado_251916" data-name="Trazado 251916" d="M341.55,157.635a5.819,5.819,0,0,0,1.094.538,9.753,9.753,0,0,0,3.422.721,10.526,10.526,0,0,0,5.367-1.251,6.67,6.67,0,0,0,2.606-2.3,3.031,3.031,0,0,0,.469-1.885,2.606,2.606,0,0,0-1.008-1.789,1.65,1.65,0,0,0-1.06-.347,1.6,1.6,0,0,0-1.051.443,2.605,2.605,0,0,0-.7,2.145,3.8,3.8,0,0,0,1.094,2.058,8.84,8.84,0,0,0,1.893,1.45,11.29,11.29,0,0,0,4.751,1.52,9.041,9.041,0,0,0,5.211-.964,5.159,5.159,0,0,0,2.015-1.945,3.918,3.918,0,0,0,.46-1.39,3.561,3.561,0,0,0-2.284-3.552,2.006,2.006,0,0,0-1.563.156,2.423,2.423,0,0,0-1.042,1.164,3.6,3.6,0,0,0,.113,3.048,6.34,6.34,0,0,0,2.067,2.276,11.456,11.456,0,0,0,11.864.712,9.016,9.016,0,0,0,2.449-1.824,4.134,4.134,0,0,0,1.216-2.788,2.753,2.753,0,0,0-1.668-2.475,1.668,1.668,0,0,0-1.563.182,2.258,2.258,0,0,0-.869,1.268,3.292,3.292,0,0,0,.582,2.814,8.78,8.78,0,0,0,2.006,1.928,12.229,12.229,0,0,0,9.788,2.137,6.575,6.575,0,0,0,3.978-2.38,3.656,3.656,0,0,0,.738-2.11,3.978,3.978,0,0,0-.521-2.084,2.606,2.606,0,0,0-1.607-1.277,2.267,2.267,0,0,0-1.893.426,3.474,3.474,0,0,0-1.285,3.187,4.282,4.282,0,0,0,1.537,2.606,5.663,5.663,0,0,0,2.267,1.146,11.013,11.013,0,0,0,3.474.217l.869-.078a1.225,1.225,0,0,0,.3,0,1.346,1.346,0,0,0-.3,0h-.912a11.742,11.742,0,0,1-3.474-.3,5.611,5.611,0,0,1-2.171-1.146,4.056,4.056,0,0,1-1.346-2.553,3.24,3.24,0,0,1,1.2-2.918,2.015,2.015,0,0,1,1.659-.356,2.354,2.354,0,0,1,1.4,1.146,3.474,3.474,0,0,1-.217,3.821,6.288,6.288,0,0,1-3.778,2.223,11.847,11.847,0,0,1-9.484-2.067,8.468,8.468,0,0,1-1.893-1.85,2.849,2.849,0,0,1-.512-2.449,1.807,1.807,0,0,1,.686-1.025,1.233,1.233,0,0,1,1.164-.139,2.319,2.319,0,0,1,1.381,2.076,3.726,3.726,0,0,1-1.1,2.475,8.763,8.763,0,0,1-2.336,1.737,11.213,11.213,0,0,1-5.793,1.242,10.883,10.883,0,0,1-5.593-1.937,5.862,5.862,0,0,1-1.963-2.067,3.187,3.187,0,0,1-.113-2.666,1.737,1.737,0,0,1,2.084-1.086,3.135,3.135,0,0,1,1.98,3.092,3.4,3.4,0,0,1-.408,1.225,4.7,4.7,0,0,1-1.85,1.789,8.633,8.633,0,0,1-4.942.938,10.952,10.952,0,0,1-4.568-1.468,8.5,8.5,0,0,1-1.824-1.372,3.474,3.474,0,0,1-1.007-1.859,2.258,2.258,0,0,1,.591-1.859,1.285,1.285,0,0,1,1.694-.078,2.336,2.336,0,0,1,.868,1.563,2.875,2.875,0,0,1-.417,1.737,6.523,6.523,0,0,1-2.493,2.215,10.344,10.344,0,0,1-5.211,1.3,10.526,10.526,0,0,1-3.387-.625C341.924,157.826,341.568,157.609,341.55,157.635Z" transform="translate(-315.095 -87.684)" fill="#7f91bb"/>
      <path id="Trazado_251917" data-name="Trazado 251917" d="M231.18,202.122a1.738,1.738,0,0,0,.33.165l1,.452c.869.391,2.18.964,3.891,1.607a31.787,31.787,0,0,0,6.444,1.737,24.615,24.615,0,0,0,4.169.252,14.035,14.035,0,0,0,4.638-.695,5.533,5.533,0,0,0,3.526-3.674,3.622,3.622,0,0,0-.347-2.771,3.127,3.127,0,0,0-2.4-1.615,2.666,2.666,0,0,0-2.493,1.607,4.1,4.1,0,0,0-.217,3.092,6.079,6.079,0,0,0,1.815,2.606,11.9,11.9,0,0,0,2.727,1.737,9.354,9.354,0,0,0,6.592.773,6.7,6.7,0,0,0,4.586-5.055,5.411,5.411,0,0,0,0-1.833,3.474,3.474,0,0,0-.747-1.737,2.319,2.319,0,0,0-1.668-.964,1.668,1.668,0,0,0-1.607,1.12,4.473,4.473,0,0,0,.643,3.691A11.186,11.186,0,0,0,264.5,205.5a10.283,10.283,0,0,0,13.61-.208,5.793,5.793,0,0,0,1.737-3.109,3.552,3.552,0,0,0-.113-1.807,3.7,3.7,0,0,0-1.016-1.485,2.97,2.97,0,0,0-1.624-.756,2.137,2.137,0,0,0-1.737.53,3.309,3.309,0,0,0-.773,3.257,6.079,6.079,0,0,0,1.8,2.727,14.486,14.486,0,0,0,2.527,1.885,14.635,14.635,0,0,0,5.671,1.928,12.845,12.845,0,0,0,5.576-.5,6.166,6.166,0,0,0,2.293-1.381,4.282,4.282,0,0,0,1.242-2.241,3.908,3.908,0,0,0-.226-2.441,2.4,2.4,0,0,0-1.824-1.416,2.7,2.7,0,0,0-2.119.582A1.98,1.98,0,0,0,288.85,203a3.014,3.014,0,0,0,1,1.641,6.618,6.618,0,0,0,1.468.973,16.276,16.276,0,0,0,2.857,1.094,15.99,15.99,0,0,0,4.169.617,9.552,9.552,0,0,0,1.468-.061h-1.468a17.136,17.136,0,0,1-4.117-.695,17.372,17.372,0,0,1-2.814-1.12,6.3,6.3,0,0,1-1.407-.955,2.806,2.806,0,0,1-.869-1.511,1.737,1.737,0,0,1,.6-1.685,2.484,2.484,0,0,1,1.9-.5,2.1,2.1,0,0,1,1.589,1.268,3.579,3.579,0,0,1,.191,2.241,4.733,4.733,0,0,1-3.335,3.361,12.342,12.342,0,0,1-5.411.452,14.244,14.244,0,0,1-7.964-3.735,5.637,5.637,0,0,1-1.685-2.545,2.892,2.892,0,0,1,.66-2.831,2.058,2.058,0,0,1,2.762.243,3.274,3.274,0,0,1,.869,1.294,3.161,3.161,0,0,1,.1,1.589A5.4,5.4,0,0,1,277.767,205a9.849,9.849,0,0,1-13.028.182,10.475,10.475,0,0,1-2.336-2.771,4.986,4.986,0,0,1-.669-1.624,3.04,3.04,0,0,1,.052-1.676,1.251,1.251,0,0,1,1.173-.869,1.919,1.919,0,0,1,1.337.8,4.021,4.021,0,0,1,.651,3.2,6.271,6.271,0,0,1-4.273,4.716,8.946,8.946,0,0,1-6.288-.73c-1.893-.912-3.709-2.232-4.343-4.117a3.709,3.709,0,0,1,.191-2.8,2.276,2.276,0,0,1,2.119-1.407,2.771,2.771,0,0,1,2.11,1.424,3.24,3.24,0,0,1,.321,2.5,5.211,5.211,0,0,1-3.3,3.474,13.679,13.679,0,0,1-4.534.712,24.264,24.264,0,0,1-4.125-.217,32.256,32.256,0,0,1-6.418-1.624c-1.737-.617-3.022-1.164-3.917-1.52l-1.016-.417Z" transform="translate(-123.979 -93.809)" fill="#7f91bb"/>
    </g>
    <g id="freepik--Character--inject-474" transform="translate(1053.624 6913.691)">
      <path id="Trazado_251918" data-name="Trazado 251918" d="M172.995,155.5l.981,79.139c.165,13.453-2.336,33.256-23.624,32.552h0c-18.43-2.006-23.32-19.446-23.45-32-.069-5.958-.139-10.926-.182-11.534,0,0-20.167-1.65-21.869-21.574-.825-9.623-.869-29.59-.773-47.656a37.233,37.233,0,0,1,34.541-36.834l1.928-.148C161.374,117.144,173.264,134.662,172.995,155.5Z" transform="translate(17.871 -105.328)" fill="#ffbe9d"/>
      <path id="Trazado_251919" data-name="Trazado 251919" d="M129.23,238.284s12.62-.182,25.4-9.554c0,0-5.263,15.025-25.291,14.678Z" transform="translate(15.352 -119.961)" fill="#eb996e"/>
      <path id="Trazado_251920" data-name="Trazado 251920" d="M131.271,168.887c.391.408,2.692-1.45,6.036-1.537s5.828,1.546,6.175,1.12c.174-.191-.235-.929-1.329-1.694a8.338,8.338,0,0,0-4.959-1.407,8.025,8.025,0,0,0-4.786,1.737C131.4,167.949,131.071,168.713,131.271,168.887Z" transform="translate(24.732 -111.63)" fill="#263238"/>
      <path id="Trazado_251921" data-name="Trazado 251921" d="M138.99,176.975a2.71,2.71,0,0,0,2.8,2.527,2.606,2.606,0,0,0,2.606-2.606,2.7,2.7,0,0,0-2.788-2.527,2.606,2.606,0,0,0-2.614,2.606Z" transform="translate(17.109 -112.814)" fill="#263238"/>
      <path id="Trazado_251922" data-name="Trazado 251922" d="M162.89,192.267c0-.174-1.928-.365-5.037-.53-.79,0-1.546-.13-1.737-.651a3.978,3.978,0,0,1,.347-2.354l1.954-6.149c2.606-8.685,4.4-15.859,4.056-15.963s-2.745,6.887-5.333,15.633c-.625,2.154-1.216,4.195-1.737,6.158a4.513,4.513,0,0,0-.182,3.1,1.954,1.954,0,0,0,1.372,1.051,5.3,5.3,0,0,0,1.338.087C161.005,192.571,162.89,192.45,162.89,192.267Z" transform="translate(-15.294 -111.795)" fill="#263238"/>
      <path id="Trazado_251923" data-name="Trazado 251923" d="M129.405,154.621c.321.747,3,.182,6.193.347s5.836.869,6.2.165c.165-.347-.33-1.025-1.416-1.685a10.084,10.084,0,0,0-4.69-1.32,9.875,9.875,0,0,0-4.751.938C129.814,153.6,129.266,154.247,129.405,154.621Z" transform="translate(28.014 -109.888)" fill="#263238"/>
      <path id="Trazado_251924" data-name="Trazado 251924" d="M166.183,161.7c.347.608,2.953-.061,6.08-.156s5.776.3,6.08-.33c.139-.3-.382-.869-1.476-1.32a11.152,11.152,0,0,0-4.673-.773,11.386,11.386,0,0,0-4.638,1.146C166.53,160.829,166.026,161.411,166.183,161.7Z" transform="translate(-40.456 -110.807)" fill="#263238"/>
      <path id="Trazado_251925" data-name="Trazado 251925" d="M89.721,178.25c.33-.174,13.41-5.055,13.966,8.607S90.433,198.27,90.373,197.879,89.721,178.25,89.721,178.25Z" transform="translate(100.589 -113.194)" fill="#ffbe9d"/>
      <path id="Trazado_251926" data-name="Trazado 251926" d="M93.74,193.2c.061-.043.252.156.66.321a2.371,2.371,0,0,0,1.737,0c1.424-.591,2.545-2.927,2.51-5.394a7.877,7.877,0,0,0-.808-3.379,2.727,2.727,0,0,0-1.867-1.737,1.2,1.2,0,0,0-1.372.7c-.174.391-.069.66-.148.686s-.3-.217-.208-.782a1.494,1.494,0,0,1,.5-.869,1.824,1.824,0,0,1,1.3-.408,3.37,3.37,0,0,1,2.606,2.024,8.216,8.216,0,0,1,.981,3.769c0,2.762-1.285,5.394-3.231,6.08a2.606,2.606,0,0,1-2.2-.269C93.784,193.526,93.7,193.222,93.74,193.2Z" transform="translate(101.182 -113.861)" fill="#eb996e"/>
      <path id="Trazado_251927" data-name="Trazado 251927" d="M142.875,205.718c-.148-.347,2.527-1.146,4.412-3.665a15.459,15.459,0,0,0,1.893-3.561c.4-1,.7-1.615.869-1.572s.113.712-.113,1.8a10.17,10.17,0,0,1-1.737,4,8.129,8.129,0,0,1-3.474,2.666C143.622,205.8,142.918,205.831,142.875,205.718Z" transform="translate(7.987 -115.778)" fill="#263238"/>
      <path id="Trazado_251928" data-name="Trazado 251928" d="M166.248,170.337c.4.4,2.7-1.45,6.08-1.537s5.828,1.546,6.184,1.12c.174-.191-.243-.929-1.329-1.694a8.338,8.338,0,0,0-4.959-1.407,8.051,8.051,0,0,0-4.794,1.737C166.387,169.4,166.057,170.154,166.248,170.337Z" transform="translate(-40.677 -111.82)" fill="#263238"/>
      <path id="Trazado_251929" data-name="Trazado 251929" d="M173.51,178.1a2.71,2.71,0,0,0,2.8,2.527,2.606,2.606,0,0,0,2.606-2.606,2.71,2.71,0,0,0-2.8-2.527A2.606,2.606,0,0,0,173.51,178.1Z" transform="translate(-47.392 -112.961)" fill="#263238"/>
      <path id="Trazado_251930" data-name="Trazado 251930" d="M92.269,126.133a10.787,10.787,0,0,1,13.445-4.256,14.765,14.765,0,0,1,25.422-12.732,6.01,6.01,0,0,1,2.944-4.039,11.855,11.855,0,0,1,4.9-1.468,23.45,23.45,0,0,1,21.426,9.345,25.526,25.526,0,0,1,21.635,7.895c6.418,7.113,7.634,23.589.6,37.824l-1.65,8.92c-2.206,0-4.221.156-5.585,1.372-1.85,1.659-2.675,4.786-5.741,3.6-1.563-.608-2.988-3.882-3.474-5.472a77.871,77.871,0,0,1-3.37-32.917,24.952,24.952,0,0,0-7.712-5.567l.234.217c-5.567-1.937-11.864-3.839-17.145-1.225-4.1,2.024-6.514,6.279-9.554,9.667a31.267,31.267,0,0,1-22.295,10.3c-.3,5.611.174,13.54-.122,19.107l-4.8-8.928h0a21.386,21.386,0,0,1-1.016-1.98l-.1-.208h0c-.869-.7-1.511-1.989-2.97-3.656A11.76,11.76,0,0,1,95.4,139.89a10.778,10.778,0,0,1-3.127-13.757Z" transform="translate(15.775 -103.495)" fill="#263238"/>
      <path id="Trazado_251931" data-name="Trazado 251931" d="M193.13,159.86Z" transform="translate(-78.65 -110.906)" fill="#263238"/>
      <path id="Trazado_251932" data-name="Trazado 251932" d="M164.52,129.8a1.433,1.433,0,0,0-.1.3,4.229,4.229,0,0,0-.122.869,5.915,5.915,0,0,0,.79,3.2,6.262,6.262,0,0,0,1.529,1.737,5.446,5.446,0,0,0,2.493,1.06,6.166,6.166,0,0,0,5.7-2.145l-.339-.287a3.7,3.7,0,0,0-.964,2.675,4.89,4.89,0,0,0,1.529,3.474,5.541,5.541,0,0,0,3.231,1.381,8.685,8.685,0,0,0,5.611-1.546,18.3,18.3,0,0,0,3.005-2.553,8.686,8.686,0,0,0,.955-1.077,9.694,9.694,0,0,0-1.077.955,21.539,21.539,0,0,1-3.057,2.406,8.459,8.459,0,0,1-5.394,1.4,5.211,5.211,0,0,1-2.979-1.285,4.508,4.508,0,0,1-1.372-3.127,3.318,3.318,0,0,1,.868-2.362l-.339-.3A5.793,5.793,0,0,1,169.2,136.6a5.333,5.333,0,0,1-3.821-2.606,6.08,6.08,0,0,1-.869-3.048A8.491,8.491,0,0,1,164.52,129.8Z" transform="translate(-48.304 -106.954)" fill="#455a64"/>
      <path id="Trazado_251933" data-name="Trazado 251933" d="M159.642,112.56a.609.609,0,0,0-.3.13,6.489,6.489,0,0,0-.756.512,6.679,6.679,0,0,0-2.067,2.675,5.263,5.263,0,0,0,.469,4.924,4.065,4.065,0,0,0,2.493,1.737,4.125,4.125,0,0,0,3.187-.617,3.891,3.891,0,0,0,.756-.756l-.391-.226a3.813,3.813,0,0,0,.1,3.075,4.143,4.143,0,0,0,1.98,2.032,5.524,5.524,0,0,0,4.655,0,7.478,7.478,0,0,0,2.51-1.885,3.708,3.708,0,0,0,.669-.938s-.278.3-.79.816a7.982,7.982,0,0,1-2.51,1.737,5.289,5.289,0,0,1-4.343-.078,3.83,3.83,0,0,1-1.737-1.85,3.413,3.413,0,0,1-.087-2.71l.73-1.676-1.12,1.459a3.048,3.048,0,0,1-.651.643,3.665,3.665,0,0,1-2.831.556,3.622,3.622,0,0,1-2.232-1.511,4.951,4.951,0,0,1-.512-4.568,6.9,6.9,0,0,1,1.876-2.658C159.286,112.812,159.668,112.595,159.642,112.56Z" transform="translate(-26.333 -104.687)" fill="#455a64"/>
      <path id="Trazado_251934" data-name="Trazado 251934" d="M275.72,226.942l31.571,24.093a4.091,4.091,0,0,1,.6,5.923h0a4.073,4.073,0,0,1-5.585.547l-31.267-24.319-4.23-8.346Z" transform="translate(-258.402 -119.45)" fill="#7f91bb"/>
      <path id="Trazado_251935" data-name="Trazado 251935" d="M306.854,225.93l-2.232,2.606,2.414,4.794a1.919,1.919,0,0,0,2.1-2.18,1.737,1.737,0,0,0,1.911-2.189s1.642-.148.712-1.876Z" transform="translate(-294.399 -119.593)" fill="#fff" opacity="0.5"/>
      <path id="Trazado_251936" data-name="Trazado 251936" d="M275.563,254.745l-5.176,6.323-1.737-1.346,4.959-6.462Z" transform="translate(-226.674 -123.186)" fill="#263238"/>
      <path id="Trazado_251937" data-name="Trazado 251937" d="M315.881,311.979l1.138-.208-23.224-40.595,3.682-11.708s4.256-16.667.712-20.923c0,0-7.756-9.137-10.275-9.007s-4.525.625-5.029,2.519c0,0-4.282-.5-5.411.869a21.654,21.654,0,0,0-2.015,3.022s-4.655-.382-5.915,3.648c0,0-4.4,2.267-4.786,5.532s.869,18.5,2.267,22.4,6.549,12.081,8.051,24.162,6.835,19.924,11.569,37.572l12.845,5.081Z" transform="translate(-264.69 -120.067)" fill="#ffbe9d"/>
      <path id="Trazado_251938" data-name="Trazado 251938" d="M298.714,232.14a23.631,23.631,0,0,1,2.71,3.144,29.388,29.388,0,0,1,1.659,3.8,7.869,7.869,0,0,0-4.343-6.948Z" transform="translate(-280.301 -120.41)" fill="#eb996e"/>
      <path id="Trazado_251939" data-name="Trazado 251939" d="M307.15,236.92a25.373,25.373,0,0,1,2.649,2.814,26.085,26.085,0,0,1,1.737,3.474,5.856,5.856,0,0,0-1.312-3.752A6.08,6.08,0,0,0,307.15,236.92Z" transform="translate(-296.129 -121.038)" fill="#eb996e"/>
      <path id="Trazado_251940" data-name="Trazado 251940" d="M314.586,241c-.1.122,1.06,1.138,2.119,2.666s1.633,2.962,1.78,2.91a6.166,6.166,0,0,0-1.346-3.2A6.08,6.08,0,0,0,314.586,241Z" transform="translate(-309.487 -121.574)" fill="#eb996e"/>
      <path id="Trazado_251941" data-name="Trazado 251941" d="M288.112,242.373a9.05,9.05,0,0,1,2.606-.443,8.686,8.686,0,0,1,2.5.79c.043,0-.122-.33-.547-.643a3.8,3.8,0,0,0-3.9-.261A1.528,1.528,0,0,0,288.112,242.373Z" transform="translate(-261.24 -121.627)" fill="#eb996e"/>
      <path id="Trazado_251942" data-name="Trazado 251942" d="M299.31,248.636a10.424,10.424,0,0,1,1.919-2.293,10.64,10.64,0,0,1,2.718-1.242c-.017-.156-.356-.148-.938-.078a4.621,4.621,0,0,0-3.517,2.684C299.267,248.254,299.249,248.618,299.31,248.636Z" transform="translate(-281.661 -122.097)" fill="#eb996e"/>
      <path id="Trazado_251943" data-name="Trazado 251943" d="M308.226,251.121a12.021,12.021,0,0,1,2.857-1.485,11.412,11.412,0,0,1,3.214-.156c0-.061-.3-.269-.921-.417a5.211,5.211,0,0,0-4.568,1.233C308.357,250.731,308.183,251.087,308.226,251.121Z" transform="translate(-299.776 -122.62)" fill="#eb996e"/>
      <path id="Trazado_251944" data-name="Trazado 251944" d="M45.762,302.44s14.252,80.842,13.549,88.406-4.473,19.585-13.028,21.643a37.824,37.824,0,0,1-16.5,0l10.257-99.3Z" transform="translate(197.015 -129.653)" fill="#7f91bb"/>
      <path id="Trazado_251945" data-name="Trazado 251945" d="M136.629,252.028s17.04,12.159,20.844,15.677c15.755,14.9,19.047,20.992,20.844,26.056s-10.943,122.053-10.943,122.053l-2.606,20.454h0l-119.569.3h0V332.1l17.952-73.537,11.056-3.144,2.232-8.763s13.731-10.144,36.382-10.422c6.948-.1,16.832,2.649,22.338,6.948h0Z" transform="translate(64.468 -120.947)" fill="#7e89be"/>
      <path id="Trazado_251946" data-name="Trazado 251946" d="M280.684,262.235s-12.29-.547-13.375-.3c-3.787.868-14.183,10.422-26.056,22.165-11.291,11.2-33.542,34.524-33.542,34.524s-4-4.03-8.555,1.355L181.6,294.439s-26.368,3.231-30.468,23.129c0,0,8.077,15.425,14.7,26.446,0,0,24.484,40.638,43.825,33.273,17.666-6.74,39.822-24.7,42.94-28.54l26.056-18.56s17.822-33.976,9.945-50.965Z" transform="translate(-139.654 -124.318)" fill="#7f91bb"/>
      <path id="Trazado_251947" data-name="Trazado 251947" d="M93.45,257.463a2.772,2.772,0,0,0,.625-.13l1.737-.469c1.537-.391,3.778-.929,6.575-1.459a184.609,184.609,0,0,1,22.069-2.718,150.251,150.251,0,0,1,22.225.069c2.84.243,5.116.6,6.679.869l1.8.356a2.206,2.206,0,0,0,.634.087,3,3,0,0,0-.608-.191l-1.78-.452a59.721,59.721,0,0,0-6.688-1.051,136.688,136.688,0,0,0-22.295-.217,163.476,163.476,0,0,0-22.086,2.884c-2.8.582-5.029,1.172-6.566,1.633l-1.737.565A2.711,2.711,0,0,0,93.45,257.463Z" transform="translate(45.261 -122.995)" fill="#263238"/>
      <path id="Trazado_251948" data-name="Trazado 251948" d="M110.185,249.955a19.549,19.549,0,0,0,.869-4.473,20.716,20.716,0,0,0,.365-4.542,20.4,20.4,0,0,0-.869,4.473A19.6,19.6,0,0,0,110.185,249.955Z" transform="translate(75.097 -121.567)" fill="#263238"/>
      <path id="Trazado_251949" data-name="Trazado 251949" d="M115.528,249.51a14.27,14.27,0,0,0,.625-9.05c-.156,0,.078,2.05-.1,4.542S115.38,249.467,115.528,249.51Z" transform="translate(65.289 -121.503)" fill="#263238"/>
      <g id="Grupo_145426" data-name="Grupo 145426" transform="translate(143.228 129.167)" opacity="0.3">
        <path id="Trazado_251950" data-name="Trazado 251950" d="M151.329,254.035c-18.708,3.309-37.676,0-57.479,2.371,19.107-3.96,39.031-5.836,57.479-2.371" transform="translate(-93.85 -252.217)"/>
      </g>
      <g id="Grupo_145427" data-name="Grupo 145427" transform="translate(233.579 203.715)" opacity="0.3">
        <path id="Trazado_251951" data-name="Trazado 251951" d="M45.893,417.328c10.526-24.657,9.276-52.519,7.817-79.278Z" transform="translate(-45.893 -338.05)"/>
      </g>
      <path id="Trazado_251952" data-name="Trazado 251952" d="M58.7,322.73a1.485,1.485,0,0,0-.052.313c0,.234-.069.538-.113.912-.087.869-.217,2.024-.373,3.535-.3,3.1-.747,7.53-1.285,13.028-1.068,10.961-2.527,26.116-4.273,42.835s-3.474,31.84-4.881,42.766c-.686,5.463-1.277,9.884-1.737,12.932-.2,1.5-.356,2.684-.46,3.517-.052.382-.087.686-.113.921a1.737,1.737,0,0,0,0,.313,1.3,1.3,0,0,0,.069-.3l.165-.912c.13-.868.321-2.006.556-3.474.478-3.049,1.129-7.461,1.867-12.915,1.485-10.917,3.292-26.056,5.037-42.766s3.144-31.883,4.117-42.853c.469-5.463.869-9.9,1.12-13.028.113-1.511.208-2.692.269-3.535a4.11,4.11,0,0,1,.061-.929,1.45,1.45,0,0,0,.026-.356Z" transform="translate(184.074 -132.32)" fill="#263238"/>
      <path id="Trazado_251953" data-name="Trazado 251953" d="M52.26,307.472a3.989,3.989,0,0,0,.764.043h2.215c1.911,0,4.69,0,8.112.1,6.853.156,16.311.66,26.69,1.885s19.7,3,26.394,4.49c3.352.721,6.08,1.346,7.912,1.806l2.154.5a4.57,4.57,0,0,0,.756.139,4.267,4.267,0,0,0-.73-.243l-2.128-.6c-1.85-.521-4.542-1.2-7.886-1.972A249.757,249.757,0,0,0,63.36,307.29c-3.474,0-6.21,0-8.129.069l-2.206.087a4.762,4.762,0,0,0-.764.026Z" transform="translate(109.571 -130.29)" fill="#263238"/>
      <path id="Trazado_251954" data-name="Trazado 251954" d="M87.5,330.073c.148,0-.13-11.2-.608-25s-1-25-1.146-24.987.13,11.2.617,25S87.359,330.082,87.5,330.073Z" transform="translate(120.243 -126.714)" fill="#263238"/>
      <path id="Trazado_251955" data-name="Trazado 251955" d="M151.429,326.071a6.536,6.536,0,0,0,.443-.7q.46-.773,1.2-2.058l4.412-7.582a65.268,65.268,0,0,0,5.532-11.786,38.38,38.38,0,0,0,1.65-7.539,45.466,45.466,0,0,0,0-8.286,44.1,44.1,0,0,0-3.943-15.434,25.734,25.734,0,0,0-3.9-5.81,22.157,22.157,0,0,0-4.673-3.9,17.813,17.813,0,0,0-8.294-2.779,11.534,11.534,0,0,0-3.214.182,29.983,29.983,0,0,1,3.2,0,18.031,18.031,0,0,1,8.112,2.883,22.061,22.061,0,0,1,4.551,3.882,25.429,25.429,0,0,1,3.778,5.732,44.147,44.147,0,0,1,3.865,15.269,45.822,45.822,0,0,1,0,8.173,38.815,38.815,0,0,1-1.6,7.443,67.909,67.909,0,0,1-5.394,11.76l-4.264,7.66-1.12,2.11a4.726,4.726,0,0,0-.339.782Z" transform="translate(-4.788 -124.093)" fill="#263238"/>
      <g id="Grupo_145428" data-name="Grupo 145428" transform="translate(169.196 177.428)" opacity="0.3">
        <path id="Trazado_251956" data-name="Trazado 251956" d="M119.695,316.4a143.023,143.023,0,0,1-22.469-2.962,34.419,34.419,0,0,1,1.259,10.049,23.1,23.1,0,0,1-4.994-9.2A13.9,13.9,0,0,1,87.82,323.6a30.5,30.5,0,0,1-.5-10.24Q70.545,311.35,54,307.85a225.955,225.955,0,0,1,66.12,8.225" transform="translate(-54 -307.784)"/>
      </g>
      <path id="Trazado_251957" data-name="Trazado 251957" d="M165.64,376.538a2.372,2.372,0,0,0,.512-.3l1.433-.955c1.233-.869,3.005-2.058,5.211-3.6,4.343-3.057,10.344-7.356,16.867-12.22s12.35-9.38,16.5-12.689c2.084-1.65,3.769-3.005,4.924-3.952l1.32-1.094a2.8,2.8,0,0,0,.443-.408,3.479,3.479,0,0,0-.5.339l-1.372,1.025-5.011,3.839c-4.23,3.248-10.083,7.712-16.606,12.576s-12.428,9.2-16.771,12.342l-5.107,3.717-1.381,1.016a3.624,3.624,0,0,0-.46.365Z" transform="translate(-74.497 -134.765)" fill="#263238"/>
      <path id="Trazado_251958" data-name="Trazado 251958" d="M245.93,347.877c.078,0,0-1.32.182-3.413a35.818,35.818,0,0,1,4.829-15.555c1.068-1.815,1.85-2.866,1.789-2.918a3.536,3.536,0,0,0-.617.695,24.155,24.155,0,0,0-1.442,2.058,31.77,31.77,0,0,0-4.881,15.7,22.462,22.462,0,0,0,0,2.51,3.526,3.526,0,0,0,.139.921Z" transform="translate(-183.961 -132.749)" fill="#263238"/>
      <path id="Trazado_251959" data-name="Trazado 251959" d="M258.134,346.2a25.185,25.185,0,0,0-.217-2.675,34.112,34.112,0,0,1,.122-6.427,33.613,33.613,0,0,1,1.346-6.288c.5-1.581.869-2.527.816-2.562a2.423,2.423,0,0,0-.356.634,18.564,18.564,0,0,0-.764,1.824,27.9,27.9,0,0,0-1.477,12.854c.1.825.217,1.494.321,1.945A2.605,2.605,0,0,0,258.134,346.2Z" transform="translate(-201.55 -133.046)" fill="#263238"/>
      <path id="Trazado_251960" data-name="Trazado 251960" d="M272.16,332.233a.474.474,0,0,1,.2-.33,1.025,1.025,0,0,0,.356-.382c.1-.182.165-.4.287-.608.234-.443.816-.773,1.233-1.416a9.182,9.182,0,0,0,1.042-2.293,15.416,15.416,0,0,1,2.988-5.628,25.185,25.185,0,0,1,2.684-2.675,28.658,28.658,0,0,1,3.24-2.475,26.576,26.576,0,0,1,3.474-2.145l3.474-1.685c1.094-.521,2.119-1.06,3.118-1.485l2.779-1.19a11.024,11.024,0,0,0,1.207-.547c.373-.217.677-.46.99-.634l.869-.478c.278-.148.512-.347.721-.478.426-.269.8-.417,1.042-.547s.365-.2.356-.217a1.738,1.738,0,0,0-.391.139,8.211,8.211,0,0,0-1.1.478,12.076,12.076,0,0,1-1.65.868c-.339.165-.66.408-1.007.6s-.782.33-1.2.512l-2.8,1.129c-1,.408-2.041.947-3.153,1.459l-3.474,1.659a26.32,26.32,0,0,0-3.517,2.171,26.845,26.845,0,0,0-3.283,2.519,24.317,24.317,0,0,0-2.71,2.736,15.3,15.3,0,0,0-2.97,5.793,9.6,9.6,0,0,1-.947,2.258c-.365.608-.929.964-1.173,1.468-.13.243-.182.469-.261.634a1.147,1.147,0,0,1-.3.382C272.073,332.051,272.151,332.25,272.16,332.233Z" transform="translate(-256.362 -130.255)" fill="#263238"/>
      <path id="Trazado_251961" data-name="Trazado 251961" d="M178.426,449.72c.122,0,.226-21.973.226-49.08s-.1-49.08-.226-49.08-.226,21.974-.226,49.08S178.3,449.72,178.426,449.72Z" transform="translate(-51.205 -136.111)" fill="#263238"/>
    </g>
  </g>
</svg>
