<svg xmlns="http://www.w3.org/2000/svg" width="400" height="296.095" viewBox="0 0 400 296.095">
  <g id="Grupo_145526" data-name="Grupo 145526" transform="translate(-180 -1288)">
    <path id="BG" d="M14,0H386a14,14,0,0,1,14,14V282.095a14,14,0,0,1-14,14H14a14,14,0,0,1-14-14V14A14,14,0,0,1,14,0Z" transform="translate(180 1288)" fill="#e5e7f2"/>
    <g id="freepik--Plants--inject-2" transform="translate(238 1426.255)">
      <g id="freepik--plants--inject-2-2" data-name="freepik--plants--inject-2">
        <path id="Trazado_248315" data-name="Trazado 248315" d="M59.108,284.749a84.167,84.167,0,0,0-1.4-21.033C55.5,253.421,50.12,245.494,43.53,242.4s-14.486,1.122-8.8,8.168,17.488,19.609,17.421,37.973Z" transform="translate(-25.614 -241.37)" fill="#e0e0e0"/>
        <path id="Trazado_248316" data-name="Trazado 248316" d="M59.479,286.293h.08a.4.4,0,0,0,.382-.4c-.616-22.488-8.112-33.75-16.767-39.452a.388.388,0,0,0-.536.111.382.382,0,0,0,.1.536c8.538,5.653,15.806,16.681,16.416,38.836a.388.388,0,0,0,.321.37Z" transform="translate(-29.37 -243.29)" fill="#fff"/>
        <path id="Trazado_248317" data-name="Trazado 248317" d="M21.159,276.412a4.961,4.961,0,0,0,2.09,3,5.709,5.709,0,0,1,2.262,2.891c.53,2.466-2.4,4.747-1.763,7.188a3.9,3.9,0,0,0,2.059,2.3,24.662,24.662,0,0,0,2.423,1.036,11.213,11.213,0,0,0,1.233.3,5.653,5.653,0,0,1,3.31,1.461c1.344,1.461,1.177,3.7,1.652,5.647.579,2.312,1.954,3.7,5.1,4.771l10.788-6.115c2.688-2.737,3.637-7.4,1.159-10.609-1.486-1.911-4.266-2.151-5.671-4.068-1.233-1.714-.53-4.192-1.3-6.164s-2.823-2.663-4.759-3-3.995.462-5.881-.228-3.643-1.806-5.6-2.293a6.51,6.51,0,0,0-5.647.949A3.446,3.446,0,0,0,21.159,276.412Z" transform="translate(-21.156 -253.215)" fill="#ebebeb"/>
        <path id="Trazado_248318" data-name="Trazado 248318" d="M43.72,287.7a.3.3,0,0,0-.086-.111,30.415,30.415,0,0,0-15.7-11.2.284.284,0,1,0-.123.549A29.633,29.633,0,0,1,42.7,287.257a15.51,15.51,0,0,0-12.372,1.073.284.284,0,0,0-.086.388.3.3,0,0,0,.228.129.259.259,0,0,0,.16-.049,15,15,0,0,1,12.637-.758,23.554,23.554,0,0,1,4.223,14.5.277.277,0,0,0,.247.29h0a.284.284,0,0,0,.29-.271A24.09,24.09,0,0,0,43.72,287.7Z" transform="translate(-23.609 -254.795)" fill="#fff"/>
      </g>
      <g id="freepik--plants--inject-2-3" data-name="freepik--plants--inject-2" transform="translate(254.837 5.012)">
        <path id="Trazado_248319" data-name="Trazado 248319" d="M434.577,295.1c-.1-8.014.043-15.411,4.112-26.79,3.409-9.561,12.175-19.2,18.092-18.8,5.517.382,6.738,7.157,1.775,13.186s-15.769,17.562-16.434,25.89l-2.114,9.45Z" transform="translate(-434.557 -249.5)" fill="#e0e0e0"/>
        <path id="Trazado_248320" data-name="Trazado 248320" d="M438.276,295.334a.364.364,0,0,0,.271-.333c.863-18.641,11.275-34.175,19.96-38.953a.353.353,0,0,0-.345-.616c-8.827,4.851-19.449,20.638-20.342,39.538a.351.351,0,0,0,.333.37Z" transform="translate(-435.808 -251.758)" fill="#fff"/>
        <path id="Trazado_248321" data-name="Trazado 248321" d="M444.426,311.921c.339-2.811,2.916-7.773,7.638-12.292,5.227-4.993,12.366-8.045,13.562-11.478,1.455-4.118-2.188-6.319-8.211-5.03-7.243,1.547-15.269,9.832-16.644,26.76Z" transform="translate(-436.94 -262.255)" fill="#ebebeb"/>
        <path id="Trazado_248322" data-name="Trazado 248322" d="M443.8,310.981a.351.351,0,0,0,.265-.277c2.768-14.795,12.656-21.409,17.5-22.845a.352.352,0,0,0,.234-.438.345.345,0,0,0-.438-.24c-5.351,1.584-15.164,8.291-17.994,23.388a.351.351,0,0,0,.284.413A.3.3,0,0,0,443.8,310.981Z" transform="translate(-437.933 -263.946)" fill="#fff"/>
      </g>
    </g>
    <g id="freepik--Floor--inject-2" transform="translate(243.427 1426.8)">
      <path id="freepik--floor--inject-2-2" data-name="freepik--floor--inject-2" d="M69.258,374.5c-52.4-30.249-52.4-79.3,0-109.554s137.355-30.249,189.753,0,52.4,79.3,0,109.554S121.655,404.751,69.258,374.5Z" transform="translate(-29.96 -242.254)" fill="#29398a" opacity="0.15"/>
    </g>
    <g id="freepik--Shadows--inject-2" transform="translate(271.37 1467.303)">
      <path id="freepik--Shadow--inject-2" d="M247.578,413.5l14.345-8.285a.469.469,0,0,0,0-.888l-3.514-2.028a1.7,1.7,0,0,0-1.541,0l-14.345,8.285a.469.469,0,0,0,0,.888l1.757,1.011-18.012,10.4c-.425.247-.247.327-.049.444a.634.634,0,0,0,.771,0L245,412.928l1.036.616a1.7,1.7,0,0,0,1.547-.049Z" transform="translate(-133.099 -344.07)" fill="#e0e0e0"/>
      <path id="freepik--shadow--inject-2-2" data-name="freepik--shadow--inject-2" d="M249.314,383.961a6.479,6.479,0,0,1-3.212-.777l-.29-.185-.53-.376,4.519-.66.407-.851-1.233-.715-4.315.616.142-.407a2.8,2.8,0,0,1,1.325-1.418,6.46,6.46,0,0,1,3.156-.752,7.5,7.5,0,0,1,1.449.136l14.721-8.495a1.769,1.769,0,0,1-.123-1.19,2.645,2.645,0,0,1,1.368-1.578,6.534,6.534,0,0,1,3.162-.752,6.416,6.416,0,0,1,3.212.783,3.315,3.315,0,0,1,.29.185l.53.37-4.518.66-.407.857,1.233.715,4.315-.616-.142.4a2.811,2.811,0,0,1-1.325,1.424,6.528,6.528,0,0,1-3.156.752,7.489,7.489,0,0,1-1.449-.142l-14.721,8.5a1.757,1.757,0,0,1,.123,1.184,2.632,2.632,0,0,1-1.368,1.578A6.466,6.466,0,0,1,249.314,383.961Z" transform="translate(-140.254 -330.434)" fill="#e0e0e0"/>
      <ellipse id="freepik--shadow--inject-2-3" data-name="freepik--shadow--inject-2" cx="47.028" cy="27.154" rx="47.028" ry="27.154" transform="translate(0 31.292)" fill="#e0e0e0"/>
      <path id="freepik--shadow--inject-2-4" data-name="freepik--shadow--inject-2" d="M276.43,382.881l62.408-36.031L373.7,366.977,311.3,403.008Z" transform="translate(-152.439 -322.875)" fill="#e0e0e0"/>
      <path id="freepik--shadow--inject-2-5" data-name="freepik--shadow--inject-2" d="M234.752,346.967l-24.343-14.055a.977.977,0,0,1,0-1.849l39.366-22.722a3.538,3.538,0,0,1,3.206,0l24.343,14.049a.977.977,0,0,1,0,1.849l-39.366,22.728A3.538,3.538,0,0,1,234.752,346.967Z" transform="translate(-126.863 -307.957)" fill="#e0e0e0"/>
    </g>
    <g id="freepik--tool-box--inject-2" transform="translate(354.255 1440.9)">
      <g id="freepik--tool-box--inject-2-2" data-name="freepik--tool-box--inject-2">
        <path id="Trazado_248323" data-name="Trazado 248323" d="M237.33,345.849V325.612L212.29,311.15l2.5,21.686Z" transform="translate(-210.723 -282.78)" fill="#263238"/>
        <path id="Trazado_248324" data-name="Trazado 248324" d="M252.91,340.453l37.56-21.686,2.5-21.686L252.91,320.215Z" transform="translate(-226.303 -277.383)" fill="#37474f"/>
        <path id="Trazado_248325" data-name="Trazado 248325" d="M209.75,289.164a1.128,1.128,0,0,1,.66-.925l39.366-22.728a3.538,3.538,0,0,1,3.205,0l24.343,14.055a1.122,1.122,0,0,1,.66.925v5.782a1.122,1.122,0,0,1-.66.931l-39.366,22.722a3.538,3.538,0,0,1-3.205,0L210.41,295.871a1.134,1.134,0,0,1-.66-.925Z" transform="translate(-209.748 -265.127)" fill="#9f453c"/>
        <path id="Trazado_248326" data-name="Trazado 248326" d="M210.41,293.3l25.946-14.979v37.054a3.249,3.249,0,0,1-1.6-.388L210.41,300.931a1.134,1.134,0,0,1-.66-.925v-5.788a1.128,1.128,0,0,1,.66-.919Z" transform="translate(-209.748 -270.192)" opacity="0.2"/>
        <path id="Trazado_248327" data-name="Trazado 248327" d="M252.91,273.26l13.42-7.749a3.538,3.538,0,0,1,3.206,0l24.343,14.055a1.122,1.122,0,0,1,.66.925v5.782a1.122,1.122,0,0,1-.66.931l-39.366,22.722a3.249,3.249,0,0,1-1.6.388Z" transform="translate(-226.303 -265.132)" opacity="0.1"/>
        <path id="Trazado_248328" data-name="Trazado 248328" d="M234.752,304.143l-24.343-14.055a.977.977,0,0,1,0-1.849l39.366-22.728a3.539,3.539,0,0,1,3.206,0l24.343,14.055a.977.977,0,0,1,0,1.849l-39.366,22.728a3.538,3.538,0,0,1-3.206,0Z" transform="translate(-209.748 -265.127)" fill="#5f3c38"/>
        <path id="Trazado_248329" data-name="Trazado 248329" d="M288.744,291.042c.69.4.653,1.066-.086,1.492l-27.376,15.812a2.86,2.86,0,0,1-2.589.043c-.69-.395-.653-1.066.086-1.492l27.376-15.806A2.86,2.86,0,0,1,288.744,291.042Z" transform="translate(-228.331 -274.958)" opacity="0.2"/>
        <path id="Trazado_248330" data-name="Trazado 248330" d="M261.5,309.121a2.86,2.86,0,0,1-2.589.043l-.136-.092a1.559,1.559,0,0,1,.222-.154l27.376-15.806a2.86,2.86,0,0,1,2.589-.049l.136.1a1.541,1.541,0,0,1-.222.148Z" transform="translate(-228.554 -275.733)" opacity="0.2"/>
        <path id="Trazado_248331" data-name="Trazado 248331" d="M256.247,272.28c.7.395.66,1.066-.08,1.492l-27.382,15.805a2.848,2.848,0,0,1-2.583.049c-.69-.4-.653-1.066.08-1.492l27.382-15.812A2.848,2.848,0,0,1,256.247,272.28Z" transform="translate(-215.869 -267.76)" opacity="0.2"/>
        <path id="Trazado_248332" data-name="Trazado 248332" d="M229.008,290.353a2.848,2.848,0,0,1-2.583.049.767.767,0,0,1-.136-.1,1.907,1.907,0,0,1,.216-.148l27.382-15.806a2.829,2.829,0,0,1,2.583-.049,1.283,1.283,0,0,1,.136.092,1.491,1.491,0,0,1-.216.154Z" transform="translate(-216.093 -268.536)" opacity="0.2"/>
        <path id="Trazado_248333" data-name="Trazado 248333" d="M234.313,302.822c-.69.4-.653,1.066.086,1.492L244.262,310a2.848,2.848,0,0,0,2.583.049c.69-.4.653-1.066-.08-1.492l-9.863-5.684A2.86,2.86,0,0,0,234.313,302.822Z" transform="translate(-218.98 -279.476)" opacity="0.2"/>
        <path id="Trazado_248334" data-name="Trazado 248334" d="M244.479,310.722a2.848,2.848,0,0,0,2.583.049,1.3,1.3,0,0,0,.136-.092,1.489,1.489,0,0,0-.216-.154l-9.863-5.684a2.86,2.86,0,0,0-2.589-.049,1.016,1.016,0,0,0-.129.1,1.23,1.23,0,0,0,.216.148Z" transform="translate(-219.203 -280.232)" opacity="0.2"/>
        <path id="Trazado_248335" data-name="Trazado 248335" d="M226.2,307.46c-.69.395-.653,1.066.08,1.492l9.863,5.684a2.86,2.86,0,0,0,2.589.049c.69-.4.653-1.073-.086-1.5l-9.863-5.684A2.848,2.848,0,0,0,226.2,307.46Z" transform="translate(-215.869 -281.254)" opacity="0.2"/>
        <path id="Trazado_248336" data-name="Trazado 248336" d="M236.359,315.411a2.86,2.86,0,0,0,2.589.049c.049-.031.086-.068.129-.1a1.487,1.487,0,0,0-.216-.154L229,309.524a2.848,2.848,0,0,0-2.583-.043.745.745,0,0,0-.136.092,1.482,1.482,0,0,0,.216.154Z" transform="translate(-216.089 -282.029)" opacity="0.2"/>
        <path id="Trazado_248337" data-name="Trazado 248337" d="M283.061,274.632c-.69.4-.66,1.066.08,1.492L293,281.808a2.848,2.848,0,0,0,2.583.049c.7-.4.66-1.066-.08-1.492l-9.863-5.684A2.848,2.848,0,0,0,283.061,274.632Z" transform="translate(-237.677 -268.664)" opacity="0.2"/>
        <path id="Trazado_248338" data-name="Trazado 248338" d="M293.219,282.582a2.86,2.86,0,0,0,2.589.049,1.02,1.02,0,0,0,.129-.1,1.472,1.472,0,0,0-.216-.148l-9.863-5.684a2.848,2.848,0,0,0-2.583-.049,1.291,1.291,0,0,0-.136.092,1.488,1.488,0,0,0,.216.154Z" transform="translate(-237.898 -269.438)" opacity="0.2"/>
        <path id="Trazado_248339" data-name="Trazado 248339" d="M274.942,279.315c-.69.4-.653,1.073.08,1.5l9.863,5.684a2.885,2.885,0,0,0,2.589.049c.69-.4.653-1.073-.086-1.5l-9.863-5.684A2.885,2.885,0,0,0,274.942,279.315Z" transform="translate(-234.564 -270.461)" opacity="0.2"/>
        <path id="Trazado_248340" data-name="Trazado 248340" d="M285.1,287.27a2.885,2.885,0,0,0,2.589.049l.136-.1a1.556,1.556,0,0,0-.222-.154l-9.863-5.684a2.885,2.885,0,0,0-2.589-.049l-.136.1a1.924,1.924,0,0,0,.216.154Z" transform="translate(-234.78 -271.235)" opacity="0.2"/>
        <path id="Trazado_248341" data-name="Trazado 248341" d="M248.85,288.475v5.591l2.5,1.449,2.5-1.449v-4.241a2.959,2.959,0,0,1,1.331-2.312l6.164-3.569,1.171-.672c.734-.425,1.332-.08,1.332.771v4.241l2.5-1.449v-5.591a2.856,2.856,0,0,0,0-.333,1.547,1.547,0,0,0-.037-.253,1.9,1.9,0,0,0-.074-.284,2.244,2.244,0,0,0-.086-.216,1.6,1.6,0,0,0-.117-.2,1.362,1.362,0,0,0-.136-.179,1.163,1.163,0,0,0-.154-.148h0a1.027,1.027,0,0,0-.173-.111l-.08-.043-2.41-1.393a1.849,1.849,0,0,0-1.88.185l-9.684,5.591A5.887,5.887,0,0,0,248.85,288.475Z" transform="translate(-224.746 -270.029)" fill="#455a64"/>
        <path id="Trazado_248342" data-name="Trazado 248342" d="M269.15,287.165h0v2.885l2.5,1.449v-4.241c0-.851-.616-1.2-1.332-.771Z" transform="translate(-232.532 -273.25)" fill="#263238"/>
        <path id="Trazado_248343" data-name="Trazado 248343" d="M252.91,290.821v5.6l2.5-1.449v-4.241a2.959,2.959,0,0,1,1.332-2.312l6.164-3.563h0l1.171-.672c.734-.425,1.332-.08,1.332.771v4.241l2.5-1.442v-5.6a2.85,2.85,0,0,0,0-.333,1.552,1.552,0,0,0-.037-.253,1.911,1.911,0,0,0-.074-.284,2.24,2.24,0,0,0-.086-.216,1.587,1.587,0,0,0-.117-.2,1.364,1.364,0,0,0-.136-.179,1.156,1.156,0,0,0-.154-.148h0a1.034,1.034,0,0,0-.173-.111l-.08-.043a1.924,1.924,0,0,0-1.788.234l-9.684,5.591A5.912,5.912,0,0,0,252.91,290.821Z" transform="translate(-226.303 -270.933)" fill="#37474f"/>
        <path id="Trazado_248344" data-name="Trazado 248344" d="M271.084,336.62l-.925-.53-2.509,1.442.931.536Z" transform="translate(-231.957 -292.346)" fill="#455a64"/>
        <path id="Trazado_248345" data-name="Trazado 248345" d="M268.581,338.966l-.925,12.1-.006-12.637Z" transform="translate(-231.957 -293.243)" fill="#263238"/>
        <path id="Trazado_248346" data-name="Trazado 248346" d="M272.645,336.95l-.925,12.1.3-.142Z" transform="translate(-233.518 -292.676)" fill="#37474f"/>
        <path id="Trazado_248347" data-name="Trazado 248347" d="M239.22,340.446l.925-.536,2.5,1.443-.925.536Z" transform="translate(-221.052 -293.811)" fill="#455a64"/>
        <path id="Trazado_248348" data-name="Trazado 248348" d="M239.22,340.78l.925,12.095-.3-.142Z" transform="translate(-221.052 -294.145)"/>
        <path id="Trazado_248349" data-name="Trazado 248349" d="M222.97,331.06l.931-.53,2.5,1.442-.931.536Z" transform="translate(-214.819 -290.213)" fill="#455a64"/>
        <path id="Trazado_248350" data-name="Trazado 248350" d="M244.2,354.887l-.925-12.1.925-.536Z" transform="translate(-222.609 -294.709)" fill="#37474f"/>
        <path id="Trazado_248351" data-name="Trazado 248351" d="M227.961,332.87v12.637l-.931-12.1Z" transform="translate(-216.376 -291.111)" fill="#37474f"/>
        <path id="Trazado_248352" data-name="Trazado 248352" d="M222.97,331.39l.925,12.1-.3-.142Z" transform="translate(-214.819 -290.543)"/>
        <path id="Trazado_248353" data-name="Trazado 248353" d="M299.517,320.206l-.925-.536-2.5,1.442.925.536Z" transform="translate(-242.865 -286.048)" fill="#455a64"/>
        <path id="Trazado_248354" data-name="Trazado 248354" d="M297.015,322.546l-.925,12.1V322.01Z" transform="translate(-242.865 -286.945)" fill="#263238"/>
        <path id="Trazado_248355" data-name="Trazado 248355" d="M301.075,320.54l-.925,12.1.308-.148Z" transform="translate(-244.422 -286.381)" fill="#37474f"/>
        <path id="Trazado_248356" data-name="Trazado 248356" d="M265.47,330.022l.006-2.891,5.005-2.891.838.481-.006,2.891L266.3,330.5Z" transform="translate(-231.12 -287.801)" fill="#37474f"/>
        <path id="Trazado_248357" data-name="Trazado 248357" d="M271.838,325.02l-.006,2.891L266.82,330.8l.012-2.891Z" transform="translate(-231.638 -288.1)" fill="#455a64"/>
        <path id="Trazado_248358" data-name="Trazado 248358" d="M266.315,329.411l-.838-.481-.006,2.891.832.481Z" transform="translate(-231.12 -289.6)" fill="#263238"/>
        <path id="Trazado_248359" data-name="Trazado 248359" d="M294.12,313.492l.012-2.891,5.005-2.891.838.481-.012,2.891-5.005,2.891Z" transform="translate(-242.109 -281.46)" fill="#37474f"/>
        <path id="Trazado_248360" data-name="Trazado 248360" d="M300.5,308.49l-.012,2.891-5.005,2.891.006-2.891Z" transform="translate(-242.631 -281.76)" fill="#455a64"/>
        <path id="Trazado_248361" data-name="Trazado 248361" d="M294.965,312.881l-.832-.481-.012,2.891.838.481Z" transform="translate(-242.109 -283.259)" fill="#263238"/>
      </g>
    </g>
    <g id="freepik--Tools--inject-2" transform="translate(364.89 1502.752)">
      <g id="freepik--Wrench--inject-2" transform="translate(11.392)">
        <path id="Trazado_248362" data-name="Trazado 248362" d="M246.657,379.117c-.339.191-.974.185-1.177.413v.832l3.871-.561,1.461.857-.555,1.165-3.908-.265v.832a2.707,2.707,0,0,0,.259.173,6.608,6.608,0,0,0,5.967,0,2.1,2.1,0,0,0,1.233-1.732h0V380l-.228.037a.153.153,0,0,1,0-.043l14.647-8.458a6.6,6.6,0,0,0,4.408-.555,2.466,2.466,0,0,0,1.177-1.233v-.838l-3.871,1.4-1.461-.857.555-1.165,3.908-.567v-.838s-4.568-.3-6.232.616a2.688,2.688,0,0,0-1.029.955l-.222-.08v.826h0a1.579,1.579,0,0,0,.253.869l-14.647,8.458a6.6,6.6,0,0,0-4.408.592Z" transform="translate(-245.48 -365.99)" fill="#37474f"/>
        <path id="Trazado_248363" data-name="Trazado 248363" d="M273.267,373.982v-.832l-14.647,8.458v.832Z" transform="translate(-250.52 -368.413)" fill="#37474f"/>
        <path id="Trazado_248364" data-name="Trazado 248364" d="M265.712,368.748l-14.647,8.458a6.627,6.627,0,0,0-4.408.549,2.466,2.466,0,0,0-1.177,1.233l3.871-.561,1.461.857-.555,1.159-3.908.573a2.7,2.7,0,0,0,.259.173,6.608,6.608,0,0,0,5.967,0c1.233-.69,1.553-1.7,1-2.571l14.647-8.458a6.633,6.633,0,0,0,4.408-.555,2.466,2.466,0,0,0,1.177-1.233l-3.871.567-1.461-.857.555-1.165,3.908-.573-.259-.166a6.608,6.608,0,0,0-5.967,0C265.527,366.867,265.163,367.878,265.712,368.748Z" transform="translate(-245.48 -365.465)" fill="#455a64"/>
        <path id="Trazado_248365" data-name="Trazado 248365" d="M283.1,368.847l-.308-.179.555-1.165,3.908-.573v.838l-3.908.567Z" transform="translate(-259.791 -366.027)" fill="#263238"/>
        <path id="Trazado_248366" data-name="Trazado 248366" d="M250.5,388.02l.308-.647-1.461-.863-3.871.567v.838l3.871-.567Z" transform="translate(-245.48 -373.537)" fill="#263238"/>
      </g>
      <g id="freepik--Screwdriver--inject-2" transform="translate(0 19.297)">
        <path id="Trazado_248367" data-name="Trazado 248367" d="M261.93,402.9l3.082,5.3,10.332-5.961a1.479,1.479,0,0,0,.69-1.43,4.784,4.784,0,0,0-2.17-3.754,1.51,1.51,0,0,0-1.529-.148h0Z" transform="translate(-240.398 -396.77)" fill="#7453d8"/>
        <path id="Trazado_248368" data-name="Trazado 248368" d="M260.194,407.729h0c-.043.808-1.184.98-1.184.98l2.164,3.754s.721-.888,1.442-.536h0c1.066.462,1.9-.111,1.9-1.387a4.784,4.784,0,0,0-2.17-3.748C261.235,406.145,260.323,406.577,260.194,407.729Z" transform="translate(-239.278 -400.498)" fill="#7453d8"/>
        <path id="Trazado_248369" data-name="Trazado 248369" d="M260.194,407.729h0c-.043.808-1.184.98-1.184.98l2.164,3.754s.721-.888,1.442-.536h0c1.066.462,1.9-.111,1.9-1.387a4.784,4.784,0,0,0-2.17-3.748C261.235,406.145,260.323,406.577,260.194,407.729Z" transform="translate(-239.278 -400.498)" opacity="0.05"/>
        <path id="Trazado_248370" data-name="Trazado 248370" d="M259.518,409.83a2.182,2.182,0,0,1-.518.16l2.164,3.754a2.419,2.419,0,0,1,.4-.364A4.858,4.858,0,0,0,259.518,409.83Z" transform="translate(-239.274 -401.779)" opacity="0.05"/>
        <path id="Trazado_248371" data-name="Trazado 248371" d="M255.34,410.175l.179.314a2.466,2.466,0,0,0-.092.672,4.8,4.8,0,0,0,2.17,3.754,2.2,2.2,0,0,0,.616.253l.179.314.721-.413h0a1.523,1.523,0,0,0,.616-1.405,4.79,4.79,0,0,0-2.164-3.754,1.523,1.523,0,0,0-1.535-.148h0Z" transform="translate(-237.87 -401.699)" fill="#7453d8"/>
        <path id="Trazado_248372" data-name="Trazado 248372" d="M258.644,414.34a4.79,4.79,0,0,0-2.164-3.754c-1.2-.69-2.17-.129-2.17,1.233a4.808,4.808,0,0,0,2.17,3.754C257.676,416.276,258.644,415.721,258.644,414.34Z" transform="translate(-237.475 -401.956)" fill="#7453d8"/>
        <path id="Trazado_248373" data-name="Trazado 248373" d="M258.644,414.34a4.79,4.79,0,0,0-2.164-3.754c-1.2-.69-2.17-.129-2.17,1.233a4.808,4.808,0,0,0,2.17,3.754C257.676,416.276,258.644,415.721,258.644,414.34Z" transform="translate(-237.475 -401.956)" opacity="0.15"/>
        <path id="Trazado_248374" data-name="Trazado 248374" d="M256.46,416.892a3.263,3.263,0,0,0,.536.481l.505-1.442-.616-.45Z" transform="translate(-238.3 -403.946)" opacity="0.15"/>
        <path id="Trazado_248375" data-name="Trazado 248375" d="M276.614,400.739h0a.616.616,0,0,1-.222.814l-7.4,4.26a.616.616,0,0,1-.82-.216h0a.616.616,0,0,1,.222-.814l7.4-4.26A.616.616,0,0,1,276.614,400.739Z" transform="translate(-242.766 -398.18)" opacity="0.2"/>
        <path id="Trazado_248376" data-name="Trazado 248376" d="M274.412,398.237h0a.345.345,0,0,1,0,.616l-7.521,4.315a.82.82,0,0,1-.869-.1h0a.345.345,0,0,1,0-.616l7.514-4.315A.82.82,0,0,1,274.412,398.237Z" transform="translate(-241.894 -397.263)" opacity="0.2"/>
        <path id="Trazado_248377" data-name="Trazado 248377" d="M277.819,403.868h0a.351.351,0,0,0-.542-.284l-7.521,4.315a.826.826,0,0,0-.351.8h0a.351.351,0,0,0,.542.284l7.521-4.315A.832.832,0,0,0,277.819,403.868Z" transform="translate(-243.261 -399.362)" opacity="0.2"/>
        <path id="Trazado_248378" data-name="Trazado 248378" d="M227,424.307v1.443l3.612-1.171a5.579,5.579,0,0,1,1.442-1.745l13.722-7.921.419-1.2-.419-.24-13.722,7.921a1.443,1.443,0,0,1-1.442-.08Z" transform="translate(-227 -403.175)" fill="#455a64"/>
        <path id="Trazado_248379" data-name="Trazado 248379" d="M227.69,424.7v1.442l3.612-1.171a5.512,5.512,0,0,1,1.442-1.745l13.722-7.921V413.86l-13.722,7.921a1.436,1.436,0,0,1-1.442-.074Z" transform="translate(-227.265 -403.325)" fill="#37474f"/>
        <path id="Trazado_248380" data-name="Trazado 248380" d="M227.429,432.739l-.419-.247V431.05l.419.247Z" transform="translate(-227.004 -409.918)" fill="#263238"/>
        <path id="Trazado_248381" data-name="Trazado 248381" d="M227.01,429.186l.419.247,3.612-3-.419-.247Z" transform="translate(-227.004 -408.054)" fill="#455a64"/>
      </g>
    </g>
    <g id="freepik--Character--inject-2" transform="translate(248.142 1301.146)">
      <g id="freepik--character--inject-2-2" data-name="freepik--character--inject-2">
        <g id="freepik--Top--inject-2" transform="translate(48.052)">
          <path id="Trazado_248382" data-name="Trazado 248382" d="M290.374,129.365H258.6a.462.462,0,1,1,0-.925h31.771a.462.462,0,1,1,0,.925Z" transform="translate(-170.248 -72.946)" fill="#37474f"/>
          <g id="freepik--Arm--inject-2" transform="translate(36.524 41.655)">
            <path id="Trazado_248383" data-name="Trazado 248383" d="M187.037,141.3c-3.051-5.825-7.977-18.413-7.977-18.413l.1-16.9c-.123,0,2.281.727,3.014.9,4.759,1.757,6.072,2.6,8.112,6.781,1.621,3.335,7.083,18.542,9.025,23.69l11.62-8.266c2.928-2.466,3.612-5.979,5.4-8.168s3.816-2.792,5.838-4.648,2.786-3.236,3.563-1.751-1.43,4.216-1.812,4.876c-.265.468-.937.814-1.091,1.338-.253.9,1.085.758,1.658.616,2.836-.616,5.412-3.008,7.163-5.2.684-.857,3.181-4.186,3.816-1.5.518,2.188-1.282,3.588-1.412,5.6a8.082,8.082,0,0,1-.863,3.205c-.425.912-.228,1.973-.53,2.928-.931,2.971-3.292,3.988-6.035,4.932s-5.708,1.59-7.983,3.341c-2.762,2.133-9.438,9.321-13.5,13.642-5.16,5.492-8.562,6.781-11.583,3.545S188.189,143.457,187.037,141.3Z" transform="translate(-176.44 -105.99)" fill="#ffa8a7"/>
            <path id="Trazado_248384" data-name="Trazado 248384" d="M254.84,119.467c-.616-2.688-3.132.616-3.816,1.5-1.751,2.188-4.315,4.58-7.163,5.2-.573.123-1.911.265-1.658-.616.154-.524.826-.869,1.091-1.338.382-.66,2.589-3.4,1.812-4.876s-1.535-.111-3.563,1.751-4.05,2.466-5.838,4.648-2.466,5.708-5.4,8.168l-.8.567a10.691,10.691,0,0,0,5.345,7.89c1.27-1.233,2.379-2.262,3.162-2.873,2.275-1.751,5.314-2.466,7.983-3.341s5.1-1.948,6.035-4.932c.3-.955.1-2.016.53-2.928a8.082,8.082,0,0,0,.863-3.205C253.557,123.055,255.357,121.656,254.84,119.467Z" transform="translate(-195.791 -110.763)" fill="#455a64"/>
            <path id="Trazado_248385" data-name="Trazado 248385" d="M229.856,142.105a9.455,9.455,0,0,0,1.9,5.456,9.863,9.863,0,0,0,3.286,2.293l.493-.382s.468.049-.789,1.313-1.553,1.732-2.256,1.627a7.817,7.817,0,0,1-4.032-3.323,10.221,10.221,0,0,1-1.683-4.932c.037-.616.9-1.06,1.683-1.627s1.6-1.51,2.034-1.134Z" transform="translate(-194.744 -119.537)" fill="#7453d8"/>
            <path id="Trazado_248386" data-name="Trazado 248386" d="M229.856,142.105a9.455,9.455,0,0,0,1.9,5.456,9.863,9.863,0,0,0,3.286,2.293l.493-.382s.468.049-.789,1.313-1.553,1.732-2.256,1.627a7.817,7.817,0,0,1-4.032-3.323,10.221,10.221,0,0,1-1.683-4.932c.037-.616.9-1.06,1.683-1.627s1.6-1.51,2.034-1.134Z" transform="translate(-194.744 -119.537)" opacity="0.2"/>
            <path id="Trazado_248387" data-name="Trazado 248387" d="M179.033,106.44a17.038,17.038,0,0,1,7.027,3.156c2.281,1.973,3.323,5.049,4.876,9.247s5.548,14.425,5.548,14.425a20.189,20.189,0,0,0-11.1,8.7L174.81,119.952Z" transform="translate(-174.81 -106.163)" fill="#e0e0e0"/>
            <path id="Trazado_248388" data-name="Trazado 248388" d="M209.05,156.167a10.658,10.658,0,0,0-4.74,4.759s0-3.4,4.315-5.936Z" transform="translate(-186.125 -124.784)" fill="#f28f8f"/>
          </g>
          <g id="freepik--Chest--inject-2" transform="translate(0 40.219)">
            <path id="Trazado_248389" data-name="Trazado 248389" d="M120.528,107.149s-3.618,3.181-4.543,6.621c-.45,1.689-.869,3.082.561,12.477,1.362,8.957,2.33,8.957,3.027,15.787l-1,17.094c5.357,6.275,30.372,9.469,42.886,1.017,0,0,.542-25.952-.339-36.641-.616-7.268-3.668-14.721-4.814-18.129-3.4-.616-6.676-.986-6.676-.986l-12.514-.727Z" transform="translate(-115.56 -103.66)" fill="#fafafa"/>
          </g>
          <g id="freepik--Head--inject-2" transform="translate(9.758 2.443)">
            <path id="Trazado_248390" data-name="Trazado 248390" d="M161.622,58.025c1.64-3.773.031-8.778-1.936-11.127-2.842-3.4-7.262-4.864-13.932-4.451-5.067.314-10.054,2.423-11,7.625-4.069,1.233-3.606,7.9-2.6,10.855,2.059,5.992,6.1,11.2,6.164,14.264Z" transform="translate(-131.416 -42.38)" fill="#37474f"/>
            <path id="Trazado_248391" data-name="Trazado 248391" d="M161.589,76.813c-.8,2.891-2.466,5.012-5.147,5.431a22.505,22.505,0,0,1-4.223,0l.1,3.7c5.548,7.021-7.434,8.445-13.845.752L138.1,74.261s-1.634,1.849-4.315.1a5.887,5.887,0,0,1-1.849-7.206c1.338-2.817,4.013-1.652,4.839-.8s1.782,2.466,2.466,2.244a2.5,2.5,0,0,0,1.658-1.7,15.183,15.183,0,0,0,.869-5.468,7.225,7.225,0,0,0,2.1-1.615,6.781,6.781,0,0,0,1.849-4.186c5.776-1.806,12.421-.955,14.795.906,1.381,2.435,1.436,8.094,1.664,11.355A26.683,26.683,0,0,1,161.589,76.813Z" transform="translate(-131.389 -47.082)" fill="#ffa8a7"/>
            <path id="Trazado_248392" data-name="Trazado 248392" d="M157.256,94.333c-2.959-.166-8.908-1.547-10.479-3.193s-2.256-5.03-2.256-5.03.234,4.266,1.461,6.164,4.315,2.706,6.164,3.175a47.23,47.23,0,0,0,5.147.777Z" transform="translate(-136.425 -59.153)" fill="#f28f8f"/>
            <path id="Trazado_248393" data-name="Trazado 248393" d="M160.606,72.323a1.233,1.233,0,1,1-.772-1.143A1.233,1.233,0,0,1,160.606,72.323Z" transform="translate(-141.649 -53.392)" fill="#263238"/>
            <path id="Trazado_248394" data-name="Trazado 248394" d="M157.772,66.461l-2.423,1.634a1.535,1.535,0,0,1,.413-2.084,1.424,1.424,0,0,1,2.01.45Z" transform="translate(-140.487 -51.352)" fill="#263238"/>
            <path id="Trazado_248395" data-name="Trazado 248395" d="M176.847,66.8l-2.657-1.27a1.412,1.412,0,0,1,1.917-.727,1.553,1.553,0,0,1,.74,2Z" transform="translate(-147.806 -50.926)" fill="#263238"/>
            <path id="Trazado_248396" data-name="Trazado 248396" d="M175.512,71.633a1.2,1.2,0,1,1-1.2-1.233A1.233,1.233,0,0,1,175.512,71.633Z" transform="translate(-147.396 -53.127)" fill="#263238"/>
            <path id="Trazado_248397" data-name="Trazado 248397" d="M166.6,68.92l.863,8.593,4.617-1.393Z" transform="translate(-144.894 -52.56)" fill="#f28f8f"/>
            <path id="Trazado_248398" data-name="Trazado 248398" d="M162.1,86.11l4.932,1.1a2.466,2.466,0,0,1-2.971,2.01A2.663,2.663,0,0,1,162.1,86.11Z" transform="translate(-143.147 -59.153)" fill="#b16668"/>
            <path id="Trazado_248399" data-name="Trazado 248399" d="M164.1,89.777a2.8,2.8,0,0,0,.308.037,2.293,2.293,0,0,0-2.3-2.244,2.62,2.62,0,0,0,1.991,2.207Z" transform="translate(-143.172 -59.713)" fill="#f28f8f"/>
          </g>
          <g id="freepik--Helmet--inject-2" transform="translate(9.437)">
            <path id="Trazado_248400" data-name="Trazado 248400" d="M130.949,56.168a15.718,15.718,0,0,0,1.1,4.383c.327-.413.7-.82,1.085-1.233a26.507,26.507,0,0,1,7.681-5.246h0c6.59-3.082,14.659-4.118,21.119-2.324a14.857,14.857,0,0,0-1.2-3.7,15.645,15.645,0,0,0-29.78,8.118Z" transform="translate(-130.868 -38.616)" fill="#7453d8"/>
            <path id="Trazado_248401" data-name="Trazado 248401" d="M140.753,40.4c.783-.382,4.722-1.56,5.042-1.658,2.04-.616,5.326-.579,8.7,2.195a15.885,15.885,0,0,1,5.277,8.525l-4.192,1.313-1.338.129c-.493-3.082-4.555-9.721-10.264-9.968a5.812,5.812,0,0,0-.8,0,7.527,7.527,0,0,0-2.213.45,21.573,21.573,0,0,0-2.213,1.775A3.5,3.5,0,0,1,140.753,40.4Z" transform="translate(-133.891 -38.416)" fill="#7453d8"/>
            <path id="Trazado_248402" data-name="Trazado 248402" d="M140.753,40.4c.783-.382,4.722-1.56,5.042-1.658,2.04-.616,5.326-.579,8.7,2.195a15.885,15.885,0,0,1,5.277,8.525l-4.192,1.313-1.338.129c-.493-3.082-4.555-9.721-10.264-9.968a5.812,5.812,0,0,0-.8,0,7.527,7.527,0,0,0-2.213.45,21.573,21.573,0,0,0-2.213,1.775A3.5,3.5,0,0,1,140.753,40.4Z" transform="translate(-133.891 -38.416)" fill="#fff" opacity="0.45"/>
            <path id="Trazado_248403" data-name="Trazado 248403" d="M154.257,51.728c-.616-3.588-6.053-12.076-13.278-9.518a21.624,21.624,0,0,0-2.219,1.775,3.514,3.514,0,0,1,2-2.768c1.88-.906,5.653-1.35,9.555,1.849a15.867,15.867,0,0,1,5.271,8.519Z" transform="translate(-133.895 -39.237)" fill="#7453d8"/>
            <path id="Trazado_248404" data-name="Trazado 248404" d="M154.257,51.728c-.616-3.588-6.053-12.076-13.278-9.518a21.624,21.624,0,0,0-2.219,1.775,3.514,3.514,0,0,1,2-2.768c1.88-.906,5.653-1.35,9.555,1.849a15.867,15.867,0,0,1,5.271,8.519Z" transform="translate(-133.895 -39.237)" opacity="0.3"/>
            <path id="Trazado_248405" data-name="Trazado 248405" d="M146.81,56.559a17.393,17.393,0,0,1,6.966-6.164c3.212-1.714,9.8-1.8,12.748-1.751,5.172.086,6.4,1.184,6.473,1.948,0,.179.086,1.017.111,1.2a.721.721,0,0,1-.111.493c-.771,1.171-4.932,3.205-4.932,3.205-6.46-1.794-14.529-.758-21.119,2.324Z" transform="translate(-136.983 -42.336)" fill="#7453d8"/>
            <path id="Trazado_248406" data-name="Trazado 248406" d="M146.81,56.559a17.393,17.393,0,0,1,6.966-6.164c3.212-1.714,9.8-1.8,12.748-1.751,5.172.086,6.4,1.184,6.473,1.948,0,.179.086,1.017.111,1.2a.721.721,0,0,1-.111.493c-.771,1.171-4.932,3.205-4.932,3.205-6.46-1.794-14.529-.758-21.119,2.324Z" transform="translate(-136.983 -42.336)" opacity="0.15"/>
            <path id="Trazado_248407" data-name="Trazado 248407" d="M147,58.544c6.59-3.082,14.659-4.118,21.119-2.324,0,0,4.179-2.034,4.932-3.205.419-.647.043-2.305-6.349-2.41-2.959-.049-9.543.037-12.754,1.751A17.773,17.773,0,0,0,147,58.544Z" transform="translate(-137.056 -43.087)" fill="#7453d8"/>
            <path id="Trazado_248408" data-name="Trazado 248408" d="M147,58.544c6.59-3.082,14.659-4.118,21.119-2.324,0,0,4.179-2.034,4.932-3.205.419-.647.043-2.305-6.349-2.41-2.959-.049-9.543.037-12.754,1.751A17.773,17.773,0,0,0,147,58.544Z" transform="translate(-137.056 -43.087)" opacity="0.3"/>
          </g>
        </g>
        <g id="freepik--Bottom--inject-2" transform="translate(39.414 40.638)">
          <path id="Trazado_248409" data-name="Trazado 248409" d="M170.533,347.387c.2-3.273,1.954-36.247,1.954-36.247l-16.027,11.3c2.792,18.851,3.409,24.534,3.526,27.678h0a2.637,2.637,0,0,0-.074.808c.086,3.736,4.562,5.684,8.069,8.125a65.136,65.136,0,0,0,9.469,5.671c2.534,1.165,7.638,1.2,8.242-.345-4.266-3-9.2-6.263-12.619-9.7C171.464,353.027,170.293,351.307,170.533,347.387Z" transform="translate(-122.609 -183.66)" fill="#ffa8a7"/>
          <path id="Trazado_248410" data-name="Trazado 248410" d="M193.97,398.9a3.059,3.059,0,0,1-.573,3.23c-1.332,1.128-5.271,3.008-10.529,2.435s-8.131-2.071-10.264-3.7-5.123-3.958-7.508-4.42a14.936,14.936,0,0,1-5.345-1.985c-.721-.635-.672-3.526-.672-3.526Z" transform="translate(-123.614 -214.268)" fill="#263238"/>
          <path id="Trazado_248411" data-name="Trazado 248411" d="M177.4,376.7c-.345-.321-.678-.616-1-.974a12.329,12.329,0,0,1-2.509-4.136,11.755,11.755,0,0,1-.789-2.281c-.166-.906-.271-1.849-.425-2.731-.055-.339,0-1.085-.419-1.233a2.465,2.465,0,0,0-1.418.265c-1.066.456-2.182.808-3.279,1.2-.616.216-1.88.549-2.065,1.233s.123,1.535,0,2.275c-.055.29-.179.616-.518.579-.616,0-.771-.888-.931-1.319-.345-.906-.616-1.332-1.6-1.6-.512-.142-1.51-.21-1.849-.666l-.129-1.233a1.849,1.849,0,0,0-1.3,1.011,5.556,5.556,0,0,0,0,3.045,13.938,13.938,0,0,1,.234,2.823,17.745,17.745,0,0,1-.388,2.4,22.239,22.239,0,0,0-.388,4.192,10.3,10.3,0,0,0,.148,1.948,2.139,2.139,0,0,0,.826,1.331,7.162,7.162,0,0,0,2.25,1.344c1.128.45,2.293.8,3.44,1.2a29.673,29.673,0,0,1,7.527,4.358,22.754,22.754,0,0,0,11.133,3.754c5.227,0,8.877-1.726,9.863-3.526a5.571,5.571,0,0,0-.395-3.341c-1.849-2.823-5.9-3.736-9.16-5.289a36.938,36.938,0,0,1-4.106-2.416A21.1,21.1,0,0,1,177.4,376.7Z" transform="translate(-123.436 -204.444)" fill="#37474f"/>
          <path id="Trazado_248412" data-name="Trazado 248412" d="M197.523,392.66a12.871,12.871,0,0,0-9.573,9.629,21.231,21.231,0,0,0,7.243,1.677c5.227,0,8.877-1.726,9.863-3.526a5.571,5.571,0,0,0-.395-3.341C203.213,394.818,200.31,393.782,197.523,392.66Z" transform="translate(-134.687 -214.928)" fill="#455a64"/>
          <path id="Trazado_248413" data-name="Trazado 248413" d="M165.253,392.353l.271.1c-.253-4.931-2.287-8.2-6.744-8.858a22.131,22.131,0,0,0-.191,2.934,10.3,10.3,0,0,0,.148,1.948,2.139,2.139,0,0,0,.826,1.331,7.162,7.162,0,0,0,2.25,1.344C162.941,391.608,164.106,391.953,165.253,392.353Z" transform="translate(-123.425 -211.453)" fill="#455a64"/>
          <path id="Trazado_248414" data-name="Trazado 248414" d="M125.328,324.631,108.623,321c-.438,10.338-.173,24.325-.524,34.027-.068,1.849-1.011,14.178-.487,17.963.789,5.7,8.427,5.332,9.056,1.979s1.184-17.692,1.313-19.177c.351-6.214,3.9-16.644,6.386-27.74C124.49,327.54,125.211,325.161,125.328,324.631Z" transform="translate(-103.812 -187.442)" fill="#ffa8a7"/>
          <path id="Trazado_248415" data-name="Trazado 248415" d="M117.1,410.862c-.062,3.323-.549,5.548-1.794,7.533s-3.729,2.7-6.3,2.225-5.905-1.849-6.781-4.71a15.97,15.97,0,0,1-.364-7.89Z" transform="translate(-101.546 -220.82)" fill="#263238"/>
          <path id="Trazado_248416" data-name="Trazado 248416" d="M106.116,366.93c-1.042.111-1.233,9.13-1.652,13.6-.432,4.8-1.954,6.83-2.355,10.769-.456,4.5-.1,6.485,1.8,9.123s8.316,5.061,11.238,1.073c2.379-3.255,2.324-6.781,1.892-11.219-.45-4.6-.468-11.99-.413-15.5.049-3.353,1.066-6.9.136-7.237-.2.9-.321,1.671-.425,2.151-.228,1.06-.481,2.343-.8,2.1,0,0,.092-.943.1-1.375s.1-.715-.185-.992a5.6,5.6,0,0,0-1.979-.505c-1.042-.148-2.084-.265-3.138-.314h-1.578a4.961,4.961,0,0,0-1.319.216.894.894,0,0,0-.549.481,1.3,1.3,0,0,0,0,.512,3.3,3.3,0,0,1-.086.918c-.037.136-.129.3-.284.277s-.247-.111-.29-.413a14.209,14.209,0,0,1-.1-1.849v-.98C106.134,367.479,106.11,367.214,106.116,366.93Z" transform="translate(-101.694 -205.059)" fill="#37474f"/>
          <path id="Trazado_248417" data-name="Trazado 248417" d="M101.936,409.717c-.055,2.786.216,4.679,1.7,6.744,1.9,2.638,8.821,5.049,11.712,1.06a11.389,11.389,0,0,0,1.849-6.608C115.251,408,104.753,407.066,101.936,409.717Z" transform="translate(-101.693 -220.87)" fill="#455a64"/>
          <path id="Trazado_248418" data-name="Trazado 248418" d="M159.158,147.78s-12.68,2.854-31.691,1.547c0,12.563,1.325,26.975-4.691,26.9l-7.182-.173c-.4,18.814-3.582,58.038-3.582,58.038-.284,2.312-3.631,12.138-3.754,20.5-.191,13.112-.468,23.049-.468,23.049s7.323,2.9,12.7.888c0,0,7-27.869,8.963-36.567,2.336-10.362,7.163-29.509,7.163-29.509l.586,27.265a75.026,75.026,0,0,0-.222,16.558c.616,5.548,2.866,20.9,2.866,20.9s6.738,1.356,12.582-.376c0,0,3.52-33.023,3.81-38.108.314-5.548,2.065-56.509,2.225-61.262h0C160.07,153.464,159.158,147.78,159.158,147.78Z" transform="translate(-103.941 -121.002)" fill="#455a64"/>
          <path id="Trazado_248419" data-name="Trazado 248419" d="M136.519,133.237c-.888-11.379-.863-20.731-5.129-26.26l5.449-1.147s4.716,10.442,4.716,27.8Z" transform="translate(-112.993 -104.911)" fill="#455a64"/>
          <path id="Trazado_248420" data-name="Trazado 248420" d="M178.608,132.6c0-12.4-2.731-23.024-7.058-27.666l6.232.931s5.832,9.382,5.832,26.735Z" transform="translate(-128.397 -104.566)" fill="#455a64"/>
          <path id="Trazado_248421" data-name="Trazado 248421" d="M150.82,153.9a87.465,87.465,0,0,0,18.432-.98l.382,8.525-8.4,5.264-10.418-3.4Z" transform="translate(-120.446 -122.973)" fill="#37474f"/>
          <path id="Trazado_248422" data-name="Trazado 248422" d="M124.205,194.65c4.827,2,16.545,3.205,25.952,3.082s14.332-2.336,14.332-2.336l-.154,5.733s-16.693,7-40.845-1.233Z" transform="translate(-109.963 -138.979)" fill="#7453d8"/>
          <path id="Trazado_248423" data-name="Trazado 248423" d="M124.205,194.65c4.827,2,16.545,3.205,25.952,3.082s14.332-2.336,14.332-2.336l-.154,5.733s-16.693,7-40.845-1.233Z" transform="translate(-109.963 -138.979)" opacity="0.3"/>
          <path id="Trazado_248424" data-name="Trazado 248424" d="M154.56,238.929l4.475-18.086s6.707.086,11.1-4.013c0,0-.616,4.617-8.587,7.083L157.4,238.282l-2.349,27.4Z" transform="translate(-121.88 -147.487)" fill="#37474f"/>
          <path id="Trazado_248425" data-name="Trazado 248425" d="M132.084,104.58l.037,1.233a45.294,45.294,0,0,1,2.09,8.427c1.295,7.81,1.516,18.049,1.516,29.589v31.8s-14.456.925-19.048-10.11l1.849-23.129s-2.651-11.959-3.372-18.8-2.01-11.626,4.383-16.853Z" transform="translate(-106.531 -104.432)" fill="#7453d8"/>
          <path id="Trazado_248426" data-name="Trazado 248426" d="M118.85,155.42c.721,3.662,1.344,6.466,1.344,6.466l-.068.906a30.682,30.682,0,0,0,17.26,4.512v-6.46C130.655,161.153,123.258,158.86,118.85,155.42Z" transform="translate(-108.183 -123.932)" fill="#f0f0f0"/>
          <path id="Trazado_248427" data-name="Trazado 248427" d="M137.585,188.482V182a30.54,30.54,0,0,1-17.716-4.827l-.469,6.121C123.838,186.6,131.02,188.778,137.585,188.482Z" transform="translate(-108.394 -132.275)" fill="#f0f0f0"/>
          <path id="Trazado_248428" data-name="Trazado 248428" d="M165.72,104.34a17.988,17.988,0,0,1,8.143,10.936c1.948,7.656,2.238,13.7,2.509,23.529s-.129,37.264-.129,37.264,4.315-1.892,5.264-3.945c0,0,1.233-34.835-.129-47.182s-5.832-19.307-5.832-19.307S172.353,104.328,165.72,104.34Z" transform="translate(-126.161 -104.34)" fill="#7453d8"/>
          <path id="Trazado_248429" data-name="Trazado 248429" d="M183.1,168.26a30.915,30.915,0,0,0,5.548-.666c0-2.158,0-4.315,0-6.454a30.95,30.95,0,0,1-5.653.653C183.068,163.655,183.092,165.868,183.1,168.26Z" transform="translate(-132.789 -126.126)" fill="#f0f0f0"/>
          <path id="Trazado_248430" data-name="Trazado 248430" d="M188.636,188.445c.037-1.985.08-4.179.1-6.485a30.821,30.821,0,0,1-5.511.616c0,2.188,0,4.377,0,6.466A31.676,31.676,0,0,0,188.636,188.445Z" transform="translate(-132.877 -134.112)" fill="#f0f0f0"/>
        </g>
        <g id="freepik--hand-with-bulb--inject-2" transform="translate(0 16.474)">
          <path id="Trazado_248431" data-name="Trazado 248431" d="M98.228,105.192c-3.7,0-8.014-.16-10.436,5.178-.789,1.738-3.224,11.959-5.93,21.384a130.934,130.934,0,0,1-9.518-13.6c-1.436-3-1.455-5.03-2.922-8.131a25.551,25.551,0,0,1-1.948-5.326c-.351-1.233-1.449-.327-1.849.228a5.813,5.813,0,0,0-1.017,3.175c0,.8,0,1.621-.062,2.41s-.327.758-.968.4a19.369,19.369,0,0,1-3.538-3.039c-1.073-1.023-2.54-1.985-3.7-3.082a34.7,34.7,0,0,1-2.688-3.323c-.709-.832-1.917-1.911-2.848-.721-.555.721-.043,1.56.2,2.281a3.894,3.894,0,0,1-.154,2.232,4.155,4.155,0,0,0,.074,2.682,3.788,3.788,0,0,1,.721,2.429,9.911,9.911,0,0,0-.271,2.521,5.345,5.345,0,0,0,.974,1.849,13.457,13.457,0,0,0,2.324,2.971,27.7,27.7,0,0,0,3.471,2.977c2.965,2.305,4.069,3.027,5.061,3.8,1.486,1.147,3.021,4.087,3.884,5.708,1.683,3.181,5.314,12.045,10.159,18.388,2.8,3.655,6.621,4.821,9.986.69a31.814,31.814,0,0,0,4.235-8.211c3.742-9.968,6.448-18.166,6.448-18.166S100.94,113.576,98.228,105.192Z" transform="translate(-42.575 -78.593)" fill="#ffa8a7"/>
          <path id="Trazado_248432" data-name="Trazado 248432" d="M74.138,121.041c-.962-1.455-1.6-2.509-1.794-2.9-1.436-3-1.455-5.03-2.922-8.131a25.552,25.552,0,0,1-1.948-5.314c-.351-1.233-1.449-.327-1.849.228a5.813,5.813,0,0,0-1.017,3.175c0,.8,0,1.621-.062,2.41s-.327.758-.968.4a19.369,19.369,0,0,1-3.538-3.039c-1.073-1.023-2.54-1.985-3.7-3.082a34.7,34.7,0,0,1-2.688-3.323c-.709-.832-1.917-1.911-2.848-.721-.555.721-.043,1.56.2,2.281a3.894,3.894,0,0,1-.154,2.232,4.155,4.155,0,0,0,.074,2.682,3.788,3.788,0,0,1,.721,2.429,9.911,9.911,0,0,0-.271,2.521,5.345,5.345,0,0,0,.974,1.849,13.457,13.457,0,0,0,2.324,2.971,27.7,27.7,0,0,0,3.471,2.977c2.965,2.305,4.069,3.027,5.061,3.8,1.412,1.091,2.866,3.8,3.748,5.449C69.9,128.044,72.572,124.419,74.138,121.041Z" transform="translate(-42.575 -78.593)" fill="#455a64"/>
          <path id="Trazado_248433" data-name="Trazado 248433" d="M82.222,131.069l-.462-.69s.185-.808.937.345a18.648,18.648,0,0,1,1.745,3.051,9.547,9.547,0,0,1-3,6.084c-2.342,1.874-4.4,2.435-5.055,2.355s-.838-.672-1.233-1.455-1.307-1.745-1.029-2.466l.53.746a10.553,10.553,0,0,0,5.4-3.366A8.982,8.982,0,0,0,82.222,131.069Z" transform="translate(-51.596 -90.058)" fill="#7453d8"/>
          <path id="Trazado_248434" data-name="Trazado 248434" d="M82.222,131.069l-.462-.69s.185-.808.937.345a18.648,18.648,0,0,1,1.745,3.051,9.547,9.547,0,0,1-3,6.084c-2.342,1.874-4.4,2.435-5.055,2.355s-.838-.672-1.233-1.455-1.307-1.745-1.029-2.466l.53.746a10.553,10.553,0,0,0,5.4-3.366A8.982,8.982,0,0,0,82.222,131.069Z" transform="translate(-51.596 -90.058)" opacity="0.2"/>
          <path id="Trazado_248435" data-name="Trazado 248435" d="M101.34,150.344a27.962,27.962,0,0,1,3.15,10.819c.616-5.616-1.091-10.751-2.669-12.483Z" transform="translate(-62.054 -97.183)" fill="#f28f8f"/>
          <path id="Trazado_248436" data-name="Trazado 248436" d="M118.72,107a30.262,30.262,0,0,0-6.528,1.393c-2.25.777-3.865,1.547-5.942,8.322-2,6.534-3.859,13.968-3.859,13.968s1.973,5.166,11.712,6.164l5.16-14.388S120.852,113.781,118.72,107Z" transform="translate(-62.456 -81.196)" fill="#ebebeb"/>
          <g id="freepik--Light--inject-2" transform="translate(8.247 8.216)">
            <path id="Trazado_248437" data-name="Trazado 248437" d="M70.224,118.79a1.966,1.966,0,1,1-.742-1.319A1.973,1.973,0,0,1,70.224,118.79Z" transform="translate(-56.858 -93.268)" fill="#263238"/>
            <path id="Trazado_248438" data-name="Trazado 248438" d="M183.99,126.638h-2.182a2.121,2.121,0,0,0-2.121,2.121v23.067A10.479,10.479,0,0,1,169.208,162.3H79.189A10.479,10.479,0,0,1,68.71,151.825V121.792a.462.462,0,0,1,.925,0v29.817a9.746,9.746,0,0,0,9.752,9.746h89.624a9.746,9.746,0,0,0,9.752-9.746V128.758a3.045,3.045,0,0,1,3.045-3.045h3.754A11.177,11.177,0,0,1,183.99,126.638Z" transform="translate(-57.785 -94.908)" fill="#37474f"/>
            <path id="Trazado_248439" data-name="Trazado 248439" d="M64.988,118.689c-1.387-.616-1.535-1.806-.327-2.712a5.221,5.221,0,0,1,4.7-.573c1.387.616,1.535,1.806.327,2.712A5.221,5.221,0,0,1,64.988,118.689Z" transform="translate(-55.918 -92.513)" fill="#37474f"/>
            <path id="Trazado_248440" data-name="Trazado 248440" d="M64.7,117.479c-1.43-.616-1.584-1.849-.339-2.8a5.4,5.4,0,0,1,4.851-.616c1.43.616,1.584,1.849.339,2.8A5.4,5.4,0,0,1,64.7,117.479Z" transform="translate(-55.796 -92)" fill="#263238"/>
            <path id="Trazado_248441" data-name="Trazado 248441" d="M64.421,116.244c-1.479-.616-1.634-1.923-.351-2.885a5.548,5.548,0,0,1,5-.616c1.473.616,1.634,1.923.351,2.885A5.548,5.548,0,0,1,64.421,116.244Z" transform="translate(-55.672 -91.486)" fill="#37474f"/>
            <path id="Trazado_248442" data-name="Trazado 248442" d="M64.127,114.971c-1.523-.616-1.689-1.979-.364-2.971a5.733,5.733,0,0,1,5.147-.616c1.523.616,1.689,1.979.364,2.977a5.733,5.733,0,0,1-5.147.61Z" transform="translate(-55.544 -90.96)" fill="#263238"/>
            <path id="Trazado_248443" data-name="Trazado 248443" d="M63.872,113.655c-1.553-.66-1.72-2.016-.37-3.033a5.838,5.838,0,0,1,5.252-.616c1.553.66,1.72,2.022.37,3.033A5.825,5.825,0,0,1,63.872,113.655Z" transform="translate(-55.437 -90.426)" fill="#37474f"/>
            <path id="Trazado_248444" data-name="Trazado 248444" d="M59.261,78.537a9.413,9.413,0,0,0-8.2,10.479c.906,7.4,7.175,7.9,7.539,10.892a1.634,1.634,0,0,0,1.1,1.233,5.1,5.1,0,0,0,4.562-.555,1.621,1.621,0,0,0,.783-1.449h0c-.364-2.99,5.6-4.969,4.7-12.384a9.413,9.413,0,0,0-10.486-8.217Z" transform="translate(-50.987 -78.467)" fill="#7453d8"/>
            <g id="Grupo_130832" data-name="Grupo 130832" opacity="0.6">
              <path id="Trazado_248445" data-name="Trazado 248445" d="M59.261,78.537a9.413,9.413,0,0,0-8.2,10.479c.906,7.4,7.175,7.9,7.539,10.892a1.634,1.634,0,0,0,1.1,1.233,5.1,5.1,0,0,0,4.562-.555,1.621,1.621,0,0,0,.783-1.449h0c-.364-2.99,5.6-4.969,4.7-12.384a9.413,9.413,0,0,0-10.486-8.217Z" transform="translate(-50.987 -78.467)" fill="#fff"/>
            </g>
            <path id="Trazado_248446" data-name="Trazado 248446" d="M65.48,112.8a1.052,1.052,0,0,1-.24-1.979,3.822,3.822,0,0,1,3.427-.419,1.052,1.052,0,0,1,.24,1.979,3.8,3.8,0,0,1-3.427.419Z" transform="translate(-56.225 -90.628)" fill="#7453d8"/>
            <path id="Trazado_248447" data-name="Trazado 248447" d="M66.148,104.806a.314.314,0,0,1-.351-.271,22.512,22.512,0,0,1,0-5.418,11.924,11.924,0,0,1,.284-1.541,4.581,4.581,0,0,1-.869-.3,5.437,5.437,0,0,1-1.362-.894,5.591,5.591,0,0,1-1.1,1.2,4.315,4.315,0,0,1-.764.493,11.6,11.6,0,0,1,.647,1.43,22.766,22.766,0,0,1,1.307,5.258.319.319,0,1,1-.635.062,22.359,22.359,0,0,0-1.27-5.1,10.48,10.48,0,0,0-.647-1.418,2.01,2.01,0,0,1-1.849-.3,1.023,1.023,0,0,1-.3-1.295.845.845,0,0,1,.832-.45,2.446,2.446,0,0,1,1.584,1.282,3.409,3.409,0,0,0,.69-.444,4.8,4.8,0,0,0,1.06-1.159,2.386,2.386,0,0,1-.678-1.726.894.894,0,0,1,1.7-.21,2.33,2.33,0,0,1-.24,1.849,4.734,4.734,0,0,0,1.307.875,3.742,3.742,0,0,0,.777.265c.314-.888.74-1.461,1.233-1.621a.857.857,0,0,1,.906.253,1.023,1.023,0,0,1,0,1.325,2,2,0,0,1-1.7.734,9.942,9.942,0,0,0-.3,1.541,22.975,22.975,0,0,0,0,5.246.321.321,0,0,1-.271.364Zm-6.171-7.927c-.049,0-.111.037-.166.142-.129.228.08.432.148.493a1.307,1.307,0,0,0,1.06.21c-.413-.579-.777-.832-.992-.845Zm6.96.123a1.233,1.233,0,0,0,.974-.462c.049-.068.21-.321.031-.512a.222.222,0,0,0-.247-.086c-.2.074-.493.407-.758,1.066Zm-3.36-2.91a.2.2,0,0,0-.222.2,1.566,1.566,0,0,0,.37,1.011,1.584,1.584,0,0,0,.117-1.073.21.21,0,0,0-.265-.129Z" transform="translate(-54.107 -84.221)" fill="#fff"/>
          </g>
          <path id="Trazado_248448" data-name="Trazado 248448" d="M73.945,71.126a.616.616,0,0,1-.345-.814L74.833,67.3a.616.616,0,0,1,.8-.333h0a.616.616,0,0,1,.345.808l-1.233,3.014a.616.616,0,0,1-.814.345Z" transform="translate(-51.395 -65.825)" fill="#e0e0e0"/>
          <path id="Trazado_248449" data-name="Trazado 248449" d="M62.108,69.554a.616.616,0,0,1-.382-.487l-.45-3.218a.622.622,0,0,1,1.233-.173l.444,3.218a.614.614,0,0,1-.845.66Z" transform="translate(-46.684 -65.14)" fill="#e0e0e0"/>
          <path id="Trazado_248450" data-name="Trazado 248450" d="M50.419,74.5a.616.616,0,0,1-.253-.191l-2-2.564a.624.624,0,0,1,.986-.764l2,2.558a.626.626,0,0,1-.734.962Z" transform="translate(-41.609 -67.287)" fill="#e0e0e0"/>
          <path id="Trazado_248451" data-name="Trazado 248451" d="M39.76,83.4a.623.623,0,1,1,.475-1.153l3.008,1.233h0a.622.622,0,1,1-.468,1.153L39.766,83.4Z" transform="translate(-38.286 -71.685)" fill="#e0e0e0"/>
          <path id="Trazado_248452" data-name="Trazado 248452" d="M37.992,97.386a.621.621,0,0,1,.154-1.19l3.218-.45a.622.622,0,0,1,.173,1.233l-3.218.45a.579.579,0,0,1-.327-.043Z" transform="translate(-37.609 -76.877)" fill="#e0e0e0"/>
          <path id="Trazado_248453" data-name="Trazado 248453" d="M87.744,90.452a.616.616,0,0,1,.154-1.2l3.218-.45a.626.626,0,1,1,.173,1.239l-3.218.444A.579.579,0,0,1,87.744,90.452Z" transform="translate(-56.681 -74.215)" fill="#e0e0e0"/>
          <path id="Trazado_248454" data-name="Trazado 248454" d="M83.232,78.761a.626.626,0,0,1-.148-1.085l2.564-2a.624.624,0,0,1,.764.986l-2.564,2A.616.616,0,0,1,83.232,78.761Z" transform="translate(-54.955 -69.132)" fill="#e0e0e0"/>
        </g>
        <path id="Trazado_248455" data-name="Trazado 248455" d="M115.413,195.969l-3.267,1.8a1.578,1.578,0,0,0-.74,1.233c-.08,2.916-.351,14.382.117,19.862a1.726,1.726,0,0,0,.789,1.233c1.849,1.042,6.867,3.791,9.166,4.426a2.885,2.885,0,0,0,1.56-.166l2.318-.931a1.319,1.319,0,0,0,.758-1.122c0-5.819,1.06-13.679,2.022-20.016a1.171,1.171,0,0,0-.616-1.165l-10.671-5.2A1.769,1.769,0,0,0,115.413,195.969Z" transform="translate(-65.857 -98.779)" fill="#455a64"/>
        <path id="Trazado_248456" data-name="Trazado 248456" d="M111.523,220.485c-.468-5.48-.2-16.946-.117-19.862a.481.481,0,0,1,.758-.45l9.937,4.932a1.294,1.294,0,0,1,.66,1.177,184.148,184.148,0,0,0-.524,19.159.616.616,0,0,1-.758.678c-2.3-.616-7.311-3.384-9.166-4.426A1.726,1.726,0,0,1,111.523,220.485Z" transform="translate(-65.857 -100.425)" fill="#37474f"/>
        <path id="Trazado_248457" data-name="Trazado 248457" d="M128,228.136a2.971,2.971,0,0,0,1.436-.2l2.324-.931a1.344,1.344,0,0,0,.746-1.122c.456-5.973,1.06-13.673,2.028-20.01a1,1,0,0,0-.117-.616l-5.375,2.466a1.128,1.128,0,0,1,.117.573,182.917,182.917,0,0,0-.524,19.165.616.616,0,0,1-.635.672Z" transform="translate(-72.279 -102.411)" fill="#263238"/>
        <path id="Trazado_248458" data-name="Trazado 248458" d="M113.6,204l8.7,4.062-.419,7.4L113.37,211.8S113.45,206.515,113.6,204Z" transform="translate(-66.668 -101.928)" fill="#263238"/>
        <path id="Trazado_248459" data-name="Trazado 248459" d="M122.162,215.125l-8.162-3.5s.074-4.833.21-7.329l8.322,3.877Z" transform="translate(-66.909 -102.043)" fill="#7453d8"/>
        <path id="Trazado_248460" data-name="Trazado 248460" d="M122.162,215.125l-8.162-3.5s.074-4.833.21-7.329l8.322,3.877Z" transform="translate(-66.909 -102.043)" opacity="0.4"/>
        <path id="Trazado_248461" data-name="Trazado 248461" d="M120.195,208.61l-1.825,2.638,1.147.395-.894,2.33,2.04-2.749-1.147-.431Z" transform="translate(-68.586 -103.696)" fill="#fafafa"/>
        <path id="Trazado_248462" data-name="Trazado 248462" d="M124.973,224.621l-.055.734a.277.277,0,0,1-.407.253l-1.319-.542a.616.616,0,0,1-.351-.567l.043-.746a.271.271,0,0,1,.4-.253l1.338.555A.616.616,0,0,1,124.973,224.621Z" transform="translate(-70.3 -109.394)" fill="#263238"/>
        <path id="Trazado_248463" data-name="Trazado 248463" d="M124.986,228.509l-.037.734a.277.277,0,0,1-.4.259l-1.332-.524a.616.616,0,0,1-.358-.555v-.752a.271.271,0,0,1,.395-.259l1.344.536A.616.616,0,0,1,124.986,228.509Z" transform="translate(-70.307 -110.896)" fill="#263238"/>
        <path id="Trazado_248464" data-name="Trazado 248464" d="M125.018,232.4v.734a.277.277,0,0,1-.4.265l-1.332-.5a.616.616,0,0,1-.376-.555v-.752a.271.271,0,0,1,.395-.259l1.35.512A.616.616,0,0,1,125.018,232.4Z" transform="translate(-70.327 -112.399)" fill="#263238"/>
        <path id="Trazado_248465" data-name="Trazado 248465" d="M125.03,236.335v.734a.277.277,0,0,1-.395.271l-1.344-.481a.616.616,0,0,1-.382-.542v-.752a.271.271,0,0,1,.388-.271l1.362.493A.616.616,0,0,1,125.03,236.335Z" transform="translate(-70.326 -113.92)" fill="#263238"/>
        <path id="Trazado_248466" data-name="Trazado 248466" d="M120.188,222.431l-.037.764a.271.271,0,0,1-.4.253l-1.307-.542a.616.616,0,0,1-.364-.567v-.777a.265.265,0,0,1,.395-.253l1.332.555A.616.616,0,0,1,120.188,222.431Z" transform="translate(-68.474 -108.553)" fill="#263238"/>
        <path id="Trazado_248467" data-name="Trazado 248467" d="M120.174,226.284l-.037.764a.271.271,0,0,1-.4.253l-1.307-.536a.616.616,0,0,1-.37-.567v-.777a.265.265,0,0,1,.395-.253l1.332.549A.616.616,0,0,1,120.174,226.284Z" transform="translate(-68.466 -110.034)" fill="#263238"/>
        <path id="Trazado_248468" data-name="Trazado 248468" d="M120.177,230.13v.764a.271.271,0,0,1-.395.259l-1.319-.53a.616.616,0,0,1-.364-.567v-.777a.265.265,0,0,1,.388-.259l1.332.549a.616.616,0,0,1,.358.561Z" transform="translate(-68.481 -111.513)" fill="#263238"/>
        <path id="Trazado_248469" data-name="Trazado 248469" d="M120.153,233.985v.764a.271.271,0,0,1-.395.253l-1.319-.524a.616.616,0,0,1-.37-.555v-.783a.271.271,0,0,1,.395-.259l1.332.542A.616.616,0,0,1,120.153,233.985Z" transform="translate(-68.47 -112.994)" fill="#263238"/>
        <path id="Trazado_248470" data-name="Trazado 248470" d="M115.428,220.278v.8a.265.265,0,0,1-.395.247l-1.3-.542a.616.616,0,0,1-.364-.567V219.4a.259.259,0,0,1,.382-.247l1.319.561A.616.616,0,0,1,115.428,220.278Z" transform="translate(-66.667 -107.727)" fill="#263238"/>
        <path id="Trazado_248471" data-name="Trazado 248471" d="M115.448,223.986v.8a.259.259,0,0,1-.388.247l-1.3-.542a.616.616,0,0,1-.37-.567V223.1a.259.259,0,0,1,.388-.247l1.319.561A.616.616,0,0,1,115.448,223.986Z" transform="translate(-66.675 -109.147)" fill="#263238"/>
        <path id="Trazado_248472" data-name="Trazado 248472" d="M115.454,227.726v.8a.265.265,0,0,1-.395.247l-1.3-.542a.653.653,0,0,1-.37-.567v-.814a.259.259,0,0,1,.388-.247l1.319.561A.616.616,0,0,1,115.454,227.726Z" transform="translate(-66.675 -110.582)" fill="#263238"/>
        <path id="Trazado_248473" data-name="Trazado 248473" d="M115.468,231.468v.8a.259.259,0,0,1-.388.247l-1.307-.542a.616.616,0,0,1-.364-.567v-.814a.259.259,0,0,1,.382-.247l1.319.555A.653.653,0,0,1,115.468,231.468Z" transform="translate(-66.683 -112.019)" fill="#263238"/>
      </g>
    </g>
    <g id="freepik--fuse-box--inject-2" transform="translate(407.69 1288)">
      <g id="freepik--fuse-box--inject-2-2" data-name="freepik--fuse-box--inject-2">
        <g id="freepik--plants--inject-2-4" data-name="freepik--plants--inject-2" transform="translate(32.291 197.057)">
          <path id="Trazado_248474" data-name="Trazado 248474" d="M354.618,369.271l-5.69-1.936c-.487-5.449.216-18.654,9.074-26.4,8.994-7.866,14.862-2.823,14.69.616-.185,3.754-8.254,7.274-12.329,12.329C355.912,359.377,354.525,363.137,354.618,369.271Z" transform="translate(-348.813 -336.759)" fill="#7453d8"/>
          <path id="Trazado_248475" data-name="Trazado 248475" d="M354.618,369.271l-5.69-1.936c-.487-5.449.216-18.654,9.074-26.4,8.994-7.866,14.862-2.823,14.69.616-.185,3.754-8.254,7.274-12.329,12.329C355.912,359.377,354.525,363.137,354.618,369.271Z" transform="translate(-348.813 -336.759)" fill="#fff" opacity="0.5"/>
          <path id="Trazado_248476" data-name="Trazado 248476" d="M351.812,370.055h0a.308.308,0,0,1-.3-.308c.08-14.659,10.966-27.487,16.391-28.319a.312.312,0,0,1,.092.616c-5.314.814-15.793,13.864-15.867,27.709A.308.308,0,0,1,351.812,370.055Z" transform="translate(-349.847 -338.549)" fill="#fff"/>
          <path id="Trazado_248477" data-name="Trazado 248477" d="M369.125,368c-4.931-1.621-15.658,3.773-17.735,11.712l4.216,1.424a23.32,23.32,0,0,1,11.891-5.086C374.445,375.355,374.038,369.622,369.125,368Z" transform="translate(-349.801 -348.632)" fill="#7453d8"/>
          <path id="Trazado_248478" data-name="Trazado 248478" d="M369.125,368c-4.931-1.621-15.658,3.773-17.735,11.712l4.216,1.424a23.32,23.32,0,0,1,11.891-5.086C374.445,375.355,374.038,369.622,369.125,368Z" transform="translate(-349.801 -348.632)" fill="#fff" opacity="0.65"/>
          <path id="Trazado_248479" data-name="Trazado 248479" d="M354.32,382.555a.3.3,0,0,1-.142-.031.314.314,0,0,1-.129-.419c4.223-8.155,13.389-10.566,17.119-9.567a.3.3,0,0,1,.216.376.314.314,0,0,1-.376.222c-3.563-.955-12.329,1.387-16.41,9.247a.3.3,0,0,1-.277.173Z" transform="translate(-350.808 -350.401)" fill="#fff"/>
        </g>
        <g id="freepik--Box--inject-2">
          <path id="Trazado_248480" data-name="Trazado 248480" d="M346.79,241.28v91.159h0a1.7,1.7,0,0,0,1.011,1.406,5.357,5.357,0,0,0,4.876,0,1.714,1.714,0,0,0,1.011-1.405h0V241.28Z" transform="translate(-315.746 -103.081)" fill="#455a64"/>
          <path id="Trazado_248481" data-name="Trazado 248481" d="M346.79,258.368l6.9-3.982V241.28h-6.9Z" transform="translate(-315.746 -103.081)" fill="#37474f"/>
          <path id="Trazado_248482" data-name="Trazado 248482" d="M331.16,196.547l47.577-27.469V83.93L331.16,111.4Z" transform="translate(-309.751 -42.727)" fill="#fda929"/>
          <path id="Trazado_248483" data-name="Trazado 248483" d="M365.416,76.24,344.007,63.88,296.43,91.349l21.409,12.36Z" transform="translate(-296.43 -35.037)" fill="#fda929"/>
          <path id="Trazado_248484" data-name="Trazado 248484" d="M365.416,76.24,344.007,63.88,296.43,91.349l21.409,12.36Z" transform="translate(-296.43 -35.037)" fill="#fff" opacity="0.2"/>
          <path id="Trazado_248485" data-name="Trazado 248485" d="M296.43,108.44v85.149l21.409,12.36V120.8Z" transform="translate(-296.43 -52.128)" fill="#fda929"/>
          <path id="Trazado_248486" data-name="Trazado 248486" d="M296.43,108.44v85.149l21.409,12.36V120.8Z" transform="translate(-296.43 -52.128)" opacity="0.2"/>
          <path id="Trazado_248487" data-name="Trazado 248487" d="M369.393,119.84,351.75,165.734l11.1-8.975-8.63,32.449,19.726-49.34-11.1,8.655Z" transform="translate(-317.649 -56.501)" fill="#fafafa"/>
          <path id="Trazado_248488" data-name="Trazado 248488" d="M336.26,129.5c.653-.376,1.19-.068,1.19.69a2.632,2.632,0,0,1-1.19,2.059c-.66.382-1.19.074-1.19-.684A2.638,2.638,0,0,1,336.26,129.5Z" transform="translate(-311.251 -60.145)" fill="#37474f"/>
          <path id="Trazado_248489" data-name="Trazado 248489" d="M336.26,254.278c.653-.382,1.19-.074,1.19.684a2.632,2.632,0,0,1-1.19,2.059c-.66.382-1.19.074-1.19-.684A2.614,2.614,0,0,1,336.26,254.278Z" transform="translate(-311.251 -108.003)" fill="#37474f"/>
          <path id="Trazado_248490" data-name="Trazado 248490" d="M401.814,91.628c.66-.382,1.19-.074,1.19.684a2.614,2.614,0,0,1-1.19,2.059c-.653.382-1.184.074-1.184-.684A2.626,2.626,0,0,1,401.814,91.628Z" transform="translate(-336.397 -45.617)" fill="#37474f"/>
          <path id="Trazado_248491" data-name="Trazado 248491" d="M401.814,216.4c.66-.382,1.19-.074,1.19.684a2.614,2.614,0,0,1-1.19,2.059c-.653.382-1.184.074-1.184-.684A2.626,2.626,0,0,1,401.814,216.4Z" transform="translate(-336.397 -93.474)" fill="#37474f"/>
          <path id="Trazado_248492" data-name="Trazado 248492" d="M395.019,59.148v60.43l26.168-15.109V19.32L373.61,46.789Z" transform="translate(-326.033 -17.945)" fill="#fda929"/>
          <path id="Trazado_248493" data-name="Trazado 248493" d="M419.706,18.465,372.129,45.933l-2.379-1.375L417.327,17.09Z" transform="translate(-324.553 -17.09)" fill="#fda929"/>
          <path id="Trazado_248494" data-name="Trazado 248494" d="M419.706,18.465,372.129,45.933l-2.379-1.375L417.327,17.09Z" transform="translate(-324.553 -17.09)" fill="#fff" opacity="0.2"/>
          <path id="Trazado_248495" data-name="Trazado 248495" d="M369.75,64.4V61.65l2.379,1.375Z" transform="translate(-324.553 -34.181)" fill="#7453d8"/>
          <path id="Trazado_248496" data-name="Trazado 248496" d="M369.75,64.4V61.65l2.379,1.375Z" transform="translate(-324.553 -34.181)" opacity="0.2"/>
          <path id="Trazado_248497" data-name="Trazado 248497" d="M373.61,63.88l30.637,8.408v59.055l-9.228,5.326V76.24Z" transform="translate(-326.033 -35.037)" opacity="0.2"/>
        </g>
      </g>
    </g>
  </g>
</svg>
