<svg xmlns="http://www.w3.org/2000/svg" width="400" height="296.095" viewBox="0 0 400 296.095">
  <g id="Grupo_145532" data-name="Grupo 145532" transform="translate(-180 -3474)">
    <rect id="BG" width="400" height="296.095" rx="14" transform="translate(180 3474)" fill="#e5e7f2"/>
    <g id="freepik--background-complete--inject-21" transform="translate(222 3574.005)">
      <path id="Trazado_250122" data-name="Trazado 250122" d="M34.76,422.04v26.279h80.822V422.04Z" transform="translate(-29.37 -252.791)" fill="#f5f5f5"/>
      <path id="Trazado_250123" data-name="Trazado 250123" d="M29.57,410.79v7.35h87.036v-7.35H29.57Z" transform="translate(-27.571 -248.891)" fill="#f7f7f7"/>
      <path id="Trazado_250124" data-name="Trazado 250124" d="M95.279,444.419h40.692V418.14h2.823v-7.35H93.58v6.671Z" transform="translate(-49.758 -248.891)" fill="#f7f7f7"/>
      <rect id="Rectángulo_43428" data-name="Rectángulo 43428" width="16.393" height="3.953" transform="translate(16.694 173.483)" fill="#e0e0e0"/>
      <rect id="Rectángulo_43429" data-name="Rectángulo 43429" width="21.045" height="8.357" transform="translate(14.583 182.389)" fill="#fff"/>
      <path id="Trazado_250125" data-name="Trazado 250125" d="M204.584,272.574a14.831,14.831,0,0,1,3.724-1.228l1.065-3.476,6,.444.536,3.6a14.727,14.727,0,0,1,3.509,1.764l3.215-1.705,3.92,4.574-2.163,2.927a14.786,14.786,0,0,1,1.228,3.731l3.476,1.065-.444,6-3.6.542a14.687,14.687,0,0,1-1.764,3.5L225,297.527l-4.574,3.92-2.927-2.163a14.834,14.834,0,0,1-3.724,1.228l-1.065,3.476-6-.444-.542-3.6a14.687,14.687,0,0,1-3.5-1.764l-3.215,1.705-3.92-4.574,2.163-2.921a14.963,14.963,0,0,1-1.228-3.731L193,287.6l.444-6,3.6-.536a14.73,14.73,0,0,1,1.764-3.509l-1.705-3.208,4.574-3.92,2.927,2.163Zm2.457,8.278a6.455,6.455,0,1,0,9.108.653,6.455,6.455,0,0,0-9.108-.653Z" transform="translate(-84.22 -199.351)" fill="#ebebeb"/>
      <path id="Trazado_250126" data-name="Trazado 250126" d="M426.911,179.572a12.525,12.525,0,0,1,3.149-1.032l.9-2.94,5.064.379.457,3.038a12.583,12.583,0,0,1,2.96,1.49l2.711-1.437,3.313,3.848-1.823,2.47a12.413,12.413,0,0,1,1.032,3.143l2.94.9-.379,5.07-3.038.451a12.456,12.456,0,0,1-1.49,2.96l1.437,2.712-3.848,3.332-2.47-1.829a12.415,12.415,0,0,1-3.143,1.039l-.9,2.934-5.07-.379-.451-3.038a12.46,12.46,0,0,1-2.96-1.49l-2.711,1.457-3.319-3.855,1.829-2.463a12.547,12.547,0,0,1-1.039-3.149l-2.934-.9.379-5.064,3.038-.457a12.336,12.336,0,0,1,1.49-2.96l-1.444-2.712,3.848-3.313,2.47,1.823Zm2.078,6.991a5.449,5.449,0,1,0,7.69.575A5.449,5.449,0,0,0,428.989,186.564Z" transform="translate(-161.909 -167.368)" fill="#ebebeb"/>
      <path id="Trazado_250127" data-name="Trazado 250127" d="M260.938,305.692a9.148,9.148,0,0,1,2.4-.791l.686-2.241,3.861.288.346,2.313a9.534,9.534,0,0,1,2.261,1.137l2.065-1.1,2.529,2.94-1.392,1.882a9.3,9.3,0,0,1,.791,2.4l2.241.686-.288,3.861-2.319.346a9.485,9.485,0,0,1-1.137,2.254l1.1,2.071-2.934,2.529-1.882-1.392a9.652,9.652,0,0,1-2.4.791l-.653,2.235-3.868-.288L262,323.3a9.611,9.611,0,0,1-2.254-1.137l-2.065,1.1-2.548-2.934,1.392-1.882a9.434,9.434,0,0,1-.791-2.4l-2.241-.653.288-3.868,2.319-.346a9.487,9.487,0,0,1,1.137-2.254l-1.111-2.117,2.934-2.529,1.882,1.4Zm1.581,5.325a4.155,4.155,0,1,0,3.031-1A4.156,4.156,0,0,0,262.52,311.017Z" transform="translate(-105.187 -211.41)" fill="#ebebeb"/>
      <path id="Trazado_250128" data-name="Trazado 250128" d="M38.088,167.717a14.832,14.832,0,0,1,3.724-1.228L42.884,163l6,.444.542,3.6a14.689,14.689,0,0,1,3.5,1.764L56.14,167.1l3.92,4.574L57.9,174.6a14.786,14.786,0,0,1,1.228,3.731L62.6,179.4l-.444,6-3.6.542a14.687,14.687,0,0,1-1.764,3.5l1.705,3.215-4.574,3.92L51,194.421a14.831,14.831,0,0,1-3.724,1.228l-1.065,3.482-6-.451-.536-3.6a14.728,14.728,0,0,1-3.509-1.764l-3.195,1.7-3.92-4.574,2.163-2.921a14.962,14.962,0,0,1-1.228-3.731l-3.476-1.065.444-6,3.6-.536a14.726,14.726,0,0,1,1.764-3.509l-1.705-3.208,4.574-3.92,2.927,2.163ZM40.551,176a6.462,6.462,0,1,0,9.108.653A6.462,6.462,0,0,0,40.551,176Z" transform="translate(-26.51 -163)" fill="#ebebeb"/>
    </g>
    <g id="freepik--Table--inject-21" transform="translate(229.095 3769.363)">
      <path id="Trazado_250129" data-name="Trazado 250129" d="M315.223,462.17c0,.1-62.208.17-138.92.17s-138.933-.072-138.933-.17S99.565,462,176.3,462,315.223,462.078,315.223,462.17Z" transform="translate(-37.37 -462)" fill="#263238"/>
    </g>
    <g id="freepik--circuit-board--inject-21" transform="translate(239.438 3495.6)">
      <path id="Trazado_250142" data-name="Trazado 250142" d="M276.878,215.481A18.981,18.981,0,0,1,294.5,196.549V107.114a19.011,19.011,0,0,1,0-38.011V56.482A13.452,13.452,0,0,0,281.052,43H66.662A13.452,13.452,0,0,0,53.2,56.482V69.1a19.011,19.011,0,0,1,0,38.011V270.871a13.462,13.462,0,0,0,13.462,13.472h50.366V257.933a9.179,9.179,0,0,1,8.378-9.258,8.971,8.971,0,0,1,9.565,8.951v26.706H281.052A13.452,13.452,0,0,0,294.5,270.871V234.412A18.981,18.981,0,0,1,276.878,215.481Z" transform="translate(-53.2 -43)" fill="#20cb7d"/>
      <ellipse id="Elipse_5761" data-name="Elipse 5761" cx="11.582" cy="11.582" rx="11.582" ry="11.582" transform="translate(209.197 205.834)" fill="#fff"/>
      <ellipse id="Elipse_5762" data-name="Elipse 5762" cx="5.747" cy="5.747" rx="5.747" ry="5.747" transform="translate(215.171 211.669)" fill="#7453d8"/>
      <g id="Grupo_131181" data-name="Grupo 131181" transform="translate(139.821 47.25)" opacity="0.3">
        <path id="Trazado_250143" data-name="Trazado 250143" d="M250.692,98.722v-1.5h-1.939v-4.51h-3.145V90.77h-1.5v1.939h-2.5V90.77h-1.5v1.939h-2.512V90.77h-1.5v1.939h-2.5V90.77h-1.5v1.939h-2.512V90.77h-1.5v1.939h-2.5V90.77h-1.5v1.939h-2.562V90.77h-1.5v1.939h-2.512V90.77h-1.5v1.939h-2.5V90.77h-1.5v1.939h-2.512V90.77h-1.5v1.939h-2.5V90.77h-1.5v1.939h-2.512V90.77h-1.5v1.939h-3.294v4.51H194.56v1.5h2.077v2.5H194.56v1.5h2.077v2.512H194.56v1.5h2.077v2.5H194.56v1.5h2.077v2.512H194.56v1.5h2.077v2.5H194.56v1.5h2.077v2.562H194.56v1.5h2.077v2.5H194.56v1.513h2.077v2.5H194.56v1.5h2.077v2.512H194.56v1.5h2.077v2.5H194.56v1.5h2.077v2.5H194.56V142.9h2.077v1.939h3.294V146.9h1.5v-2.067h2.512V146.9h1.5v-2.067h2.5V146.9h1.5v-2.067h2.512V146.9h1.5v-2.067h2.5V146.9h1.5v-2.067h2.512V146.9h1.5v-2.067h2.562V146.9h1.5v-2.067h2.5V146.9h1.5v-2.067h2.512V146.9h1.5v-2.067h2.5V146.9h1.5v-2.067H240.1V146.9h1.5v-2.067h2.5V146.9h1.5v-2.067h3.145V142.9h1.939v-1.513h-1.939v-2.5h1.939v-1.5h-1.939v-2.5h1.939v-1.5h-1.939v-2.512h1.939v-1.5h-1.939v-2.5h1.939v-1.513h-1.939v-2.5h1.939v-1.5h-1.939v-2.562h1.939v-1.5h-1.939v-2.5h1.939v-1.5h-1.939V110.75h1.939v-1.5h-1.939v-2.5h1.939v-1.5h-1.939v-2.512h1.939v-1.5h-1.939v-2.5Z" transform="translate(-194.56 -90.77)"/>
      </g>
      <rect id="Rectángulo_43433" data-name="Rectángulo 43433" width="15.826" height="47.843" transform="translate(23.58 193.49)" fill="#f7f7f7"/>
      <rect id="Rectángulo_43434" data-name="Rectángulo 43434" width="15.826" height="47.843" transform="translate(96.686 193.49)" fill="#f7f7f7"/>
      <rect id="Rectángulo_43435" data-name="Rectángulo 43435" width="15.826" height="47.843" transform="translate(124.569 193.49)" fill="#f7f7f7"/>
      <rect id="Rectángulo_43436" data-name="Rectángulo 43436" width="15.826" height="47.843" transform="translate(152.452 193.49)" fill="#f7f7f7"/>
      <rect id="Rectángulo_43437" data-name="Rectángulo 43437" width="15.826" height="47.843" transform="translate(180.345 193.49)" fill="#f7f7f7"/>
      <path id="Trazado_250144" data-name="Trazado 250144" d="M82.694,242.329h-.989V222.616a.781.781,0,0,0-.228-.554L68.144,208.729a1.78,1.78,0,0,1-.514-1.246V118.6a1.78,1.78,0,0,1,.514-1.256l8.071-8.071a1.761,1.761,0,0,1,1.256-.514H97.254v.989H77.472a.781.781,0,0,0-.574.237l-8.071,8.071a.761.761,0,0,0-.228.554v88.881a.781.781,0,0,0,.228.554L82.18,221.36a1.8,1.8,0,0,1,.514,1.256Z" transform="translate(-53.357 -43.716)" fill="#fff"/>
      <path id="Trazado_250145" data-name="Trazado 250145" d="M88.971,241.235h-.989V220.078a.742.742,0,0,0-.227-.544l-12.68-12.68a1.761,1.761,0,0,1-.514-1.276l.989-82.749a1.761,1.761,0,0,1,.544-1.246l5.341-5.163a1.771,1.771,0,0,1,1.187-.5l21.177-.5v.989l-21.177.5a.791.791,0,0,0-.524.228l-5.341,5.163a.771.771,0,0,0-.237.554l-.989,82.739a.762.762,0,0,0,.228.564l12.7,12.71a1.751,1.751,0,0,1,.514,1.246Z" transform="translate(-53.433 -43.789)" fill="#fff"/>
      <path id="Trazado_250146" data-name="Trazado 250146" d="M98.88,147.587h-8.9A1.978,1.978,0,0,1,88,145.608v-6.35a1.978,1.978,0,0,1,1.978-1.978h8.9v.989h-8.9a.989.989,0,0,0-.989.989v6.35a.989.989,0,0,0,.989.989h8.9Z" transform="translate(-53.579 -44.027)" fill="#fff"/>
      <path id="Trazado_250147" data-name="Trazado 250147" d="M155.415,237.411h-.989v-8.457a.781.781,0,0,0-.781-.781h-39.98a1.751,1.751,0,0,1-1.246-.514L83.734,198.974a1.761,1.761,0,0,1-.514-1.256V129.331a1.77,1.77,0,0,1,1.761-1.771h9.4v.989h-9.4a.781.781,0,0,0-.781.781v68.4a.762.762,0,0,0,.227.554l28.684,28.684a.782.782,0,0,0,.554.228h39.98a1.77,1.77,0,0,1,1.771,1.77Z" transform="translate(-53.527 -43.921)" fill="#fff"/>
      <path id="Trazado_250148" data-name="Trazado 250148" d="M161.956,237.464h-.989V220.758a.781.781,0,0,0-.781-.781H120.9a1.77,1.77,0,0,1-1.77-1.77V134.24a.781.781,0,0,0-.781-.781H111.61v-.989h6.736a1.771,1.771,0,0,1,1.771,1.77v83.965a.781.781,0,0,0,.781.781h39.278a1.77,1.77,0,0,1,1.771,1.77Z" transform="translate(-53.836 -43.974)" fill="#fff"/>
      <path id="Trazado_250149" data-name="Trazado 250149" d="M94.361,102H81.5a1.543,1.543,0,0,1-1.543-1.543V62.273A1.543,1.543,0,0,1,81.5,60.73h55.865v.989H81.473a.554.554,0,0,0-.554.554v38.18a.554.554,0,0,0,.554.554H94.332Z" transform="translate(-53.491 -43.193)" fill="#fff"/>
      <path id="Trazado_250150" data-name="Trazado 250150" d="M243.085,236.683H242.1V225.8a3.036,3.036,0,0,1,1.741-2.74l19.426-9.05a2.047,2.047,0,0,0,1.177-1.85V81.076a2.077,2.077,0,0,0-.663-1.5L244.915,62.263a2.067,2.067,0,0,0-1.385-.544H160V60.73h83.521a3.027,3.027,0,0,1,2.048.8L264.43,78.85a3.027,3.027,0,0,1,.989,2.226V212.182a3.047,3.047,0,0,1-1.751,2.75l-19.416,9.05a1.978,1.978,0,0,0-1.177,1.84Z" transform="translate(-54.363 -43.193)" fill="#fff"/>
      <path id="Trazado_250151" data-name="Trazado 250151" d="M124.093,105.184H113.47v-.989h10.623a.554.554,0,0,0,.554-.554V68.923a1.543,1.543,0,0,1,1.543-1.543h13.323v.989H126.19a.554.554,0,0,0-.554.554V103.6a1.543,1.543,0,0,1-1.543,1.583Z" transform="translate(-53.856 -43.265)" fill="#fff"/>
      <path id="Trazado_250152" data-name="Trazado 250152" d="M183.284,238.425H182.3V214.162a.781.781,0,0,0-.781-.781H128.221a1.77,1.77,0,0,1-1.771-1.77v-93.57a1.771,1.771,0,0,1,1.771-1.771h11.563a.781.781,0,0,0,.781-.781V78.15h.989v37.339a1.771,1.771,0,0,1-1.77,1.771H128.221a.791.791,0,0,0-.781.781v93.57a.781.781,0,0,0,.781.781h53.293a1.771,1.771,0,0,1,1.77,1.77Z" transform="translate(-53.998 -43.383)" fill="#fff"/>
      <path id="Trazado_250153" data-name="Trazado 250153" d="M128.514,109.349H113.47v-.989h15.044a.554.554,0,0,0,.554-.554V73.563A1.543,1.543,0,0,1,130.611,72h8.9v.989h-8.9a.554.554,0,0,0-.554.554v34.263a1.543,1.543,0,0,1-1.543,1.543Z" transform="translate(-53.856 -43.316)" fill="#fff"/>
      <path id="Trazado_250154" data-name="Trazado 250154" d="M115.953,91.146h-2.76v-.989h2.76a.554.554,0,0,0,.554-.554V70.563a.554.554,0,0,0-.554-.554H89.593a.554.554,0,0,0-.554.554V89.6a.554.554,0,0,0,.554.554H94.45v.989H89.593A1.543,1.543,0,0,1,88.05,89.6V70.563A1.543,1.543,0,0,1,89.593,69h26.36a1.543,1.543,0,0,1,1.543,1.543V89.6a1.543,1.543,0,0,1-1.543,1.543Z" transform="translate(-53.579 -43.283)" fill="#fff"/>
      <path id="Trazado_250155" data-name="Trazado 250155" d="M215.819,161.491h-.989v-5.737a2.68,2.68,0,0,1,2.68-2.671H255.1a1.681,1.681,0,0,0,1.681-1.681V117.97a1.691,1.691,0,0,0-1.681-1.691H243.682v-.989H255.1a2.671,2.671,0,0,1,2.671,2.68V151.4a2.671,2.671,0,0,1-2.671,2.671H217.51a1.691,1.691,0,0,0-1.691,1.682Z" transform="translate(-54.96 -43.787)" fill="#fff"/>
      <rect id="Rectángulo_43438" data-name="Rectángulo 43438" width="0.989" height="30.751" transform="translate(134.499 164.291)" fill="#fff"/>
      <path id="Trazado_250156" data-name="Trazado 250156" d="M248.293,236.617H247.3v-9.426l22.75-10.712.406-138.367L246.572,55.7H155.05a.841.841,0,0,0-.831.831v2.423h-.989V56.53a1.82,1.82,0,0,1,1.82-1.82h91.918l24.471,22.967v.218l-.415,139.217-22.75,10.7Z" transform="translate(-54.289 -43.128)" fill="#fff"/>
      <path id="Trazado_250157" data-name="Trazado 250157" d="M213.355,239.837h-.989V225.495a2.047,2.047,0,0,0-.584-1.414l-9.792-9.8a2.967,2.967,0,0,1-.87-2.107V207.75h.989v4.421a1.978,1.978,0,0,0,.584,1.414l9.8,9.8a2.967,2.967,0,0,1,.87,2.107Z" transform="translate(-54.811 -44.794)" fill="#fff"/>
      <path id="Trazado_250158" data-name="Trazado 250158" d="M219.369,238.284h-.989V224.011a2.967,2.967,0,0,1,.93-2.166c1.978-1.83,6.924-6.083,9.04-7.824a1.869,1.869,0,0,0,.663-1.424V207.75H230V212.6a2.869,2.869,0,0,1-.989,2.186c-2.067,1.731-7.082,5.935-8.991,7.774a1.978,1.978,0,0,0-.623,1.454Z" transform="translate(-54.999 -44.794)" fill="#fff"/>
      <path id="Trazado_250159" data-name="Trazado 250159" d="M209.349,163.219h-.989V149.371a2.671,2.671,0,0,1,2.671-2.671h24.52a1.058,1.058,0,0,0,1.058-1.058V142.23h.989v3.412a2.048,2.048,0,0,1-2.048,2.047h-24.52a1.681,1.681,0,0,0-1.682,1.682Z" transform="translate(-54.889 -44.081)" fill="#fff"/>
      <path id="Trazado_250160" data-name="Trazado 250160" d="M236.577,89.736v-.989a.435.435,0,0,0-.4.237c0-.129.267-1.128,0-8.487a2.038,2.038,0,0,0-2.038-1.978H201.009a3.037,3.037,0,0,1-3.027-3.027V68.777a2.047,2.047,0,0,0-2.038-2.047H160V65.74h35.9a3.037,3.037,0,0,1,3.027,3.037v6.706a2.038,2.038,0,0,0,2.038,2.038h33.214a3.027,3.027,0,0,1,2.967,2.918c.307,8.576,0,8.9-.208,9.11l-.139.158Z" transform="translate(-54.363 -43.248)" fill="#fff"/>
      <path id="Trazado_250161" data-name="Trazado 250161" d="M167.065,162.518h-.989v-5.45a1.306,1.306,0,0,0-1.306-1.306H134.365a2.3,2.3,0,0,1-2.295-2.295V122.6a2.3,2.3,0,0,1,2.295-2.295h9.4a4.431,4.431,0,0,0,4.421-4.421V77.86h.989v38.021a5.42,5.42,0,0,1-5.41,5.41h-9.4a1.306,1.306,0,0,0-1.306,1.306v30.87a1.315,1.315,0,0,0,1.306,1.306H164.77a2.3,2.3,0,0,1,2.295,2.295Z" transform="translate(-54.059 -43.38)" fill="#fff"/>
      <path id="Trazado_250162" data-name="Trazado 250162" d="M182.008,162.58h-.989V156.2a3.739,3.739,0,0,0-1.108-2.68L158.24,131.849a5.846,5.846,0,0,1-1.711-4.075c-.049-6.874-.208-30.029-.049-39.485a4.8,4.8,0,0,1,4.777-4.7h63.3a4.787,4.787,0,0,1,4.787,4.777v2.443h-.989V88.367a3.8,3.8,0,0,0-3.8-3.788h-63.3a3.8,3.8,0,0,0-3.788,3.729c-.158,9.436,0,32.641.049,39.456a4.827,4.827,0,0,0,1.424,3.393l21.671,21.661a4.777,4.777,0,0,1,1.395,3.383Z" transform="translate(-54.324 -43.442)" fill="#fff"/>
      <path id="Trazado_250163" data-name="Trazado 250163" d="M193.332,162.676h-.989v-7.082a3.8,3.8,0,0,0-1.107-2.68L165.825,127.5a4.708,4.708,0,0,1-1.4-3.383V97.137a4.787,4.787,0,0,1,4.787-4.787h25.6v.989h-25.6a3.8,3.8,0,0,0-3.8,3.8V124.12a3.759,3.759,0,0,0,1.108,2.681l25.41,25.42a4.708,4.708,0,0,1,1.4,3.373Z" transform="translate(-54.411 -43.537)" fill="#fff"/>
      <path id="Trazado_250164" data-name="Trazado 250164" d="M276.277,274.734a12.087,12.087,0,1,1,12.077-12.077A12.087,12.087,0,0,1,276.277,274.734Zm0-23.175a11.088,11.088,0,1,1,0,.02Z" transform="translate(-55.497 -45.26)" fill="#fff"/>
      <g id="Grupo_131182" data-name="Grupo 131182" transform="translate(83.323 18.012)" opacity="0.3">
        <path id="Trazado_250165" data-name="Trazado 250165" d="M163.1,61.21H137.44V81.526h2.532v2.047h1.5V81.526h2.5v2.047h1.5V81.526h2.512v2.047h1.5V81.526H152v2.047h1.5V81.526h2.512v2.047h1.5V81.526h2.5v2.047h1.5V81.526H163.1Z" transform="translate(-137.44 -61.21)"/>
      </g>
      <rect id="Rectángulo_43439" data-name="Rectángulo 43439" width="25.658" height="20.306" transform="translate(81.582 14.461)" fill="#263238"/>
      <rect id="Rectángulo_43440" data-name="Rectángulo 43440" width="1.503" height="3.867" transform="translate(84.114 32.947)" fill="#e0e0e0"/>
      <rect id="Rectángulo_43441" data-name="Rectángulo 43441" width="1.503" height="3.867" transform="translate(88.13 32.947)" fill="#e0e0e0"/>
      <rect id="Rectángulo_43442" data-name="Rectángulo 43442" width="1.503" height="3.867" transform="translate(92.136 32.947)" fill="#e0e0e0"/>
      <rect id="Rectángulo_43443" data-name="Rectángulo 43443" width="1.503" height="3.867" transform="translate(96.152 32.947)" fill="#e0e0e0"/>
      <rect id="Rectángulo_43444" data-name="Rectángulo 43444" width="1.503" height="3.867" transform="translate(100.157 32.947)" fill="#e0e0e0"/>
      <rect id="Rectángulo_43445" data-name="Rectángulo 43445" width="1.503" height="3.867" transform="translate(104.173 32.947)" fill="#e0e0e0"/>
      <ellipse id="Elipse_5763" data-name="Elipse 5763" cx="1.731" cy="1.731" rx="1.731" ry="1.731" transform="translate(101.908 16.815)" fill="#455a64"/>
      <g id="Grupo_131183" data-name="Grupo 131183" transform="translate(81.997 121.502)" opacity="0.3">
        <path id="Trazado_250166" data-name="Trazado 250166" d="M259.571,166.275,136.1,165.84v46.587h4.649v1.533h1.5v-1.533h2.5v1.533h1.5v-1.533h2.512v1.533h1.5v-1.533h2.5v1.533h1.5v-1.533h2.512v1.533h1.5v-1.533h2.5v1.533h1.5v-1.533h2.562v1.533h1.5v-1.533h2.512v1.533h1.5v-1.533h2.5v1.533h1.5v-1.533H176.9v1.533h1.5v-1.533h2.5v1.533h1.5v-1.533h2.512v1.533h1.5v-1.533h3.027v1.533h1.5v-1.533h2.512v1.533h1.5v-1.533h2.5v1.533h1.5v-1.533h2.512v1.533h1.5v-1.533h2.5v1.533H207v-1.533h2.512v1.533h1.5v-1.533h2.562v1.533h1.5v-1.533h2.5v1.533h1.5v-1.533h2.5v1.533H223.1v-1.533h2.5v1.533h1.5v-1.533h2.512v1.533h1.5v-1.533h2.5v1.533h1.5v-1.533h1.691v1.533h1.5v-1.533h2.5v1.533h1.5v-1.533h2.512v1.533h1.5v-1.533h2.5v1.533h1.5v-1.533h2.512v1.533h1.5v-1.533h2.5v1.533h1.5v-1.533h1.513Z" transform="translate(-136.1 -165.84)"/>
      </g>
      <rect id="Rectángulo_43446" data-name="Rectángulo 43446" width="123.797" height="46.587" transform="translate(78.496 117.714)" fill="#263238"/>
      <rect id="Rectángulo_43447" data-name="Rectángulo 43447" width="1.503" height="3.867" transform="translate(83.155 161.957)" fill="#e0e0e0"/>
      <rect id="Rectángulo_43448" data-name="Rectángulo 43448" width="1.503" height="3.867" transform="translate(87.161 161.957)" fill="#e0e0e0"/>
      <rect id="Rectángulo_43449" data-name="Rectángulo 43449" width="1.503" height="3.867" transform="translate(91.176 161.957)" fill="#e0e0e0"/>
      <rect id="Rectángulo_43450" data-name="Rectángulo 43450" width="1.503" height="3.867" transform="translate(95.182 161.957)" fill="#e0e0e0"/>
      <rect id="Rectángulo_43451" data-name="Rectángulo 43451" width="1.503" height="3.867" transform="translate(99.198 161.957)" fill="#e0e0e0"/>
      <rect id="Rectángulo_43452" data-name="Rectángulo 43452" width="1.503" height="3.867" transform="translate(103.204 161.957)" fill="#e0e0e0"/>
      <rect id="Rectángulo_43453" data-name="Rectángulo 43453" width="1.503" height="3.867" transform="translate(107.269 161.957)" fill="#e0e0e0"/>
      <rect id="Rectángulo_43454" data-name="Rectángulo 43454" width="1.503" height="3.867" transform="translate(111.275 161.957)" fill="#e0e0e0"/>
      <rect id="Rectángulo_43455" data-name="Rectángulo 43455" width="1.503" height="3.867" transform="translate(115.291 161.957)" fill="#e0e0e0"/>
      <rect id="Rectángulo_43456" data-name="Rectángulo 43456" width="1.503" height="3.867" transform="translate(119.297 161.957)" fill="#e0e0e0"/>
      <rect id="Rectángulo_43457" data-name="Rectángulo 43457" width="1.503" height="3.867" transform="translate(123.313 161.957)" fill="#e0e0e0"/>
      <rect id="Rectángulo_43458" data-name="Rectángulo 43458" width="1.503" height="3.867" transform="translate(127.318 161.957)" fill="#e0e0e0"/>
      <rect id="Rectángulo_43459" data-name="Rectángulo 43459" width="1.503" height="3.867" transform="translate(131.858 161.957)" fill="#e0e0e0"/>
      <rect id="Rectángulo_43460" data-name="Rectángulo 43460" width="1.503" height="3.867" transform="translate(135.864 161.957)" fill="#e0e0e0"/>
      <rect id="Rectángulo_43461" data-name="Rectángulo 43461" width="1.503" height="3.867" transform="translate(139.88 161.957)" fill="#e0e0e0"/>
      <rect id="Rectángulo_43462" data-name="Rectángulo 43462" width="1.503" height="3.867" transform="translate(143.886 161.957)" fill="#e0e0e0"/>
      <rect id="Rectángulo_43463" data-name="Rectángulo 43463" width="1.503" height="3.867" transform="translate(147.902 161.957)" fill="#e0e0e0"/>
      <rect id="Rectángulo_43464" data-name="Rectángulo 43464" width="1.503" height="3.867" transform="translate(151.908 161.957)" fill="#e0e0e0"/>
      <rect id="Rectángulo_43465" data-name="Rectángulo 43465" width="1.503" height="3.867" transform="translate(155.973 161.957)" fill="#e0e0e0"/>
      <rect id="Rectángulo_43466" data-name="Rectángulo 43466" width="1.503" height="3.867" transform="translate(159.989 161.957)" fill="#e0e0e0"/>
      <rect id="Rectángulo_43467" data-name="Rectángulo 43467" width="1.503" height="3.867" transform="translate(163.995 161.957)" fill="#e0e0e0"/>
      <rect id="Rectángulo_43468" data-name="Rectángulo 43468" width="1.503" height="3.867" transform="translate(168.011 161.957)" fill="#e0e0e0"/>
      <rect id="Rectángulo_43469" data-name="Rectángulo 43469" width="1.503" height="3.867" transform="translate(172.016 161.957)" fill="#e0e0e0"/>
      <rect id="Rectángulo_43470" data-name="Rectángulo 43470" width="1.503" height="3.867" transform="translate(176.032 161.957)" fill="#e0e0e0"/>
      <rect id="Rectángulo_43471" data-name="Rectángulo 43471" width="1.503" height="3.867" transform="translate(179.227 161.957)" fill="#e0e0e0"/>
      <rect id="Rectángulo_43472" data-name="Rectángulo 43472" width="1.503" height="3.867" transform="translate(183.233 161.957)" fill="#e0e0e0"/>
      <rect id="Rectángulo_43473" data-name="Rectángulo 43473" width="1.503" height="3.867" transform="translate(187.239 161.957)" fill="#e0e0e0"/>
      <rect id="Rectángulo_43474" data-name="Rectángulo 43474" width="1.503" height="3.867" transform="translate(191.255 161.957)" fill="#e0e0e0"/>
      <rect id="Rectángulo_43475" data-name="Rectángulo 43475" width="1.503" height="3.867" transform="translate(195.261 161.957)" fill="#e0e0e0"/>
      <rect id="Rectángulo_43476" data-name="Rectángulo 43476" width="1.503" height="3.867" transform="translate(199.276 161.957)" fill="#e0e0e0"/>
      <path id="Trazado_250167" data-name="Trazado 250167" d="M253.107,200.964c-.148,0-.257-7.834-.257-17.507s.109-17.507.257-17.507.257,7.844.257,17.507S253.246,200.964,253.107,200.964Z" transform="translate(-55.374 -44.339)" fill="#455a64"/>
      <path id="Trazado_250168" data-name="Trazado 250168" d="M251,178.279a29.782,29.782,0,0,1-.257-5.48,29.783,29.783,0,0,1,.257-5.48,29.788,29.788,0,0,1,.257,5.48A29.783,29.783,0,0,1,251,178.279Z" transform="translate(-55.351 -44.354)" fill="#455a64"/>
      <path id="Trazado_250169" data-name="Trazado 250169" d="M200.577,202.067c0,.148-.663.257-1.494.257s-1.484-.109-1.484-.257.663-.257,1.484-.257S200.577,201.929,200.577,202.067Z" transform="translate(-54.772 -44.729)" fill="#455a64"/>
      <path id="Trazado_250170" data-name="Trazado 250170" d="M206.157,202.067c0,.148-.663.257-1.484.257s-1.494-.109-1.494-.257.663-.257,1.494-.257S206.157,201.929,206.157,202.067Z" transform="translate(-54.833 -44.729)" fill="#455a64"/>
      <path id="Trazado_250171" data-name="Trazado 250171" d="M211.737,202.067c0,.148-.663.257-1.484.257s-1.494-.109-1.494-.257.663-.257,1.494-.257S211.737,201.929,211.737,202.067Z" transform="translate(-54.894 -44.729)" fill="#455a64"/>
      <path id="Trazado_250172" data-name="Trazado 250172" d="M217.317,202.067c0,.148-.663.257-1.484.257s-1.494-.109-1.494-.257.673-.257,1.494-.257S217.317,201.929,217.317,202.067Z" transform="translate(-54.955 -44.729)" fill="#455a64"/>
      <path id="Trazado_250173" data-name="Trazado 250173" d="M222.9,202.067c0,.148-.663.257-1.484.257s-1.494-.109-1.494-.257.673-.257,1.494-.257S222.9,201.929,222.9,202.067Z" transform="translate(-55.015 -44.729)" fill="#455a64"/>
      <path id="Trazado_250174" data-name="Trazado 250174" d="M228.477,202.067c0,.148-.663.257-1.484.257s-1.494-.109-1.494-.257.673-.257,1.494-.257S228.477,201.929,228.477,202.067Z" transform="translate(-55.076 -44.729)" fill="#455a64"/>
      <path id="Trazado_250175" data-name="Trazado 250175" d="M234.067,202.067c0,.148-.673.257-1.494.257s-1.484-.109-1.484-.257.663-.257,1.484-.257S234.067,201.929,234.067,202.067Z" transform="translate(-55.137 -44.729)" fill="#455a64"/>
      <path id="Trazado_250176" data-name="Trazado 250176" d="M239.647,202.067c0,.148-.673.257-1.494.257s-1.484-.109-1.484-.257.663-.257,1.484-.257S239.647,201.929,239.647,202.067Z" transform="translate(-55.198 -44.729)" fill="#455a64"/>
      <g id="Grupo_131184" data-name="Grupo 131184" transform="translate(46.023 37.843)" opacity="0.3">
        <rect id="Rectángulo_43477" data-name="Rectángulo 43477" width="18.744" height="70.444"/>
      </g>
      <rect id="Rectángulo_43478" data-name="Rectángulo 43478" width="18.744" height="70.444" transform="translate(40.87 36.815)" fill="#263238"/>
      <rect id="Rectángulo_43479" data-name="Rectángulo 43479" width="1.503" height="3.867" transform="translate(38.289 39.683) rotate(-90)" fill="#e0e0e0"/>
      <rect id="Rectángulo_43480" data-name="Rectángulo 43480" width="1.503" height="3.867" transform="translate(38.289 43.679) rotate(-90)" fill="#e0e0e0"/>
      <rect id="Rectángulo_43481" data-name="Rectángulo 43481" width="1.503" height="3.867" transform="translate(38.289 47.675) rotate(-90)" fill="#e0e0e0"/>
      <rect id="Rectángulo_43482" data-name="Rectángulo 43482" width="1.503" height="3.867" transform="translate(38.279 51.671) rotate(-90)" fill="#e0e0e0"/>
      <rect id="Rectángulo_43483" data-name="Rectángulo 43483" width="1.503" height="3.867" transform="translate(38.279 55.667) rotate(-90)" fill="#e0e0e0"/>
      <rect id="Rectángulo_43484" data-name="Rectángulo 43484" width="1.503" height="3.867" transform="translate(38.289 59.673) rotate(-90)" fill="#e0e0e0"/>
      <rect id="Rectángulo_43485" data-name="Rectángulo 43485" width="1.503" height="3.867" transform="translate(38.289 63.669) rotate(-90)" fill="#e0e0e0"/>
      <rect id="Rectángulo_43486" data-name="Rectángulo 43486" width="1.503" height="3.867" transform="translate(38.289 67.665) rotate(-90)" fill="#e0e0e0"/>
      <rect id="Rectángulo_43487" data-name="Rectángulo 43487" width="1.503" height="3.867" transform="translate(38.279 71.661) rotate(-90)" fill="#e0e0e0"/>
      <rect id="Rectángulo_43488" data-name="Rectángulo 43488" width="1.503" height="3.867" transform="translate(38.279 75.667) rotate(-90)" fill="#e0e0e0"/>
      <rect id="Rectángulo_43489" data-name="Rectángulo 43489" width="1.503" height="3.867" transform="translate(38.289 79.663) rotate(-90)" fill="#e0e0e0"/>
      <rect id="Rectángulo_43490" data-name="Rectángulo 43490" width="1.503" height="3.867" transform="translate(38.289 83.659) rotate(-90)" fill="#e0e0e0"/>
      <rect id="Rectángulo_43491" data-name="Rectángulo 43491" width="1.503" height="3.867" transform="translate(38.289 87.655) rotate(-90)" fill="#e0e0e0"/>
      <rect id="Rectángulo_43492" data-name="Rectángulo 43492" width="1.503" height="3.867" transform="translate(38.279 91.651) rotate(-90)" fill="#e0e0e0"/>
      <rect id="Rectángulo_43493" data-name="Rectángulo 43493" width="1.503" height="3.867" transform="translate(38.279 95.657) rotate(-90)" fill="#e0e0e0"/>
      <rect id="Rectángulo_43494" data-name="Rectángulo 43494" width="1.503" height="3.867" transform="translate(38.289 99.653) rotate(-90)" fill="#e0e0e0"/>
      <rect id="Rectángulo_43495" data-name="Rectángulo 43495" width="1.503" height="3.867" transform="translate(38.289 103.649) rotate(-90)" fill="#e0e0e0"/>
      <path id="Trazado_250177" data-name="Trazado 250177" d="M110.962,84.071a1.731,1.731,0,1,1-.5-1.23A1.741,1.741,0,0,1,110.962,84.071Z" transform="translate(-53.791 -43.428)" fill="#455a64"/>
      <rect id="Rectángulo_43496" data-name="Rectángulo 43496" width="52.126" height="52.126" transform="translate(136.577 45.974)" fill="#263238"/>
      <rect id="Rectángulo_43497" data-name="Rectángulo 43497" width="1.503" height="3.867" transform="translate(139.88 44.045)" fill="#e0e0e0"/>
      <rect id="Rectángulo_43498" data-name="Rectángulo 43498" width="1.503" height="3.867" transform="translate(143.886 44.045)" fill="#e0e0e0"/>
      <rect id="Rectángulo_43499" data-name="Rectángulo 43499" width="1.503" height="3.867" transform="translate(147.902 44.045)" fill="#e0e0e0"/>
      <rect id="Rectángulo_43500" data-name="Rectángulo 43500" width="1.503" height="3.867" transform="translate(151.908 44.045)" fill="#e0e0e0"/>
      <rect id="Rectángulo_43501" data-name="Rectángulo 43501" width="1.503" height="3.867" transform="translate(155.924 44.045)" fill="#e0e0e0"/>
      <rect id="Rectángulo_43502" data-name="Rectángulo 43502" width="1.503" height="3.867" transform="translate(159.929 44.045)" fill="#e0e0e0"/>
      <rect id="Rectángulo_43503" data-name="Rectángulo 43503" width="1.503" height="3.867" transform="translate(163.995 44.045)" fill="#e0e0e0"/>
      <rect id="Rectángulo_43504" data-name="Rectángulo 43504" width="1.503" height="3.867" transform="translate(168.011 44.045)" fill="#e0e0e0"/>
      <rect id="Rectángulo_43505" data-name="Rectángulo 43505" width="1.503" height="3.867" transform="translate(172.016 44.045)" fill="#e0e0e0"/>
      <rect id="Rectángulo_43506" data-name="Rectángulo 43506" width="1.503" height="3.867" transform="translate(176.032 44.045)" fill="#e0e0e0"/>
      <rect id="Rectángulo_43507" data-name="Rectángulo 43507" width="1.503" height="3.867" transform="translate(180.038 44.045)" fill="#e0e0e0"/>
      <rect id="Rectángulo_43508" data-name="Rectángulo 43508" width="1.503" height="3.867" transform="translate(184.054 44.045)" fill="#e0e0e0"/>
      <rect id="Rectángulo_43509" data-name="Rectángulo 43509" width="1.503" height="3.867" transform="translate(139.88 96.3)" fill="#e0e0e0"/>
      <rect id="Rectángulo_43510" data-name="Rectángulo 43510" width="1.503" height="3.867" transform="translate(143.886 96.3)" fill="#e0e0e0"/>
      <rect id="Rectángulo_43511" data-name="Rectángulo 43511" width="1.503" height="3.867" transform="translate(147.902 96.3)" fill="#e0e0e0"/>
      <rect id="Rectángulo_43512" data-name="Rectángulo 43512" width="1.503" height="3.867" transform="translate(151.908 96.3)" fill="#e0e0e0"/>
      <rect id="Rectángulo_43513" data-name="Rectángulo 43513" width="1.503" height="3.867" transform="translate(155.924 96.3)" fill="#e0e0e0"/>
      <rect id="Rectángulo_43514" data-name="Rectángulo 43514" width="1.503" height="3.867" transform="translate(159.929 96.3)" fill="#e0e0e0"/>
      <rect id="Rectángulo_43515" data-name="Rectángulo 43515" width="1.503" height="3.867" transform="translate(163.995 96.3)" fill="#e0e0e0"/>
      <rect id="Rectángulo_43516" data-name="Rectángulo 43516" width="1.503" height="3.867" transform="translate(168.011 96.3)" fill="#e0e0e0"/>
      <rect id="Rectángulo_43517" data-name="Rectángulo 43517" width="1.503" height="3.867" transform="translate(172.016 96.3)" fill="#e0e0e0"/>
      <rect id="Rectángulo_43518" data-name="Rectángulo 43518" width="1.503" height="3.867" transform="translate(176.032 96.3)" fill="#e0e0e0"/>
      <rect id="Rectángulo_43519" data-name="Rectángulo 43519" width="1.503" height="3.867" transform="translate(180.038 96.3)" fill="#e0e0e0"/>
      <rect id="Rectángulo_43520" data-name="Rectángulo 43520" width="1.503" height="3.867" transform="translate(184.054 96.3)" fill="#e0e0e0"/>
      <rect id="Rectángulo_43521" data-name="Rectángulo 43521" width="1.503" height="3.867" transform="translate(134.509 96.161) rotate(-90)" fill="#e0e0e0"/>
      <rect id="Rectángulo_43522" data-name="Rectángulo 43522" width="1.503" height="3.867" transform="translate(134.509 92.155) rotate(-90)" fill="#e0e0e0"/>
      <rect id="Rectángulo_43523" data-name="Rectángulo 43523" width="1.503" height="3.867" transform="translate(134.509 88.14) rotate(-90)" fill="#e0e0e0"/>
      <rect id="Rectángulo_43524" data-name="Rectángulo 43524" width="1.503" height="3.867" transform="translate(134.509 84.134) rotate(-90)" fill="#e0e0e0"/>
      <rect id="Rectángulo_43525" data-name="Rectángulo 43525" width="1.503" height="3.867" transform="translate(134.509 80.118) rotate(-90)" fill="#e0e0e0"/>
      <rect id="Rectángulo_43526" data-name="Rectángulo 43526" width="1.503" height="3.867" transform="translate(134.509 76.112) rotate(-90)" fill="#e0e0e0"/>
      <rect id="Rectángulo_43527" data-name="Rectángulo 43527" width="1.503" height="3.867" transform="translate(134.509 72.047) rotate(-90)" fill="#e0e0e0"/>
      <rect id="Rectángulo_43528" data-name="Rectángulo 43528" width="1.503" height="3.867" transform="translate(134.499 68.031) rotate(-90)" fill="#e0e0e0"/>
      <rect id="Rectángulo_43529" data-name="Rectángulo 43529" width="1.503" height="3.867" transform="translate(134.509 64.025) rotate(-90)" fill="#e0e0e0"/>
      <rect id="Rectángulo_43530" data-name="Rectángulo 43530" width="1.503" height="3.867" transform="translate(134.499 60.009) rotate(-90)" fill="#e0e0e0"/>
      <rect id="Rectángulo_43531" data-name="Rectángulo 43531" width="1.503" height="3.867" transform="translate(134.509 56.003) rotate(-90)" fill="#e0e0e0"/>
      <rect id="Rectángulo_43532" data-name="Rectángulo 43532" width="1.503" height="3.867" transform="translate(134.499 51.988) rotate(-90)" fill="#e0e0e0"/>
      <rect id="Rectángulo_43533" data-name="Rectángulo 43533" width="1.503" height="3.867" transform="translate(186.764 96.161) rotate(-90)" fill="#e0e0e0"/>
      <rect id="Rectángulo_43534" data-name="Rectángulo 43534" width="1.503" height="3.867" transform="translate(186.774 92.145) rotate(-90)" fill="#e0e0e0"/>
      <rect id="Rectángulo_43535" data-name="Rectángulo 43535" width="1.503" height="3.867" transform="translate(186.764 88.14) rotate(-90)" fill="#e0e0e0"/>
      <rect id="Rectángulo_43536" data-name="Rectángulo 43536" width="1.503" height="3.867" transform="translate(186.774 84.124) rotate(-90)" fill="#e0e0e0"/>
      <rect id="Rectángulo_43537" data-name="Rectángulo 43537" width="1.503" height="3.867" transform="translate(186.764 80.118) rotate(-90)" fill="#e0e0e0"/>
      <rect id="Rectángulo_43538" data-name="Rectángulo 43538" width="1.503" height="3.867" transform="translate(186.774 76.102) rotate(-90)" fill="#e0e0e0"/>
      <rect id="Rectángulo_43539" data-name="Rectángulo 43539" width="1.503" height="3.867" transform="translate(186.774 72.037) rotate(-90)" fill="#e0e0e0"/>
      <rect id="Rectángulo_43540" data-name="Rectángulo 43540" width="1.503" height="3.867" transform="translate(186.764 68.031) rotate(-90)" fill="#e0e0e0"/>
      <rect id="Rectángulo_43541" data-name="Rectángulo 43541" width="1.503" height="3.867" transform="translate(186.774 64.015) rotate(-90)" fill="#e0e0e0"/>
      <rect id="Rectángulo_43542" data-name="Rectángulo 43542" width="1.503" height="3.867" transform="translate(186.764 60.009) rotate(-90)" fill="#e0e0e0"/>
      <rect id="Rectángulo_43543" data-name="Rectángulo 43543" width="1.503" height="3.867" transform="translate(186.764 55.993) rotate(-90)" fill="#e0e0e0"/>
      <rect id="Rectángulo_43544" data-name="Rectángulo 43544" width="1.503" height="3.867" transform="translate(186.764 51.988) rotate(-90)" fill="#e0e0e0"/>
      <ellipse id="Elipse_5764" data-name="Elipse 5764" cx="4.006" cy="4.006" rx="4.006" ry="4.006" transform="translate(142.778 51.988)" fill="#455a64"/>
      <path id="Trazado_250178" data-name="Trazado 250178" d="M237.9,117.66a82.4,82.4,0,0,1,.257,9.129,82.246,82.246,0,0,1-.257,9.13,79.436,79.436,0,0,1-.257-9.129,79.586,79.586,0,0,1,.257-9.13Z" transform="translate(-55.208 -43.813)" fill="#455a64"/>
      <path id="Trazado_250179" data-name="Trazado 250179" d="M238.087,113.43c.148,0,.257.544.257,1.207s-.109,1.207-.257,1.207-.257-.534-.257-1.207A1.954,1.954,0,0,1,238.087,113.43Z" transform="translate(-55.21 -43.767)" fill="#455a64"/>
      <path id="Trazado_250180" data-name="Trazado 250180" d="M276.481,268.982a6.241,6.241,0,1,1,6.241-6.241A6.241,6.241,0,0,1,276.481,268.982Zm0-11.493a5.252,5.252,0,1,0,5.252,5.252A5.252,5.252,0,0,0,276.481,257.489Z" transform="translate(-55.563 -45.325)" fill="#263238"/>
    </g>
    <g id="freepik--Character--inject-21" transform="translate(406.954 3628.463)">
      <path id="Trazado_250181" data-name="Trazado 250181" d="M434.448,367.026a4.719,4.719,0,0,0,2.106-3.45,5.789,5.789,0,0,1-7.931-4.406l-7.072.022a24.083,24.083,0,0,1-1.8,11.394c-.357.846-.758,1.842-.286,2.644a2.871,2.871,0,0,0,2.119,1.018c3.675.586,7.49,1.168,11.072.172s6.887-4.031,6.939-7.754a5.34,5.34,0,0,1-5.151.361Z" transform="translate(-309.076 -263.485)" fill="#263238"/>
      <path id="Trazado_250182" data-name="Trazado 250182" d="M251.15,447.68V454.1h1.309V447.83Z" transform="translate(-215.039 -312.998)" fill="#455a64"/>
      <path id="Trazado_250183" data-name="Trazado 250183" d="M208.927,438.415l-39.566-7.724-.172-3.732,40.46,7.75Z" transform="translate(-169.19 -301.407)" fill="#455a64"/>
      <path id="Trazado_250184" data-name="Trazado 250184" d="M182.1,435.83v11.645h1.309V436.108Z" transform="translate(-176.412 -306.369)" fill="#455a64"/>
      <path id="Trazado_250185" data-name="Trazado 250185" d="M394.139,224.253c-.4-12.535,0-22.272-1.48-34.728-.185-1.538-.912-5.433-2.128-7.2-.956-1.392-3.824-3.525-5.9-2.243L382.9,182c.608,3.591,1.2,7.345.123,10.825-.956,3.084-3.155,5.675-3.965,8.812a20.723,20.723,0,0,0,.026,8.085q.881,6.3,1.939,12.561a8.446,8.446,0,0,0,1.41,3.992c1.613,2,4.556,2.119,7.12,2.075,1.564-.026,3.406-.207,4.2-1.555A4.786,4.786,0,0,0,394.139,224.253Z" transform="translate(-286.369 -163.08)" fill="#263238"/>
      <path id="Trazado_250186" data-name="Trazado 250186" d="M387.973,178.684a5.116,5.116,0,0,0-1.5-2.291,1.405,1.405,0,0,0-2.124.405l.106.176c-.405-.211-.881.2-.983.7a3.573,3.573,0,0,0,.119,1.577q.771,3.357,1.542,6.71a3.688,3.688,0,0,0,.665,1.639,1.41,1.41,0,0,0,1.921.128,3.582,3.582,0,0,0,1.124-2.009A11.852,11.852,0,0,0,387.973,178.684Z" transform="translate(-289.037 -161.06)" fill="#455a64"/>
      <path id="Trazado_250187" data-name="Trazado 250187" d="M326.219,153.036c-3.789-6.8-9.931-10.958-21.686-11.037-12.5-.1-31.071,15.61-16.743,32.829l37.724,10.134c3.564-1.436,5.151-5.618,5.622-9.429C332.1,167.774,330.017,159.848,326.219,153.036Z" transform="translate(-232.632 -141.999)" fill="#263238"/>
      <path id="Trazado_250188" data-name="Trazado 250188" d="M324.176,164.955l-.762-3.635-22.682.881c-6.865.833-12.561,9.217-11.434,16.042,1.251,7.578,3.084,16.778,5.247,22.149,4.362,10.8,13.28,10.244,13.28,10.244l2.613,11.116,24.858-5.4Z" transform="translate(-236.299 -152.807)" fill="#ffbe9d"/>
      <path id="Trazado_250189" data-name="Trazado 250189" d="M300.084,218.374a1.48,1.48,0,0,0,1.723,1.128,1.41,1.41,0,0,0,1.181-1.635,1.472,1.472,0,0,0-1.718-1.132,1.414,1.414,0,0,0-1.185,1.639Z" transform="translate(-242.401 -183.792)" fill="#263238"/>
      <path id="Trazado_250190" data-name="Trazado 250190" d="M296.855,209.272c.172.132,1.322-.154,2.886.075s2.683.828,2.864.745c.084-.031-.084-.247-.568-.52a6.777,6.777,0,0,0-2.278-.723,5.992,5.992,0,0,0-2.309.07C296.952,209.047,296.771,209.214,296.855,209.272Z" transform="translate(-240.595 -179.35)" fill="#263238"/>
      <path id="Trazado_250191" data-name="Trazado 250191" d="M333.623,211.015a1.472,1.472,0,0,0,1.718,1.128,1.41,1.41,0,0,0,1.185-1.635,1.476,1.476,0,0,0-1.718-1.132,1.41,1.41,0,0,0-1.185,1.639Z" transform="translate(-261.163 -179.675)" fill="#263238"/>
      <path id="Trazado_250192" data-name="Trazado 250192" d="M330.272,202.256c.247,0,1.119-1.031,2.723-1.908s3.027-1.124,3.141-1.322c.057-.088-.238-.154-.881-.057a8.472,8.472,0,0,0-2.591.938,7.587,7.587,0,0,0-2.093,1.635C330.215,202,330.158,202.26,330.272,202.256Z" transform="translate(-259.27 -173.842)" fill="#263238"/>
      <path id="Trazado_250193" data-name="Trazado 250193" d="M319.871,214.43a10.748,10.748,0,0,0-2.617.128c-.405.049-.8.057-.925-.2a2.07,2.07,0,0,1,0-1.229c.154-1.044.313-2.132.476-3.278.634-4.657,1-8.446.811-8.473s-.855,3.732-1.489,8.371q-.218,1.718-.441,3.282a2.357,2.357,0,0,0,.154,1.6,1.022,1.022,0,0,0,.78.441,2.962,2.962,0,0,0,.7-.062A13.1,13.1,0,0,0,319.871,214.43Z" transform="translate(-251.103 -175.217)" fill="#263238"/>
      <path id="Trazado_250194" data-name="Trazado 250194" d="M331.56,263.684a30.45,30.45,0,0,0,14.465-7.574s-1.978,8.719-13.83,10.367Z" transform="translate(-260.02 -205.833)" fill="#eb996e"/>
      <path id="Trazado_250195" data-name="Trazado 250195" d="M326.576,183.436c.247.383,1.762-.172,3.613-.37s3.445-.044,3.6-.476c.066-.207-.282-.542-.965-.815a6.054,6.054,0,0,0-2.824-.308,5.979,5.979,0,0,0-2.674.956C326.722,182.842,326.462,183.251,326.576,183.436Z" transform="translate(-257.218 -164.05)" fill="#263238"/>
      <path id="Trazado_250196" data-name="Trazado 250196" d="M294.827,197.522c.357.286,1.322-.322,2.613-.634s2.423-.308,2.586-.736c.07-.2-.185-.516-.736-.736a3.877,3.877,0,0,0-4.186,1.1C294.735,196.981,294.669,197.377,294.827,197.522Z" transform="translate(-239.427 -171.76)" fill="#263238"/>
      <path id="Trazado_250197" data-name="Trazado 250197" d="M369.32,199.734c.137-.119,4.957-4.049,6.75,2.247s-4.9,6.794-4.957,6.609S369.32,199.734,369.32,199.734Z" transform="translate(-281.143 -173.558)" fill="#ffbe9d"/>
      <path id="Trazado_250198" data-name="Trazado 250198" d="M375.146,208.084c.022-.026.132.044.339.079a1.15,1.15,0,0,0,.828-.216,2.835,2.835,0,0,0,.56-2.793,3.737,3.737,0,0,0-.753-1.48,1.322,1.322,0,0,0-1.066-.608.582.582,0,0,0-.56.485c-.035.2.04.313,0,.335s-.163-.066-.185-.339a.745.745,0,0,1,.132-.467.881.881,0,0,1,.564-.335,1.617,1.617,0,0,1,1.423.652,3.882,3.882,0,0,1,.881,1.643,2.978,2.978,0,0,1-.824,3.172,1.207,1.207,0,0,1-1.049.119C375.2,208.234,375.128,208.1,375.146,208.084Z" transform="translate(-283.933 -175.978)" fill="#eb996e"/>
      <path id="Trazado_250199" data-name="Trazado 250199" d="M309.184,153.3a2.529,2.529,0,0,0-.934-.3,20.963,20.963,0,0,0-12,1.287,16.483,16.483,0,0,0-8.521,8.371c-1.6,3.754-3.062,9.609-1.057,13.165l1.591,2.7A25.1,25.1,0,0,1,289.586,168a11.31,11.31,0,0,1,5.635-5.886c2.547-1.128,5.433-1.124,8.16-1.709s5.6-2.075,6.375-4.754A2.115,2.115,0,0,0,309.184,153.3Z" transform="translate(-234.366 -147.956)" fill="#263238"/>
      <path id="Trazado_250200" data-name="Trazado 250200" d="M339.4,152.687a21.679,21.679,0,0,0-1.4,6.23,7.294,7.294,0,0,0,2.247,5.772c1.555,1.322,3.692,1.661,5.684,2.132s1.762,1.639,2.736,3.445c.3.568,2.1,6.45,2.644,6.75.78.405,2.74-3.987,3.018-4.82a13.268,13.268,0,0,0-.375-4.406c-.683-2.644-.881-6.609-1.582-9.253-.577-2.234-1.705-3.177-3.221-4.917-2.115-2.432-5.151-2.564-9.173-1.251" transform="translate(-263.625 -147.337)" fill="#263238"/>
      <path id="Trazado_250201" data-name="Trazado 250201" d="M285.538,199.374a.417.417,0,0,0,0,.057,1.114,1.114,0,0,0,.044.176c.044.163.1.392.176.692.154.612.383,1.507.692,2.644s.692,2.56,1.22,4.172a15.333,15.333,0,0,0,1.009,2.5c.066.1.123.2.194.291a1.994,1.994,0,0,0,.247.264,3.992,3.992,0,0,0,.577.471,4.848,4.848,0,0,0,1.4.634,6.724,6.724,0,0,0,3.282,0,4.8,4.8,0,0,0,1.613-.661,5.2,5.2,0,0,0,1.322-1.251,9.125,9.125,0,0,0,1.494-3.525,3.682,3.682,0,0,1,.291-.982,1.652,1.652,0,0,1,.7-.789,1.2,1.2,0,0,1,1.071.035,2.776,2.776,0,0,1,.846.665c.251.256.441.577.67.837a4.1,4.1,0,0,0,.758.727,7.447,7.447,0,0,0,1.912,1,13.717,13.717,0,0,0,4.406.771,13.012,13.012,0,0,0,2.3-.163,4.048,4.048,0,0,0,.568-.11c.189-.048.383-.075.568-.141l.555-.176c.181-.079.361-.145.529-.238a27.644,27.644,0,0,0,3.908-2.785c.965-.789,1.908-1.595,2.815-2.41l-.026.093c-.952-3.428-1.877-6.728-2.74-9.834l.1.062-23.29,5.027-6.763,1.436-1.811.383-.471.1-.163.031.15-.04.441-.106,1.789-.4,6.732-1.485L318,192.25h.079l.022.079c.881,3.106,1.793,6.406,2.749,9.834v.053l-.044.04q-1.366,1.225-2.824,2.414a27.461,27.461,0,0,1-3.935,2.8c-.176.1-.37.172-.551.251l-.573.181c-.185.066-.383.093-.577.141a5.152,5.152,0,0,1-.577.115,13.412,13.412,0,0,1-2.331.163,13.829,13.829,0,0,1-4.459-.789,7.556,7.556,0,0,1-1.961-1.022,4.119,4.119,0,0,1-.784-.758c-.242-.282-.419-.577-.661-.828a2.709,2.709,0,0,0-.793-.63,1.053,1.053,0,0,0-.925-.04,1.542,1.542,0,0,0-.634.714,3.618,3.618,0,0,0-.278.947,9.253,9.253,0,0,1-1.529,3.578,5.349,5.349,0,0,1-1.353,1.287,4.988,4.988,0,0,1-1.665.674,6.825,6.825,0,0,1-3.349-.022,4.992,4.992,0,0,1-1.432-.656,4.192,4.192,0,0,1-.59-.48c-.093-.088-.167-.185-.251-.273a1.922,1.922,0,0,1-.207-.313,14.979,14.979,0,0,1-1-2.529c-.52-1.617-.881-3.031-1.194-4.186s-.511-2.058-.656-2.67c-.066-.3-.119-.533-.159-.7l-.035-.181A.305.305,0,0,1,285.538,199.374Z" transform="translate(-234.265 -170.11)" fill="#263238"/>
      <path id="Trazado_250202" data-name="Trazado 250202" d="M290.354,219.963c-.048,0-.639-2.08-1.322-4.675s-1.185-4.706-1.137-4.719.639,2.08,1.322,4.675S290.4,219.955,290.354,219.963Z" transform="translate(-235.593 -180.358)" fill="#fafafa"/>
      <path id="Trazado_250203" data-name="Trazado 250203" d="M308.911,213.43c.044,0-.6,1.621-1.436,3.578a37.8,37.8,0,0,1-1.608,3.5c-.048-.022.6-1.621,1.436-3.573S308.863,213.412,308.911,213.43Z" transform="translate(-245.646 -181.958)" fill="#fafafa"/>
      <path id="Trazado_250204" data-name="Trazado 250204" d="M313.431,208.14a5.935,5.935,0,0,1-.308,1.018c-.216.617-.538,1.467-.93,2.388s-.771,1.762-1.062,2.335a5.563,5.563,0,0,1-.511.93,6.349,6.349,0,0,1,.392-.987l1.013-2.348c.37-.881.7-1.705.974-2.366A7.416,7.416,0,0,1,313.431,208.14Z" transform="translate(-248.307 -178.999)" fill="#fafafa"/>
      <path id="Trazado_250205" data-name="Trazado 250205" d="M348.037,199.91a1.54,1.54,0,0,1-.128.344c-.088.216-.229.529-.4.908-.348.767-.837,1.815-1.388,2.97-.881,1.851-1.657,3.41-1.943,3.926l-.1.176.04-.194a.928.928,0,0,1,.07-.242v.251h-.053c.22-.542.947-2.128,1.833-3.965.551-1.154,1.057-2.2,1.436-2.943.185-.374.339-.679.441-.881a1.322,1.322,0,0,1,.189-.348Z" transform="translate(-267.024 -174.395)" fill="#fafafa"/>
      <path id="Trazado_250206" data-name="Trazado 250206" d="M350.77,203.07a33.446,33.446,0,0,1-1.436,3.216,34.693,34.693,0,0,1-1.6,3.141,32.48,32.48,0,0,1,1.436-3.221,34.953,34.953,0,0,1,1.6-3.137Z" transform="translate(-269.066 -176.162)" fill="#fafafa"/>
      <path id="Trazado_250207" data-name="Trazado 250207" d="M337.442,223.663a1.711,1.711,0,0,1-.379.238,3.487,3.487,0,0,1-.467.238,6.164,6.164,0,0,1-.643.269,7.262,7.262,0,0,1-.806.256,8.78,8.78,0,0,1-.943.211A11.226,11.226,0,0,1,332,225a10.879,10.879,0,0,1-2.2-.357,9.363,9.363,0,0,1-.921-.308A7.171,7.171,0,0,1,328.1,224a5.829,5.829,0,0,1-.608-.33,4.167,4.167,0,0,1-.441-.286,2.514,2.514,0,0,1-.352-.273c.022-.031.538.348,1.463.775a7.18,7.18,0,0,0,.771.313c.278.11.586.194.912.286a11.988,11.988,0,0,0,2.155.339,11.53,11.53,0,0,0,2.2-.115c.33-.062.648-.11.938-.189s.555-.154.8-.233C336.873,223.94,337.406,223.628,337.442,223.663Z" transform="translate(-257.302 -187.371)" fill="#fafafa"/>
      <path id="Trazado_250208" data-name="Trazado 250208" d="M361.961,202.392a1.406,1.406,0,0,1-.057-.172c-.04-.132-.092-.3-.154-.52-.141-.48-.335-1.146-.582-1.978l-1.974-6.917-.044-.154.154.044,3.829,1.132,2.882.859h.053v.053c.405,1.9.78,3.644,1.1,5.146v.057h-.053l-3.78,1.762-1.035.476-.269.119c-.057.026-.088.04-.088.035l.1-.053.278-.141,1.031-.52,3.705-1.828-.04.084c-.33-1.5-.714-3.243-1.128-5.142l.062.071-2.881-.855-3.833-1.137.11-.11c.758,2.767,1.405,5.155,1.877,6.873.225.846.405,1.524.538,2.014.057.225.106.405.141.546A1.393,1.393,0,0,1,361.961,202.392Z" transform="translate(-275.454 -170.333)" fill="#263238"/>
      <path id="Trazado_250209" data-name="Trazado 250209" d="M285.012,197.7l-.432-1.82,32.661-7.208.515,2.053Z" transform="translate(-233.74 -168.107)" fill="#455a64"/>
      <path id="Trazado_250210" data-name="Trazado 250210" d="M358.71,188.67l6.763,2.278.427,1.793-6.675-2.018Z" transform="translate(-275.208 -168.107)" fill="#455a64"/>
      <path id="Trazado_250211" data-name="Trazado 250211" d="M334.154,236.656a2.2,2.2,0,0,0-2.2-1.727,2.287,2.287,0,0,0-1.8,1.2,2.811,2.811,0,0,0-.159,2.2l.031.159a2.485,2.485,0,0,0,2.785.679,2.326,2.326,0,0,0,1.344-2.511Z" transform="translate(-259.059 -193.984)" fill="#eb996e"/>
      <path id="Trazado_250212" data-name="Trazado 250212" d="M327.469,237.1c0-.251,1.7-.123,3.014-1.48s1.273-3.172,1.511-3.163c.106,0,.3.441.26,1.19a4.243,4.243,0,0,1-1.168,2.644,3.7,3.7,0,0,1-2.516,1.132C327.857,237.43,327.452,237.21,327.469,237.1Z" transform="translate(-257.732 -192.603)" fill="#263238"/>
      <path id="Trazado_250213" data-name="Trazado 250213" d="M387.253,197.12a1.079,1.079,0,0,1,.048.185c0,.123.062.3.1.538.07.467.159,1.15.22,2a27.5,27.5,0,0,1-.308,6.609,16.84,16.84,0,0,1-1.062,3.494,21.152,21.152,0,0,1-1.388,2.644c-.441.7-.775,1.269-1.04,1.71a5.566,5.566,0,0,1-.4.617,4.284,4.284,0,0,1,.322-.661c.22-.441.564-1.013.983-1.762a23.1,23.1,0,0,0,1.322-2.644,17.622,17.622,0,0,0,1.031-3.459,30.01,30.01,0,0,0,.37-6.556c-.04-.842-.1-1.524-.145-1.992A4.727,4.727,0,0,1,387.253,197.12Z" transform="translate(-289.031 -172.834)" fill="#455a64"/>
      <path id="Trazado_250214" data-name="Trazado 250214" d="M399.75,226.887a.318.318,0,0,1,0-.1c0-.084,0-.181,0-.3,0-.282-.031-.661-.048-1.146-.031-1.013-.079-2.45-.132-4.212-.093-3.573-.216-8.481-.357-13.9-.057-2.714-.115-5.287-.167-7.653-.022-1.176-.053-2.291-.172-3.326a11.993,11.993,0,0,0-.639-2.807,7,7,0,0,0-2.458-3.3,6.325,6.325,0,0,0-1.366-.692h.1a1.213,1.213,0,0,1,.286.088,4.847,4.847,0,0,1,1.031.511,6.943,6.943,0,0,1,2.56,3.318,11.786,11.786,0,0,1,.679,2.842c.128,1.044.167,2.168.194,3.344.057,2.353.119,4.939.185,7.653.115,5.419.216,10.328.286,13.9.026,1.762.048,3.2.062,4.217v1.445A.265.265,0,0,1,399.75,226.887Z" transform="translate(-295.179 -168.543)" fill="#455a64"/>
      <path id="Trazado_250215" data-name="Trazado 250215" d="M360.818,171.857a1.062,1.062,0,0,1-.251.031l-.718.035c-.626,0-1.529.035-2.644,0a45.167,45.167,0,0,1-8.662-1.163,30.875,30.875,0,0,1-4.609-1.4,8.094,8.094,0,0,1-3.216-2.251,5.191,5.191,0,0,1-1.141-2.388,3.763,3.763,0,0,1-.057-.723.922.922,0,0,1,.026-.251,9.357,9.357,0,0,0,.119.956,5.287,5.287,0,0,0,1.176,2.3,8.134,8.134,0,0,0,3.172,2.163,32.423,32.423,0,0,0,4.582,1.366,49.346,49.346,0,0,0,8.6,1.22c1.115.062,2.018.066,2.644.079h.723A1.031,1.031,0,0,1,360.818,171.857Z" transform="translate(-264.473 -154.167)" fill="#455a64"/>
      <path id="Trazado_250216" data-name="Trazado 250216" d="M358.934,165.7a7.618,7.618,0,0,1-.85,0c-.542,0-1.322.026-2.3.088s-2.128.154-3.415.251a39.063,39.063,0,0,1-4.2.11,16.746,16.746,0,0,1-4.155-.679,11.456,11.456,0,0,1-3.115-1.463,8.075,8.075,0,0,1-1.718-1.555,4.864,4.864,0,0,1-.375-.507c-.084-.119-.123-.185-.115-.189a10.477,10.477,0,0,0,2.3,2.115,11.756,11.756,0,0,0,3.084,1.4,17.263,17.263,0,0,0,4.106.652,41.262,41.262,0,0,0,4.177-.093c1.287-.084,2.445-.167,3.423-.2s1.762-.04,2.313,0a5.938,5.938,0,0,1,.626.04A.63.63,0,0,1,358.934,165.7Z" transform="translate(-264.007 -153.053)" fill="#455a64"/>
      <path id="Trazado_250217" data-name="Trazado 250217" d="M316.93,144.77a2.127,2.127,0,0,1,.542-.035,6.745,6.745,0,0,1,1.476.185A7.534,7.534,0,0,1,324.812,152a6.853,6.853,0,0,1-.093,1.485,1.985,1.985,0,0,1-.137.529,13.228,13.228,0,0,0,.066-2,7.631,7.631,0,0,0-5.728-6.926,13.139,13.139,0,0,0-1.991-.308Z" transform="translate(-251.836 -143.527)" fill="#455a64"/>
      <path id="Trazado_250218" data-name="Trazado 250218" d="M335.567,142.33a2.322,2.322,0,0,1,.242.308,9.1,9.1,0,0,1,.546.9,8.623,8.623,0,0,1,.987,3.335,7.323,7.323,0,0,1-.621,3.423,7.188,7.188,0,0,1-.5.934c-.137.207-.216.317-.229.308s.251-.489.582-1.322a7.847,7.847,0,0,0,.542-3.344,9.376,9.376,0,0,0-.9-3.282C335.827,142.819,335.536,142.352,335.567,142.33Z" transform="translate(-262.261 -142.184)" fill="#455a64"/>
      <path id="Trazado_250219" data-name="Trazado 250219" d="M377.3,217.22a2.392,2.392,0,0,0-1.555,1.736,2.2,2.2,0,0,0,.811,2.163,2.1,2.1,0,0,0,3.172-2.384,2.049,2.049,0,0,0-2.428-1.516" transform="translate(-284.716 -184.051)" fill="#ebebeb"/>
      <path id="Trazado_250220" data-name="Trazado 250220" d="M319.678,275.96l-1.727-6.763a1.683,1.683,0,0,1,.881-1.925l24.153-12.1a1.159,1.159,0,0,1,1.643.749l1.965,7.627-38.834,56.78.789-15.073Z" transform="translate(-246.707 -205.24)" fill="#7453d8"/>
      <path id="Trazado_250221" data-name="Trazado 250221" d="M253.37,382.14l14.143.441,5.133-.326.322,1.146,2.9,20.818L268,403.112H249.889s-4.327-4.9-3.525-11.1S253.37,382.14,253.37,382.14Z" transform="translate(-212.306 -276.335)" fill="#455a64"/>
      <g id="Grupo_131185" data-name="Grupo 131185" transform="translate(34.545 107.118)" opacity="0.3">
        <path id="Trazado_250222" data-name="Trazado 250222" d="M258.537,388a3.216,3.216,0,0,0-.846-1.93h0a3.218,3.218,0,0,0-3.23-.828,6.446,6.446,0,0,0-2.763,1.762,14.857,14.857,0,0,0-3.617,5.9,6.512,6.512,0,0,0-.2,4.283c.652,1.683,1.648,6.1,4.309,6.1,2.842,0,4.071-2.2,5.4-4.565.881-1.573.789-4.661.974-6.455A23.077,23.077,0,0,0,258.537,388Z" transform="translate(-247.594 -385.12)"/>
      </g>
      <path id="Trazado_250223" data-name="Trazado 250223" d="M368.038,277.35s-2.41-2.132-6.411-5.455c-5.622-4.67-13.738-7.221-13.738-7.221l-1.428-5.164s-20.043,14.645-23.933,23.757c-2.895,6.79-8.2,21-10.707,27.8a26.8,26.8,0,0,0-1.613,7.768l1,13.711,2.049,16.373h57.5l-6.111-7.878Z" transform="translate(-248.077 -207.735)" fill="#455a64"/>
      <path id="Trazado_250224" data-name="Trazado 250224" d="M315.255,296.84s-2.582,4.8-3.344,6.309c-1.1,2.163-10.473,18.756-11.063,27.286-.516,7.49,5.1,22.911,5.534,22.329l-.912-4.745.5-9.693a86.529,86.529,0,0,1,2.644-17.236c2.26-7.953,7.508-21.536,7.508-21.536Z" transform="translate(-242.821 -228.618)" fill="#455a64"/>
      <path id="Trazado_250225" data-name="Trazado 250225" d="M312.567,355.489a.793.793,0,0,0-.04-.2c-.04-.132-.057-.344-.1-.6-.079-.538-.2-1.322-.357-2.322-.3-2.031-.723-4.97-1.26-8.631-.251-1.842-.529-3.86-.828-6.041s-.6-4.521-.859-7.005c-.062-.626-.119-1.256-.137-1.9a14.628,14.628,0,0,1,.1-1.956,35.049,35.049,0,0,1,.621-4,58.826,58.826,0,0,1,2.432-8.221.08.08,0,0,1,.026-.04l6.785-6.327,13.121-12.213-.022.123-1.789-3.86a.1.1,0,0,1,.049-.137.166.166,0,0,1,.044,0h3.882l-.084.044c3.908-6.292,7.16-11.535,9.442-15.2l2.644-4.247.7-1.115c.163-.251.251-.375.251-.375s-.07.137-.225.392l-.679,1.128-2.608,4.274-9.363,15.24a.1.1,0,0,1-.084.044h-3.882l.093-.145,1.8,3.882a.106.106,0,0,1,0,.123l-13.121,12.218-6.79,6.318.026-.04a59.346,59.346,0,0,0-2.428,8.182,34.81,34.81,0,0,0-.626,3.965c-.07.652-.088,1.3-.106,1.939a14.775,14.775,0,0,0,.132,1.881c.247,2.485.555,4.847.833,7.005s.56,4.2.806,6.041c.5,3.666.912,6.609,1.19,8.64.137,1.009.247,1.789.322,2.326.031.26.057.441.075.6A.923.923,0,0,1,312.567,355.489Z" transform="translate(-247.39 -214.308)" fill="#263238"/>
      <path id="Trazado_250226" data-name="Trazado 250226" d="M304.35,366.53l.608-20.8,32.437-2.525,2.771-12.9s4.225-30.225,8.16-33.463c3.635-3,9.363-5.626,13.606-3.058,3.824,2.318,7.111,5.534,5.547,20.505-.538,5.124-3.371,32.948-4.631,39.076-1.19,5.781-3.371,10.861-8.036,12.337s-18.413,1.5-18.413,1.5Z" transform="translate(-244.799 -226.328)" fill="#455a64"/>
      <path id="Trazado_250227" data-name="Trazado 250227" d="M379.35,407.279c.04-.026.388.6,1.146,1.467a14.1,14.1,0,0,0,1.432,1.414,21.357,21.357,0,0,0,1.987,1.463,32.866,32.866,0,0,0,3.965,2.128l1.242.564a2.2,2.2,0,0,1,.441.229,2.292,2.292,0,0,1-.485-.145c-.3-.106-.74-.278-1.273-.5a25.965,25.965,0,0,1-4.018-2.084,18.025,18.025,0,0,1-2-1.494,12,12,0,0,1-1.419-1.467,5.963,5.963,0,0,1-.471-.626,4.551,4.551,0,0,1-.322-.5A2.585,2.585,0,0,1,379.35,407.279Z" transform="translate(-286.754 -290.397)" fill="#263238"/>
      <path id="Trazado_250228" data-name="Trazado 250228" d="M383.743,417.378a1.488,1.488,0,0,1-.278-.353c-.172-.229-.4-.577-.665-1.018a24.609,24.609,0,0,1-2.943-7.428c-.106-.5-.181-.912-.216-1.2a1.476,1.476,0,0,1-.035-.441c.035,0,.159.617.41,1.6a32.157,32.157,0,0,0,1.22,3.789,32.733,32.733,0,0,0,1.705,3.6C383.417,416.818,383.743,417.356,383.743,417.378Z" transform="translate(-286.895 -290.208)" fill="#263238"/>
      <path id="Trazado_250229" data-name="Trazado 250229" d="M342.683,341.476s-.022.176-.075.511-.137.837-.238,1.489l-.943,5.728c-.207,1.242-.441,2.644-.687,4.142-.123.753-.256,1.547-.392,2.366s-.269,1.679-.471,2.551c-.745,3.525-1.6,7.49-2.538,11.918a.084.084,0,0,1-.075.066L304.827,372.8l.1-.1c-.189,6.521-.392,13.526-.6,20.792l-.11-.115,11.416.242,18.946.414c1.533.053,3.045.035,4.543,0s2.987-.079,4.454-.145a81.326,81.326,0,0,0,8.57-.749,12.165,12.165,0,0,0,3.934-1.168,9.169,9.169,0,0,0,2.978-2.644,20.041,20.041,0,0,0,3.084-7.005,60.59,60.59,0,0,0,1.273-7.107c.313-2.3.59-4.507.846-6.609,1.018-8.437,1.762-15.28,2.26-20.007.256-2.357.441-4.195.59-5.441.066-.617.119-1.093.159-1.414s.062-.48.062-.48a4.346,4.346,0,0,1-.04.48c-.04.317-.075.8-.137,1.419-.123,1.251-.308,3.084-.546,5.446-.489,4.732-1.19,11.574-2.2,20.021-.251,2.11-.524,4.318-.833,6.609a60.127,60.127,0,0,1-1.264,7.129,20.417,20.417,0,0,1-3.115,7.085,9.42,9.42,0,0,1-3.04,2.692,12.371,12.371,0,0,1-4,1.194,80.877,80.877,0,0,1-8.6.771q-2.2.1-4.463.15c-1.5.035-3.018.048-4.547,0l-18.946-.41-11.381-.269a.11.11,0,0,1-.11-.115h0c.212-7.265.419-14.275.612-20.8a.106.106,0,0,1,.1-.1l32.441-2.5-.075.062c.952-4.406,1.815-8.4,2.573-11.9.207-.881.339-1.727.48-2.547s.273-1.608.4-2.366c.26-1.511.493-2.895.709-4.137.441-2.481.758-4.406.983-5.728.115-.648.2-1.146.264-1.485S342.683,341.476,342.683,341.476Z" transform="translate(-244.659 -253.467)" fill="#263238"/>
      <path id="Trazado_250230" data-name="Trazado 250230" d="M412.72,298.749c0,.057-1.035,0-2.674.234l-.639.11c-.22.04-.441.106-.683.159-.476.1-.969.273-1.489.441a18.068,18.068,0,0,0-3.2,1.52,18.282,18.282,0,0,0-2.807,2.172,15.474,15.474,0,0,0-1.062,1.128c-.154.185-.317.357-.441.538l-.383.524c-.965,1.322-1.37,2.3-1.419,2.273a4.568,4.568,0,0,1,.291-.661,5.543,5.543,0,0,1,.4-.753,10.81,10.81,0,0,1,.6-.956c.119-.172.247-.348.379-.533s.291-.361.441-.555c.3-.388.679-.758,1.062-1.159a17.128,17.128,0,0,1,2.833-2.2,17.452,17.452,0,0,1,3.252-1.524,15.037,15.037,0,0,1,1.516-.441c.238-.053.467-.115.7-.15l.648-.092a10.459,10.459,0,0,1,1.124-.106,7.109,7.109,0,0,1,.85,0A4.089,4.089,0,0,1,412.72,298.749Z" transform="translate(-297.142 -229.659)" fill="#263238"/>
      <path id="Trazado_250231" data-name="Trazado 250231" d="M303.889,374.06a1.4,1.4,0,0,1-.092-.3c-.053-.225-.128-.516-.216-.881-.176-.771-.441-1.877-.8-3.243s-.789-2.987-1.207-4.811a26.246,26.246,0,0,1-.731-6.036,25.377,25.377,0,0,1,.881-6.018c.119-.441.238-.881.352-1.322s.269-.828.392-1.225.255-.775.375-1.146.269-.7.392-1.035c.485-1.322.934-2.375,1.251-3.084l.366-.833a1.28,1.28,0,0,1,.141-.282,1.944,1.944,0,0,1-.1.3c-.079.216-.189.5-.322.85-.291.731-.723,1.789-1.185,3.124-.119.33-.242.678-.375,1.04l-.357,1.141c-.123.4-.26.8-.383,1.225s-.225.881-.339,1.322a25.778,25.778,0,0,0-.837,5.97,26.745,26.745,0,0,0,.7,5.966c.405,1.815.828,3.445,1.159,4.816s.582,2.485.731,3.26l.172.881A2.024,2.024,0,0,1,303.889,374.06Z" transform="translate(-242.836 -254.91)" fill="#263238"/>
      <g id="Grupo_131186" data-name="Grupo 131186" transform="translate(66.094 73.034)" opacity="0.3">
        <path id="Trazado_250232" data-name="Trazado 250232" d="M343.442,307.76l-3.49,4.886H336.07l1.793,3.882L319.2,333.918l20.171-16.628-1.317-3.415,2.89.612Z" transform="translate(-319.2 -307.76)"/>
      </g>
      <path id="Trazado_250233" data-name="Trazado 250233" d="M322.618,296.84a.91.91,0,0,1-.066.181c-.053.137-.128.3-.216.52-.207.467-.5,1.119-.855,1.934l-3.084,6.776v-.088c.33.656.674,1.348,1.027,2.058a.114.114,0,0,1,0,.119l-1.762,2.2.022-.04c-.181.612-.366,1.26-.555,1.917a111.528,111.528,0,0,0-2.8,11.989,22.179,22.179,0,0,0-.326,3.705c0,.216.026.41.035.582s.048.3.066.441a1.646,1.646,0,0,1,.079.348,3.226,3.226,0,0,1-.123-.335c-.026-.123-.057-.264-.088-.441a4.4,4.4,0,0,1-.057-.586,19.9,19.9,0,0,1,.256-3.736,99.234,99.234,0,0,1,2.741-12.024l.555-1.921a.182.182,0,0,1,.022-.04l1.762-2.2v.119c-.352-.714-.7-1.406-1.018-2.066a.1.1,0,0,1,0-.088l3.137-6.741c.379-.806.687-1.45.908-1.912.1-.207.185-.37.247-.5A.921.921,0,0,1,322.618,296.84Z" transform="translate(-250.144 -228.618)" fill="#263238"/>
      <g id="Grupo_131187" data-name="Grupo 131187" transform="translate(76.981 99.645)" opacity="0.3">
        <path id="Trazado_250234" data-name="Trazado 250234" d="M358.04,369.64l-13.434-1.48-.7,3.745,13.7,1.419Z" transform="translate(-343.91 -368.16)"/>
      </g>
      <path id="Trazado_250235" data-name="Trazado 250235" d="M356.62,368.22l-13.434-1.48-.7,3.745,13.7,1.419Z" transform="translate(-266.135 -267.72)" fill="#fff"/>
      <path id="Trazado_250236" data-name="Trazado 250236" d="M232.54,425.363l12.279-9.253a12.764,12.764,0,0,1,3.882-.793c1.19.159,16.258,1.1,16.258,1.1v13.835l-6.759-1.886a35.675,35.675,0,0,1-5.38,1.053,4.846,4.846,0,0,0-2.2.555S240,434.884,237.4,432.668l-.793-.317s-2.533.476-2.771-.714c0,0-1.11.159-1.269-1.322l3.882-3.882S232.937,427.183,232.54,425.363Z" transform="translate(-204.628 -294.885)" fill="#e0e0e0"/>
      <path id="Trazado_250237" data-name="Trazado 250237" d="M249.939,425.37a1.847,1.847,0,0,1-.357.3l-1,.745-3.318,2.467c-1.3.969-2.485,1.824-3.366,2.419-.441.3-.8.533-1.049.687a1.7,1.7,0,0,1-.405.225,1.79,1.79,0,0,1,.352-.3l1.009-.749,3.318-2.467c1.3-.969,2.485-1.824,3.362-2.419.441-.3.8-.533,1.053-.687a1.7,1.7,0,0,1,.405-.225Z" transform="translate(-209.048 -300.518)" fill="#263238"/>
      <path id="Trazado_250238" data-name="Trazado 250238" d="M249.35,429.519c.035.053-2.921,2.243-6.609,4.9s-6.706,4.758-6.741,4.71,2.921-2.243,6.609-4.9S249.314,429.466,249.35,429.519Z" transform="translate(-206.563 -302.838)" fill="#263238"/>
      <path id="Trazado_250239" data-name="Trazado 250239" d="M254.751,436.75a2.884,2.884,0,0,1-.441.392c-.278.238-.7.573-1.216.969a46.043,46.043,0,0,1-4.265,2.882,46.714,46.714,0,0,1-4.556,2.392c-.6.273-1.088.48-1.432.612a2.861,2.861,0,0,1-.542.189,2.312,2.312,0,0,1,.507-.269l1.4-.679c1.181-.577,2.789-1.419,4.507-2.445s3.221-2.049,4.287-2.811l1.26-.912a2.9,2.9,0,0,1,.493-.322Z" transform="translate(-210.088 -306.884)" fill="#263238"/>
      <path id="Trazado_250240" data-name="Trazado 250240" d="M223.955,373.054s-8.812-2.723-10.808-2.829-5.049-.714-6.428,0-6.019,5.512-6.019,5.512a2.062,2.062,0,0,0,2.859,1.119,23.654,23.654,0,0,0,3.313-1.762l-5.406,7.089s1.736,2.093,3.163,1.322a19.422,19.422,0,0,0,3.212-2.45l-3.723,4.3.41,1.225-.921.921s.41.661,1.837.762,5.151-2.344,5.151-2.344a48.655,48.655,0,0,1,5.234.2c.388.2,8.125.56,8.125.56l2.247,1.992s4.406-.714,5.151-2.5.361-8.111,0-8.724-4.406-2.3-4.406-2.3Z" transform="translate(-186.817 -269.479)" fill="#e0e0e0"/>
      <g id="Grupo_131188" data-name="Grupo 131188" transform="translate(20.155 103.197)" opacity="0.3">
        <path id="Trazado_250241" data-name="Trazado 250241" d="M217.876,389.909a19.738,19.738,0,0,1-2.789-12.808c.048-.383.22-.881.608-.881s.555.59.551,1.022a28.952,28.952,0,0,0,2.683,12.249h-.379Z" transform="translate(-214.936 -376.22)"/>
      </g>
      <path id="Trazado_250242" data-name="Trazado 250242" d="M204.36,382.971a2.048,2.048,0,0,1,.441-.084,7.688,7.688,0,0,0,1.159-.348,19.83,19.83,0,0,0,3.525-1.872l.335-.22.035-.026h.075c1.476.115,2.8.229,3.745.322l1.124.119a1.662,1.662,0,0,1,.405.075,1.441,1.441,0,0,1-.414,0l-1.124-.053c-.956-.048-2.278-.137-3.754-.247l.071-.022-.339.229a17.048,17.048,0,0,1-3.6,1.833,6.07,6.07,0,0,1-1.2.282A1.58,1.58,0,0,1,204.36,382.971Z" transform="translate(-188.864 -275.373)" fill="#263238"/>
      <path id="Trazado_250243" data-name="Trazado 250243" d="M218.495,390.548a1.07,1.07,0,0,1-.344.057,7.819,7.819,0,0,1-.96.04,10.7,10.7,0,0,1-3.238-.555l.137-.053a11.008,11.008,0,0,1-.7,1.115,10.424,10.424,0,0,1-3.084,2.829,9.911,9.911,0,0,1-1.128.577,1.7,1.7,0,0,1-.441.145c0-.035.6-.286,1.485-.881a11.2,11.2,0,0,0,2.956-2.82,12,12,0,0,0,.687-1.088l.048-.084.088.031a11.832,11.832,0,0,0,3.168.621C218.006,390.548,218.495,390.513,218.495,390.548Z" transform="translate(-191.314 -280.637)" fill="#263238"/>
      <path id="Trazado_250244" data-name="Trazado 250244" d="M219.257,400.559c0,.04-.617-.088-1.608-.216a7.93,7.93,0,0,0-1.736-.035,4.636,4.636,0,0,0-1.978.687,19.58,19.58,0,0,0-1.732,1.26,8.236,8.236,0,0,1-1.5.956,3.966,3.966,0,0,1-1.15.352,1.133,1.133,0,0,1-.441,0,5.429,5.429,0,0,0,1.516-.5,9.1,9.1,0,0,0,1.445-.978,18.14,18.14,0,0,1,1.762-1.291,4.749,4.749,0,0,1,2.075-.7,7.529,7.529,0,0,1,1.762.084c.5.084.881.176,1.168.247a1.711,1.711,0,0,1,.419.132Z" transform="translate(-191.521 -286.37)" fill="#263238"/>
      <path id="Trazado_250245" data-name="Trazado 250245" d="M218.648,390.668a.441.441,0,0,1-.392-.238l-2.679-5.173a17.593,17.593,0,0,1-1.577-7.34v-4.847a.441.441,0,0,1,.881,0v4.847a16.68,16.68,0,0,0,1.507,6.953l2.67,5.155a.441.441,0,0,1-.189.595.489.489,0,0,1-.22.049Z" transform="translate(-194.257 -271.015)" fill="#263238"/>
      <path id="Trazado_250246" data-name="Trazado 250246" d="M227.377,390.914a.443.443,0,0,1-.405-.621c.031-.07,3.141-7.076,3.525-8.812a57.376,57.376,0,0,0,.2-7.75.441.441,0,1,1,.881,0c0,.247.185,6.124-.211,7.962a94.457,94.457,0,0,1-3.573,8.988A.441.441,0,0,1,227.377,390.914Z" transform="translate(-201.492 -271.384)" fill="#263238"/>
      <path id="Trazado_250247" data-name="Trazado 250247" d="M223.505,420.367a13.17,13.17,0,0,1-.908-3.525c-.075-1.516,0-4.543,0-4.543h3.243v4.714a12.317,12.317,0,0,1-.947,3.375Z" transform="translate(-199.048 -293.207)" fill="#e0e0e0"/>
      <ellipse id="Elipse_5765" data-name="Elipse 5765" cx="0.696" cy="0.696" rx="0.696" ry="0.696" transform="translate(24.643 121.274)" fill="#263238"/>
      <path id="Trazado_250248" data-name="Trazado 250248" d="M225.808,420.384a1.7,1.7,0,0,1,0-.238v-2.961h.383l-.044.044v.044h-.388l.044-.044v2.917A1.694,1.694,0,0,1,225.808,420.384Z" transform="translate(-200.835 -293.223)" fill="#263238"/>
      <g id="Grupo_131189" data-name="Grupo 131189" transform="translate(27.176 110.145)" opacity="0.3">
        <path id="Trazado_250249" data-name="Trazado 250249" d="M239.876,394.087a10.839,10.839,0,0,1-.916-2.1,13.174,13.174,0,0,1-2.586,1.273,4.406,4.406,0,0,1-2.837.044.714.714,0,0,0-.5-.07.643.643,0,0,0-.3.375q-1.027,2.318-1.868,4.7l.207.075c.969-.075,1.652-.956,2.159-1.762s1.071-1.762,2-2.009c.639-.181,1.375,0,1.947-.344.3-.172.555-.476.881-.441a1.157,1.157,0,0,1,.7.493,5.358,5.358,0,0,0,2.741,1.564A4.7,4.7,0,0,1,239.876,394.087Z" transform="translate(-230.87 -391.99)"/>
      </g>
      <g id="Grupo_131190" data-name="Grupo 131190" transform="translate(27.075 116.432)" opacity="0.3">
        <path id="Trazado_250250" data-name="Trazado 250250" d="M230.7,406.41c0-.04.031-.075.044-.115l-.1-.035C230.658,406.309,230.68,406.357,230.7,406.41Z" transform="translate(-230.64 -406.26)"/>
      </g>
      <path id="Trazado_250251" data-name="Trazado 250251" d="M249.134,382.514s-2.2-4.653-4.816-5.358-5.146,2.362-5.146,2.362-3.525,2.97-4.732,4c0,0,0,1.3,1.873,1.595,2.177.353,4.613-1.322,4.613-1.322a6.657,6.657,0,0,0,3.776,4.353h3.785Z" transform="translate(-205.691 -273.488)" fill="#e0e0e0"/>
      <path id="Trazado_250252" data-name="Trazado 250252" d="M246.024,388.559a3.211,3.211,0,0,1-.538-.079,4.036,4.036,0,0,1-.639-.15l-.4-.119c-.141-.044-.282-.115-.441-.172a5.767,5.767,0,0,1-1.956-1.322,5.247,5.247,0,0,1-1.4-2.683l.15.084a21.933,21.933,0,0,1-2.26.961,11.094,11.094,0,0,1-1.265.37,2.678,2.678,0,0,1-1.383,0,3.084,3.084,0,0,1-1.71-1.573l-.035-.071.062-.062a61.011,61.011,0,0,1,5.6-4.7c.745-.538,1.357-.939,1.789-1.2.216-.137.388-.229.5-.3a.938.938,0,0,1,.181-.088,5.98,5.98,0,0,1-.639.441c-.414.282-1.013.7-1.762,1.251a70.481,70.481,0,0,0-5.525,4.745l.022-.132a2.9,2.9,0,0,0,1.573,1.454,2.547,2.547,0,0,0,1.273,0,9.464,9.464,0,0,0,1.234-.357,21.984,21.984,0,0,0,2.243-.938l.123-.062.026.145a5.124,5.124,0,0,0,1.322,2.586,5.7,5.7,0,0,0,1.877,1.322,4.25,4.25,0,0,0,.441.185l.388.132a4.2,4.2,0,0,0,.621.176A3.008,3.008,0,0,1,246.024,388.559Z" transform="translate(-205.529 -273.717)" fill="#263238"/>
    </g>
  </g>
</svg>
