<svg xmlns="http://www.w3.org/2000/svg" width="42.664" height="37.004" viewBox="0 0 42.664 37.004">
  <g id="Grupo_145488" data-name="Grupo 145488" transform="translate(-921.836 -2878.996)">
    <path id="Trazado_252147" data-name="Trazado 252147" d="M3.477,0H1.836V-14H3.477ZM16.768-7.266H7.588V-8.555h9.18Zm0,4.16H7.588V-4.395h9.18Z" transform="translate(920 2902)" fill="#707070"/>
    <path id="Trazado_252148" data-name="Trazado 252148" d="M12.246-14,7.061,0H5.254L.176-14H2L5.879-2.9a6.593,6.593,0,0,1,.283,1.24H6.2a6.083,6.083,0,0,1,.322-1.26L10.479-14Z" transform="translate(948 2893)" fill="#707070"/>
    <path id="Trazado_252150" data-name="Trazado 252150" d="M11.875,0H9.922L7.578-3.926a8.55,8.55,0,0,0-.625-.933,3.563,3.563,0,0,0-.62-.63,2.148,2.148,0,0,0-.684-.356,2.811,2.811,0,0,0-.825-.112H3.477V0H1.836V-14h4.18a5.957,5.957,0,0,1,1.694.229,3.791,3.791,0,0,1,1.348.7,3.245,3.245,0,0,1,.894,1.167,3.87,3.87,0,0,1,.322,1.636,3.939,3.939,0,0,1-.22,1.343,3.507,3.507,0,0,1-.625,1.089,3.789,3.789,0,0,1-.977.815A4.986,4.986,0,0,1,7.168-6.5v.039a2.954,2.954,0,0,1,.61.356,3.359,3.359,0,0,1,.493.474,6.274,6.274,0,0,1,.464.62q.229.347.513.806Zm-8.4-12.52v5.078H5.7a3.377,3.377,0,0,0,1.138-.186,2.634,2.634,0,0,0,.9-.532,2.414,2.414,0,0,0,.6-.85,2.844,2.844,0,0,0,.215-1.128,2.2,2.2,0,0,0-.728-1.753,3.125,3.125,0,0,0-2.1-.63Z" transform="translate(948 2916)" fill="#707070"/>
    <path id="Trazado_252149" data-name="Trazado 252149" d="M0,0H22" transform="translate(942.5 2896.5)" fill="none" stroke="#707070" stroke-width="1"/>
  </g>
</svg>
